<svg width="120" height="120" viewBox="0 0 120 120" fill="none" xmlns="http://www.w3.org/2000/svg">
<path fill-rule="evenodd" clip-rule="evenodd" d="M46.2137 0.698229C45.768 1.09485 45.2235 1.8747 45.0038 2.43121C44.6268 3.38579 44.5852 3.41691 44.2706 2.98079C44.087 2.72659 43.937 2.38573 43.937 2.22369C43.937 2.0614 43.6618 1.59727 43.3254 1.19227C41.5991 -0.88659 37.7953 1.71624 37.7953 4.97635C37.7953 6.00082 37.9011 6.32277 38.3891 6.78115C38.9726 7.32905 39.9132 7.63663 41.0048 7.63663C41.5453 7.63663 41.5573 7.68642 41.5661 9.97041C41.571 11.2541 41.6202 12.5196 41.675 12.7829C41.73 13.0462 41.798 13.6386 41.8264 14.0994C41.8611 14.6595 41.9348 14.4216 42.0491 13.3813C42.5471 8.849 42.7535 7.87599 43.2165 7.87599C43.3462 7.87599 43.6176 8.19961 43.8194 8.59504C44.1588 9.25998 44.1517 9.38134 43.7277 10.2107C43.4754 10.7038 43.0913 11.8726 42.8743 12.8083L42.4793 14.509L43.3313 16.2233C44.1009 17.7717 44.6972 20.0835 44.3268 20.0835C44.246 20.0835 43.8494 19.42 43.4454 18.6088C42.5738 16.8593 40.6734 14.7414 39.6142 14.3393C39.1984 14.1815 37.5168 13.4189 35.8769 12.645C33.193 11.3779 30.3524 10.328 28.4988 9.91823C27.9957 9.80693 27.853 9.659 27.9364 9.33538C27.998 9.09674 27.9574 8.7365 27.8461 8.5352C27.7141 8.29583 27.7649 8.067 27.9931 7.87527C28.2768 7.63663 28.6819 7.74482 30.1507 8.45166C31.1452 8.93038 31.9954 9.28488 32.04 9.23964C32.0846 9.1944 31.3264 8.73434 30.3548 8.21756C29.3832 7.70054 28.6219 7.16987 28.663 7.03822C28.9372 6.16 31.0696 7.3075 34.0157 9.91895C35.799 11.4995 38.7676 13.6726 38.9254 13.513C38.9849 13.4527 38.554 12.6436 37.9677 11.7154C37.3817 10.7869 36.5476 8.97778 36.1141 7.69503C35.4428 5.70785 35.1503 5.18292 34.1374 4.14816C32.2554 2.2256 29.8051 1.63366 27.7124 2.59637C25.933 3.41523 24.8438 5.94481 25.157 8.53184C25.3755 10.3354 25.2073 10.6543 23.7881 11.1253C22.5451 11.538 19.723 12.8966 18.7056 13.5721C18.265 13.8646 18.2204 13.9785 18.4869 14.1296C19.157 14.5097 21.0829 14.8228 24.0706 15.0375C27.3475 15.273 27.7819 15.4102 29.0551 16.612C29.5098 17.0412 30.882 18.1549 32.1047 19.0868L34.3276 20.7815L35.2937 19.7982C36.334 18.7395 38.7352 17.451 39.6685 17.4507C40.6739 17.4502 42.171 19.3987 43.7702 22.7878C45.064 25.5297 45.248 25.8066 45.4469 25.3095C46.5045 22.6664 47.3903 21.6664 50.6986 19.3809C56.3187 15.4985 57.8334 13.8086 59.425 9.64655C59.898 8.40953 60.3624 7.39727 60.4566 7.39727C60.5511 7.39727 60.8095 8.25203 61.0311 9.29685C61.9975 13.8543 64.1532 16.5158 69.0846 19.2402C72.3229 21.0294 73.2215 21.8904 74.0939 24.0394C74.5552 25.1761 74.6915 25.2863 75.0494 24.8109C75.2719 24.5153 76.5869 21.1719 76.8794 20.1582C76.9625 19.87 77.3929 19.3118 77.8361 18.9175C79.7232 17.2384 84.0024 17.8402 85.3859 19.9791L85.8562 20.7065L88.1053 18.8713C91.9351 15.7465 93.1772 15.2335 96.8504 15.2586C99.3208 15.2754 100.747 14.9987 100.95 14.4635C101.033 14.244 100.713 13.8158 100.088 13.3098C98.3691 11.9176 97.616 11.4604 96.2646 10.9894C95.5424 10.7376 94.8612 10.475 94.7504 10.4056C94.6398 10.3362 94.705 9.60419 94.8957 8.77863C95.9539 4.19555 93.3843 1.04171 89.486 2.13895C88.1561 2.51331 85.9424 4.14122 85.2014 5.28968C84.4958 6.38357 81.9305 11.9452 82.1315 11.9452C82.1969 11.9452 82.9576 11.2867 83.8221 10.4817C85.8366 8.60581 88.26 6.84745 88.6408 6.98508C88.8038 7.04397 89.2065 6.95444 89.5363 6.78617C90.0529 6.5224 90.2154 6.54274 90.7174 6.93338L91.2992 7.38673L90.7703 7.392C89.748 7.40229 87.8837 8.31211 85.646 9.8931C84.4028 10.7713 83.3858 11.5447 83.3858 11.612C83.3858 11.7683 83.8595 11.4954 84.3912 11.0325C84.6194 10.834 84.8613 10.7275 84.9288 10.796C84.9964 10.8644 84.2431 11.537 83.2545 12.2908C82.2661 13.0448 81.5121 13.7167 81.5787 13.7844C81.6454 13.8519 83.4144 12.9644 85.5094 11.8121C87.8443 10.5279 89.2087 9.64775 89.0339 9.53812C88.877 9.43998 88.2595 9.56397 87.6617 9.81387L86.5748 10.2679L87.5197 9.40887C88.0394 8.93637 88.8591 8.34442 89.3409 8.09333C90.2187 7.63591 91.791 7.45687 91.5569 7.8408C91.4884 7.95307 91.585 8.24916 91.7717 8.49905C92.3454 9.26693 92.215 10.0015 91.4764 10.1636C89.3306 10.6342 87.4512 11.385 85.1575 12.6884C82.8465 14.0013 80.2628 15.2962 79.9538 15.2962C79.8926 15.2962 79.8425 15.1347 79.8425 14.9372C79.8425 14.7397 79.7811 14.5781 79.706 14.5781C79.6309 14.5781 78.6324 15.4607 77.4872 16.5392C75.4467 18.4613 75.402 18.5271 75.2551 19.8305C75.0222 21.8943 74.7612 21.985 74.4317 20.1165C73.8409 16.7664 72.4304 14.7804 68.9764 12.4351C66.3465 10.6495 65.0228 9.36075 63.6035 7.20506C62.85 6.06019 61.8751 4.18095 61.4372 3.0289C60.7592 1.24541 60.5613 0.93448 60.1032 0.93448C59.6636 0.93448 59.4914 1.16355 59.1595 2.19113C57.8539 6.23253 55.7783 8.95528 52.088 11.4679C47.7331 14.4328 46.3273 16.5567 45.5147 21.4L45.1935 23.3149L44.9346 22.1178C44.6511 20.8066 44.7676 17.0663 45.1507 15.1765C45.2842 14.5183 45.9352 12.8552 46.5976 11.4808C48.1332 8.29368 50.1666 6.07144 52.2728 5.27891C53.0246 4.99574 53.8954 4.76428 54.2074 4.76428C54.5197 4.76428 54.827 4.67931 54.8903 4.57566C55.0845 4.25707 51.463 1.37874 49.9606 0.657777C48.1101 -0.230497 47.2472 -0.221162 46.2137 0.698229ZM77.5984 0.492377C76.9436 0.891155 76.594 1.35935 76.0174 2.61002L75.5209 3.68715L75.176 2.49034C74.6617 0.70541 74.2918 0.386579 72.8745 0.505782C72.2246 0.560356 71.1083 0.879905 70.3937 1.21597C68.8625 1.93621 66.6229 3.56771 66.6177 3.96672C66.6158 4.12063 66.9595 4.46388 67.3819 4.72957C68.4454 5.39907 69.5419 6.61647 71.7482 9.57762C73.6585 12.1417 74.1902 13.304 74.8878 16.4411C75.24 18.0247 75.4944 17.8675 76.6982 15.3226C77.5309 13.5623 77.5585 13.4189 77.5143 11.0653C77.4683 8.59025 77.7371 7.74913 78.1895 8.95432C78.3191 9.29996 78.4269 10.0334 78.4287 10.5844C78.4316 11.3192 78.4935 11.4906 78.6614 11.2271C78.7873 11.0296 78.8965 10.2217 78.9038 9.43185L78.917 7.99567L80.109 7.42886C81.498 6.76822 82.2026 5.76793 82.2038 4.4555C82.2064 1.89935 79.3394 -0.567759 77.5984 0.492377ZM112.205 5.46441C106.916 7.36758 106.244 7.99376 104.624 12.5278C103.726 15.043 102.671 16.3051 100.423 17.5539C98.6712 18.5269 98.382 18.8323 99.63 18.3914C100.032 18.2497 100.66 18.1683 101.027 18.2109L101.693 18.2883V20.7281C101.693 24.1849 102.038 24.3554 102.958 21.3533C103.73 18.835 105.101 16.3944 106.125 15.7149C106.462 15.4911 107.569 15.0822 108.585 14.8063C111.392 14.0439 112.491 13.2133 113.377 11.1828C113.89 10.0073 114.89 5.47088 114.761 4.90431C114.702 4.64627 114.132 4.77122 112.205 5.46441ZM5.19992 5.30284C5.20654 6.44963 6.13158 10.3239 6.69827 11.5782C7.02567 12.303 7.81843 13.4275 8.45976 14.0774C9.65409 15.2876 10.4119 15.6239 12.5615 15.8977C14.8302 16.1867 16.2454 17.9989 16.4759 20.9102C16.5442 21.7719 16.6753 22.4771 16.7674 22.4771C17.3428 22.4771 18.6614 19.7536 18.6614 18.565C18.6614 18.2593 18.7127 17.9572 18.7753 17.8938C18.8379 17.8304 19.6613 17.9113 20.6053 18.0738C21.5494 18.2363 22.3564 18.334 22.3989 18.2911C22.4412 18.248 21.9099 18.0458 21.2183 17.8414C19.5914 17.361 17.3246 15.994 16.3876 14.9281C15.9815 14.4661 15.3125 13.1846 14.9013 12.0802C14.4898 10.9757 13.8654 9.64033 13.5137 9.1123C12.2898 7.27615 10.1081 5.91657 7.13055 5.13481C5.30055 4.65441 5.19638 4.66351 5.19992 5.30284ZM30.1252 6.18872C30.0489 6.31391 30.5936 6.80987 31.3356 7.29075C32.9575 8.34203 35.9055 10.7278 35.9055 10.9891C35.9055 11.0918 36.0673 11.2388 36.2653 11.3159C36.5681 11.4336 36.5816 11.3714 36.3491 10.9224C35.508 9.29661 33.0106 7.06742 31.1109 6.24665C30.3149 5.90269 30.3002 5.90173 30.1252 6.18872ZM108.425 12.6845C107.916 13.1063 107.906 13.1386 108.353 12.9174C108.638 12.7762 108.937 12.5536 109.016 12.4227C109.23 12.073 109.087 12.1364 108.425 12.6845ZM58.7376 16.4693C58.535 16.983 58.2966 17.9548 58.2085 18.6291C58.0191 20.0758 57.8083 20.2855 57.2839 19.549C56.9124 19.0269 56.9041 19.0521 57.0652 20.2032C57.1573 20.8614 57.3768 21.8174 57.5532 22.3277C57.7297 22.8378 57.8714 23.538 57.8679 23.8836C57.8632 24.3812 57.7183 24.2118 57.171 23.0683C56.7909 22.2746 56.1919 21.359 55.8399 21.0337C55.1641 20.4095 55.1669 20.4349 55.9972 22.423C56.2871 23.1172 56.4704 23.74 56.4043 23.8068C56.3383 23.8735 55.7119 23.5447 55.0122 23.0755C52.5798 21.4447 51.7384 21.6367 53.7983 23.3524C55.7622 24.9882 56.9601 26.6609 58.0987 29.3571C58.6413 30.6415 59.1869 31.908 59.3117 32.1713C59.6582 32.9035 59.3629 30.1649 58.9736 29.0359C58.7965 28.5224 58.5806 27.6713 58.4936 27.1447C58.3502 26.2743 58.3672 26.2277 58.6814 26.6324C58.8716 26.8773 59.1331 27.5774 59.2625 28.1883C59.3922 28.7991 59.5984 29.5682 59.721 29.8973C60.1276 30.9883 60.318 27.9513 60.1103 23.6842C60.0045 21.5062 59.9098 18.7818 59.8998 17.63C59.8847 15.8549 59.8228 15.5353 59.4943 15.5356C59.2639 15.5356 58.9566 15.915 58.7376 16.4693ZM61.7698 19.2132C61.5276 19.8003 61.2713 21.7487 61.0573 24.6273C60.8733 27.1006 60.6097 29.6355 60.4715 30.2607C60.3333 30.8857 60.2641 31.4415 60.3177 31.4958C60.3713 31.5501 60.7595 30.9704 61.1804 30.2076C61.6013 29.4445 62.4671 28.0662 63.1046 27.1447C63.742 26.2231 64.6819 24.8229 65.1933 24.033C65.7045 23.2431 66.4065 22.2466 66.7531 21.8189C67.2404 21.2173 67.2983 21.0409 67.0087 21.0409C66.5965 21.0409 65.2382 22.3076 64.063 23.7883C63.3985 24.6251 63.3071 24.6749 63.3071 24.2003C63.3071 23.9032 63.626 23.0202 64.0157 22.2377C64.7868 20.6903 64.8253 20.5622 64.5203 20.5622C64.4081 20.5622 64.0186 20.9976 63.6546 21.5297C62.8453 22.7131 62.6086 22.4697 62.5984 20.4425C62.5885 18.4814 62.2677 18.0056 61.7698 19.2132ZM12.4491 20.2699C11.8533 21.1549 11.1406 22.5973 10.8654 23.4755L10.3649 25.072L9.15992 24.3132C6.96283 22.9293 4.18299 23.4226 2.87268 25.4292C2.31472 26.2834 2.24409 26.6224 2.24409 28.4437C2.24409 30.1389 2.34496 30.704 2.82449 31.6926C3.62197 33.337 5.22732 34.8794 7.26283 35.9575C8.63693 36.6852 11.3362 37.7963 11.73 37.7963C12.0484 37.7963 11.6589 37.2175 10.8172 36.4401C7.45677 33.3367 6.38008 32.1828 6.49701 31.8096C6.56646 31.5875 6.41197 31.2222 6.14504 30.9776C5.58685 30.4656 5.53299 30.1367 6.00709 30.1367C6.27354 30.1367 6.3 29.9778 6.13205 29.3846C5.86984 28.4576 6.03213 28.1454 6.61276 28.4604C6.96638 28.6522 7.08496 28.6043 7.20472 28.2216C7.28717 27.9585 7.42724 27.7292 7.51583 27.7122C8.23748 27.5741 9.14409 27.6176 9.38008 27.802C9.53717 27.9245 10.0453 29.2163 10.5092 30.6726C11.3766 33.3951 12.295 35.6858 13.4858 38.0955C14.2708 39.6839 14.0565 39.8565 12.5197 38.8734C12.0052 38.5443 11.515 38.275 11.4302 38.275C10.9991 38.275 14.7158 41.6536 15.7217 42.1762C16.5073 42.5843 16.7738 42.8272 16.5354 42.9184C16.3406 42.9931 14.7562 43.1516 13.0148 43.2705C10.3812 43.4505 9.66945 43.4249 8.78457 43.1195C7.7889 42.7757 7.74945 42.7305 8.17134 42.4134C8.47087 42.1881 9.07748 42.0998 9.98079 42.1496C11.5084 42.2338 11.8054 42.0026 10.4528 41.7822C9.23244 41.5832 8.67047 41.1246 7.84677 39.6554C6.79417 37.7781 6.07512 37.1933 4.8522 37.2201C2.86228 37.2637 1.41732 38.7976 1.41732 40.8659C1.41732 41.6218 1.57346 41.9868 2.14417 42.5651C2.54386 42.9701 3.0326 43.3016 3.23008 43.3016C3.43205 43.3016 3.08811 43.7617 2.44417 44.3531C1.30819 45.3965 1.29945 45.4157 1.34079 46.8066C1.38165 48.1784 2.38654 51.5252 3.30402 53.3436L3.72095 54.1701L4.55575 52.339C6.10748 48.936 8.21386 47.3112 13.3724 45.5385C16.2 44.5669 17.7267 44.4515 22.5 44.8501C24.5034 45.0174 24.8032 44.9942 24.8032 44.6717C24.8032 44.4221 24.4753 44.2452 23.7992 44.1301C21.6732 43.7677 18.9513 42.1702 18.3061 40.9063C18.0272 40.3594 18.0272 40.0303 18.3066 38.6771C18.4869 37.8037 18.853 36.5885 19.1204 35.9762C19.9923 33.9787 19.9887 33.9708 16.8243 31.036C14.601 28.9739 13.942 26.845 13.9389 21.7133C13.9377 20.1742 13.8458 18.8579 13.7346 18.788C13.6233 18.7184 13.0448 19.3853 12.4491 20.2699ZM99.9777 19.5947C97.8782 20.9938 91.2964 22.0338 87.7261 21.5307C81.8478 20.7022 77.9513 22.3012 76.0866 26.3069C75.505 27.5564 75.4793 27.7759 75.5816 30.6154C75.7935 36.4913 75.6815 41.1926 75.2882 42.9426C75.081 43.8641 74.9846 44.6895 75.0739 44.7768C75.1632 44.8639 76.4055 44.5561 77.8346 44.0922C80.0405 43.3765 80.8616 43.2322 83.2677 43.1374C85.9639 43.0314 86.2054 43.0618 88.2137 43.7622C90.6657 44.6172 91.5756 44.6727 92.785 44.0401C94.5912 43.0951 95.662 41.5679 96.9565 38.0902C97.4185 36.8487 97.8265 36.1777 98.3785 35.7512L99.1526 35.153L99.2823 30.4306C99.4122 25.703 99.4292 25.5826 100.709 20.263C100.891 19.5061 101.028 18.895 101.012 18.9053C100.997 18.9156 100.531 19.2258 99.9777 19.5947ZM20.1189 21.5795C21.077 25.0313 21.3813 28.1926 21.0454 31.2026C20.8977 32.5253 20.7137 33.8497 20.6365 34.146C20.5375 34.5264 20.5989 34.6846 20.8462 34.6846C21.6756 34.6846 22.3991 35.6595 23.0204 37.6149C24.4146 42.0028 26.0903 44.4984 27.6425 44.4984C28.0257 44.4984 29.271 44.2227 30.4098 43.8854C33.4271 42.9924 37.1929 43.0008 40.6323 43.9082C41.995 44.2679 43.4187 44.6162 43.796 44.6825C44.4763 44.802 44.4803 44.7955 44.3185 43.8727C43.8527 41.2156 43.894 39.5266 44.528 35.283C45.4963 28.8042 45.1396 26.6284 42.7098 24.1905C41.2302 22.7059 39.6073 22.1394 36.7323 22.1035C35.4331 22.0872 34.1802 21.99 33.948 21.8873C33.7049 21.7801 32.9466 21.8655 32.1607 22.0891C30.4226 22.5831 27.3862 22.587 25.732 22.0972C25.0261 21.8883 23.37 21.1343 22.0514 20.4217C20.7331 19.7091 19.6056 19.126 19.5461 19.126C19.4868 19.126 19.7445 20.23 20.1189 21.5795ZM106.229 22.547C106.072 25.0256 105.37 27.9731 104.542 29.6281C104.237 30.237 103.222 31.5968 102.286 32.65C99.9565 35.271 99.9439 35.3076 100.757 37.1318C101.689 39.2212 101.796 40.9999 101.055 42.1048C100.299 43.232 98.8299 44.0089 96.9409 44.2801C95.1893 44.5315 94.9606 44.6255 94.9606 45.0937C94.9606 45.2953 95.4548 45.5337 96.2431 45.7125C97.3103 45.9545 97.9172 45.9373 99.8558 45.6098C104.13 44.8884 105.557 45.1959 108.568 47.4883C109.491 48.1908 111.013 49.1569 111.95 49.6352C112.973 50.1575 114.104 50.9832 114.782 51.704L115.911 52.9037L116.619 52.0877C117.592 50.9643 118.317 49.3635 118.633 47.6391C118.959 45.8635 118.747 45.2742 117.435 44.3115L116.507 43.63L117.189 43.1666C117.564 42.9117 118.104 42.2571 118.39 41.7118C118.865 40.8051 118.883 40.6318 118.602 39.6806C118.431 39.1054 117.944 38.3064 117.512 37.893C115.586 36.0521 113.311 36.9834 112.408 39.9829C112.178 40.7488 112.038 40.8676 111.238 40.9762C110.385 41.0923 108.824 41.9246 107.647 42.8918C107.22 43.2423 107.297 43.2315 108.067 42.832C109.393 42.1453 110.4 42.1929 111.003 42.9708C111.271 43.3153 111.431 43.693 111.36 43.8103C111.288 43.9273 111.396 44.0877 111.599 44.1667C112.179 44.3919 112.035 44.7325 111.213 45.0827C110.39 45.4336 109.843 45.3424 109.843 44.8544C109.843 44.6756 109.666 44.5899 109.428 44.6531C108.993 44.7682 106.773 43.8802 106.77 43.5896C106.768 43.497 106.113 43.3983 105.314 43.3703C104.514 43.3423 103.762 43.2205 103.643 43.0998C103.512 42.9665 103.921 42.5881 104.686 42.1371C105.378 41.7283 106.672 40.6548 107.561 39.7514C108.57 38.7253 110.1 37.5452 111.637 36.6079C115.578 34.2039 117.252 31.9018 117.572 28.4427C117.731 26.7258 117.076 25.1 115.941 24.3992C114.321 23.3984 111.75 23.9813 110.458 25.6419L109.848 26.4266L109.84 25.7085C109.825 24.324 107.98 21.2176 106.79 20.572C106.402 20.3619 106.356 20.5256 106.229 22.547ZM68.4028 22.2976C68.2214 22.7253 67.8976 23.5813 67.6833 24.1996C67.3689 25.1063 66.7864 25.8009 64.672 27.79C63.0529 29.3133 61.659 30.8742 61.0268 31.8721C60.4637 32.7608 59.9131 33.4878 59.8028 33.4878C59.6927 33.4878 58.933 32.3297 58.1145 30.9146C56.8783 28.7771 56.1014 27.8043 53.5266 25.1699C51.8218 23.4257 50.3107 21.9984 50.169 21.9984C49.8463 21.9984 48.056 24.5617 47.5909 25.6901C47.4002 26.1525 47.2441 26.9467 47.2441 27.4549V28.3788L49.311 29.1702C54.3794 31.1102 56.6447 32.8776 58.8069 36.5789C59.5056 37.775 60.1396 38.7535 60.2159 38.7533C60.292 38.7528 60.6643 38.1513 61.0434 37.4167C62.2389 35.098 64.4674 32.9667 68.6232 30.1669C70.7721 28.7194 72.5464 27.3515 72.741 26.9922C73.4334 25.7135 72.2733 23.5459 70.175 22.1975C69.5948 21.8246 69.0328 21.5196 68.9263 21.5196C68.8198 21.5196 68.584 21.8698 68.4028 22.2976ZM94.4882 24.6658C91.3115 26.1494 90.3907 26.3538 85.9297 26.5678C79.693 26.867 79.5132 27.0214 79.7478 31.8728C79.8659 34.3205 79.8135 35.5118 79.5175 37.0969C79.0779 39.4496 79.0245 40.908 79.3779 40.908C79.5123 40.908 80.1234 40.6514 80.7361 40.3378C83.5573 38.894 86.1331 38.585 89.0228 39.3435C89.7964 39.5468 90.625 39.649 90.8643 39.5707C92.6209 38.9962 93.185 37.9454 93.5516 34.5649C94.0035 30.3978 95.2968 25.304 96.1753 24.2314C96.5513 23.7723 96.2176 23.8582 94.4882 24.6658ZM25.535 26.7799C26.035 28.3556 26.3884 30.3485 26.815 34.0014C27.3789 38.8265 27.7781 40.4882 28.4348 40.7436C28.5933 40.8053 29.3558 40.5712 30.1292 40.2237C31.4355 39.6365 31.7632 39.5932 34.7402 39.6138C37.6824 39.6341 38.0575 39.6882 39.3161 40.272C40.0701 40.6217 40.7261 40.908 40.7735 40.908C40.8213 40.908 40.7927 40.0992 40.7102 39.1106C40.6169 37.9942 40.7258 35.5889 40.9972 32.7627L41.4343 28.2125L40.9075 27.6784C40.3346 27.0982 40.572 27.1109 33.6614 27.2866C30.0045 27.3797 28.4067 26.9276 25.3552 24.937C24.8589 24.6132 24.8639 24.6653 25.535 26.7799ZM111.691 28.3482C110.205 29.3339 108.729 31.7141 107.495 35.1154C107.099 36.2081 106.459 37.7106 106.072 38.4543C105.686 39.1978 105.422 39.8591 105.485 39.9237C105.549 39.9884 106.104 39.5487 106.718 38.9462C107.332 38.344 108.973 37.027 110.364 36.02C112.562 34.4289 113.858 33.1838 113.858 32.6644C113.858 32.3688 112.878 33.0538 110.83 34.781C109.688 35.7447 108.516 36.6617 108.226 36.8187L107.7 37.1043L108.075 36.1938C108.855 34.3011 109.588 33.3494 111.06 32.3185L112.559 31.2691L111.237 32.6775C109.072 34.9835 107.959 36.9099 109.902 34.9879C110.454 34.4416 111.596 33.4748 112.441 32.8396C114.066 31.6167 114.418 30.9094 113.743 30.225C113.52 29.9986 113.425 29.6733 113.517 29.4476C113.89 28.5337 113.88 28.2821 113.464 28.1349C113.226 28.0509 112.925 27.935 112.795 27.8776C112.665 27.8201 112.169 28.0317 111.691 28.3482ZM90.3208 28.6658C89.0785 29.5778 84.4899 32.2926 84.3796 32.1809C84.3317 32.1323 84.4072 31.8749 84.5478 31.609C84.6883 31.3431 84.8032 30.8842 84.8032 30.5891C84.8032 30.1554 84.6446 30.2784 83.9764 31.2308L83.1496 32.4092V30.9139C83.1496 29.426 82.8439 28.9301 82.56 29.9572C82.4783 30.2535 81.7616 32.5684 80.9674 35.1016C80.1732 37.6345 79.5862 39.7706 79.6628 39.8483C79.9039 40.0925 80.6953 39.529 83.0584 37.4315C85.3011 35.4407 85.8357 35.0623 88.672 33.4564C89.4357 33.0241 89.9372 32.6287 89.7865 32.578C89.6357 32.527 89.25 32.6596 88.9295 32.8724C88.6089 33.0852 88.3465 33.1969 88.3465 33.1206C88.3465 33.044 89.0355 32.1531 89.8779 31.1403C92.195 28.3542 92.4142 27.1293 90.3208 28.6658ZM28.5827 28.8044C28.5827 29.4177 30.0498 31.3165 32.0398 33.2788C33.9657 35.1777 38.3891 38.7691 39.6335 39.4438C40.3096 39.8105 40.3162 39.535 39.6768 37.6544C39.0692 35.8668 38.5106 31.8058 38.6674 30.3162C38.7333 29.6908 38.7272 29.1792 38.6539 29.1792C38.4085 29.1792 37.959 30.2356 37.6883 31.4486L37.4199 32.65L36.5112 31.2737C35.3383 29.4974 34.9559 29.4083 35.4116 31.0178C35.5294 31.435 35.5694 31.8335 35.5002 31.9037C35.4309 31.974 33.8461 31.2421 31.9786 30.2774C30.1108 29.3126 28.5827 28.6498 28.5827 28.8044ZM70.2437 32.5902C68.168 35.4599 67.4728 36.5437 66.6659 38.1675C65.8124 39.885 64.2215 43.8294 64.3356 43.945C64.3798 43.9896 64.8215 43.8543 65.3173 43.6442C65.885 43.4038 66.698 43.2918 67.512 43.3418L68.8049 43.4213L69.7231 40.1899C70.7376 36.6191 72.0472 31.3965 72.0472 30.9206C72.0472 30.2875 71.6296 30.6738 70.2437 32.5902ZM7.8411 31.7878C8.40142 32.8705 11.228 36.1208 11.6095 36.1208C11.8739 36.1208 11.3657 35.0905 9.98622 32.8295C8.83961 30.9501 8.54787 30.6492 9.05858 31.8721C9.34488 32.5576 9.64181 33.1 10.6309 34.7444C11.203 35.6956 10.6011 35.0484 9.30024 33.3138C7.38071 30.7538 7.21843 30.5841 7.8411 31.7878ZM89.5276 34.1853C88.2933 34.6755 86.8635 35.2801 86.3502 35.5291C85.3961 35.9917 83.2132 37.9404 83.4175 38.1474C83.4796 38.2104 83.8965 38.1661 84.3439 38.0486C84.7913 37.9313 86.3199 37.7609 87.7408 37.6699C89.9461 37.5289 90.4559 37.4164 91.225 36.9006C91.7206 36.5684 92.126 36.2529 92.126 36.1995C92.126 36.0899 90.7377 36.2522 89.5866 36.4963C88.368 36.7551 88.6538 36.2337 90.3494 35.1049C91.2558 34.5017 91.882 33.9153 91.8848 33.6673C91.8876 33.4368 91.8631 33.2587 91.8307 33.2711C91.7983 33.2836 90.7618 33.6948 89.5276 34.1853ZM49.7079 36.1806C49.8994 39.0762 50.494 44.5202 50.6341 44.6622C50.688 44.7167 51.1372 44.4829 51.6324 44.1425C52.6056 43.4733 53.2368 43.4879 54.7401 44.2143C55.1613 44.4178 55.5666 44.5229 55.6406 44.4477C55.7147 44.3725 55.4584 43.7878 55.0713 43.1482C54.6841 42.5086 54.0966 41.2536 53.7654 40.3599C52.5432 37.0591 50.5524 33.7271 49.8026 33.7271C49.6233 33.7271 49.5947 34.4711 49.7079 36.1806ZM30.0281 35.3799C29.7969 35.5286 29.9686 35.6361 30.6187 35.75C31.123 35.8386 31.7931 36.0525 32.108 36.2261C32.6657 36.5329 32.6466 36.5514 31.3776 36.9253C30.1174 37.2963 28.8189 38.1 28.8189 38.5089C28.8189 38.6183 29.3769 38.4912 30.0591 38.2264C31.385 37.712 33.3643 37.742 35.592 38.3104C36.1642 38.4565 36.6886 38.5187 36.7576 38.4488C36.8263 38.3791 36.3706 37.9315 35.7446 37.4545C35.1184 36.9774 34.3141 36.3474 33.9569 36.0547C33.0052 35.2746 30.7859 34.8935 30.0281 35.3799ZM59.4957 41.1428C58.6703 41.9794 58.632 42.8009 59.3854 43.5183L59.952 44.0575L58.83 45.2953C58.2128 45.976 57.3725 46.91 56.9627 47.3708C56.2474 48.175 56.2065 48.1894 55.9417 47.7298C55.0958 46.2618 53.4508 45.2472 53.0315 45.9346C52.9512 46.0663 52.5933 46.174 52.2359 46.174C51.0458 46.174 50.7924 46.5936 50.4995 49.0494C50.3504 50.2984 50.211 51.3485 50.19 51.3832C50.1687 51.4179 49.7407 51.2724 49.2387 51.0598C47.8731 50.4818 45.7578 50.4945 45.1141 51.0845C44.3792 51.7585 43.937 52.7241 43.937 53.655C43.937 54.7707 44.9988 56.8167 46.0356 57.6988L46.9032 58.437L45.5213 59.8904C43.7102 61.7955 43.3729 62.481 43.3585 64.2894C43.3479 65.6066 43.4223 65.8493 44.0362 66.4992C45.1774 67.7073 46.4152 68.0455 49.1391 67.8935C50.8396 67.7985 51.4961 67.8389 51.4958 68.0383C51.4956 68.1905 51.3361 69.2306 51.1417 70.3496C50.6355 73.2612 50.6705 73.8514 51.377 74.3204C52.4381 75.025 54.9291 74.1715 56.0509 72.7193L56.6341 71.9638L57.5797 73.3708C59.2351 75.8341 59.1416 75.8164 61.1324 74.0406C62.0802 73.1954 62.9502 72.5038 63.0654 72.5038C63.1809 72.5038 63.3416 72.7154 63.4226 72.9739C63.5915 73.5137 65.5557 75.3408 66.2598 75.6134C67.0016 75.9009 68.4772 75.021 68.8762 74.0532C69.2556 73.1329 69.325 69.5731 68.9917 68.118C68.8084 67.3178 68.8311 67.2221 69.1717 67.3544C69.8851 67.6319 72.445 67.7824 73.5626 67.6125C74.3013 67.5002 74.9438 67.1974 75.5079 66.6955C76.2926 65.9973 76.3429 65.869 76.2437 64.8225C76.0602 62.8863 74.5299 60.5185 72.9047 59.6565L72.2268 59.2968L72.9047 58.8532C73.2775 58.6093 73.9198 58.1072 74.332 57.7373C75.1765 56.9795 77.0079 54.3843 77.0079 53.9458C77.0079 53.4207 76.0306 52.3905 75.0536 51.8854C74.2238 51.4565 73.7889 51.4021 71.9459 51.4984C70.7674 51.5599 69.622 51.6891 69.4004 51.7858C69.0291 51.9479 69.0087 51.7358 69.1406 49.0806C69.3009 45.8456 69.0888 45.149 67.8687 44.9068C66.8374 44.7021 65.0809 45.1801 64.0297 45.9519C63.5046 46.3372 62.9908 46.6527 62.8876 46.6527C62.7846 46.6527 62.1477 46.0857 61.4724 45.3927L60.2445 44.1327L61.067 43.4677C61.9623 42.7439 62.1097 42.0507 61.5428 41.2304C60.9673 40.3979 60.2606 40.3678 59.4957 41.1428ZM106.654 42.1194C105.744 42.6338 105.065 43.0565 105.145 43.0584C105.53 43.0685 108.425 41.5911 108.425 41.3843C108.425 41.0904 108.603 41.0169 106.654 42.1194ZM12.5102 42.4694C13.0897 42.6525 13.6002 42.7655 13.6443 42.7205C13.7653 42.5981 12.2698 42.1024 11.8349 42.1209C11.6268 42.1297 11.9308 42.2865 12.5102 42.4694ZM71.0161 45.7127C69.6704 46.7851 70.5574 49.2857 72.2835 49.2857C73.1379 49.2857 74.1732 48.3673 74.1732 47.6092C74.1732 46.9076 73.5468 45.7568 73.0051 45.4631C72.3144 45.0885 71.7028 45.1651 71.0161 45.7127ZM45.6917 45.9538C45.0831 46.635 45.0881 48.2572 45.7002 48.7105C46.3783 49.2132 47.1234 49.1184 47.9346 48.4266C48.8216 47.6705 48.848 47.1537 48.0498 46.1924C47.3204 45.3139 46.3507 45.2158 45.6917 45.9538ZM20.9055 46.5747C19.0103 46.8143 16.5236 47.4938 15.3508 48.0922C14.4354 48.5592 13.0299 49.7843 10.6264 52.2093C6.84543 56.024 4.57512 57.6966 1.77189 58.7326C0.797244 59.0928 0 59.5139 0 59.6683C0 59.8227 1.03654 60.4694 2.30315 61.1054C5.4822 62.7015 7.16173 64.0316 10.8872 67.9033C14.9287 72.1034 16.1062 72.7904 19.5232 72.9419L21.7323 73.0398L21.7287 71.6347L21.7252 70.2299L18.0071 67.1706C13.8236 63.7286 11.705 62.1857 9.08291 60.6712L7.2822 59.6314L9.16843 58.9947C12.6737 57.812 16.007 55.2834 19.5506 51.1194C21.7283 48.5607 23.4168 47.3708 24.8707 47.3708C25.4043 47.3708 25.5295 47.2844 25.419 46.9921C25.3401 46.7839 25.2756 46.5684 25.2756 46.5134C25.2756 46.3966 21.9442 46.4433 20.9055 46.5747ZM52.9134 46.7556C52.9134 47 53.1267 47.1314 53.5235 47.1314C54.2636 47.1314 54.1826 46.5694 53.4265 46.4564C53.0856 46.4057 52.9134 46.5062 52.9134 46.7556ZM66.6142 47.4905C66.6142 47.6879 66.7205 47.8495 66.8504 47.8495C66.9803 47.8495 67.0866 47.6879 67.0866 47.4905C67.0866 47.293 66.9803 47.1314 66.8504 47.1314C66.7205 47.1314 66.6142 47.293 66.6142 47.4905ZM91.9774 48.3881C91.32 49.0791 89.9641 50.6888 88.9646 51.9651C87.0695 54.3848 85.7698 55.506 82.2069 57.7948C79.5402 59.5077 79.4851 59.8071 81.655 60.7938C84.9928 62.3111 87.188 64.3847 90.2454 68.9081C92.3138 71.9679 93.5601 72.7475 95.5658 72.2358C96.4691 72.0053 96.6208 72.0318 97.085 72.5022C97.8331 73.2602 99.175 73.7612 100.392 73.737C102.379 73.6973 104.484 72.376 108.087 68.9069C111.72 65.4084 113.256 64.298 117.224 62.301C118.751 61.5329 120 60.8337 120 60.7473C120 60.6609 119.602 60.4058 119.114 60.1803C116.797 59.1077 114.88 58.0571 113.999 57.3764C113.467 56.9652 111.384 54.9349 109.37 52.8646C104.996 48.3682 104.407 48.0142 100.403 47.4814C98.9291 47.2851 97.6701 47.1783 97.6051 47.2444C97.5402 47.3102 97.7513 47.5747 98.0745 47.8323C98.3976 48.0898 99.0754 49.0169 99.5804 49.8922C101.583 53.362 106.461 57.6277 110.406 59.3588C111.131 59.6769 111.726 60.0139 111.728 60.1075C111.73 60.2013 111.28 60.4002 110.728 60.5496C107.481 61.4281 103.368 64.2411 101.251 67.0318C98.8753 70.1634 98.4862 70.5885 97.5555 71.0693C96.4743 71.6285 96.1743 71.3712 96.7519 70.3805C96.9971 69.9597 97.0965 69.4651 97.0079 69.1073C96.8563 68.4952 92.9445 64.4608 90.7087 62.6108C89.9941 62.0193 88.6705 61.1112 87.7677 60.5927C86.8646 60.074 86.0868 59.5309 86.0391 59.3856C85.9911 59.2403 86.8363 58.6728 87.917 58.1244C88.9977 57.576 90.4134 56.7428 91.063 56.2724C92.4954 55.2355 97.7953 50.0162 97.7953 49.6423C97.7953 49.1983 96.562 48.1473 95.4331 47.6295C93.7736 46.8684 93.3307 46.9656 91.9774 48.3881ZM64.7648 47.7653C64.8104 48.0061 65.0424 48.2411 65.28 48.2873C65.592 48.3483 65.6891 48.25 65.6289 47.9338C65.5833 47.693 65.3513 47.4579 65.1137 47.4117C64.8017 47.3507 64.7046 47.4491 64.7648 47.7653ZM82.9472 47.6398C81.5896 47.8684 77.4161 49.6251 76.9876 50.1481C76.7958 50.3825 76.8657 50.9339 77.2569 52.2689C77.7728 54.0299 78.0168 54.3942 78.2565 53.7608C78.4273 53.3099 80.8115 52.0755 84.5979 50.4777C88.3328 48.9018 89.2186 48.3981 88.873 48.0479C88.2524 47.4191 85.4176 47.2238 82.9472 47.6398ZM31.6535 47.9706C31.6535 48.1317 36.4923 51.7557 38.8056 53.3271L40.6427 54.5751L41.3083 54.0947C42.4207 53.2921 43.7417 51.4967 43.658 50.9007C43.595 50.4499 43.2038 50.2355 41.2436 49.5763C38.5098 48.6571 31.6535 47.5091 31.6535 47.9706ZM52.9134 48.3026C52.9134 48.5453 53.6329 48.8759 53.7976 48.7088C53.8571 48.6487 53.8356 48.4845 53.7498 48.3443C53.5613 48.0353 52.9134 48.0029 52.9134 48.3026ZM23.9948 49.0971C23.4853 49.3982 23.0277 49.7699 22.9781 49.9229C22.8657 50.2697 25.1743 53.0023 27.1939 54.9126C28.457 56.1075 30.8596 58.0143 33.189 59.6707C33.6463 59.9957 33.6361 60.0206 32.8708 60.4507C30.57 61.7428 26.4397 64.6875 25.4934 65.71C23.5361 67.8253 21.9276 70.2639 22.011 70.9896C22.105 71.8066 23.7487 73.1346 24.9482 73.3624C26.1791 73.5965 26.734 73.0695 29.1458 69.3751C32.0244 64.9656 33.6928 63.358 37.2087 61.6057C38.7782 60.8237 39.9213 60.1099 39.9213 59.9122C39.9213 59.7243 39.5228 59.4009 39.0354 59.1939C34.8472 57.4125 32.8087 55.646 30.9057 52.1489C30.2993 51.035 29.4704 49.8022 29.0636 49.4094C28.4046 48.7732 28.1383 48.6875 26.6225 48.6224C25.195 48.5609 24.7722 48.6375 23.9948 49.0971ZM59.0107 50.2381C56.2987 50.729 52.6372 53.615 51.8903 55.8509C51.3085 57.592 51.3631 60.8332 52.0077 62.8228C52.9493 65.7296 55.6332 67.937 58.6977 68.3251C60.0961 68.5019 62.2975 68.022 63.9704 67.1754C65.3287 66.488 67.3396 64.2681 68.1858 62.522C68.7687 61.3189 68.8569 60.8632 68.8484 59.0996C68.8422 57.8135 68.688 56.6248 68.4291 55.8682C67.0923 51.9599 63.0031 49.5155 59.0107 50.2381ZM60.1387 52.2179C60.0735 52.6456 59.9577 53.5892 59.8819 54.3145C59.6707 56.3337 59.4201 56.4675 58.9604 54.8068C58.7391 54.0083 58.4679 53.3549 58.3573 53.3549C58.2468 53.3549 58.0453 53.0317 57.9095 52.6368C57.399 51.153 57.4543 51.9962 57.999 54.0023C58.3101 55.1484 58.5286 56.1226 58.4844 56.1674C58.4244 56.2279 56.6946 54.1041 55.8203 52.896C55.7806 52.8412 55.6793 52.8661 55.5954 52.951C55.3946 53.1543 56.3884 54.6407 57.6177 55.9766C59.2401 57.7395 58.633 57.8077 56.6128 56.0893C55.5945 55.2231 54.7247 54.5514 54.6798 54.5967C54.6352 54.6421 54.9635 55.1072 55.4095 55.6302C55.8555 56.153 56.2205 56.6602 56.2205 56.7572C56.2205 56.9443 55.4376 56.6806 54.1351 56.0541C53.4588 55.7291 53.3107 55.7224 53.1312 56.0099C53.0154 56.1951 52.9191 56.418 52.9169 56.5051C52.9124 56.6995 54.6069 57.5157 55.8071 57.8975C56.2944 58.0523 56.6929 58.28 56.6929 58.4028C56.6929 58.5258 56.2944 58.5706 55.8071 58.5023C53.8786 58.2323 52.9134 58.1924 52.9134 58.3822C52.9134 58.8293 55.3332 59.1209 56.6206 58.8288C57.3116 58.6723 57.9557 58.6239 58.0524 58.7216C58.4466 59.1211 57.2447 59.5474 55.3165 59.692C52.6113 59.8947 52.5855 59.8993 52.637 60.1767C52.6937 60.4828 55.0219 60.456 56.6433 60.1305C57.5589 59.9467 57.8712 59.9512 57.8112 60.1477C57.7439 60.3689 55.8699 61.1023 53.5039 61.8338C53.0627 61.9702 53.0584 62.0006 53.4376 62.296C53.7843 62.566 54.055 62.5095 55.286 61.9109C56.079 61.5252 56.7784 61.2608 56.8401 61.3232C56.9017 61.3857 56.3901 61.9803 55.7032 62.6445C55.016 63.3085 54.5298 63.9289 54.6227 64.0232C54.7157 64.1173 54.9803 64.0443 55.2109 63.8612C55.5931 63.557 55.6011 63.5651 55.3009 63.9524C55.1202 64.186 55.0233 64.429 55.0857 64.4924C55.1483 64.5558 55.9342 63.7255 56.8318 62.6476C58.4913 60.6549 58.9108 60.5532 58.3774 62.273C58.2451 62.6998 58.072 63.6953 57.9931 64.4852C57.9139 65.2751 57.7972 66.1727 57.7339 66.48C57.6628 66.8255 57.7115 66.9806 57.8615 66.8867C58.0876 66.745 58.6916 64.8943 59.2923 62.5033C59.4338 61.9398 59.6395 61.5351 59.7496 61.604C59.8597 61.6729 60.0239 62.6725 60.1146 63.8253C60.2053 64.9781 60.4205 66.2445 60.5929 66.6395L60.9066 67.3576L60.9248 66.4001C60.935 65.8735 60.7885 64.4778 60.5995 63.2982C60.4106 62.1189 60.2828 61.1267 60.3156 61.0937C60.3484 61.0604 60.934 62.0794 61.6172 63.3576C62.4354 64.8888 62.8084 65.4166 62.7102 64.9041C62.5089 63.8545 62.8672 63.9222 63.6614 65.0836C64.0217 65.6102 64.4081 66.0411 64.5203 66.0411C64.9859 66.0411 64.6557 65.4699 63.5313 64.3306C62.4421 63.2269 61.3051 61.5272 61.5142 61.3153C61.5612 61.2677 62.6747 61.7672 63.9888 62.4255C67.6115 64.2403 66.9685 63.3178 63.1472 61.2179C60.6428 59.8418 61.3781 59.6089 64.8768 60.6702C67.1095 61.3476 67.3228 61.3694 67.3228 60.9206C67.3228 60.5429 66.8204 60.384 64.9606 60.1731C63.4694 60.0041 62.9556 59.6769 63.8317 59.454C64.158 59.371 64.5718 59.3241 64.7518 59.3494C65.4498 59.4481 67.158 59.3313 67.0226 59.1941C66.9439 59.1146 65.6242 59.0569 64.0895 59.0663C62.3164 59.077 61.4332 59.004 61.6665 58.8662C61.9561 58.6953 66.6605 57.424 67.0037 57.424C67.0493 57.424 67.0866 57.2538 67.0866 57.0461C67.0866 56.6042 66.6756 56.6683 63.5433 57.5997C62.439 57.9279 61.3493 58.2508 61.122 58.3168C60.8499 58.3963 60.7087 58.3051 60.7087 58.0504C60.7087 57.8374 60.8268 57.6634 60.9713 57.6634C61.3569 57.6634 65.7387 55.9804 66.072 55.7042C66.3416 55.4809 66.2861 55.2607 65.726 54.3298C65.692 54.2735 65.3731 54.5016 65.0173 54.8365C64.6613 55.1716 63.8743 55.7341 63.2681 56.0867C62.662 56.4393 62.0376 56.8843 61.8808 57.0757C61.7239 57.2672 61.5066 57.424 61.3975 57.424C61.2886 57.424 62.0067 56.3433 62.9934 55.0223C63.9801 53.7015 64.7206 52.5532 64.6391 52.4706C64.4029 52.2313 63.6456 53.047 62.4695 54.8073C60.488 57.773 60.4465 57.4223 62.2465 52.9262C62.4725 52.361 62.5885 51.8289 62.5042 51.7435C62.2368 51.4723 61.6519 52.2701 61.0885 53.6744L60.5431 55.0342L60.6569 53.2371C60.7332 52.0326 60.6862 51.44 60.5143 51.44C60.373 51.44 60.2041 51.7901 60.1387 52.2179ZM46.1811 52.8761C45.9631 53.2337 46.2664 53.5942 46.7856 53.5942C47.3081 53.5942 47.3738 53.3426 46.9606 52.924C46.6153 52.5741 46.3743 52.5592 46.1811 52.8761ZM72.5197 53.2352C72.1377 53.7017 72.5922 54.314 73.3162 54.3087C73.6885 54.3058 73.7357 54.2515 73.4984 54.0993C73.2973 53.97 73.2371 53.7038 73.337 53.3848C73.5276 52.7766 72.9777 52.6758 72.5197 53.2352ZM22.281 54.2048C22.655 55.2762 24.4455 56.525 27.2835 57.6935C29.5434 58.6242 29.9027 58.8312 29.0551 58.7149C28.4705 58.6347 27.4606 58.4253 26.811 58.2493C23.1165 57.2486 20.2124 57.3302 17.0334 58.5244C15.1429 59.2343 14.7966 59.7276 16.3583 59.4861C18.2376 59.1953 22.6772 59.0249 22.6753 59.2434C22.6741 59.3619 21.9782 59.8327 21.1287 60.2899C20.2791 60.7471 19.4032 61.3287 19.1818 61.5825C18.7956 62.0253 18.8032 62.038 19.3701 61.902C21.7344 61.3354 28.5586 60.8203 27.8717 61.2603C27.6782 61.3843 27.3501 61.4874 27.1429 61.4896C26.3811 61.497 24.0645 62.4066 23.122 63.0684C22.1608 63.7434 20.8618 65.239 21.0612 65.441C21.1181 65.4987 21.7443 65.1303 22.4525 64.6226C23.1607 64.1149 24.6437 63.376 25.748 62.9806C26.8524 62.5851 28.872 61.7323 30.2362 61.0853L32.7165 59.9088L30.981 58.8817C30.0267 58.3168 27.969 57.1645 26.4085 56.3208C24.8483 55.4773 23.2446 54.5512 22.8449 54.2628C22.1601 53.7687 22.1275 53.7654 22.281 54.2048ZM96.8513 54.6704C95.9636 55.5984 94.6696 56.2875 91.7537 57.385C90.7243 57.7725 89.2491 58.3791 88.4757 58.7326L87.0695 59.3758L88.4757 60.1539C89.2491 60.5819 91.2106 61.6624 92.8346 62.5552C94.4587 63.4478 96.1384 64.3942 96.5676 64.6583C96.9966 64.9223 97.4218 65.0613 97.5125 64.9673C97.7906 64.6788 96.0602 63.3415 94.0233 62.2711L92.0877 61.2538H93.6187C95.2767 61.2538 100.006 60.5063 101.96 59.9356C102.627 59.7408 103.42 59.3779 103.724 59.129L104.275 58.6764L102.394 58.2369C99.6484 57.5956 95.0884 57.6248 92.0095 58.3032C89.409 58.8762 88.7254 58.8609 90.8015 58.2759C94.1169 57.3419 94.6772 57.1449 95.7768 56.5264C96.891 55.8998 97.9309 54.605 97.7535 54.0653C97.7079 53.9269 97.302 54.1993 96.8513 54.6704ZM46.9292 54.2326C46.5832 54.5833 46.7823 55.2698 47.2302 55.2698C47.8332 55.2698 48.0652 54.8578 47.708 54.4215C47.396 54.0406 47.1721 53.9863 46.9292 54.2326ZM71.811 55.0304C71.811 55.162 71.9705 55.2698 72.1654 55.2698C72.3602 55.2698 72.5197 55.162 72.5197 55.0304C72.5197 54.8987 72.3602 54.791 72.1654 54.791C71.9705 54.791 71.811 54.8987 71.811 55.0304ZM65.0563 55.5462L64.6063 56.062L65.2559 55.6384C65.9258 55.2015 66.0524 55.0304 65.7059 55.0304C65.5961 55.0304 65.3039 55.2626 65.0563 55.5462ZM55.2756 57.2782C55.2756 57.3295 55.6401 57.4147 56.0858 57.4676C56.5313 57.5202 56.8441 57.4781 56.7806 57.374C56.6662 57.1866 55.2756 57.098 55.2756 57.2782ZM76.8163 58.1514C76.2005 58.7328 76.1301 59.945 76.667 60.7217C77.1262 61.3862 77.7087 61.3977 78.5114 60.7576C79.3252 60.1092 79.3432 59.0505 78.5539 58.251C77.8484 57.5358 77.49 57.5154 76.8163 58.1514ZM41.6969 58.2917C41.225 58.7702 41.3079 60.034 41.8335 60.3672C42.0409 60.4986 42.4909 60.5348 42.8339 60.4476C43.641 60.2423 43.8947 59.3155 43.367 58.4995C42.9234 57.8132 42.2516 57.7299 41.6969 58.2917ZM61.8898 61.9264C61.8898 62.055 62.0582 62.2254 62.2639 62.3056C62.4938 62.3949 62.602 62.3415 62.5443 62.1665C62.4267 61.8086 61.8898 61.6117 61.8898 61.9264ZM62.8346 62.5698C62.8346 62.9731 65.3372 64.7818 65.5696 64.5465C65.6204 64.4948 65.1588 64.0828 64.5437 63.6312C63.0555 62.5382 62.8346 62.4011 62.8346 62.5698ZM72.0472 62.8922C72.0472 63.5716 72.758 64.2707 73.0169 63.8461C73.2234 63.5076 72.7847 62.6598 72.3222 62.5035C72.171 62.4525 72.0472 62.6275 72.0472 62.8922ZM46.2402 64.2097C44.9284 65.4015 44.6683 66.1907 45.7868 65.5839C46.2484 65.3337 47.8436 63.1632 47.554 63.1795C47.4484 63.1852 46.8574 63.6489 46.2402 64.2097ZM56.7066 64.159C56.2096 64.9847 56.0584 65.6921 56.4279 65.4606C56.7283 65.2725 57.4649 63.6316 57.3163 63.4813C57.2473 63.4114 56.9728 63.7164 56.7066 64.159ZM47.5755 65.0977C47.1782 65.5003 46.436 65.9771 45.9265 66.1571L45 66.4846L45.8783 66.8611C46.3613 67.0684 46.9665 67.2379 47.2233 67.2379C47.8826 67.2379 48.8268 66.3187 49.2515 65.2631L49.6127 64.3655H48.9553C48.5372 64.3655 48.0352 64.6319 47.5755 65.0977ZM40.8661 65.2571C36.009 67.5871 32.6542 69.536 31.8855 70.4743C31.5239 70.9159 31.4882 70.9162 34.7124 70.4604C37.7308 70.0339 40.423 69.3737 41.9669 68.6817L43.0528 68.1951L42.8913 66.9384C42.6822 65.3144 42.5055 64.6013 42.317 64.6195C42.2336 64.6274 41.5807 64.9144 40.8661 65.2571ZM72.3425 65.0204C71.6095 65.2761 72.4828 66.5198 73.3951 66.5198C73.9717 66.5198 74.58 65.8694 74.2696 65.5848C73.9335 65.2768 72.6692 64.9065 72.3425 65.0204ZM77.5531 66.2828C76.9139 66.5437 76.2331 67.5565 76.3387 68.089C76.4561 68.6798 80.34 70.267 83.0558 70.834C85.4561 71.335 88.8189 71.7168 88.8189 71.4882C88.8189 71.3101 83.7754 68.1501 82.2678 67.3836C81.2249 66.8535 78.6253 66.0054 78.1984 66.0561C78.1283 66.0645 77.838 66.1665 77.5531 66.2828ZM3.44315 67.0583C2.30646 68.8205 1.23378 72.4713 1.54465 73.5195C1.63276 73.8165 2.06646 74.4424 2.50843 74.9102L3.31205 75.7606L2.60386 76.4481C1.8489 77.181 1.50638 78.3395 1.75157 79.3302C1.98969 80.2917 3.49157 81.804 4.51724 82.1154C5.7626 82.4936 6.47173 82.0877 7.36394 80.4856C8.33102 78.7491 8.49449 78.6478 9.58441 79.109C10.2198 79.3781 10.8888 79.4554 11.8023 79.3656C13.1641 79.2316 14.9974 78.7644 14.8294 78.5942C14.7761 78.5403 14.3681 78.6021 13.9228 78.7313C13.1298 78.9618 9.29882 79.0396 9.84402 78.8144C10.008 78.7464 9.76748 78.3692 9.25346 77.8885C8.53039 77.2123 8.42929 77.0055 8.64661 76.6474C8.96717 76.1192 10.1667 75.7453 10.9235 75.9377C11.7217 76.1407 13.5099 77.5017 13.3415 77.778C13.1417 78.1054 11.811 78.0661 11.811 77.7327C11.811 77.5762 11.6053 77.6449 11.3372 77.8909C11.0764 78.1298 10.9025 78.3651 10.9505 78.4139C10.9987 78.4625 11.7699 78.3984 12.6647 78.2713C13.5593 78.1439 14.9046 77.9869 15.6539 77.9218L17.0164 77.8036L16.5236 78.5047C16.2527 78.8905 15.8934 79.206 15.7254 79.206C15.5577 79.206 15.0069 79.493 14.5016 79.8439C13.3325 80.6556 9.79559 82.6808 7.75559 83.7062C2.61685 86.2894 0.891024 93.0514 4.70598 95.6564C5.90315 96.4741 7.44827 96.4035 8.71583 95.4731C9.26102 95.0728 9.76677 94.5881 9.83953 94.3959C10.1001 93.708 10.3311 94.0685 10.4861 95.4039C10.5728 96.1505 10.8378 97.2005 11.0754 97.7377C11.614 98.9555 13.2921 100.885 13.6292 100.674C13.7672 100.587 13.9547 99.4647 14.0459 98.1791C14.2623 95.1253 14.515 94.0819 15.5976 91.7682C16.308 90.2506 16.895 89.4478 18.4035 87.9315L20.3112 86.0139L19.4891 84.106C18.622 82.0929 18.4649 80.7707 18.9028 79.1725C19.2165 78.0286 21.0061 76.7858 23.3268 76.1007C24.4717 75.7628 25.0394 75.476 25.0394 75.2354C25.0394 74.6854 22.7794 74.9587 19.9606 75.8499C16.368 76.9859 14.7099 76.6245 11.5129 74.0092C10.4957 73.1769 9.25748 72.2365 8.76165 71.9191C7.21866 70.9322 5.01567 68.7011 4.48299 67.5859C4.20284 66.9997 3.93236 66.5198 3.88205 66.5198C3.83173 66.5198 3.63402 66.762 3.44315 67.0583ZM115.898 67.978C115.166 69.5877 113.413 71.1342 110.807 72.4703C109.502 73.1396 107.768 74.1116 106.954 74.6306C105.021 75.8614 103.261 76.4361 101.973 76.2573C101.425 76.1809 99.9985 75.7362 98.8039 75.2687C94.8116 73.7064 93.7361 74.419 97.3649 76.2221C100.808 77.9331 102.044 79.1452 102.046 80.8126C102.047 81.7626 101.219 84.0691 100.476 85.1857C99.6423 86.4383 99.75 86.7449 101.321 87.5935C102.091 88.0093 103.304 88.927 104.018 89.6331C105.68 91.2768 106.076 92.5378 106.291 96.8549C106.449 100.023 106.536 100.446 106.974 100.171C107.394 99.9085 109.417 97.0634 109.906 96.0495L110.382 95.0602L111.213 95.5568C112.808 96.5107 115.454 95.9472 116.657 94.3971C118.306 92.2725 117.696 88.1177 115.406 85.8744C114.332 84.8229 112.47 83.8707 111.024 83.6335C109.649 83.4078 109.34 83.2378 107.377 81.6274C105.65 80.2108 104.911 79.7072 104.537 79.6931C104.151 79.6787 106.324 81.8036 108.309 83.3821C110.08 84.7906 113.149 88.3827 112.844 88.6912C112.771 88.7649 112.389 88.3573 111.995 87.7855C110.75 85.9788 109.536 84.472 109.326 84.472C108.941 84.472 110.908 87.3031 112.401 88.8987C113.839 90.4362 113.88 90.5137 113.486 90.9549C113.261 91.2071 112.972 91.4135 112.844 91.4135C112.716 91.4135 112.479 91.5961 112.318 91.819C112.044 92.2 111.989 92.2 111.416 91.8199C111.039 91.5695 110.703 91.0274 110.535 90.3971C109.778 87.5626 109.484 86.8093 108.55 85.3064C107.992 84.4092 106.651 82.7792 105.57 81.6841L103.604 79.6933L104.26 78.9994C105.098 78.1133 107.162 76.9627 107.353 77.2755C107.435 77.4103 107.955 77.2145 108.576 76.8155C109.171 76.4335 109.975 76.0505 110.362 75.9641C111.139 75.7912 113.157 76.0273 113.137 76.2884C113.096 76.8054 111.497 77.6315 109.774 78.0264C107.761 78.4879 106.189 78.9982 105.91 79.2814C105.637 79.5581 106.108 79.4681 107.953 78.8912C108.928 78.5865 110.15 78.3443 110.669 78.3527C111.592 78.368 111.629 78.4027 112.384 79.9466C113.458 82.1451 114.811 82.6703 116.475 81.534C118.402 80.218 118.855 78.3737 117.605 76.9311C116.965 76.1922 116.912 76.0361 117.216 75.7857C118.401 74.8115 118.666 72.9735 117.969 70.5727C117.502 68.9627 116.685 66.9964 116.487 67.0047C116.405 67.0081 116.14 67.4461 115.898 67.978ZM45.8679 70.1854C45.1852 70.9219 45.1687 72.4512 45.836 73.1767C46.5113 73.9113 47.7959 73.8814 48.5539 73.113C49.2222 72.4361 49.2626 72.0826 48.7996 70.9595C48.2275 69.5721 46.7887 69.1923 45.8679 70.1854ZM72.0645 70.5016C71.5124 71.2125 71.4553 71.7369 71.837 72.5859C72.5903 74.2612 74.8819 73.6624 74.8819 71.7903C74.8819 70.0705 73.0498 69.2322 72.0645 70.5016ZM55.1589 72.0237C54.9229 72.2877 54.8398 72.5038 54.9739 72.5038C55.2711 72.5038 55.8602 71.8197 55.7015 71.6589C55.6389 71.5955 55.3946 71.7594 55.1589 72.0237ZM63.5433 72.2303C63.5433 72.5769 66.364 75.1368 66.7458 75.1368C67.5208 75.1368 67.0401 74.2158 65.8465 73.4144C64.1672 72.287 63.5433 71.9662 63.5433 72.2303ZM53.2413 72.5474C52.9899 72.9594 53.5616 73.3227 54.0831 73.0824C54.5435 72.8703 54.5398 72.8536 53.9728 72.5862C53.5923 72.4069 53.3353 72.3933 53.2413 72.5474ZM87.4016 74.9161C83.0783 75.7111 79.7776 75.8085 77.1302 75.2192C76.1509 75.0009 75.2901 74.8829 75.2176 74.9564C75.1448 75.0298 75.2159 76.1805 75.3754 77.5132C75.6227 79.5816 75.604 80.6027 75.2473 84.4859C74.7716 89.6633 74.8597 90.9776 75.8195 93.0342C77.0074 95.5796 80.1123 97.3975 83.2708 97.3975C84.1158 97.3975 84.6012 97.5498 85.1785 97.9959C86.0747 98.6887 86.2469 98.7068 87.5197 98.2422C88.7667 97.787 91.9181 97.7853 93.6364 98.2387C95.7111 98.7863 98.4269 99.9989 99.5854 100.895L100.619 101.695L100.472 100.563C100.391 99.9412 99.9607 97.978 99.5159 96.2007C98.8443 93.5165 98.6861 92.3817 98.5807 89.4986C98.4709 86.4857 98.3863 85.9172 97.9401 85.1901C97.1537 83.9085 96.8719 83.1481 96.3605 80.9253C95.55 77.4026 94.4849 75.5112 92.8304 74.656C91.7298 74.087 91.9741 74.0753 87.4016 74.9161ZM28.1818 75.1292C25.5028 76.5026 23.6752 79.1213 22.0871 83.8623C21.6224 85.2501 21.3628 86.7418 21.1297 89.3676C20.816 92.9006 20.4109 94.8057 19.2267 98.315C18.9009 99.2806 18.6671 100.385 18.707 100.768L18.7795 101.466L19.8425 100.735C24.0099 97.8676 28.2135 96.7726 32.2991 97.4895C34.4419 97.8655 38.0336 97.6587 39.6376 97.067C40.8791 96.6091 42.5263 95.4362 43.1735 94.5494C44.4933 92.7405 44.8139 90.2775 44.2847 86.0099C43.8328 82.3632 43.9136 79.3154 44.5224 77.0517C44.717 76.3277 44.8776 75.5112 44.8791 75.2371C44.8819 74.7524 44.8429 74.7476 43.4055 75.0528C41.3872 75.4813 36.635 75.4547 34.7244 75.004C33.8799 74.8048 32.3917 74.5827 31.4173 74.5104C29.7697 74.3881 29.5434 74.4314 28.1818 75.1292ZM68.7595 76.5845L67.9635 77.5881L66.6931 77.4369L65.4227 77.2856L65.5722 77.9467C66.1108 80.3257 70.8241 88.1699 71.0492 87.0611C71.0941 86.8397 70.9578 85.3856 70.7464 83.8298C70.535 82.2741 70.2083 79.8702 70.0207 78.4879C69.8329 77.1056 69.6515 75.886 69.6175 75.7776C69.5835 75.6694 69.1972 76.0325 68.7595 76.5845ZM49.7672 79.5433C48.5469 84.6216 47.6624 89.0447 47.833 89.2178C47.9865 89.3731 48.4335 88.8444 50.6107 85.9311C52.0684 83.9803 53.2158 81.9151 54.2993 79.2907C54.6721 78.3883 55.1535 77.2418 55.3696 76.7427L55.7624 75.8355L54.635 76.4435C53.2488 77.1913 52.8208 77.1977 51.5972 76.4885L50.6353 75.931L49.7672 79.5433ZM59.0962 76.8875C58.4499 77.5848 58.4409 78.48 59.0724 79.2934C60.0359 80.5347 61.6535 79.8396 61.6535 78.1844C61.6535 77.4089 60.7231 76.3336 60.052 76.3336C59.8089 76.3336 59.3787 76.5831 59.0962 76.8875ZM108.543 77.4022C107.631 77.8253 108.055 77.8316 109.134 77.4108C109.589 77.2334 109.801 77.0848 109.606 77.0807C109.411 77.0766 108.933 77.2212 108.543 77.4022ZM78.4611 78.5736C78.3281 78.7421 78.4115 79.8573 78.6784 81.4799C78.9168 82.9281 79.1169 84.9746 79.123 86.0278C79.1294 87.081 79.286 88.7487 79.4714 89.7339C79.886 91.9358 80.395 92.4818 81.8421 92.2757C87.459 91.4752 89.8365 91.98 94.1506 94.8888C95.2209 95.6102 96.1597 96.2007 96.2369 96.2007C96.3139 96.2007 96.0177 95.6892 95.5786 95.0638C93.2802 91.7919 92.7442 89.7303 92.7286 84.1026C92.7182 80.3844 92.6582 79.6936 92.2977 79.1359C91.7939 78.3563 91.6706 78.3491 89.8736 78.9927C88.62 79.442 88.1128 79.4837 85.2756 79.3712C83.1874 79.2883 81.4982 79.0815 80.3818 78.7725C79.1228 78.4238 78.6203 78.3718 78.4611 78.5736ZM29.0551 78.9073C27.8195 79.5327 27.3815 80.673 27.1453 83.8803C26.828 88.1897 25.8189 91.4259 23.8448 94.4653C23.5668 94.8933 23.4182 95.2433 23.5143 95.2433C23.6105 95.2433 24.3385 94.828 25.132 94.3205C27.1899 93.0045 28.5281 92.3446 29.8819 91.9781C31.2661 91.6035 34.3892 91.5707 35.9055 91.9149C36.4902 92.0478 37.5 92.2149 38.1496 92.2867C39.2029 92.4028 39.3928 92.3494 39.9043 91.7945C40.4478 91.2048 40.4932 90.9194 40.7752 86.3261C40.9387 83.6608 41.1465 80.9703 41.237 80.3477C41.4456 78.9118 41.301 78.8486 38.5779 79.1842C36.8093 79.402 36.0139 79.369 33.3066 78.9654C29.4895 78.3965 30.0489 78.4041 29.0551 78.9073ZM105.71 78.7246C105.628 78.8601 105.722 78.9003 105.933 78.8187C106.342 78.6595 106.417 78.4879 106.077 78.4879C105.955 78.4879 105.79 78.5944 105.71 78.7246ZM78.8976 79.3704C78.8976 80.7798 83.9967 85.9649 88.2123 88.8422C89.8923 89.9893 91.3094 90.8845 91.3613 90.8318C91.5187 90.6724 90.9411 89.72 89.3707 87.5499C88.5475 86.4122 87.874 85.4093 87.874 85.3207C87.874 85.2324 88.0602 85.179 88.2874 85.2025C89.0636 85.2827 90.5915 85.1525 90.2362 85.0369C89.2791 84.7247 87.6378 83.8886 87.6378 83.713C87.6378 83.6038 88.208 83.5145 88.9051 83.5145C89.8297 83.5145 90.3409 83.3802 90.7949 83.0183C91.6838 82.3098 91.5697 82.1198 90.3392 82.2603C89.4808 82.3584 88.5541 82.153 85.792 81.2525C78.6761 78.9326 78.8976 78.9932 78.8976 79.3704ZM38.3858 80.297C36.3876 81.1444 33.433 81.8354 31.7995 81.8373C30.8065 81.8385 30.1831 81.9812 29.6145 82.3373C29.177 82.6112 28.8189 82.9125 28.8189 83.0068C28.8189 83.1011 29.5098 83.1337 30.3543 83.0791C31.2432 83.0217 31.8898 83.0765 31.8898 83.2093C31.8898 83.3352 31.3616 83.7297 30.716 84.0859C28.9595 85.0546 28.9637 85.2798 30.7346 85.0981C31.5647 85.0132 32.3674 85.0263 32.5181 85.1273C32.7017 85.2506 32.2923 85.8871 31.278 87.0566C29.9083 88.6352 29.4395 89.4986 29.9518 89.4986C30.2294 89.4986 33.4965 87.4269 34.302 86.7399C35.0086 86.1375 35.546 85.991 35.7602 86.3421C35.8254 86.4493 35.7151 87.2646 35.5148 88.1541C35.3147 89.0433 35.2207 89.8418 35.306 89.9285C35.3915 90.0149 35.8231 89.6575 36.265 89.134L37.0689 88.1821L37.0776 89.0601C37.088 90.0716 37.2813 90.6954 37.5843 90.6954C37.7003 90.6954 37.7953 90.5003 37.7953 90.2619C37.7953 89.9017 39.9853 81.8663 40.5149 80.2831C40.6918 79.7541 40.0044 80.4497 37.7211 83.1105C36.9659 83.9906 36.1261 84.831 35.855 84.9782C35.3776 85.237 35.379 85.2214 35.8982 84.4825C36.193 84.0629 37.0276 83.054 37.7528 82.2406C39.6992 80.0576 40.0141 79.6842 39.9033 79.6905C39.8483 79.6936 39.1654 79.9665 38.3858 80.297ZM14.507 80.8679C13.5874 81.0907 13.5893 81.0893 10.7065 83.2038C8.0348 85.1635 6.85039 86.3804 6.85039 87.1662C6.85039 87.605 7.08874 87.4549 8.32677 86.2351C9.99591 84.5907 13.2076 81.9776 13.3644 82.1363C13.4839 82.2576 9.11669 86.3706 7.59614 87.5688C6.68717 88.285 6.5863 88.4595 6.71197 89.0967C6.81142 89.6003 6.72945 89.9586 6.4389 90.2923C6.0326 90.7583 6.04016 90.7653 6.79134 90.6183C7.50472 90.4785 7.55953 90.5142 7.56661 91.1203L7.57394 91.7725L8.15008 91.1092L8.72622 90.4457L8.6948 91.2897C8.67756 91.7539 8.72646 92.1976 8.80346 92.2757C9.0737 92.5495 11.125 89.4057 12.5494 86.5343C13.3408 84.9392 14.349 83.0276 14.7895 82.2863C15.8551 80.4933 15.8643 80.539 14.507 80.8679ZM59.0135 83.0858C56.978 86.1918 54.7838 88.0995 50.8103 90.2167C48.0569 91.6837 47.3589 92.4097 47.3941 93.7688C47.4387 95.4968 48.558 96.9688 50.6428 98.0417C51.9772 98.7284 52.0051 98.709 52.5855 96.6795C53.1425 94.7313 53.8812 93.5881 55.513 92.15C56.3485 91.4135 57.5511 89.9787 58.3181 88.8035C59.0563 87.6718 59.8068 86.7459 59.9858 86.7459C60.1646 86.7459 61.0616 87.8769 61.9791 89.2592C63.8962 92.1481 69.5655 98.1156 70.3928 98.1156C71.1879 98.1156 72.2835 96.1241 72.2835 94.6789C72.2835 92.6579 71.5956 91.8106 67.865 89.235C64.3032 86.7761 62.0629 84.7044 61.1641 83.0384C60.8452 82.4474 60.4176 81.9314 60.2138 81.8916C59.9858 81.8471 59.5247 82.306 59.0135 83.0858ZM81.3999 85.3557C81.5868 86.1205 81.8417 87.7153 81.9659 88.9002C82.0902 90.085 82.1948 91.0815 82.1983 91.1143C82.2019 91.1471 82.311 91.1741 82.4409 91.1741C82.5709 91.1741 82.6781 90.5549 82.6793 89.7978L82.6817 88.4214L83.2909 89.4517C84.4528 91.4163 84.8372 89.8167 83.7678 87.4666C83.2592 86.349 81.686 84.206 81.2518 84.0392C81.1462 83.9987 81.2128 84.5912 81.3999 85.3557ZM11.6745 84.6551C11.1676 85.005 8.0315 88.6235 8.0315 88.8585C8.0315 88.9909 8.8552 88.2048 9.8622 87.1112C11.9053 84.8923 12.5015 84.0842 11.6745 84.6551ZM10.1272 87.7632C9.83362 88.1428 9.84189 88.1512 10.2165 87.8537C10.4438 87.673 10.6299 87.4843 10.6299 87.4348C10.6299 87.2378 10.436 87.3644 10.1272 87.7632ZM59.7439 89.5094C59.151 92.8674 59.5323 103.142 60.2499 103.142C60.6061 103.142 61.02 100.389 61.0415 97.8763C61.0533 96.4939 60.9867 93.9088 60.8934 92.1316L60.7235 88.9002L61.419 92.3652C62.1307 95.9113 62.8491 98.1099 63.4654 98.6281C63.7673 98.8821 63.7911 98.7267 63.6475 97.4409C63.5565 96.627 63.5303 95.9614 63.5891 95.9614C63.648 95.9614 64.2045 96.7154 64.826 97.6369C65.4472 98.5584 65.9976 99.3124 66.0487 99.3124C66.4498 99.3124 65.8895 97.9938 64.4835 95.6279C63.5714 94.0931 62.4182 91.9516 61.9209 90.8689C61.4235 89.786 60.801 88.6357 60.5379 88.3125L60.0591 87.7249L59.7439 89.5094ZM58.2257 90.3952C57.1028 92.1287 54.0947 97.995 54.0945 98.4519C54.0945 98.872 55.1171 97.7355 56.3898 95.9015C57.0978 94.8814 57.695 94.0465 57.7165 94.0462C57.7382 94.0462 57.7202 95.0424 57.6768 96.2603C57.6333 97.4782 57.6383 98.8517 57.6876 99.3124L57.7779 100.15L58.0474 99.5154C58.1957 99.1662 58.4844 97.0658 58.6887 94.8478C58.8931 92.6299 59.169 90.343 59.302 89.7662C59.4352 89.1893 59.5124 88.6855 59.4742 88.6467C59.4357 88.6077 58.8739 89.3945 58.2257 90.3952ZM44.7652 94.8244C43.002 100.002 41.417 102.068 39.2126 102.06C37.8569 102.056 35.6218 101.018 34.5985 99.919L33.8303 99.0934L33.0371 100.323C31.2562 103.082 29.4243 103.847 23.9764 104.107C20.4772 104.273 18.6614 104.596 18.6614 105.05C18.6614 105.267 20.2994 106.818 21.5185 107.756C21.9857 108.115 22.9708 108.619 23.708 108.876C24.445 109.133 25.1374 109.399 25.2461 109.467C25.355 109.535 25.2501 110.159 25.0132 110.854C23.6433 114.873 25.5543 118.458 29.0679 118.46C31.4065 118.462 33.7032 116.836 35.3308 114.026C35.9589 112.941 38.2677 107.389 38.2677 106.963C38.2677 106.811 37.5404 107.801 36.6513 109.163C35.2384 111.328 32.9856 113.875 32.4314 113.933C32.3284 113.944 32.0213 113.979 31.7492 114.01C31.4771 114.042 30.913 114.314 30.4956 114.615C29.4021 115.404 29.3015 115.026 30.3468 114.055L31.2354 113.231L30.3066 113.301C29.7957 113.34 29.1442 113.498 28.8586 113.653C28.4317 113.884 28.3141 113.867 28.1962 113.556C28.1173 113.348 28.2104 112.993 28.4027 112.768C28.8031 112.298 29.1194 111.212 28.7969 111.414C28.6791 111.488 28.5827 111.697 28.5827 111.879C28.5827 112.061 28.4672 112.282 28.3259 112.371C28.1587 112.475 28.0937 112.292 28.14 111.846C28.179 111.469 28.1225 111.016 28.0146 110.838C27.6716 110.276 28.3954 109.87 30.4403 109.477C32.7957 109.025 34.3061 108.375 36.4101 106.908C38.7602 105.27 39.412 104.968 39.8298 105.319C40.6061 105.972 43.6618 102.096 44.4291 99.485L44.9289 97.7846L45.5743 99.8053C46.8442 103.781 47.4976 104.72 51.1495 107.822C54.5353 110.697 56.0102 112.594 58.0453 116.689C59.3523 119.32 59.7307 119.898 60.1094 119.844C60.4091 119.801 60.6928 119.44 60.9123 118.82C63.0713 112.729 63.8596 111.625 68.5786 108.087C71.508 105.891 72.3206 104.991 72.9905 103.204C73.5239 101.782 73.7849 99.0108 73.4924 97.8763C73.3739 97.4155 73.2659 97.2175 73.2524 97.4361C73.2392 97.6549 72.5395 98.4735 71.6976 99.2552C70.521 100.348 69.6602 100.889 67.9781 101.596C64.5839 103.021 62.5498 105.317 60.921 109.561C59.824 112.419 59.7765 112.514 59.5266 112.357C59.3972 112.276 59.2913 111.997 59.2913 111.738C59.2913 110.853 58.3167 108.292 57.3409 106.613C55.9729 104.259 54.403 102.803 51.1472 100.868C47.6915 98.8146 46.272 97.4942 45.6789 95.7818C45.2487 94.5405 44.9636 94.2418 44.7652 94.8244ZM73.9972 95.7541C74.0561 96.4604 74.2899 97.8463 74.5169 98.8337C75.0295 101.063 74.8904 104.455 74.1928 106.736C73.188 110.023 70.0873 114.032 67.5612 115.311L66.1422 116.029L67.9318 117.488C71.7498 120.6 73.4298 120.784 74.8141 118.241C75.1762 117.576 75.5317 117.031 75.6043 117.029C75.6765 117.027 75.9165 117.44 76.1372 117.947C76.6774 119.188 77.2602 119.674 78.3912 119.827C80.8261 120.159 83.0457 116.724 81.8728 114.44C81.3685 113.458 80.5268 112.793 79.5702 112.62C79.0954 112.534 78.6532 112.322 78.5875 112.148C78.5216 111.975 78.3442 110.766 78.1932 109.462C77.7288 105.454 77.5181 104.354 77.1083 103.797C76.7662 103.333 76.7376 103.326 76.8935 103.741C76.9925 104.004 77.1255 104.85 77.1891 105.621C77.3027 107 77.2963 107.017 76.7898 106.742C76.3209 106.488 76.2794 106.295 76.3205 104.564C76.3453 103.519 76.4386 102.664 76.5276 102.664C76.6169 102.664 77.4909 103.498 78.4706 104.519C80.0398 106.153 80.4328 106.759 81.7819 109.623C84.6106 115.629 86.7057 117.97 89.6121 118.374C91.5879 118.649 93.5244 117.601 94.655 115.646C95.2325 114.647 95.3183 114.217 95.4279 111.765L95.5512 109.007L97.4409 108.048C98.4803 107.521 99.9154 106.844 100.63 106.544L101.929 105.998L101.339 105.529C100.425 104.803 99.1212 104.527 95.7874 104.353C93.2379 104.22 92.5361 104.099 91.6535 103.638C90.142 102.848 86.9305 100.694 86.1491 99.946C85.3339 99.1655 85.2591 99.1645 84.5542 99.9245C83.8278 100.708 81.7002 101.945 81.0791 101.945C80.8167 101.945 80.5493 101.811 80.4853 101.646C80.2913 101.148 78.3758 98.804 78.2594 98.922C78.1996 98.9826 78.6376 99.638 79.2328 100.378C79.8279 101.119 80.315 101.828 80.315 101.955C80.315 102.252 79.6951 102.25 79.1424 101.95C78.5254 101.615 76.7761 99.0573 75.549 96.6948C74.2561 94.2059 73.8475 93.9581 73.9972 95.7541ZM16.6767 96.3802C16.607 96.6105 16.4357 97.607 16.2964 98.5944C15.8074 102.06 14.8984 103.645 13.1202 104.133C9.01205 105.263 7.48677 106.207 6.52984 108.212C5.84386 109.651 5.43756 111.856 5.43496 114.154L5.43307 115.71L8.6811 114.124C13.1128 111.96 14.3792 110.632 15.4278 107.051C15.8986 105.443 16.1917 104.897 17.194 103.762L18.0206 102.825L17.8717 100.291C17.7184 97.6759 17.3783 95.9614 17.0126 95.9614C16.8976 95.9614 16.7464 96.15 16.6767 96.3802ZM102.917 97.7932C101.169 100.403 101.277 102.772 103.26 105.33C103.632 105.81 104.245 106.971 104.622 107.91C106.119 111.636 108.407 113.408 113.94 115.121C114.575 115.318 114.605 115.296 114.465 114.73C114.383 114.4 114.159 112.999 113.968 111.618C113.594 108.918 112.97 107.334 111.821 106.17C110.843 105.179 109.976 104.797 108.105 104.535C106.076 104.25 105.343 103.887 104.481 102.743C103.877 101.941 103.809 101.642 103.701 99.3316L103.583 96.7991L102.917 97.7932ZM43.6845 103.79C43.3434 104.829 43.1072 106.286 43.0155 107.917C42.8998 109.98 42.8043 110.451 42.4904 110.512C41.9991 110.607 41.743 109.942 42.0482 109.364C42.3605 108.773 42.3598 106.417 42.0472 106.613C41.9173 106.694 41.8115 107.212 41.8122 107.764C41.8129 108.316 41.6572 109.252 41.4664 109.844C41.2755 110.437 41.0662 111.191 41.0013 111.52C40.9207 111.929 40.5406 112.301 39.8036 112.694C39.2098 113.011 38.4087 113.634 38.0235 114.079C36.5039 115.833 37.5744 118.65 40.1792 119.753C41.6721 120.384 42.8608 119.779 43.838 117.888L44.4924 116.621L45.0621 117.78C46.1419 119.975 47.2897 120.366 49.4369 119.267C50.8127 118.564 54.0638 116.285 54.0824 116.011C54.0891 115.914 53.3256 115.442 52.3857 114.962C49.5619 113.521 46.4771 110.022 45.3239 106.95C45.0565 106.238 44.7791 104.875 44.7076 103.92C44.636 102.966 44.4952 102.185 44.3946 102.185C44.2939 102.185 43.9743 102.907 43.6845 103.79ZM80.0787 105.49C80.0787 106.094 83.1723 110.474 84.4427 111.67C85.6767 112.83 87.4049 113.767 87.7212 113.446C87.853 113.313 88.0715 113.361 88.2772 113.57C88.6483 113.946 89.5276 114.04 89.5276 113.703C89.5276 113.588 89.2264 113.367 88.8583 113.212C88.4903 113.058 87.6135 112.367 86.9095 111.677C86.2058 110.987 85.2579 110.167 84.8032 109.855L83.9764 109.288L84.9102 110.284C85.4476 110.858 85.702 111.281 85.5094 111.281C85.0996 111.281 82.9661 109.011 82.3339 107.902C81.882 107.109 81.9035 107.118 83.3969 108.321C85.2921 109.848 91.3335 112.897 91.7093 112.517C92.0546 112.167 91.2843 111.533 89.1291 110.393C88.1955 109.899 87.4602 109.466 87.4949 109.431C87.5854 109.339 90.4613 110.503 91.2614 110.954C91.7766 111.245 91.9961 111.267 92.2063 111.051C92.6388 110.604 91.775 110.051 89.3948 109.249C88.2335 108.857 85.7582 107.754 83.8942 106.797C82.0302 105.84 80.409 105.057 80.2918 105.057C80.1747 105.057 80.0787 105.252 80.0787 105.49ZM76.5439 107.682C75.8036 108.432 75.8903 111.281 76.6535 111.281C77.057 111.281 77.1666 110.94 77.3634 109.078C77.5498 107.315 77.3095 106.906 76.5439 107.682ZM33.8539 110.802C32.9705 111.855 32.1709 112.717 32.0771 112.717C31.9831 112.717 31.7882 112.94 31.6439 113.214C31.4112 113.655 31.4301 113.684 31.8128 113.472C32.6204 113.025 36.025 108.887 35.585 108.887C35.5162 108.887 34.7374 109.749 33.8539 110.802ZM32.8984 110.387C32.4964 110.944 31.8725 111.777 31.512 112.238L30.8563 113.076L31.5128 112.477C32.2989 111.76 33.8787 109.626 33.7325 109.478C33.6758 109.42 33.3002 109.829 32.8984 110.387ZM30.8157 111.295C30.3021 111.829 30.0413 112.197 30.2362 112.112C30.5688 111.967 32.0452 110.323 31.8428 110.323C31.7915 110.323 31.3292 110.76 30.8157 111.295ZM86.8285 111.3C87.0787 111.581 87.6678 112.009 88.1376 112.252C88.6077 112.495 89.3128 112.967 89.705 113.302C90.275 113.788 90.4689 113.847 90.6728 113.598C91.0306 113.161 90.3591 112.631 88.166 111.619C86.6554 110.921 86.4451 110.871 86.8285 111.3Z" fill="#FFD700"/>
</svg>
