<svg width="232" height="100" viewBox="0 0 232 100" fill="none" xmlns="http://www.w3.org/2000/svg">
<path d="M136.406 33.1367L136.211 33.3516C135.404 33.5469 134.935 33.8203 134.805 34.1719C134.674 34.5104 134.609 35.8255 134.609 38.1172C134.609 39.224 134.661 40.3177 134.766 41.3984C130.417 43.0391 126.471 43.8594 122.93 43.8594C118.268 43.8594 114.492 42.5573 111.602 39.9531C108.724 37.3359 107.285 33.7747 107.285 29.2695C107.285 23.3971 109.831 19.2109 114.922 16.7109C117.253 15.5651 120.215 14.9922 123.809 14.9922C125.892 14.9922 128.001 15.2201 130.137 15.6758C131.895 16.0534 133.281 16.4831 134.297 16.9648L134.473 17.3164C134.134 18.4622 133.854 20.4544 133.633 23.293L133.418 23.4883H132.246L132.051 23.293C132.051 23.0456 132.025 22.5378 131.973 21.7695C131.921 20.9883 131.855 20.4414 131.777 20.1289C131.204 19.3477 130.228 18.6836 128.848 18.1367C127.363 17.5638 125.762 17.2773 124.043 17.2773C119.434 17.2773 116.25 19.1393 114.492 22.8633C113.685 24.582 113.281 26.5742 113.281 28.8398C113.281 32.4596 114.245 35.4609 116.172 37.8438C118.177 40.3177 120.788 41.5547 124.004 41.5547C125.71 41.5547 127.357 41.1901 128.945 40.4609C129.036 39.5495 129.082 38.2995 129.082 36.7109C129.082 35.4219 129.036 34.6406 128.945 34.3672C128.867 34.1589 128.62 34.0091 128.203 33.918C127.852 33.8398 126.751 33.7422 124.902 33.625L124.688 33.4297V32.1992L124.902 32.0039C126.79 32.056 128.77 32.0755 130.84 32.0625C132.038 32.0495 133.828 32.0299 136.211 32.0039L136.406 32.1992V33.1367ZM153.848 24.1328L153.711 27.6094C153.698 28.1823 153.672 28.8333 153.633 29.5625L152.812 29.8164C152.201 28.931 151.354 28.4883 150.273 28.4883C149.297 28.4883 148.49 28.8789 147.852 29.6602C147.461 30.1419 147.266 30.8516 147.266 31.7891V36.3594C147.266 37.3099 147.311 38.6315 147.402 40.3242C147.428 40.806 147.565 41.1185 147.812 41.2617C148.06 41.4049 148.965 41.5026 150.527 41.5547L150.723 41.7305V42.9219L150.527 43.1172C148.613 43.0391 146.712 43 144.824 43C142.493 43 140.716 43.0456 139.492 43.1367L139.297 42.9414V41.75L139.492 41.5547C140.742 41.5156 141.517 41.418 141.816 41.2617C142.077 41.1445 142.22 40.832 142.246 40.3242C142.337 38.6315 142.383 36.8151 142.383 34.875V32.082C142.383 29.4779 142.285 27.9805 142.09 27.5898C141.96 27.3294 141.68 27.1667 141.25 27.1016C141.094 27.0755 140.527 27.043 139.551 27.0039L139.355 26.8086V25.7148L139.551 25.5C141.895 25.2786 144.362 24.7383 146.953 23.8789L147.383 24.1328L147.344 27.9609C148.151 27.0234 149.128 25.9297 150.273 24.6797C150.807 24.1589 151.536 23.8984 152.461 23.8984C153.008 23.8984 153.47 23.9766 153.848 24.1328ZM172.988 42.8828L172.773 43.0977C171.68 43.0326 170.423 43 169.004 43C167.897 43 166.836 43.0326 165.82 43.0977L165.645 42.8828L165.82 40.2656L162.031 43.1562C161.732 43.3776 161.302 43.5143 160.742 43.5664C160.521 43.5924 160.26 43.6055 159.961 43.6055C158.516 43.6055 157.402 43.1693 156.621 42.2969C155.853 41.4245 155.469 40.2201 155.469 38.6836C155.469 36.6523 156.113 35.2135 157.402 34.3672C158.796 33.4427 161.602 32.6094 165.82 31.8672C165.82 29.7969 165.273 28.4102 164.18 27.707C163.516 27.2773 162.721 27.0625 161.797 27.0625C160.781 27.0625 159.98 27.2708 159.395 27.6875L158.652 29.5039L158.398 29.6406L157.402 29.4062L157.266 29.1328L157.363 26.8281C159.512 25.2396 161.126 24.3411 162.207 24.1328C162.663 24.0417 163.255 23.9961 163.984 23.9961C166.549 23.9961 168.379 24.6667 169.473 26.0078C170.267 26.9844 170.664 28.4818 170.664 30.5C170.664 30.9948 170.645 31.7891 170.605 32.8828C170.54 34.7057 170.508 35.9232 170.508 36.5352C170.508 38.5013 170.54 39.7578 170.605 40.3047C170.671 40.8385 170.82 41.1771 171.055 41.3203C171.302 41.4635 171.882 41.5482 172.793 41.5742L172.988 41.7891V42.8828ZM165.82 38.332V33.5273C163.672 33.9961 162.22 34.5039 161.465 35.0508C160.723 35.5846 160.352 36.4049 160.352 37.5117C160.352 39.2826 161.126 40.168 162.676 40.168C163.991 40.168 165.039 39.556 165.82 38.332ZM197.5 42.9219L197.305 43.1367C195.872 43.0456 194.661 43 193.672 43C192.76 43 191.432 43.0456 189.688 43.1367L189.492 42.9414C189.727 40.0378 189.844 37.7982 189.844 36.2227V32.3945C189.844 29.2174 188.698 27.6289 186.406 27.6289C185.208 27.6289 184.271 28.0391 183.594 28.8594C183.021 29.5495 182.734 30.2461 182.734 30.9492V34.6016C182.734 37.974 182.819 40.0443 182.988 40.8125C183.092 41.2682 183.848 41.5091 185.254 41.5352L185.449 41.7305V42.9219L185.254 43.1172C184.147 43.0391 182.493 43 180.293 43C177.962 43 176.185 43.0456 174.961 43.1367L174.766 42.9414V41.75L174.961 41.5547C176.211 41.5156 176.986 41.418 177.285 41.2617C177.546 41.1445 177.689 40.832 177.715 40.3242C177.806 38.6315 177.852 36.8151 177.852 34.875V32.082C177.852 29.4779 177.754 27.9805 177.559 27.5898C177.428 27.3294 177.148 27.1667 176.719 27.1016C176.562 27.0755 175.996 27.043 175.02 27.0039L174.824 26.8086V25.7148L175.02 25.5C177.363 25.2786 179.831 24.7383 182.422 23.8789L182.852 24.1328L182.812 27.4141L186.172 24.6016C187.031 24.25 187.975 24.0742 189.004 24.0742C191.074 24.0742 192.624 24.6992 193.652 25.9492C194.486 26.9648 194.902 28.4557 194.902 30.4219C194.902 30.6432 194.876 31.5482 194.824 33.1367C194.772 34.7253 194.746 35.8581 194.746 36.5352C194.746 38.5013 194.779 39.7578 194.844 40.3047C194.909 40.8385 195.059 41.1771 195.293 41.3203C195.527 41.4635 196.204 41.5482 197.324 41.5742L197.5 41.7695V42.9219ZM221.797 42.9414L221.602 43.1367C220.326 43.0456 219.173 43 218.145 43C217.168 43 215.846 43.0456 214.18 43.1367L214.004 43C214.056 42.362 214.082 41.2943 214.082 39.7969C213.613 40.1875 212.943 40.7865 212.07 41.5938C210.99 42.5964 210.286 43.1953 209.961 43.3906C209.544 43.5859 208.867 43.6836 207.93 43.6836C205.703 43.6836 203.906 42.8438 202.539 41.1641C201.172 39.4844 200.488 37.3099 200.488 34.6406C200.488 32.0495 201.016 30.0312 202.07 28.5859C202.344 28.2083 203.151 27.5378 204.492 26.5742C206.055 25.4544 207.194 24.7448 207.91 24.4453C208.535 24.1849 209.329 24.0547 210.293 24.0547C211.647 24.0547 212.91 24.3411 214.082 24.9141V23.8203C214.082 20.3958 213.997 18.3776 213.828 17.7656C213.737 17.4271 213.47 17.2188 213.027 17.1406C212.819 17.1016 212.22 17.0625 211.23 17.0234L211.035 16.8086V15.7344L211.23 15.5195C213.73 15.2591 216.25 14.7188 218.789 13.8984L219.219 14.1328C219.219 14.1849 219.193 14.8294 219.141 16.0664C219.023 18.8659 218.965 23.0716 218.965 28.6836V34.9922C218.965 38.651 219.049 40.6628 219.219 41.0273C219.323 41.2487 219.466 41.3854 219.648 41.4375C219.935 41.5286 220.586 41.6133 221.602 41.6914L221.797 41.8867V42.9414ZM214.082 32.7461V29.0742C213.145 27.9544 212.246 27.2383 211.387 26.9258C210.801 26.7174 210.176 26.6133 209.512 26.6133C207.715 26.6133 206.556 27.5378 206.035 29.3867C205.749 30.4154 205.605 31.5612 205.605 32.8242C205.605 35.5195 206.237 37.5182 207.5 38.8203C208.164 39.5104 209.056 39.8555 210.176 39.8555C211.1 39.8555 211.96 39.5625 212.754 38.9766C213.47 38.4557 213.893 37.8958 214.023 37.2969C214.062 37.1146 214.082 35.5977 214.082 32.7461Z" fill="#8B4513"/>
<path d="M127.754 69.4766C127.467 71.3776 127.324 73.526 127.324 75.9219L127.129 76.1172L112.93 76C110.56 76 108.887 76.0391 107.91 76.1172L107.715 75.9219V75.375L107.812 75.1406C108.776 74.5286 109.297 74.1445 109.375 73.9883C109.492 73.7539 109.564 72.888 109.59 71.3906L109.648 67.0156V57.1133C109.648 54.0143 109.564 51.9961 109.395 51.0586C109.329 50.681 109.108 50.4401 108.73 50.3359C108.535 50.2839 107.773 50.2188 106.445 50.1406L106.25 49.9453V48.6172L106.445 48.4414C107.786 48.5195 109.753 48.5586 112.344 48.5586C115.026 48.5586 117.064 48.5195 118.457 48.4414L118.652 48.6172V49.9648L118.457 50.1406C117.129 50.2188 116.367 50.2839 116.172 50.3359C115.794 50.4401 115.573 50.681 115.508 51.0586C115.339 51.9961 115.254 54.0143 115.254 57.1133V68.793C115.254 70.4987 115.286 72.1523 115.352 73.7539H118.008C121.81 73.7539 124.141 73.6042 125 73.3047C125.143 73.2526 125.247 73.181 125.312 73.0898C125.443 72.9076 125.566 72.5169 125.684 71.918L126.152 69.4961L126.348 69.2812H127.539L127.754 69.4766ZM147.852 65.043C147.852 65.2643 147.845 65.5964 147.832 66.0391L147.617 66.3125C145.898 66.7812 143.62 67.0156 140.781 67.0156C140.273 67.0156 139.505 67.0286 138.477 67.0547C137.448 67.0677 136.673 67.0742 136.152 67.0742C136.23 68.9883 136.823 70.5703 137.93 71.8203C139.089 73.1615 140.599 73.832 142.461 73.832C143.711 73.832 145.195 73.4023 146.914 72.543L147.383 73.1094L146.523 75.043C144.622 76.2539 142.559 76.8594 140.332 76.8594C137.402 76.8594 135.124 76.0326 133.496 74.3789C131.882 72.7253 131.074 70.3685 131.074 67.3086C131.074 63.6758 131.94 61.1888 133.672 59.8477C136.068 57.9987 138.34 57.0742 140.488 57.0742C142.819 57.0742 144.622 57.7448 145.898 59.0859C147.201 60.4661 147.852 62.4518 147.852 65.043ZM142.754 64.5352C142.754 61.0195 141.66 59.2617 139.473 59.2617C137.168 59.2617 136.016 61.0065 136.016 64.4961V64.9258C136.771 65.043 138.112 65.1016 140.039 65.1016C141.042 65.1016 141.94 65.043 142.734 64.9258C142.747 64.7435 142.754 64.6133 142.754 64.5352ZM171.074 77.3477C171.074 80.1992 170.007 82.4714 167.871 84.1641C165.749 85.8568 162.969 86.7031 159.531 86.7031C156.836 86.7031 154.701 86.1953 153.125 85.1797C151.562 84.1771 150.781 82.8229 150.781 81.1172C150.781 79.9714 151.035 79.1055 151.543 78.5195C151.595 78.4544 152.285 78.0247 153.613 77.2305C154.251 76.8529 154.72 76.5859 155.02 76.4297C153.223 76.1172 152.324 75.2513 152.324 73.832C152.324 73.0768 152.585 72.3086 153.105 71.5273C153.145 71.4753 153.496 71.2148 154.16 70.7461C154.473 70.5247 155.026 70.1276 155.82 69.5547C153.008 68.5391 151.602 66.6576 151.602 63.9102C151.602 61.7878 152.396 60.082 153.984 58.793C155.573 57.4909 157.689 56.8398 160.332 56.8398C162.884 56.8398 164.883 57.4062 166.328 58.5391C167.148 58.5781 167.676 58.5911 167.91 58.5781C168.548 58.5521 169.512 58.5195 170.801 58.4805L171.035 58.6953L170.82 60.707L170.605 60.9023H167.715C167.884 61.5273 167.969 62.1654 167.969 62.8164C167.969 65.9154 166.465 68.0312 163.457 69.1641C162.103 69.6719 160.768 69.9258 159.453 69.9258C159.01 69.9258 158.438 69.8932 157.734 69.8281C156.914 70.2708 156.504 70.8503 156.504 71.5664C156.504 72.2305 156.979 72.6081 157.93 72.6992C158.477 72.7513 159.388 72.7773 160.664 72.7773C161.068 72.7773 161.771 72.7578 162.773 72.7188C163.776 72.6797 164.518 72.6602 165 72.6602C167.943 72.6602 169.772 73.3112 170.488 74.6133C170.879 75.3164 171.074 76.2279 171.074 77.3477ZM163.047 63.6953C163.047 60.4141 161.947 58.7734 159.746 58.7734C157.585 58.7734 156.504 60.1927 156.504 63.0312C156.504 66.3906 157.63 68.0703 159.883 68.0703C161.992 68.0703 163.047 66.612 163.047 63.6953ZM166.602 79.5742C166.602 78.1549 166.107 77.263 165.117 76.8984C164.701 76.7422 163.867 76.6576 162.617 76.6445L158.906 76.6055C158.49 76.6055 157.917 76.6185 157.188 76.6445C155.404 77.7513 154.512 79.0208 154.512 80.4531C154.512 81.7682 155.039 82.7969 156.094 83.5391C157.148 84.2943 158.561 84.6719 160.332 84.6719C162.233 84.6719 163.75 84.2096 164.883 83.2852C166.029 82.3737 166.602 81.1367 166.602 79.5742ZM190.566 75.8828L190.352 76.0977C189.258 76.0326 188.001 76 186.582 76C185.475 76 184.414 76.0326 183.398 76.0977L183.223 75.8828L183.398 73.2656L179.609 76.1562C179.31 76.3776 178.88 76.5143 178.32 76.5664C178.099 76.5924 177.839 76.6055 177.539 76.6055C176.094 76.6055 174.98 76.1693 174.199 75.2969C173.431 74.4245 173.047 73.2201 173.047 71.6836C173.047 69.6523 173.691 68.2135 174.98 67.3672C176.374 66.4427 179.18 65.6094 183.398 64.8672C183.398 62.7969 182.852 61.4102 181.758 60.707C181.094 60.2773 180.299 60.0625 179.375 60.0625C178.359 60.0625 177.559 60.2708 176.973 60.6875L176.23 62.5039L175.977 62.6406L174.98 62.4062L174.844 62.1328L174.941 59.8281C177.09 58.2396 178.704 57.3411 179.785 57.1328C180.241 57.0417 180.833 56.9961 181.562 56.9961C184.128 56.9961 185.957 57.6667 187.051 59.0078C187.845 59.9844 188.242 61.4818 188.242 63.5C188.242 63.9948 188.223 64.7891 188.184 65.8828C188.118 67.7057 188.086 68.9232 188.086 69.5352C188.086 71.5013 188.118 72.7578 188.184 73.3047C188.249 73.8385 188.398 74.1771 188.633 74.3203C188.88 74.4635 189.46 74.5482 190.371 74.5742L190.566 74.7891V75.8828ZM183.398 71.332V66.5273C181.25 66.9961 179.798 67.5039 179.043 68.0508C178.301 68.5846 177.93 69.4049 177.93 70.5117C177.93 72.2826 178.704 73.168 180.254 73.168C181.569 73.168 182.617 72.556 183.398 71.332ZM208.301 73.5391L207.441 75.4727C205.671 76.3971 203.926 76.8594 202.207 76.8594C199.303 76.8594 197.083 76.026 195.547 74.3594C194.01 72.6927 193.242 70.4076 193.242 67.5039C193.242 64.8216 193.835 62.7839 195.02 61.3906C195.345 61 195.964 60.4857 196.875 59.8477C198.75 58.5195 200 57.7253 200.625 57.4648C201.263 57.2044 202.233 57.0742 203.535 57.0742C205.306 57.0742 206.771 57.3411 207.93 57.875L208.125 58.2266C208.112 58.3958 208.021 59.0013 207.852 60.043L207.637 61.3711C207.598 61.5924 207.539 62.4648 207.461 63.9883L207.266 64.1836H206.094L205.898 63.9883C205.82 62.8294 205.729 62.0221 205.625 61.5664C205.052 60.5508 203.952 60.043 202.324 60.043C199.564 60.043 198.184 61.8333 198.184 65.4141C198.184 68.0182 198.737 70.069 199.844 71.5664C200.977 73.1159 202.572 73.8906 204.629 73.8906C205.879 73.8906 206.979 73.6237 207.93 73.0898L208.301 73.5391ZM231.074 58.9492L230.898 59.125C230.039 59.125 229.453 59.3724 229.141 59.8672C228.971 60.1536 228.509 61.1107 227.754 62.7383C226.048 66.4492 224.635 69.6914 223.516 72.4648L220.371 80.2383C219.395 82.6471 218.346 84.3594 217.227 85.375C216.172 86.3255 214.883 86.8008 213.359 86.8008C212.396 86.8008 211.465 86.5729 210.566 86.1172C210.788 85.1927 211.016 83.8971 211.25 82.2305L211.758 82.1328C212.435 83.0964 213.353 83.5781 214.512 83.5781C215.879 83.5781 217.135 82.2435 218.281 79.5742L219.082 77.6992L212.754 61.2539C212.389 60.3034 212.051 59.7174 211.738 59.4961C211.439 59.2617 210.84 59.138 209.941 59.125L209.746 58.9297V57.7578L209.961 57.5625C210.794 57.6016 212.389 57.6211 214.746 57.6211C216.934 57.6211 218.711 57.6016 220.078 57.5625L220.273 57.7578V58.9297L220.078 59.125C218.594 59.125 217.852 59.3919 217.852 59.9258C217.852 60.1602 217.917 60.4466 218.047 60.7852C218.255 61.3841 218.574 62.276 219.004 63.4609L221.855 71L223.574 66.8789C225.254 62.8555 226.094 60.5052 226.094 59.8281C226.094 59.3594 225.339 59.125 223.828 59.125L223.633 58.9297V57.7578L223.848 57.5625C224.603 57.6016 225.879 57.6211 227.676 57.6211C228.691 57.6211 229.753 57.6016 230.859 57.5625L231.074 57.7578V58.9492Z" fill="#401306"/>
<path fill-rule="evenodd" clip-rule="evenodd" d="M38.5114 0.581858C38.14 0.912377 37.6862 1.56225 37.5032 2.02601C37.189 2.82149 37.1543 2.84742 36.8921 2.48399C36.7392 2.27216 36.6142 1.98811 36.6142 1.85307C36.6142 1.71783 36.3848 1.33106 36.1045 0.993561C34.6659 -0.738825 31.4961 1.4302 31.4961 4.14696C31.4961 5.00069 31.5843 5.26897 31.9909 5.65096C32.4772 6.10754 33.261 6.36386 34.1707 6.36386C34.6211 6.36386 34.6311 6.40535 34.6384 8.30868C34.6425 9.37843 34.6835 10.433 34.7291 10.6524C34.775 10.8718 34.8317 11.3655 34.8553 11.7495C34.8843 12.2163 34.9457 12.018 35.0409 11.1511C35.4559 7.37417 35.628 6.56333 36.0138 6.56333C36.1218 6.56333 36.348 6.83301 36.5161 7.16253C36.799 7.71665 36.7931 7.81778 36.4398 8.50894C36.2295 8.91985 35.9094 9.89385 35.7285 10.6736L35.3994 12.0908L36.1094 13.5194C36.7508 14.8098 37.2476 16.7362 36.939 16.7362C36.8717 16.7362 36.5411 16.1833 36.2045 15.5073C35.4782 14.0494 33.8945 12.2845 33.0118 11.9494C32.6654 11.8179 31.264 11.1824 29.8974 10.5375C27.6608 9.48155 25.2937 8.60668 23.749 8.26519C23.3297 8.17244 23.2108 8.04917 23.2803 7.77949C23.3317 7.58062 23.2978 7.28042 23.2051 7.11266C23.0951 6.91319 23.1374 6.7225 23.3276 6.56273C23.564 6.36386 23.9016 6.45402 25.1256 7.04305C25.9543 7.44199 26.6628 7.7374 26.7 7.6997C26.7372 7.662 26.1053 7.27862 25.2957 6.84797C24.486 6.41711 23.8516 5.97489 23.8858 5.86519C24.1144 5.13333 25.8913 6.08959 28.3465 8.26579C29.8325 9.58288 32.3063 11.3939 32.4378 11.2608C32.4874 11.2105 32.1283 10.5363 31.6398 9.7628C31.1514 8.98906 30.4563 7.48148 30.0951 6.41253C29.5356 4.75654 29.2919 4.3191 28.4478 3.4568C26.8795 1.85467 24.8376 1.36138 23.0937 2.16364C21.6108 2.84603 20.7031 4.95401 20.9642 7.10987C21.1463 8.61287 21.0061 8.87856 19.8234 9.27111C18.7876 9.615 16.4358 10.7472 15.588 11.3101C15.2209 11.5538 15.1837 11.6488 15.4057 11.7746C15.9642 12.0914 17.5691 12.3523 20.0589 12.5312C22.7896 12.7275 23.1516 12.8418 24.2126 13.8433C24.5915 14.201 25.735 15.1291 26.7539 15.9056L28.6063 17.3179L29.4114 16.4985C30.2783 15.6162 32.2793 14.5425 33.0571 14.5423C33.8949 14.5419 35.1425 16.1655 36.4752 18.9898C37.5533 21.2747 37.7067 21.5055 37.8724 21.0912C38.7537 18.8887 39.4919 18.0553 42.2488 16.1508C46.9323 12.9154 48.1945 11.5072 49.5209 8.0388C49.915 7.00794 50.302 6.16439 50.3805 6.16439C50.4593 6.16439 50.6746 6.87669 50.8592 7.74737C51.6646 11.5453 53.461 13.7631 57.5705 16.0335C60.2691 17.5245 61.0179 18.242 61.7449 20.0328C62.1293 20.9801 62.2429 21.0719 62.5411 20.6757C62.7266 20.4294 63.8224 17.6432 64.0661 16.7985C64.1354 16.5583 64.4941 16.0931 64.8634 15.7646C66.436 14.3653 70.002 14.8668 71.1549 16.6493L71.5469 17.2554L73.4211 15.7261C76.6126 13.1221 77.6476 12.6946 80.7087 12.7155C82.7673 12.7295 83.9557 12.4989 84.1248 12.0529C84.1941 11.87 83.9276 11.5131 83.4069 11.0915C81.9742 9.93135 81.3466 9.55037 80.2205 9.15782C79.6187 8.94797 79.051 8.72916 78.9587 8.67131C78.8665 8.61347 78.9209 8.00349 79.0797 7.31552C79.9616 3.49629 77.8203 0.868095 74.5717 1.78246C73.4634 2.09443 71.6187 3.45102 71.0012 4.40807C70.4132 5.31964 68.2754 9.95429 68.4429 9.95429C68.4974 9.95429 69.1313 9.40556 69.8518 8.73474C71.5305 7.17151 73.55 5.70621 73.8673 5.8209C74.0031 5.86997 74.3388 5.79537 74.6136 5.65514C75.0441 5.43533 75.1795 5.45229 75.5978 5.77782L76.0827 6.15561L75.6419 6.16C74.79 6.16858 73.2364 6.92676 71.3717 8.24425C70.3356 8.9761 69.4882 9.62058 69.4882 9.67663C69.4882 9.80689 69.8829 9.57949 70.326 9.19372C70.5161 9.02836 70.7177 8.9396 70.774 8.99664C70.8303 9.05369 70.2026 9.6142 69.3787 10.2423C68.5551 10.8707 67.9268 11.4306 67.9823 11.487C68.0378 11.5433 69.512 10.8036 71.2579 9.84339C73.2035 8.77324 74.3406 8.03979 74.1949 7.94844C74.0642 7.86665 73.5496 7.96998 73.0514 8.17822L72.1457 8.55662L72.9331 7.84072C73.3661 7.44697 74.0492 6.95369 74.4508 6.74444C75.1823 6.36326 76.4925 6.21406 76.2974 6.534C76.2404 6.62755 76.3209 6.8743 76.4764 7.08254C76.9545 7.72244 76.8459 8.33461 76.2303 8.46965C74.4421 8.8618 72.876 9.48754 70.9646 10.5736C69.0388 11.6677 66.8856 12.7469 66.6281 12.7469C66.5772 12.7469 66.5354 12.6122 66.5354 12.4477C66.5354 12.2831 66.4842 12.1484 66.4217 12.1484C66.3591 12.1484 65.527 12.8839 64.5726 13.7827C62.8722 15.3844 62.835 15.4393 62.7126 16.5254C62.5185 18.2452 62.301 18.3208 62.0264 16.7638C61.5341 13.972 60.3587 12.317 57.4803 10.3626C55.2888 8.87457 54.1856 7.80063 53.003 6.00421C52.375 5.05016 51.5626 3.48413 51.1976 2.52408C50.6327 1.03784 50.4677 0.778733 50.086 0.778733C49.7197 0.778733 49.5762 0.969625 49.2996 1.82594C48.2116 5.19377 46.4819 7.46273 43.4067 9.55655C39.7776 12.0274 38.6061 13.7973 37.9289 17.8333L37.6612 19.4291L37.4455 18.4315C37.2093 17.3388 37.3063 14.2219 37.6256 12.6471C37.7368 12.0986 38.2793 10.7127 38.8313 9.56732C40.111 6.9114 41.8055 5.05953 43.5606 4.39909C44.1872 4.16312 44.9128 3.97023 45.1728 3.97023C45.4331 3.97023 45.6892 3.89942 45.7419 3.81305C45.9037 3.54756 42.8858 1.14895 41.6339 0.548147C40.0917 -0.192081 39.3726 -0.184302 38.5114 0.581858ZM64.6654 0.410315C64.1197 0.742629 63.8283 1.13279 63.3478 2.17501L62.9341 3.07262L62.6467 2.07528C62.2181 0.587842 61.9098 0.322149 60.7287 0.421485C60.1872 0.466964 59.2569 0.733254 58.6614 1.01331C57.3854 1.61351 55.5191 2.97309 55.5148 3.3056C55.5132 3.43386 55.7996 3.7199 56.1516 3.94131C57.0378 4.49922 57.9516 5.51372 59.7902 7.98135C61.3821 10.1181 61.8252 11.0867 62.4065 13.7009C62.7 15.0206 62.912 14.8895 63.9152 12.7688C64.6091 11.3019 64.6321 11.1824 64.5953 9.22105C64.5569 7.15854 64.7809 6.45761 65.1579 7.46193C65.2659 7.74997 65.3557 8.36114 65.3573 8.82031C65.3596 9.43268 65.4112 9.5755 65.5512 9.35589C65.6561 9.19133 65.747 8.51812 65.7531 7.85987L65.7642 6.66306L66.7575 6.19072C67.915 5.64018 68.5022 4.8066 68.5031 3.71292C68.5053 1.58279 66.1161 -0.473132 64.6654 0.410315ZM93.5039 4.55368C89.0963 6.13965 88.5364 6.66146 87.187 10.4398C86.4386 12.5358 85.5594 13.5876 83.6858 14.6282C82.226 15.4391 81.985 15.6936 83.025 15.3262C83.3598 15.2081 83.8835 15.1403 84.1888 15.1758L84.7441 15.2402V17.2734C84.7441 20.1541 85.0315 20.2961 85.7986 17.7944C86.4419 15.6958 87.5841 13.662 88.4372 13.0957C88.7181 12.9092 89.6405 12.5685 90.4872 12.3385C92.827 11.7032 93.7423 11.0111 94.4811 9.31899C94.9087 8.33939 95.7417 4.55906 95.6341 4.08692C95.585 3.87189 95.1096 3.97602 93.5039 4.55368ZM4.33327 4.41904C4.33878 5.37469 5.10965 8.60329 5.58189 9.64851C5.85472 10.2525 6.51535 11.1896 7.0498 11.7312C8.04508 12.7397 8.67657 13.0199 10.4679 13.2481C12.3585 13.4889 13.5378 14.9991 13.7299 17.4252C13.7868 18.1433 13.8961 18.7309 13.9728 18.7309C14.4524 18.7309 15.5512 16.4614 15.5512 15.4708C15.5512 15.2161 15.5939 14.9643 15.6461 14.9115C15.6982 14.8586 16.3844 14.9261 17.1711 15.0615C17.9579 15.1969 18.6303 15.2783 18.6657 15.2426C18.701 15.2067 18.2583 15.0382 17.6819 14.8678C16.3262 14.4675 14.4372 13.3283 13.6563 12.4401C13.3179 12.0551 12.7604 10.9871 12.4177 10.0668C12.0748 9.14645 11.5545 8.03361 11.2614 7.59358C10.2415 6.06346 8.42343 4.93047 5.94213 4.27901C4.41713 3.87868 4.33031 3.88626 4.33327 4.41904ZM25.1043 5.15727C25.0407 5.26159 25.4947 5.67489 26.113 6.07562C27.4646 6.95169 29.9213 8.9398 29.9213 9.15762C29.9213 9.24319 30.0561 9.36566 30.2211 9.42989C30.4734 9.52803 30.4846 9.47617 30.2909 9.10196C29.59 7.74717 27.5089 5.88952 25.9258 5.20554C25.2624 4.91891 25.2502 4.91811 25.1043 5.15727ZM90.3543 10.5705C89.9303 10.9219 89.922 10.9488 90.2941 10.7645C90.5317 10.6468 90.7805 10.4613 90.847 10.3522C91.0248 10.0608 90.9055 10.1137 90.3543 10.5705ZM48.948 13.7245C48.7791 14.1525 48.5805 14.9624 48.5071 15.5243C48.3492 16.7298 48.1736 16.9046 47.7366 16.2908C47.427 15.8558 47.4201 15.8767 47.5543 16.836C47.6311 17.3845 47.814 18.1812 47.961 18.6064C48.1081 19.0315 48.2262 19.615 48.2232 19.903C48.2193 20.3177 48.0986 20.1765 47.6425 19.2236C47.3258 18.5622 46.8266 17.7992 46.5333 17.5281C45.9701 17.0079 45.9724 17.029 46.6644 18.6858C46.9059 19.2643 47.0587 19.7833 47.0035 19.839C46.9486 19.8946 46.4266 19.6205 45.8435 19.2296C43.8165 17.8706 43.1154 18.0306 44.8319 19.4604C46.4685 20.8235 47.4667 22.2174 48.4156 24.4642C48.8677 25.5346 49.3224 26.59 49.4264 26.8094C49.7152 27.4196 49.4691 25.1375 49.1447 24.1966C48.997 23.7687 48.8171 23.0594 48.7447 22.6206C48.6252 21.8953 48.6394 21.8564 48.9012 22.1937C49.0596 22.3977 49.2776 22.9812 49.3854 23.4902C49.4935 23.9993 49.6654 24.6402 49.7675 24.9144C50.1063 25.8236 50.265 23.2928 50.0919 19.7368C50.0037 17.9219 49.9248 15.6515 49.9165 14.6917C49.9039 13.2124 49.8524 12.9461 49.5785 12.9463C49.3866 12.9463 49.1305 13.2625 48.948 13.7245ZM51.4748 16.011C51.273 16.5003 51.0595 18.1239 50.8811 20.5227C50.7278 22.5839 50.5081 24.6962 50.3929 25.2172C50.2778 25.7381 50.2201 26.2012 50.2648 26.2465C50.3094 26.2918 50.6329 25.8087 50.9837 25.173C51.3344 24.5371 52.0559 23.3885 52.5872 22.6206C53.1183 21.8526 53.9016 20.6857 54.3278 20.0275C54.7537 19.3692 55.3388 18.5388 55.6276 18.1824C56.0337 17.6811 56.0819 17.5341 55.8406 17.5341C55.497 17.5341 54.3652 18.5897 53.3858 19.8236C52.8321 20.5209 52.7559 20.5624 52.7559 20.1669C52.7559 19.9194 53.0217 19.1835 53.3465 18.5314C53.989 17.2419 54.0211 17.1352 53.7669 17.1352C53.6734 17.1352 53.3488 17.498 53.0455 17.9414C52.3711 18.9276 52.1738 18.7247 52.1654 17.0354C52.1571 15.4012 51.8898 15.0046 51.4748 16.011ZM10.3742 16.8916C9.87776 17.6291 9.28386 18.831 9.05453 19.5629L8.6374 20.8934L7.63327 20.261C5.80236 19.1077 3.48583 19.5188 2.3939 21.191C1.92894 21.9029 1.87008 22.1853 1.87008 23.7031C1.87008 25.1157 1.95413 25.5867 2.35374 26.4105C3.01831 27.7808 4.3561 29.0662 6.05236 29.9646C7.19744 30.571 9.44685 31.4969 9.775 31.4969C10.0404 31.4969 9.71575 31.0146 9.01437 30.3667C6.21398 27.7806 5.31673 26.819 5.41417 26.508C5.47205 26.3229 5.34331 26.0185 5.12087 25.8146C4.65571 25.388 4.61083 25.1139 5.00591 25.1139C5.22795 25.1139 5.25 24.9815 5.11004 24.4872C4.89154 23.7146 5.02677 23.4545 5.51063 23.717C5.80531 23.8768 5.90413 23.8369 6.00394 23.518C6.07264 23.2987 6.18937 23.1077 6.26319 23.0935C6.86457 22.9784 7.62008 23.0147 7.81673 23.1683C7.94764 23.2704 8.37106 24.347 8.75768 25.5605C9.48051 27.8293 10.2459 29.7382 11.2382 31.7462C11.8923 33.0699 11.7138 33.2137 10.4331 32.3945C10.0043 32.1203 9.59587 31.8959 9.5252 31.8959C9.16594 31.8959 12.2632 34.7114 13.1014 35.1468C13.7561 35.4869 13.9781 35.6893 13.7795 35.7653C13.6171 35.8276 12.2969 35.9596 10.8457 36.0588C8.65098 36.2088 8.05787 36.1874 7.32047 35.9329C6.49075 35.6465 6.45787 35.6088 6.80945 35.3445C7.05905 35.1568 7.56457 35.0832 8.31732 35.1246C9.59035 35.1949 9.8378 35.0022 8.71063 34.8185C7.6937 34.6527 7.22539 34.2705 6.53898 33.0462C5.66181 31.4818 5.0626 30.9945 4.0435 31.0168C2.38524 31.0531 1.1811 32.3313 1.1811 34.0549C1.1811 34.6848 1.31122 34.989 1.78681 35.4709C2.11988 35.8084 2.52717 36.0847 2.69173 36.0847C2.86004 36.0847 2.57343 36.4681 2.03681 36.961C1.09016 37.8304 1.08287 37.8464 1.11732 39.0055C1.15138 40.1487 1.98878 42.9376 2.75335 44.453L3.10079 45.1418L3.79646 43.6158C5.08957 40.78 6.84488 39.426 11.1437 37.9487C13.5 37.1391 14.7722 37.0429 18.75 37.3751C20.4195 37.5145 20.6693 37.4951 20.6693 37.2265C20.6693 37.0184 20.3961 36.871 19.8327 36.7751C18.061 36.4731 15.7927 35.1418 15.2551 34.0886C15.0226 33.6328 15.0226 33.3586 15.2555 32.231C15.4057 31.5031 15.7108 30.4904 15.9337 29.9802C16.6602 28.3156 16.6573 28.309 14.0203 25.8633C12.1675 24.1449 11.6183 22.3708 11.6157 18.0944C11.6148 16.8118 11.5382 15.7149 11.4455 15.6567C11.3528 15.5987 10.8707 16.1544 10.3742 16.8916ZM83.3148 16.3289C81.5652 17.4948 76.0803 18.3615 73.1051 17.9422C68.2065 17.2519 64.9594 18.5843 63.4055 21.9224C62.9209 22.9636 62.8994 23.1466 62.9846 25.5129C63.1612 30.4094 63.0679 34.3272 62.7402 35.7855C62.5675 36.5534 62.4872 37.2412 62.5616 37.314C62.636 37.3866 63.6713 37.1301 64.8622 36.7435C66.7004 36.1471 67.3846 36.0268 69.3898 35.9479C71.6366 35.8595 71.8378 35.8848 73.5114 36.4685C75.5547 37.181 76.313 37.2273 77.3209 36.7001C78.826 35.9126 79.7183 34.6399 80.797 31.7419C81.1821 30.7072 81.522 30.1481 81.9821 29.7927L82.6272 29.2942L82.7352 25.3589C82.8435 21.4192 82.8577 21.3188 83.9242 16.8858C84.0762 16.2551 84.1898 15.7459 84.177 15.7544C84.164 15.763 83.7762 16.0215 83.3148 16.3289ZM16.7657 17.9829C17.5642 20.8594 17.8177 23.4938 17.5378 26.0021C17.4148 27.1044 17.2614 28.2081 17.197 28.455C17.1146 28.772 17.1657 28.9038 17.3719 28.9038C18.063 28.9038 18.6659 29.7163 19.1837 31.3457C20.3455 35.0024 21.7419 37.082 23.0354 37.082C23.3547 37.082 24.3925 36.8522 25.3415 36.5712C27.8559 35.827 30.9941 35.834 33.8602 36.5901C34.9959 36.8899 36.1823 37.1802 36.4967 37.2354C37.0636 37.335 37.0669 37.3296 36.9321 36.5606C36.5439 34.3463 36.5783 32.9389 37.1067 29.4025C37.9136 24.0035 37.6163 22.1903 35.5915 20.1587C34.3585 18.9216 33.0061 18.4495 30.6102 18.4195C29.5276 18.406 28.4835 18.325 28.29 18.2394C28.0874 18.1501 27.4555 18.2213 26.8006 18.4076C25.3522 18.8193 22.8218 18.8225 21.4433 18.4144C20.8551 18.2402 19.475 17.6119 18.3762 17.0181C17.2776 16.4243 16.338 15.9384 16.2884 15.9384C16.239 15.9384 16.4537 16.8583 16.7657 17.9829ZM88.5238 18.7892C88.3937 20.8547 87.8087 23.3109 87.1183 24.69C86.8642 25.1975 86.0181 26.3307 85.2382 27.2083C83.297 29.3925 83.2866 29.423 83.9644 30.9432C84.7409 32.6844 84.8297 34.1666 84.2126 35.0874C83.5829 36.0266 82.3583 36.6741 80.7841 36.9001C79.3244 37.1096 79.1339 37.188 79.1339 37.5781C79.1339 37.7461 79.5457 37.9447 80.2026 38.0937C81.0919 38.2954 81.5976 38.281 83.2132 38.0082C86.7752 37.407 87.964 37.6633 90.4732 39.5736C91.2423 40.159 92.5106 40.9641 93.2913 41.3626C94.1445 41.7979 95.0866 42.486 95.652 43.0866L96.5929 44.0864L97.1821 43.4064C97.9933 42.4703 98.5974 41.1362 98.8612 39.6993C99.1327 38.2196 98.9559 37.7285 97.8628 36.9263L97.0894 36.3584L97.6573 35.9722C97.9697 35.7598 98.4199 35.2142 98.6581 34.7598C99.0539 34.0042 99.0691 33.8598 98.8346 33.0671C98.6929 32.5878 98.287 31.922 97.9266 31.5775C96.3213 30.0434 94.4256 30.8195 93.6734 33.3191C93.4813 33.9574 93.3648 34.0563 92.6986 34.1469C91.9874 34.2436 90.687 34.9371 89.7057 35.7432C89.3502 36.0352 89.4138 36.0262 90.0561 35.6933C91.1604 35.1211 91.9996 35.1608 92.5028 35.809C92.7256 36.0961 92.8593 36.4108 92.7998 36.5086C92.7404 36.6061 92.8301 36.7397 92.9994 36.8056C93.4823 36.9933 93.3628 37.2771 92.6776 37.5689C91.9913 37.8614 91.5354 37.7854 91.5354 37.3786C91.5354 37.2296 91.3884 37.1582 91.1902 37.2109C90.8278 37.3068 88.9778 36.5668 88.9746 36.3247C88.9736 36.2475 88.4278 36.1653 87.7614 36.1419C87.0953 36.1186 86.4687 36.0171 86.3695 35.9165C86.2598 35.8054 86.6012 35.4901 87.238 35.1143C87.8152 34.7736 88.8935 33.879 89.6341 33.1262C90.4754 32.2711 91.7504 31.2877 93.0311 30.5066C96.3154 28.5033 97.7098 26.5848 97.977 23.7023C98.1094 22.2715 97.563 20.9167 96.6177 20.3326C95.2675 19.4987 93.1246 19.9844 92.0482 21.3683L91.5398 22.0222L91.5333 21.4237C91.5207 20.27 89.9835 17.6813 88.9915 17.1433C88.6687 16.9682 88.6299 17.1046 88.5238 18.7892ZM57.0024 18.5813C56.8512 18.9378 56.5813 19.6511 56.4028 20.1663C56.1407 20.9219 55.6553 21.5007 53.8933 23.1583C52.5441 24.4277 51.3825 25.7285 50.8557 26.5601C50.3864 27.3007 49.9276 27.9065 49.8356 27.9065C49.7439 27.9065 49.1108 26.9414 48.4287 25.7622C47.3986 23.9809 46.7512 23.1703 44.6055 20.9749C43.1848 19.5214 41.9256 18.332 41.8075 18.332C41.5386 18.332 40.0467 20.4681 39.6591 21.4084C39.5002 21.7938 39.3701 22.4556 39.3701 22.8791V23.649L41.0925 24.3085C45.3161 25.9252 47.2039 27.398 49.0057 30.4824C49.588 31.4792 50.1163 32.2946 50.1799 32.2944C50.2433 32.294 50.5535 31.7927 50.8695 31.1806C51.8657 29.2483 53.7228 27.4722 57.186 25.139C58.9768 23.9329 60.4553 22.7929 60.6175 22.4935C61.1945 21.4279 60.2278 19.6215 58.4791 18.4979C57.9957 18.1872 57.5274 17.933 57.4386 17.933C57.3498 17.933 57.1533 18.2249 57.0024 18.5813ZM78.7402 20.5549C76.0929 21.7912 75.3256 21.9615 71.6081 22.1398C66.4108 22.3892 66.261 22.5178 66.4565 26.5607C66.5549 28.6004 66.5112 29.5932 66.2646 30.9141C65.8982 32.8746 65.8537 34.09 66.1482 34.09C66.2602 34.09 66.7695 33.8762 67.2801 33.6149C69.6311 32.4117 71.7776 32.1542 74.1856 32.7863C74.8303 32.9556 75.5209 33.0408 75.7203 32.9756C77.1841 32.4968 77.6541 31.6212 77.9596 28.8041C78.3362 25.3315 79.414 21.0866 80.1461 20.1928C80.4594 19.8102 80.1813 19.8819 78.7402 20.5549ZM21.2791 22.3166C21.6959 23.6297 21.9904 25.2904 22.3459 28.3345C22.8157 32.3554 23.1484 33.7401 23.6957 33.953C23.8278 34.0044 24.4632 33.8094 25.1077 33.5197C26.1963 33.0304 26.4693 32.9943 28.9502 33.0115C31.402 33.0284 31.7146 33.0735 32.7634 33.56C33.3917 33.8514 33.9384 34.09 33.978 34.09C34.0177 34.09 33.9939 33.416 33.9252 32.5922C33.8474 31.6619 33.9382 29.6574 34.1644 27.3023L34.5285 23.5104L34.0896 23.0654C33.6122 22.5819 33.81 22.5924 28.0512 22.7388C25.0037 22.8164 23.6722 22.4396 21.1293 20.7809C20.7157 20.511 20.7199 20.5545 21.2791 22.3166ZM93.0762 23.6235C91.8374 24.4449 90.6075 26.4284 89.5795 29.2629C89.2492 30.1734 88.7155 31.4255 88.3935 32.0453C88.0715 32.6648 87.8514 33.2159 87.9045 33.2698C87.9577 33.3236 88.4199 32.9572 88.9317 32.4552C89.4435 31.9533 90.8106 30.8558 91.9699 30.0167C93.8014 28.6908 94.8819 27.6532 94.8819 27.2203C94.8819 26.974 94.0654 27.5448 92.3585 28.9842C91.4063 29.7873 90.4299 30.5514 90.1884 30.6823L89.7496 30.9202L90.0622 30.1615C90.7122 28.5843 91.3232 27.7912 92.5502 26.9321L93.7992 26.0576L92.6972 27.2313C90.8933 29.153 89.9655 30.7583 91.5846 29.1565C92.0447 28.7014 92.997 27.8957 93.7008 27.3663C95.0549 26.3472 95.3486 25.7578 94.7858 25.1875C94.5996 24.9988 94.5209 24.7277 94.5976 24.5396C94.9087 23.7781 94.9002 23.5684 94.5533 23.4458C94.3551 23.3757 94.1043 23.2792 93.9961 23.2313C93.8878 23.1835 93.4738 23.3598 93.0762 23.6235ZM75.2673 23.8882C74.2321 24.6482 70.4083 26.9105 70.3163 26.8174C70.2764 26.7769 70.3394 26.5625 70.4565 26.3408C70.5736 26.1192 70.6693 25.7369 70.6693 25.4909C70.6693 25.1295 70.5372 25.232 69.9803 26.0257L69.2913 27.0077V25.7616C69.2913 24.5217 69.0366 24.1084 68.8 24.9643C68.7319 25.2113 68.1346 27.1403 67.4728 29.2513C66.811 31.3621 66.3219 33.1421 66.3856 33.207C66.5866 33.4104 67.2461 32.9409 69.2154 31.1929C71.0843 29.5339 71.5297 29.2186 73.8933 27.8803C74.5297 27.5201 74.9476 27.1906 74.822 27.1483C74.6965 27.1058 74.375 27.2163 74.1079 27.3936C73.8407 27.571 73.622 27.6641 73.622 27.6005C73.622 27.5367 74.1963 26.7942 74.8982 25.9503C76.8291 23.6285 77.0118 22.6078 75.2673 23.8882ZM23.8189 24.0037C23.8189 24.5147 25.0415 26.0971 26.6998 27.7323C28.3047 29.3147 31.9909 32.3076 33.028 32.8699C33.5913 33.1754 33.5968 32.9459 33.064 31.3786C32.5577 29.889 32.0921 26.5048 32.2228 25.2635C32.2778 24.7423 32.2726 24.316 32.2116 24.316C32.0071 24.316 31.6325 25.1963 31.4069 26.2072L31.1833 27.2083L30.426 26.0614C29.4486 24.5811 29.1299 24.5069 29.5096 25.8482C29.6079 26.1958 29.6411 26.5279 29.5835 26.5864C29.5258 26.645 28.2051 26.0351 26.6488 25.2312C25.0923 24.4271 23.8189 23.8748 23.8189 24.0037ZM58.5364 27.1585C56.8067 29.5499 56.2274 30.4531 55.5549 31.8063C54.8437 33.2375 53.5179 36.5245 53.613 36.6209C53.6498 36.658 54.0179 36.5453 54.4311 36.3701C54.9041 36.1699 55.5817 36.0765 56.26 36.1182L57.3374 36.1844L58.1026 33.4916C58.948 30.5159 60.0394 26.1637 60.0394 25.7672C60.0394 25.2396 59.6913 25.5615 58.5364 27.1585ZM6.53425 26.4898C7.00118 27.392 9.35669 30.1006 9.67461 30.1006C9.89488 30.1006 9.47146 29.2421 8.32185 27.3579C7.36634 25.7917 7.12323 25.541 7.54882 26.5601C7.7874 27.1313 8.03484 27.5833 8.85906 28.9537C9.33583 29.7464 8.83425 29.207 7.7502 27.7615C6.15059 25.6281 6.01535 25.4867 6.53425 26.4898ZM74.6063 28.4877C73.5778 28.8962 72.3862 29.4001 71.9585 29.6075C71.1634 29.9931 69.3443 31.617 69.5146 31.7895C69.5663 31.842 69.9138 31.8051 70.2866 31.7072C70.6594 31.6094 71.9333 31.4674 73.1173 31.3916C74.9551 31.2741 75.3799 31.1804 76.0209 30.7505C76.4339 30.4736 76.7717 30.2107 76.7717 30.1663C76.7717 30.0749 75.6148 30.2101 74.6555 30.4136C73.64 30.6292 73.8781 30.1948 75.2911 29.2541C76.0465 28.7514 76.5683 28.2627 76.5707 28.0561C76.573 27.864 76.5526 27.7156 76.5256 27.726C76.4986 27.7363 75.6348 28.079 74.6063 28.4877ZM41.4232 30.1505C41.5829 32.5635 42.0783 37.1002 42.1951 37.2185C42.24 37.264 42.6144 37.0691 43.027 36.7854C43.838 36.2277 44.364 36.2399 45.6167 36.8453C45.9677 37.0148 46.3055 37.1024 46.3671 37.0397C46.4289 36.9771 46.2154 36.4898 45.8927 35.9568C45.5701 35.4239 45.0805 34.378 44.8045 33.6332C43.786 30.8826 42.127 28.1059 41.5022 28.1059C41.3528 28.1059 41.3289 28.7259 41.4232 30.1505ZM25.0234 29.4833C24.8307 29.6071 24.9738 29.6967 25.5156 29.7917C25.9358 29.8655 26.4943 30.0438 26.7567 30.1884C27.2215 30.4441 27.2055 30.4595 26.148 30.771C25.0978 31.0802 24.0157 31.75 24.0157 32.0907C24.0157 32.1819 24.4807 32.076 25.0492 31.8554C26.1541 31.4267 27.8035 31.4516 29.66 31.9254C30.1368 32.047 30.5738 32.0989 30.6313 32.0407C30.6886 31.9826 30.3089 31.6096 29.7872 31.2121C29.2654 30.8145 28.5951 30.2895 28.2974 30.0456C27.5043 29.3955 25.6549 29.078 25.0234 29.4833ZM49.5797 34.2857C48.8919 34.9828 48.86 35.6674 49.4878 36.2652L49.96 36.7146L49.025 37.7461C48.5106 38.3134 47.8104 39.0917 47.4689 39.4757C46.8728 40.1459 46.8388 40.1578 46.6181 39.7749C45.9132 38.5515 44.5423 37.706 44.1929 38.2788C44.126 38.3886 43.8278 38.4783 43.5299 38.4783C42.5382 38.4783 42.327 38.828 42.0829 40.8745C41.9587 41.9154 41.8425 42.7904 41.825 42.8194C41.8073 42.8483 41.4506 42.727 41.0323 42.5499C39.8943 42.0682 38.1315 42.0787 37.5951 42.5704C36.9827 43.1321 36.6142 43.9368 36.6142 44.7125C36.6142 45.6422 37.499 47.3473 38.363 48.0823L39.086 48.6975L37.9344 49.9087C36.4252 51.4962 36.1441 52.0675 36.1321 53.5745C36.1232 54.6722 36.1852 54.8744 36.6968 55.416C37.6478 56.4227 38.6793 56.7046 40.9492 56.5779C42.3663 56.4987 42.9134 56.5324 42.9132 56.6986C42.913 56.8254 42.7801 57.6921 42.6181 58.6247C42.1963 61.051 42.2254 61.5429 42.8142 61.9336C43.6984 62.5209 45.7742 61.8096 46.7091 60.5994L47.1951 59.9699L47.9831 61.1423C49.3626 63.1951 49.2846 63.1803 50.9437 61.7005C51.7335 60.9961 52.4585 60.4199 52.5545 60.4199C52.6508 60.4199 52.7846 60.5962 52.8522 60.8116C52.9929 61.2614 54.6297 62.784 55.2165 63.0112C55.8346 63.2507 57.0644 62.5175 57.3968 61.711C57.713 60.9441 57.7709 57.9776 57.4931 56.765C57.3404 56.0982 57.3592 56.0184 57.6431 56.1287C58.2376 56.3599 60.3709 56.4854 61.3022 56.3437C61.9177 56.2502 62.4531 55.9979 62.9232 55.5796C63.5772 54.9977 63.6191 54.8908 63.5364 54.0187C63.3835 52.4052 62.1083 50.4321 60.7539 49.7138L60.189 49.414L60.7539 49.0444C61.0646 48.8411 61.5998 48.4226 61.9433 48.1145C62.647 47.4829 64.1732 45.3203 64.1732 44.9549C64.1732 44.5172 63.3589 43.6587 62.5447 43.2378C61.8531 42.8804 61.4907 42.8351 59.9549 42.9153C58.9728 42.9666 58.0183 43.0743 57.8337 43.1549C57.5242 43.2899 57.5073 43.1132 57.6171 40.9005C57.7508 38.2046 57.574 37.6242 56.5573 37.4223C55.6978 37.2518 54.2341 37.6501 53.3581 38.2932C52.9205 38.6144 52.4923 38.8773 52.4063 38.8773C52.3205 38.8773 51.7898 38.4047 51.227 37.8273L50.2037 36.7772L50.8892 36.2231C51.6352 35.6199 51.7581 35.0423 51.2856 34.3587C50.8061 33.6649 50.2171 33.6398 49.5797 34.2857ZM88.878 35.0995C88.1201 35.5282 87.5541 35.8804 87.6205 35.882C87.9417 35.8904 90.3543 34.6593 90.3543 34.487C90.3543 34.242 90.5022 34.1808 88.878 35.0995ZM10.4252 35.3911C10.9081 35.5437 11.3335 35.6379 11.3703 35.6004C11.4711 35.4985 10.2248 35.0854 9.8624 35.1007C9.68898 35.1081 9.94232 35.2387 10.4252 35.3911ZM59.1801 38.0939C58.0587 38.9876 58.7978 41.0714 60.2362 41.0714C60.9482 41.0714 61.811 40.3061 61.811 39.6743C61.811 39.0897 61.289 38.1306 60.8376 37.8859C60.262 37.5737 59.7524 37.6376 59.1801 38.0939ZM38.0764 38.2948C37.5693 38.8625 37.5734 40.2143 38.0835 40.5921C38.6486 41.011 39.2695 40.932 39.9455 40.3555C40.6846 39.7254 40.7067 39.2947 40.0415 38.4937C39.4337 37.7616 38.6256 37.6798 38.0764 38.2948ZM17.4213 38.8122C15.8419 39.0119 13.7697 39.5782 12.7923 40.0769C12.0295 40.466 10.8583 41.4869 8.85531 43.5077C5.70453 46.6867 3.8126 48.0805 1.47657 48.9438C0.66437 49.244 0 49.5949 0 49.7236C0 49.8522 0.86378 50.3912 1.91929 50.9212C4.5685 52.2512 5.96811 53.3597 9.07264 56.5861C12.4406 60.0862 13.4219 60.6586 16.2693 60.7849L18.1102 60.8665L18.1073 59.6956L18.1043 58.5249L15.0059 55.9755C11.5197 53.1071 9.75413 51.8214 7.56909 50.5593L6.0685 49.6928L7.64035 49.1623C10.5614 48.1767 13.3392 46.0695 16.2921 42.5995C18.1069 40.4672 19.514 39.4757 20.7256 39.4757C21.1703 39.4757 21.2746 39.4037 21.1825 39.1601C21.1167 38.9866 21.063 38.807 21.063 38.7612C21.063 38.6638 18.2868 38.7027 17.4213 38.8122ZM44.0945 38.963C44.0945 39.1667 44.2722 39.2762 44.603 39.2762C45.2197 39.2762 45.1522 38.8078 44.522 38.7137C44.238 38.6714 44.0945 38.7552 44.0945 38.963ZM55.5118 39.5754C55.5118 39.74 55.6004 39.8746 55.7087 39.8746C55.8169 39.8746 55.9055 39.74 55.9055 39.5754C55.9055 39.4108 55.8169 39.2762 55.7087 39.2762C55.6004 39.2762 55.5118 39.4108 55.5118 39.5754ZM76.6478 40.3234C76.1 40.8993 74.9701 42.2407 74.1372 43.3043C72.5579 45.3207 71.4748 46.255 68.5057 48.1623C66.2835 49.5897 66.2376 49.8393 68.0459 50.6615C70.8274 51.9259 72.6567 53.6539 75.2045 57.4235C76.9281 59.9733 77.9667 60.6229 79.6382 60.1965C80.3909 60.0044 80.5173 60.0265 80.9041 60.4185C81.5276 61.0502 82.6459 61.4677 83.6602 61.4475C85.3155 61.4144 87.0697 60.3134 90.0722 57.4225C93.1002 54.507 94.3801 53.5817 97.687 51.9175C98.9591 51.2774 100 50.6948 100 50.6228C100 50.5508 99.6679 50.3381 99.2618 50.1502C97.3307 49.2564 95.7335 48.3809 94.9994 47.8137C94.5557 47.471 92.8199 45.7791 91.1417 44.0539C87.4967 40.3068 87.0055 40.0118 83.6689 39.5678C82.4409 39.4043 81.3917 39.3153 81.3376 39.3703C81.2835 39.4252 81.4594 39.6456 81.7287 39.8602C81.998 40.0749 82.5628 40.8474 82.9837 41.5769C84.6526 44.4684 88.7175 48.0231 92.0047 49.4657C92.6091 49.7307 93.1051 50.0116 93.1069 50.0896C93.1087 50.1678 92.7337 50.3335 92.2736 50.458C89.5673 51.1901 86.1402 53.5342 84.3758 55.8598C82.3961 58.4695 82.0718 58.8237 81.2963 59.2245C80.3953 59.6904 80.1453 59.476 80.6266 58.6504C80.8309 58.2997 80.9138 57.8876 80.84 57.5894C80.7136 57.0794 77.4537 53.7173 75.5905 52.1756C74.9951 51.6827 73.8921 50.926 73.1398 50.4939C72.3872 50.0617 71.739 49.6091 71.6992 49.488C71.6592 49.3669 72.3636 48.894 73.2642 48.437C74.1648 47.98 75.3445 47.2857 75.8858 46.8937C77.0795 46.0296 81.4961 41.6802 81.4961 41.3686C81.4961 40.9986 80.4683 40.1227 79.5276 39.6913C78.1447 39.057 77.7756 39.138 76.6478 40.3234ZM53.9707 39.8044C54.0087 40.0051 54.202 40.2009 54.4 40.2394C54.66 40.2903 54.7409 40.2083 54.6907 39.9448C54.6528 39.7441 54.4594 39.5483 54.2614 39.5098C54.0014 39.4589 53.9205 39.5409 53.9707 39.8044ZM69.1226 39.6999C67.9913 39.8904 64.5134 41.3543 64.1563 41.7901C63.9965 41.9854 64.0547 42.445 64.3807 43.5574C64.8106 45.0249 65.014 45.3285 65.2138 44.8007C65.3561 44.4249 67.3429 43.3962 70.4982 42.0648C73.6106 40.7515 74.3488 40.3318 74.0608 40.04C73.5437 39.516 71.1813 39.3532 69.1226 39.6999ZM26.378 39.9755C26.378 40.1098 30.4102 43.1297 32.338 44.4392L33.8689 45.4793L34.4236 45.0789C35.3506 44.4101 36.4514 42.9139 36.3817 42.4172C36.3291 42.0416 36.0032 41.8629 34.3697 41.3136C32.0915 40.5476 26.378 39.591 26.378 39.9755ZM44.0945 40.2522C44.0945 40.4545 44.6941 40.7299 44.8313 40.5907C44.8809 40.5406 44.863 40.4038 44.7915 40.2869C44.6344 40.0294 44.0945 40.0025 44.0945 40.2522ZM19.9957 40.9142C19.5711 41.1652 19.1898 41.4749 19.1484 41.6024C19.0547 41.8914 20.9785 44.1686 22.6616 45.7605C23.7142 46.7563 25.7163 48.3452 27.6575 49.7256C28.0386 49.9964 28.0301 50.0172 27.3923 50.3756C25.475 51.4524 22.0331 53.9062 21.2445 54.7584C19.6134 56.5211 18.273 58.5532 18.3425 59.158C18.4209 59.8388 19.7906 60.9455 20.7902 61.1354C21.8159 61.3304 22.2783 60.8912 24.2882 57.8126C26.687 54.138 28.0774 52.7984 31.0073 51.3381C32.3152 50.6864 33.2677 50.0916 33.2677 49.9268C33.2677 49.7702 32.9356 49.5008 32.5295 49.3282C29.0394 47.8438 27.3406 46.3717 25.7547 43.4575C25.2494 42.5291 24.5587 41.5019 24.2197 41.1745C23.6705 40.6443 23.4486 40.5729 22.1854 40.5187C20.9959 40.4674 20.6435 40.5313 19.9957 40.9142ZM49.1756 41.8651C46.9155 42.2742 43.8644 44.6792 43.2419 46.5424C42.7571 47.9934 42.8026 50.6944 43.3398 52.3524C44.1244 54.7747 46.361 56.6142 48.9148 56.9375C50.0801 57.085 51.9146 56.685 53.3087 55.9795C54.4406 55.4066 56.1163 53.5568 56.8215 52.1016C57.3073 51.0991 57.3807 50.7193 57.3736 49.2496C57.3685 48.1779 57.24 47.1873 57.0242 46.5568C55.9102 43.2999 52.5026 41.2629 49.1756 41.8651ZM50.1156 43.5149C50.0612 43.8714 49.9648 44.6577 49.9016 45.262C49.7256 46.9448 49.5167 47.0563 49.1337 45.6724C48.9492 45.0069 48.7232 44.4624 48.6311 44.4624C48.539 44.4624 48.3711 44.1931 48.2579 43.864C47.8325 42.6275 47.8785 43.3302 48.3325 45.0019C48.5917 45.957 48.7738 46.7688 48.737 46.8061C48.687 46.8566 47.2455 45.0867 46.5169 44.08C46.4839 44.0343 46.3994 44.0551 46.3295 44.1259C46.1622 44.2952 46.9904 45.5339 48.0148 46.6472C49.3667 48.1162 48.8608 48.1731 47.1774 46.7411C46.3287 46.0192 45.6039 45.4595 45.5665 45.4972C45.5293 45.5351 45.803 45.9227 46.1746 46.3585C46.5463 46.7942 46.8504 47.2168 46.8504 47.2976C46.8504 47.4536 46.198 47.2338 45.1126 46.7118C44.549 46.4409 44.4256 46.4353 44.276 46.6749C44.1795 46.8293 44.0992 47.015 44.0974 47.0876C44.0937 47.2496 45.5057 47.9297 46.5059 48.2479C46.912 48.377 47.2441 48.5666 47.2441 48.669C47.2441 48.7715 46.912 48.8088 46.5059 48.752C44.8988 48.527 44.0945 48.4936 44.0945 48.6518C44.0945 49.0244 46.111 49.2674 47.1839 49.024C47.7596 48.8936 48.2965 48.8533 48.377 48.9347C48.7055 49.2676 47.7039 49.6228 46.097 49.7433C43.8427 49.9123 43.8213 49.9161 43.8642 50.1472C43.9114 50.4024 45.8516 50.38 47.2028 50.1087C47.9657 49.9555 48.226 49.9593 48.176 50.1231C48.1199 50.3074 46.5583 50.9186 44.5866 51.5282C44.2189 51.6419 44.2154 51.6672 44.5313 51.9133C44.8203 52.1383 45.0459 52.0913 46.0717 51.5924C46.7325 51.271 47.3154 51.0506 47.3667 51.1027C47.4181 51.1548 46.9917 51.6502 46.4193 52.2038C45.8467 52.7571 45.4415 53.2741 45.5189 53.3527C45.5965 53.4311 45.8169 53.3703 46.0091 53.2177C46.3276 52.9641 46.3342 52.9709 46.0841 53.2937C45.9335 53.4883 45.8528 53.6908 45.9047 53.7437C45.9569 53.7965 46.6118 53.1046 47.3598 52.2063C48.7427 50.5458 49.0923 50.461 48.6478 51.8942C48.5376 52.2498 48.3933 53.0794 48.3276 53.7377C48.2616 54.3959 48.1644 55.1439 48.1116 55.4C48.0524 55.6879 48.0929 55.8171 48.2179 55.7389C48.4063 55.6209 48.9096 54.0786 49.4102 52.0861C49.5281 51.6165 49.6996 51.2792 49.7913 51.3367C49.8831 51.3941 50.0199 52.2271 50.0955 53.1877C50.1711 54.1484 50.3504 55.2038 50.4941 55.5329L50.7555 56.1313L50.7707 55.3334C50.7791 54.8946 50.6571 53.7315 50.4996 52.7485C50.3421 51.7657 50.2356 50.9389 50.263 50.9114C50.2904 50.8837 50.7783 51.7328 51.3476 52.798C52.0295 54.074 52.3404 54.5138 52.2585 54.0867C52.0907 53.2121 52.3894 53.2685 53.0512 54.2363C53.3514 54.6752 53.6734 55.0342 53.7669 55.0342C54.1549 55.0342 53.8797 54.5583 52.9427 53.6088C52.035 52.6891 51.0876 51.2726 51.2618 51.0961C51.301 51.0564 52.2289 51.4727 53.324 52.0212C56.3429 53.5336 55.8071 52.7649 52.6226 51.0149C50.5356 49.8682 51.1484 49.6741 54.064 50.5585C55.9246 51.123 56.1024 51.1412 56.1024 50.7672C56.1024 50.4524 55.6837 50.32 54.1339 50.1442C52.8911 50.0034 52.463 49.7307 53.1931 49.545C53.465 49.4758 53.8098 49.4367 53.9598 49.4579C54.5415 49.5401 55.965 49.4427 55.8522 49.3284C55.7866 49.2622 54.6868 49.2141 53.4079 49.2219C51.9303 49.2309 51.1943 49.17 51.3888 49.0551C51.6301 48.9127 55.5504 47.8533 55.8364 47.8533C55.8744 47.8533 55.9055 47.7115 55.9055 47.5384C55.9055 47.1702 55.563 47.2236 52.9528 47.9998C52.0325 48.2732 51.1244 48.5423 50.935 48.5974C50.7083 48.6636 50.5906 48.5876 50.5906 48.3754C50.5906 48.1978 50.689 48.0528 50.8094 48.0528C51.1307 48.0528 54.7823 46.6504 55.06 46.4202C55.2846 46.2341 55.2384 46.0505 54.7717 45.2748C54.7433 45.2279 54.4776 45.418 54.1811 45.6971C53.8844 45.9763 53.2285 46.4451 52.7234 46.7389C52.2183 47.0327 51.698 47.4035 51.5673 47.5631C51.4366 47.7227 51.2555 47.8533 51.1646 47.8533C51.0738 47.8533 51.6722 46.9527 52.4945 45.8519C53.3167 44.7512 53.9339 43.7944 53.8659 43.7255C53.6691 43.5261 53.038 44.2059 52.0579 45.6728C50.4067 48.1442 50.372 47.852 51.872 44.1051C52.0604 43.6342 52.1571 43.1908 52.0868 43.1196C51.864 42.8936 51.3766 43.5584 50.9071 44.7287L50.4526 45.8619L50.5474 44.3642C50.611 43.3605 50.5718 42.8666 50.4285 42.8666C50.3108 42.8666 50.1701 43.1585 50.1156 43.5149ZM38.4843 44.0634C38.3026 44.3614 38.5553 44.6618 38.988 44.6618C39.4234 44.6618 39.4781 44.4522 39.1339 44.1033C38.8461 43.8117 38.6453 43.7993 38.4843 44.0634ZM60.4331 44.3626C60.1148 44.7514 60.4935 45.2617 61.0969 45.2573C61.4071 45.2549 61.4465 45.2096 61.2486 45.0827C61.0811 44.975 61.0309 44.7532 61.1142 44.4873C61.273 43.9805 60.8148 43.8965 60.4331 44.3626ZM18.5675 45.1707C18.8791 46.0635 20.3713 47.1041 22.7362 48.078C24.6195 48.8535 24.9189 49.026 24.2126 48.9291C23.7254 48.8623 22.8839 48.6877 22.3425 48.5411C19.2638 47.7071 16.8437 47.7752 14.1945 48.7703C12.6191 49.3619 12.3305 49.773 13.6319 49.5718C15.198 49.3294 18.8976 49.1874 18.8961 49.3695C18.8951 49.4682 18.3152 49.8606 17.6073 50.2416C16.8992 50.6226 16.1693 51.1073 15.9848 51.3187C15.663 51.6877 15.6693 51.6983 16.1417 51.585C18.112 51.1129 23.7988 50.6836 23.2264 51.0502C23.0652 51.1536 22.7917 51.2395 22.6191 51.2413C21.9843 51.2475 20.0537 52.0055 19.2683 52.557C18.4673 53.1195 17.3848 54.3658 17.551 54.5342C17.5984 54.5822 18.1203 54.2752 18.7104 53.8522C19.3006 53.4291 20.5364 52.8133 21.4567 52.4838C22.377 52.1543 24.06 51.4436 25.1968 50.9044L27.2638 49.924L25.8175 49.0681C25.0222 48.5974 23.3075 47.6371 22.0071 46.934C20.7069 46.2311 19.3705 45.4593 19.0374 45.219C18.4667 44.8073 18.4396 44.8045 18.5675 45.1707ZM80.7094 45.5587C79.9697 46.332 78.8913 46.9063 76.4614 47.8208C75.6035 48.1438 74.3742 48.6492 73.7297 48.9438L72.5579 49.4798L73.7297 50.1283C74.3742 50.4849 76.0089 51.3853 77.3622 52.1294C78.7155 52.8732 80.1154 53.6619 80.473 53.8819C80.8305 54.1019 81.1848 54.2178 81.2604 54.1394C81.4921 53.899 80.0502 52.7846 78.3528 51.8926L76.7398 51.0448H78.0155C79.3972 51.0448 83.3384 50.4219 84.9667 49.9464C85.5222 49.784 86.1837 49.4816 86.4364 49.2742L86.8959 48.897L85.328 48.5307C83.0404 47.9964 79.2404 48.0207 76.6746 48.586C74.5075 49.0635 73.9378 49.0508 75.6679 48.5633C78.4307 47.7849 78.8976 47.6208 79.814 47.1053C80.7425 46.5831 81.6091 45.5042 81.4612 45.0544C81.4232 44.9391 81.085 45.1661 80.7094 45.5587ZM39.1077 45.1938C38.8193 45.4861 38.9852 46.0581 39.3585 46.0581C39.861 46.0581 40.0543 45.7148 39.7567 45.3512C39.4967 45.0339 39.31 44.9886 39.1077 45.1938ZM59.8425 45.8587C59.8425 45.9684 59.9754 46.0581 60.1378 46.0581C60.3002 46.0581 60.4331 45.9684 60.4331 45.8587C60.4331 45.749 60.3002 45.6592 60.1378 45.6592C59.9754 45.6592 59.8425 45.749 59.8425 45.8587ZM54.2136 46.2885L53.8386 46.7184L54.3799 46.3653C54.9382 46.0013 55.0437 45.8587 54.7549 45.8587C54.6634 45.8587 54.4199 46.0521 54.2136 46.2885ZM46.063 47.7319C46.063 47.7746 46.3667 47.8456 46.7382 47.8897C47.1094 47.9335 47.3701 47.8984 47.3171 47.8117C47.2218 47.6555 46.063 47.5817 46.063 47.7319ZM64.0136 48.4595C63.5004 48.944 63.4417 49.9542 63.8892 50.6014C64.2719 51.1552 64.7573 51.1647 65.4262 50.6313C66.1043 50.091 66.1193 49.2087 65.4616 48.5425C64.8736 47.9465 64.575 47.9295 64.0136 48.4595ZM34.7474 48.5764C34.3541 48.9752 34.4232 50.0284 34.8612 50.306C35.0341 50.4155 35.4091 50.4456 35.6949 50.373C36.3675 50.2019 36.5789 49.4295 36.1392 48.7496C35.7695 48.1777 35.2096 48.1083 34.7474 48.5764ZM51.5748 51.6053C51.5748 51.7125 51.7152 51.8545 51.8866 51.9213C52.0782 51.9957 52.1683 51.9512 52.1203 51.8054C52.0222 51.5072 51.5748 51.343 51.5748 51.6053ZM52.3622 52.1415C52.3622 52.4776 54.4476 53.9848 54.6413 53.7887C54.6837 53.7457 54.299 53.4024 53.7864 53.026C52.5463 52.1152 52.3622 52.0009 52.3622 52.1415ZM60.0394 52.4102C60.0394 52.9763 60.6317 53.5589 60.8474 53.2051C61.0195 52.923 60.6539 52.2165 60.2685 52.0863C60.1425 52.0438 60.0394 52.1896 60.0394 52.4102ZM38.5335 53.5081C37.4404 54.5012 37.2236 55.1589 38.1557 54.6532C38.5404 54.4448 39.8697 52.636 39.6283 52.6496C39.5404 52.6544 39.0478 53.0407 38.5335 53.5081ZM47.2555 53.4658C46.8413 54.154 46.7154 54.7434 47.0232 54.5505C47.2736 54.3937 47.8874 53.0264 47.7636 52.9011C47.7061 52.8429 47.4774 53.097 47.2555 53.4658ZM39.6463 54.2481C39.3152 54.5836 38.6967 54.981 38.272 55.131L37.5 55.4038L38.2319 55.7176C38.6344 55.8903 39.1388 56.0316 39.3528 56.0316C39.9022 56.0316 40.689 55.2656 41.0429 54.3859L41.3439 53.6379H40.7961C40.4476 53.6379 40.0293 53.8599 39.6463 54.2481ZM34.0551 54.381C30.0075 56.3226 27.2118 57.9467 26.5713 58.7286C26.2699 59.0966 26.2402 59.0968 28.927 58.717C31.4423 58.3616 33.6858 57.8114 34.9724 57.2348L35.8774 56.8292L35.7427 55.782C35.5685 54.4286 35.4213 53.8344 35.2642 53.8496C35.1947 53.8562 34.6506 54.0953 34.0551 54.381ZM60.2854 54.1837C59.6746 54.3967 60.4024 55.4332 61.1626 55.4332C61.6431 55.4332 62.15 54.8912 61.8913 54.654C61.6112 54.3973 60.5577 54.0887 60.2854 54.1837ZM64.6276 55.2357C64.0949 55.4531 63.5276 56.2971 63.6155 56.7409C63.7134 57.2332 66.95 58.5558 69.2132 59.0284C71.2134 59.4459 74.0157 59.764 74.0157 59.5735C74.0157 59.4251 69.8128 56.7917 68.5565 56.153C67.6874 55.7112 65.5211 55.0045 65.1654 55.0468C65.1069 55.0538 64.865 55.1387 64.6276 55.2357ZM2.86929 55.882C1.92205 57.3504 1.02815 60.3927 1.2872 61.2662C1.36063 61.5138 1.72205 62.0354 2.09035 62.4251L2.76004 63.1338L2.16988 63.7067C1.54075 64.3175 1.25531 65.2829 1.45965 66.1085C1.65807 66.9098 2.90965 68.17 3.76437 68.4295C4.80217 68.7447 5.39311 68.4064 6.13661 67.0714C6.94252 65.6242 7.07874 65.5398 7.98701 65.9242C8.51654 66.1484 9.07402 66.2128 9.83524 66.138C10.9701 66.0263 12.4978 65.637 12.3579 65.4952C12.3134 65.4503 11.9734 65.5017 11.6024 65.6094C10.9415 65.8015 7.74902 65.8664 8.20335 65.6787C8.33996 65.622 8.13957 65.3077 7.71122 64.9071C7.10866 64.3436 7.02441 64.1713 7.20551 63.8729C7.47264 63.4326 8.47224 63.1211 9.10295 63.2815C9.76811 63.4506 11.2583 64.5848 11.1179 64.815C10.9514 65.0878 9.84252 65.0551 9.84252 64.7773C9.84252 64.6468 9.67106 64.7041 9.44764 64.9091C9.23031 65.1082 9.08543 65.3043 9.12539 65.345C9.16555 65.3854 9.80827 65.332 10.5539 65.2261C11.2994 65.12 12.4205 64.9891 13.0449 64.9348L14.1803 64.8363L13.7697 65.4206C13.5439 65.7421 13.2445 66.005 13.1045 66.005C12.9648 66.005 12.5057 66.2442 12.0846 66.5366C11.1104 67.213 8.16299 68.9007 6.46299 69.7552C2.18071 71.9079 0.74252 77.5429 3.92165 79.7137C4.91929 80.3951 6.20689 80.3362 7.26319 79.5609C7.71752 79.2274 8.13898 78.8235 8.19961 78.6633C8.41673 78.09 8.60925 78.3904 8.73839 79.5032C8.81063 80.1254 9.0315 81.0005 9.22953 81.4481C9.67835 82.463 11.0768 84.0707 11.3577 83.8947C11.4726 83.8227 11.6289 82.8872 11.7049 81.8159C11.8852 79.2711 12.0959 78.4016 12.998 76.4735C13.59 75.2089 14.0791 74.5399 15.3362 73.2762L16.926 71.6783L16.2409 70.0883C15.5183 68.4108 15.3874 67.3089 15.7524 65.9771C16.0138 65.0238 17.5051 63.9882 19.439 63.4173C20.3931 63.1356 20.8661 62.8967 20.8661 62.6962C20.8661 62.2378 18.9829 62.4656 16.6339 63.2082C13.64 64.1549 12.2583 63.8537 9.59409 61.6743C8.74646 60.9808 7.71457 60.1971 7.30138 59.9326C6.01555 59.1102 4.17972 57.2509 3.73583 56.3216C3.50236 55.8331 3.27697 55.4332 3.23504 55.4332C3.19311 55.4332 3.02835 55.635 2.86929 55.882ZM96.5819 56.6483C95.9713 57.9897 94.5106 59.2785 92.3394 60.3919C91.252 60.9497 89.8069 61.7597 89.1279 62.1922C87.5173 63.2178 86.0512 63.6967 84.9778 63.5477C84.5207 63.4841 83.3321 63.1135 82.3366 62.7239C79.0096 61.422 78.1134 62.0158 81.1374 63.5184C84.0069 64.9442 85.037 65.9543 85.0386 67.3438C85.0396 68.1355 84.3494 70.0576 83.7299 70.9881C83.0352 72.0319 83.125 72.2875 84.4341 72.9946C85.0756 73.3411 86.087 74.1058 86.6817 74.6943C88.0663 76.064 88.397 77.1148 88.576 80.7124C88.7073 83.3524 88.7797 83.7049 89.1453 83.4761C89.4949 83.257 91.1809 80.8862 91.588 80.0412L91.985 79.2168L92.6774 79.6307C94.0069 80.4256 96.2116 79.956 97.2144 78.6643C98.5886 76.8938 98.0803 73.4314 96.1713 71.562C95.2766 70.6857 93.7252 69.8922 92.5197 69.6946C91.3744 69.5065 91.1169 69.3648 89.4809 68.0228C88.0417 66.8424 87.4256 66.4227 87.1146 66.4109C86.7927 66.3989 88.6031 68.1696 90.2577 69.4851C91.7337 70.6588 94.2905 73.6522 94.0366 73.9093C93.9762 73.9708 93.6579 73.6311 93.3295 73.1545C92.2919 71.649 91.2801 70.3933 91.1047 70.3933C90.7843 70.3933 92.423 72.7526 93.6671 74.0823C94.8659 75.3635 94.9 75.4281 94.5717 75.7957C94.3839 76.006 94.1431 76.1779 94.0364 76.1779C93.9299 76.1779 93.7329 76.3301 93.5986 76.5158C93.3697 76.8334 93.324 76.8334 92.847 76.5166C92.5327 76.308 92.2528 75.8562 92.1124 75.331C91.4817 72.9688 91.2368 72.3411 90.4581 71.0887C89.9931 70.341 88.8756 68.9827 87.9748 68.0701L86.337 66.4111L86.8837 65.8329C87.5819 65.0944 89.3016 64.1356 89.4606 64.3963C89.5291 64.5086 89.9628 64.3454 90.4803 64.0129C90.9758 63.6945 91.6455 63.3754 91.9685 63.3034C92.6159 63.1594 94.2976 63.3561 94.2805 63.5737C94.2463 64.0045 92.9144 64.6929 91.4787 65.022C89.8006 65.4066 88.4911 65.8319 88.2583 66.0678C88.0305 66.2984 88.4232 66.2234 89.9608 65.7427C90.773 65.4888 91.7913 65.2869 92.2238 65.2939C92.9931 65.3067 93.0242 65.3356 93.6529 66.6222C94.548 68.4543 95.676 68.8919 97.0626 67.945C98.6687 66.8484 99.0461 65.3114 98.0043 64.1092C97.4709 63.4935 97.4268 63.3634 97.6803 63.1548C98.6671 62.3429 98.8882 60.8112 98.3077 58.8106C97.9183 57.4689 97.2376 55.8303 97.0722 55.8373C97.0043 55.8401 96.7837 56.2051 96.5819 56.6483ZM38.2232 58.4878C37.6543 59.1016 37.6406 60.376 38.1967 60.9806C38.7594 61.5927 39.8299 61.5678 40.4616 60.9275C41.0185 60.3634 41.0522 60.0688 40.6663 59.1329C40.1896 57.9768 38.9905 57.6602 38.2232 58.4878ZM60.0537 58.7513C59.5937 59.3437 59.5461 59.7808 59.8642 60.4883C60.4919 61.8844 62.4016 61.3853 62.4016 59.8253C62.4016 58.3921 60.8748 57.6935 60.0537 58.7513ZM45.9657 60.0197C45.7691 60.2397 45.6998 60.4199 45.8116 60.4199C46.0593 60.4199 46.5502 59.8498 46.4179 59.7157C46.3657 59.6629 46.1622 59.7995 45.9657 60.0197ZM52.9528 60.1919C52.9528 60.4807 55.3033 62.614 55.6215 62.614C56.2673 62.614 55.8667 61.8465 54.872 61.1786C53.4726 60.2392 52.9528 59.9719 52.9528 60.1919ZM44.3677 60.4562C44.1583 60.7995 44.6346 61.1023 45.0693 60.902C45.453 60.7253 45.4498 60.7113 44.9774 60.4885C44.6602 60.3391 44.4461 60.3277 44.3677 60.4562ZM72.8346 62.4301C69.2319 63.0926 66.4813 63.1737 64.2752 62.6826C63.4591 62.5007 62.7417 62.4024 62.6813 62.4636C62.6207 62.5249 62.6799 63.4837 62.8128 64.5944C63.0189 66.318 63.0033 67.1689 62.7061 70.4049C62.3096 74.7194 62.3831 75.8147 63.1829 77.5285C64.1728 79.6497 66.7602 81.1646 69.3923 81.1646C70.0965 81.1646 70.501 81.2915 70.9821 81.6633C71.7289 82.2406 71.8724 82.2557 72.9331 81.8685C73.9722 81.4892 76.5984 81.4878 78.0303 81.8656C79.7593 82.3219 82.0224 83.3324 82.9878 84.0791L83.8494 84.7457L83.7266 83.8028C83.6591 83.2844 83.3006 81.6483 82.9299 80.1673C82.3703 77.9304 82.2384 76.9848 82.1506 74.5822C82.0591 72.0714 81.9886 71.5977 81.6167 70.9917C80.9614 69.9238 80.7266 69.29 80.3004 67.4378C79.625 64.5022 78.7374 62.926 77.3587 62.2133C76.4415 61.7392 76.6451 61.7294 72.8346 62.4301ZM23.4848 62.6076C21.2524 63.7522 19.7293 65.9344 18.4059 69.8853C18.0187 71.0418 17.8024 72.2849 17.6081 74.473C17.3467 77.4172 17.0091 79.0048 16.0222 81.9292C15.7508 82.7338 15.5559 83.6538 15.5892 83.9737L15.6496 84.5552L16.5354 83.9458C20.0083 81.5564 23.5112 80.6438 26.9159 81.2412C28.7016 81.5546 31.6947 81.3822 33.0313 80.8891C34.0659 80.5076 35.4386 79.5302 35.978 78.7911C37.0778 77.2838 37.3449 75.2312 36.9039 71.6749C36.5274 68.636 36.5947 66.0962 37.102 64.2098C37.2642 63.6064 37.398 62.926 37.3992 62.6976C37.4016 62.2937 37.3691 62.2897 36.1713 62.544C34.4894 62.9011 30.5291 62.8789 28.937 62.5033C28.2333 62.3374 26.9931 62.1523 26.1811 62.092C24.8081 61.9901 24.6195 62.0262 23.4848 62.6076ZM57.2996 63.8204L56.6362 64.6568L55.5776 64.5307L54.5189 64.4047L54.6435 64.9556C55.0923 66.9381 59.0201 73.4749 59.2077 72.551C59.2451 72.3664 59.1315 71.1547 58.9553 69.8581C58.7791 68.5618 58.5069 66.5585 58.3506 65.4066C58.1941 64.2547 58.0429 63.2384 58.0146 63.148C57.9862 63.0578 57.6644 63.3604 57.2996 63.8204ZM41.4726 66.286C40.4557 70.518 39.7187 74.204 39.8608 74.3482C39.9888 74.4776 40.3612 74.037 42.1756 71.6093C43.3904 69.9836 44.3465 68.2626 45.2494 66.0756C45.56 65.3236 45.9612 64.3682 46.1413 63.9523L46.4687 63.1963L45.5291 63.7029C44.374 64.3261 44.0173 64.3315 42.9976 63.7404L42.1961 63.2759L41.4726 66.286ZM49.2468 64.0729C48.7083 64.654 48.7008 65.4 49.227 66.0778C50.0299 67.1122 51.378 66.533 51.378 65.1537C51.378 64.5074 50.6026 63.6114 50.0433 63.6114C49.8407 63.6114 49.4823 63.8192 49.2468 64.0729ZM90.4528 64.5018C89.6925 64.8545 90.0461 64.8596 90.9449 64.509C91.3238 64.3612 91.501 64.2373 91.3386 64.2339C91.1762 64.2305 90.7776 64.351 90.4528 64.5018ZM65.3843 65.478C65.2734 65.6184 65.3429 66.5478 65.5654 67.8999C65.764 69.1067 65.9307 70.8122 65.9358 71.6899C65.9411 72.5675 66.0716 73.9572 66.2262 74.7782C66.5716 76.6131 66.9959 77.0681 68.2018 76.8964C72.8825 76.2294 74.8638 76.65 78.4589 79.074C79.3508 79.6752 80.1331 80.1673 80.1974 80.1673C80.2616 80.1673 80.0148 79.741 79.6488 79.2198C77.7335 76.4933 77.2868 74.7752 77.2738 70.0855C77.2652 66.987 77.2152 66.4113 76.9148 65.9466C76.4949 65.2969 76.3921 65.2909 74.8947 65.8273C73.85 66.2017 73.4274 66.2364 71.063 66.1426C69.3228 66.0736 67.9152 65.9013 66.9848 65.6438C65.9356 65.3531 65.5169 65.3098 65.3843 65.478ZM24.2126 65.7561C23.1829 66.2773 22.8179 67.2275 22.6211 69.9002C22.3567 73.4915 21.5157 76.1883 19.8707 78.7211C19.639 79.0778 19.5152 79.3694 19.5953 79.3694C19.6754 79.3694 20.2821 79.0233 20.9433 78.6004C22.6583 77.5038 23.7734 76.9538 24.9016 76.6484C26.0551 76.3363 28.6577 76.309 29.9213 76.5958C30.4085 76.7065 31.25 76.8457 31.7913 76.9056C32.6691 77.0023 32.8274 76.9578 33.2535 76.4955C33.7065 76.004 33.7443 75.7662 33.9793 71.9384C34.1156 69.7173 34.2888 67.4753 34.3642 66.9565C34.538 65.7598 34.4175 65.7072 32.1482 65.9868C30.6744 66.1684 30.0116 66.1408 27.7555 65.8045C24.5746 65.3304 25.0407 65.3368 24.2126 65.7561ZM88.0919 65.6039C88.023 65.7168 88.102 65.7503 88.2772 65.6823C88.6181 65.5496 88.6805 65.4066 88.3974 65.4066C88.2955 65.4066 88.1581 65.4954 88.0919 65.6039ZM65.748 66.142C65.748 67.3165 69.9972 71.6374 73.5102 74.0352C74.9102 74.9911 76.0911 75.7371 76.1344 75.6932C76.2655 75.5603 75.7842 74.7667 74.4756 72.9583C73.7896 72.0102 73.2283 71.1744 73.2283 71.1006C73.2283 71.027 73.3835 70.9825 73.5728 71.0021C74.2197 71.0689 75.4929 70.9604 75.1968 70.8641C74.3992 70.6039 73.0315 69.9072 73.0315 69.7608C73.0315 69.6698 73.5067 69.5954 74.0876 69.5954C74.8581 69.5954 75.2841 69.4835 75.6624 69.1819C76.4031 68.5915 76.3081 68.4331 75.2827 68.5502C74.5673 68.632 73.7951 68.4609 71.4933 67.7105C65.5634 65.7772 65.748 65.8277 65.748 66.142ZM31.9882 66.9142C30.323 67.6203 27.8608 68.1962 26.4996 68.1978C25.672 68.1988 25.1526 68.3176 24.6787 68.6144C24.3142 68.8426 24.0157 69.0938 24.0157 69.1724C24.0157 69.2509 24.5915 69.2781 25.2953 69.2326C26.036 69.1847 26.5748 69.2304 26.5748 69.3411C26.5748 69.446 26.1346 69.7748 25.5967 70.0716C24.1329 70.8788 24.1364 71.0665 25.6122 70.9151C26.3039 70.8443 26.9728 70.8553 27.0984 70.9395C27.2514 71.0422 26.9102 71.5726 26.065 72.5472C24.9236 73.8627 24.5329 74.5822 24.9598 74.5822C25.1911 74.5822 27.9138 72.8557 28.585 72.2833C29.1738 71.7812 29.6217 71.6591 29.8002 71.9518C29.8545 72.0411 29.7626 72.7205 29.5957 73.4617C29.4289 74.2028 29.3506 74.8682 29.4217 74.9404C29.4929 75.0124 29.8526 74.7146 30.2209 74.2784L30.8907 73.4851L30.898 74.2167C30.9067 75.0597 31.0677 75.5795 31.3203 75.5795C31.4169 75.5795 31.4961 75.4169 31.4961 75.2183C31.4961 74.9181 33.3211 68.2219 33.7624 66.9026C33.9098 66.4618 33.337 67.0414 31.4343 69.2587C30.8049 69.9922 30.1051 70.6925 29.8791 70.8152C29.4813 71.0308 29.4825 71.0178 29.9152 70.4021C30.1608 70.0524 30.8563 69.2117 31.4606 68.5339C33.0827 66.7147 33.3451 66.4035 33.2528 66.4087C33.2069 66.4113 32.6378 66.6387 31.9882 66.9142ZM12.0892 67.3899C11.3228 67.5756 11.3244 67.5744 8.92205 69.3365C6.69567 70.9696 5.70866 71.9837 5.70866 72.6385C5.70866 73.0042 5.90728 72.8791 6.93898 71.8626C8.32992 70.4922 11.0063 68.3146 11.137 68.4469C11.2366 68.548 7.59724 71.9755 6.33012 72.974C5.57264 73.5708 5.48858 73.7163 5.59331 74.2472C5.67618 74.6669 5.60787 74.9655 5.36575 75.2436C5.02717 75.632 5.03346 75.6377 5.65945 75.5153C6.25394 75.3988 6.29961 75.4285 6.30551 75.9335L6.31161 76.4771L6.79173 75.9244L7.27185 75.3714L7.24567 76.0748C7.2313 76.4615 7.27205 76.8314 7.33622 76.8964C7.56142 77.1246 9.27087 74.5048 10.4579 72.1119C11.1173 70.7827 11.9575 69.1897 12.3246 68.572C13.2126 67.0777 13.2203 67.1158 12.0892 67.3899ZM49.178 69.2382C47.4817 71.8265 45.6531 73.4163 42.3419 75.1806C40.0474 76.4031 39.4657 77.0081 39.4951 78.1407C39.5323 79.5806 40.465 80.8074 42.2024 81.7014C43.3144 82.2737 43.3376 82.2575 43.8213 80.5662C44.2854 78.9427 44.901 77.9901 46.2608 76.7917C46.9571 76.1779 47.9593 74.9823 48.5984 74.0029C49.2136 73.0598 49.839 72.2883 49.9882 72.2883C50.1372 72.2883 50.8846 73.2307 51.6492 74.3827C53.2468 76.7901 57.9713 81.763 58.6606 81.763C59.3232 81.763 60.2362 80.1034 60.2362 78.8991C60.2362 77.2149 59.663 76.5088 56.5541 74.3625C53.586 72.3134 51.7191 70.587 50.9701 69.1987C50.7043 68.7062 50.348 68.2761 50.1781 68.243C49.9882 68.2059 49.6039 68.5883 49.178 69.2382ZM67.8333 71.1297C67.989 71.767 68.2014 73.0961 68.3049 74.0835C68.4085 75.0708 68.4957 75.9012 68.4986 75.9286C68.5016 75.9559 68.5925 75.9784 68.7008 75.9784C68.8091 75.9784 68.8984 75.4624 68.8994 74.8315L68.9014 73.6845L69.4091 74.5431C70.3774 76.1803 70.6976 74.8472 69.8065 72.8889C69.3827 71.9575 68.0717 70.1717 67.7098 70.0327C67.6218 69.999 67.6774 70.4926 67.8333 71.1297ZM9.72874 70.5459C9.3063 70.8375 6.69291 73.8529 6.69291 74.0488C6.69291 74.1591 7.37933 73.504 8.2185 72.5926C9.92106 70.7436 10.4179 70.0702 9.72874 70.5459ZM8.43937 73.136C8.19469 73.4524 8.20157 73.4593 8.51378 73.2114C8.70315 73.0608 8.85827 72.9036 8.85827 72.8623C8.85827 72.6982 8.69665 72.8037 8.43937 73.136ZM49.7866 74.5911C49.2925 77.3895 49.6102 85.9519 50.2083 85.9519C50.5051 85.9519 50.85 83.6578 50.8679 81.5636C50.8778 80.4116 50.8222 78.2574 50.7445 76.7763L50.6029 74.0835L51.1825 76.971C51.7756 79.9261 52.3742 81.7582 52.8878 82.1901C53.1394 82.4017 53.1593 82.2723 53.0396 81.2007C52.9638 80.5225 52.9419 79.9678 52.9909 79.9678C53.04 79.9678 53.5037 80.5961 54.0217 81.3641C54.5394 82.132 54.998 82.7604 55.0405 82.7604C55.3748 82.7604 54.9079 81.6615 53.7362 79.6899C52.9762 78.411 52.0152 76.6263 51.6008 75.7241C51.1862 74.8217 50.6675 73.8631 50.4482 73.5938L50.0492 73.1041L49.7866 74.5911ZM48.5215 75.3294C47.5856 76.7739 45.0789 81.6625 45.0787 82.0433C45.0787 82.3933 45.9309 81.4463 46.9915 79.9179C47.5815 79.0678 48.0791 78.3721 48.097 78.3719C48.1152 78.3719 48.1002 79.202 48.064 80.2169C48.0278 81.2318 48.0319 82.3764 48.073 82.7604L48.1482 83.4585L48.3728 82.9295C48.4965 82.6385 48.737 80.8882 48.9073 79.0399C49.0776 77.1916 49.3075 75.2859 49.4183 74.8052C49.5293 74.3244 49.5937 73.9046 49.5618 73.8722C49.5297 73.8397 49.0616 74.4954 48.5215 75.3294ZM37.3043 79.0203C35.835 83.3352 34.5142 85.0567 32.6772 85.0503C31.5474 85.0463 29.6848 84.182 28.8321 83.2658L28.1919 82.5779L27.5309 83.6021C26.0468 85.9018 24.5203 86.5393 19.9803 86.7555C17.0644 86.8944 15.5512 87.163 15.5512 87.5416C15.5512 87.7227 16.9161 89.0153 17.9321 89.7964C18.3215 90.0956 19.1423 90.5157 19.7567 90.7297C20.3709 90.944 20.9478 91.1656 21.0384 91.2224C21.1291 91.2793 21.0417 91.7995 20.8443 92.3787C19.7028 95.7276 21.2953 98.7151 24.2232 98.7171C26.172 98.7185 28.086 97.3633 29.4423 95.0217C29.9657 94.1179 31.8898 89.4908 31.8898 89.1358C31.8898 89.0093 31.2837 89.8345 30.5427 90.9695C29.3654 92.7733 27.488 94.8954 27.0262 94.9445C26.9404 94.9537 26.6844 94.9826 26.4577 95.0087C26.2309 95.0349 25.7608 95.2615 25.413 95.5126C24.5018 96.17 24.4179 95.8547 25.289 95.0462L26.0295 94.3589L25.2555 94.4173C24.8297 94.4496 24.2868 94.5815 24.0488 94.7105C23.6931 94.9034 23.5951 94.8893 23.4968 94.63C23.4311 94.4566 23.5087 94.161 23.6689 93.9731C24.0026 93.5817 24.2661 92.6768 23.9974 92.8451C23.8992 92.9065 23.8189 93.0809 23.8189 93.2325C23.8189 93.3841 23.7226 93.5684 23.6049 93.6422C23.4656 93.7295 23.4114 93.577 23.45 93.2049C23.4825 92.8908 23.4354 92.513 23.3455 92.3654C23.0596 91.897 23.6628 91.5587 25.3669 91.231C27.3297 90.8538 28.5884 90.3123 30.3417 89.0901C32.3002 87.7253 32.8433 87.473 33.1915 87.7658C33.8384 88.3098 36.3848 85.08 37.0242 82.9042L37.4407 81.4872L37.9785 83.1711C39.0368 86.4838 39.5813 87.2668 42.6246 89.8513C45.4461 92.2475 46.6752 93.8281 48.3711 97.2412C49.4602 99.4332 49.7756 99.9151 50.0911 99.87C50.3409 99.8345 50.5774 99.5333 50.7602 99.0171C52.5594 93.9406 53.2163 93.0208 57.1488 90.0723C59.59 88.2422 60.2671 87.4928 60.8254 86.0037C61.2699 84.8187 61.4874 82.509 61.2437 81.5636C61.1449 81.1796 61.0549 81.0146 61.0437 81.1967C61.0327 81.379 60.4496 82.0612 59.748 82.7127C58.7675 83.6231 58.0502 84.0745 56.6484 84.6631C53.8199 85.8511 52.1248 87.7644 50.7675 91.3004C49.8533 93.6823 49.8138 93.7615 49.6055 93.6308C49.4976 93.5634 49.4094 93.331 49.4094 93.1146C49.4094 92.3774 48.5972 90.2436 47.7841 88.8442C46.6441 86.8828 45.3358 85.6694 42.6226 84.0569C39.7429 82.3455 38.56 81.2452 38.0657 79.8182C37.7073 78.7838 37.4697 78.5348 37.3043 79.0203ZM61.6644 79.7951C61.7134 80.3837 61.9083 81.5386 62.0974 82.3614C62.5246 84.2193 62.4087 87.046 61.8274 88.9469C60.99 91.6856 58.4061 95.0265 56.301 96.0925L55.1185 96.6911L56.6098 97.9068C59.7915 100.5 61.1915 100.654 62.3451 98.5345C62.6469 97.9802 62.9431 97.5254 63.0035 97.5238C63.0638 97.5222 63.2638 97.8667 63.4476 98.2892C63.8978 99.3231 64.3835 99.7282 65.326 99.8562C67.3551 100.132 69.2047 97.2703 68.2274 95.3668C67.8071 94.5484 67.1057 93.994 66.3085 93.85C65.9128 93.7786 65.5443 93.6019 65.4896 93.4571C65.4346 93.3123 65.2868 92.3047 65.161 91.2184C64.774 87.8785 64.5984 86.9614 64.2569 86.4978C63.9718 86.111 63.948 86.1049 64.0779 86.4505C64.1604 86.67 64.2713 87.3749 64.3242 88.0172C64.4189 89.1663 64.4136 89.1811 63.9915 88.9521C63.6008 88.7402 63.5661 88.5789 63.6004 87.1363C63.6211 86.2654 63.6988 85.5529 63.773 85.5529C63.8474 85.5529 64.5758 86.2487 65.3921 87.0988C66.6998 88.4612 67.0274 88.9662 68.1516 91.3527C70.5089 96.3575 72.2547 98.3087 74.6768 98.6453C76.3232 98.8738 77.937 98.001 78.8791 96.3719C79.3604 95.5395 79.4319 95.1807 79.5232 93.1373L79.626 90.8388L81.2008 90.0402C82.0669 89.6009 83.2628 89.0368 83.8583 88.7863L84.9409 88.3313L84.4488 87.9406C83.6872 87.3362 82.601 87.1062 79.8228 86.9612C77.6982 86.8503 77.1134 86.7489 76.378 86.3648C75.1183 85.7065 72.4421 83.9117 71.7909 83.2884C71.1116 82.6379 71.0492 82.6371 70.4618 83.2704C69.8565 83.9233 68.0835 84.9545 67.5659 84.9545C67.3472 84.9545 67.1244 84.8424 67.0711 84.7052C66.9094 84.2901 65.3132 82.3367 65.2161 82.435C65.1663 82.4855 65.5313 83.0316 66.0274 83.6486C66.5232 84.2658 66.9291 84.8568 66.9291 84.9623C66.9291 85.2102 66.4126 85.2082 65.952 84.9583C65.4378 84.6795 63.9801 82.5477 62.9575 80.579C61.8801 78.5049 61.5396 78.2985 61.6644 79.7951ZM13.8972 80.3169C13.8392 80.5088 13.6965 81.3392 13.5803 82.162C13.1728 85.0499 12.4154 86.3705 10.9335 86.7779C7.51004 87.7188 6.23898 88.5055 5.44154 90.177C4.86988 91.3754 4.5313 93.2129 4.52913 95.128L4.52756 96.4252L7.23425 95.1033C10.9274 93.2997 11.9827 92.1932 12.8565 89.209C13.2488 87.8692 13.4931 87.4142 14.3283 86.4681L15.0171 85.6878L14.8931 83.5758C14.7654 81.3966 14.4819 79.9678 14.1772 79.9678C14.0813 79.9678 13.9553 80.125 13.8972 80.3169ZM85.764 81.4943C84.3073 83.6691 84.3972 85.6435 86.0502 87.7752C86.3598 88.1747 86.8707 89.1422 87.185 89.9251C88.4321 93.0302 90.3394 94.5063 94.9504 95.9345C95.4793 96.0982 95.5039 96.0799 95.3872 95.6081C95.3191 95.3331 95.1329 94.1662 94.9734 93.0151C94.6616 90.7646 94.1415 89.445 93.1844 88.4749C92.3691 87.6489 91.647 87.3312 90.0878 87.1122C88.3968 86.8748 87.7854 86.5724 87.0673 85.619C86.564 84.9507 86.5071 84.702 86.4173 82.7763L86.3189 80.6659L85.764 81.4943ZM36.4037 86.492C36.1195 87.3575 35.9226 88.5721 35.8463 89.9309C35.7498 91.6501 35.6703 92.0426 35.4087 92.0931C34.9992 92.1723 34.7858 91.6182 35.0402 91.1367C35.3004 90.6438 35.2998 88.681 35.0394 88.8442C34.9311 88.912 34.8429 89.3436 34.8435 89.8034C34.8441 90.2632 34.7144 91.0433 34.5553 91.537C34.3963 92.0307 34.2219 92.659 34.1677 92.9333C34.1006 93.2738 33.7839 93.5843 33.1697 93.9121C32.6748 94.1762 32.0073 94.6954 31.6862 95.066C30.4199 96.5273 31.312 98.875 33.4827 99.794C34.7268 100.32 35.7173 99.8155 36.5317 98.2397L37.077 97.1843L37.5518 98.1498C38.4516 99.9793 39.4081 100.305 41.1974 99.3895C42.3439 98.803 45.0531 96.9039 45.0687 96.6759C45.0742 96.5949 44.438 96.2018 43.6547 95.802C41.3016 94.6012 38.7309 91.6848 37.7699 89.1254C37.547 88.532 37.3159 87.3956 37.2563 86.6001C37.1967 85.8047 37.0793 85.154 36.9955 85.154C36.9116 85.154 36.6453 85.7562 36.4037 86.492ZM66.7323 87.9085C66.7323 88.4115 69.3102 92.062 70.3689 93.0579C71.3972 94.0252 72.8374 94.8055 73.101 94.5384C73.2108 94.4271 73.3929 94.4678 73.5644 94.6415C73.8736 94.9549 74.6063 95.0331 74.6063 94.7526C74.6063 94.6563 74.3553 94.4722 74.0486 94.3433C73.7419 94.2147 73.0112 93.639 72.4246 93.0641C71.8382 92.4893 71.0482 91.8061 70.6693 91.5462L69.9803 91.0734L70.7585 91.9036C71.2063 92.3813 71.4183 92.7338 71.2579 92.7338C70.9163 92.7338 69.1384 90.8422 68.6116 89.9183C68.235 89.2577 68.253 89.2648 69.4974 90.2678C71.0768 91.5402 76.1112 94.0812 76.4244 93.7639C76.7122 93.4722 76.0703 92.9438 74.2742 91.994C73.4963 91.5825 72.8835 91.2216 72.9124 91.1923C72.9878 91.1159 75.3844 92.0855 76.0512 92.4619C76.4805 92.7043 76.6634 92.7228 76.8386 92.5421C77.199 92.1703 76.4791 91.7089 74.4957 91.0405C73.5279 90.7144 71.4652 89.7952 69.9118 88.9976C68.3585 88.2001 67.0075 87.5476 66.9098 87.5476C66.8122 87.5476 66.7323 87.71 66.7323 87.9085ZM63.7866 89.7346C63.1697 90.3597 63.2419 92.7338 63.878 92.7338C64.2142 92.7338 64.3055 92.4502 64.4695 90.8981C64.6248 89.429 64.4246 89.0881 63.7866 89.7346ZM28.2116 92.3349C27.4754 93.2125 26.8091 93.9306 26.7309 93.9306C26.6526 93.9306 26.4902 94.1169 26.3699 94.3447C26.176 94.7121 26.1917 94.7363 26.5106 94.5599C27.1837 94.1877 30.0209 90.7391 29.6541 90.7391C29.5969 90.7391 28.9478 91.4572 28.2116 92.3349ZM27.4154 91.9888C27.0803 92.4534 26.5604 93.1477 26.26 93.5317L25.7136 94.2298L26.2606 93.7311C26.9157 93.1337 28.2323 91.3549 28.1104 91.2314C28.0632 91.1833 27.7502 91.5242 27.4154 91.9888ZM25.6797 92.7456C25.2518 93.1908 25.0344 93.4972 25.1968 93.4264C25.474 93.3055 26.7043 91.9359 26.5356 91.9359C26.4929 91.9359 26.1077 92.3002 25.6797 92.7456ZM72.3571 92.7504C72.5656 92.9839 73.0565 93.3408 73.448 93.5434C73.8398 93.7459 74.4274 94.1395 74.7541 94.4181C75.2291 94.823 75.3907 94.8727 75.5606 94.6653C75.8589 94.3012 75.2992 93.8592 73.4717 93.0154C72.2128 92.434 72.0376 92.3923 72.3571 92.7504Z" fill="#FFD700"/>
</svg>
