<svg width="196" height="87" viewBox="0 0 196 87" fill="none" xmlns="http://www.w3.org/2000/svg">
<path d="M112.48 29.3696L112.31 29.5576C111.603 29.7285 111.193 29.9678 111.079 30.2754C110.965 30.5716 110.908 31.7223 110.908 33.7275C110.908 34.696 110.954 35.653 111.045 36.5986C107.24 38.0342 103.787 38.752 100.688 38.752C96.6097 38.752 93.3057 37.6126 90.7764 35.334C88.2585 33.0439 86.9995 29.9279 86.9995 25.9858C86.9995 20.8475 89.2269 17.1846 93.6816 14.9971C95.721 13.9945 98.313 13.4932 101.458 13.4932C103.28 13.4932 105.126 13.6925 106.995 14.0913C108.533 14.4217 109.746 14.7977 110.635 15.2192L110.789 15.5269C110.492 16.5295 110.247 18.2726 110.054 20.7563L109.866 20.9272H108.84L108.669 20.7563C108.669 20.5399 108.647 20.0955 108.601 19.4233C108.556 18.7397 108.499 18.2612 108.43 17.9878C107.929 17.3042 107.074 16.7231 105.867 16.2446C104.568 15.7433 103.167 15.4927 101.663 15.4927C97.6294 15.4927 94.8438 17.1219 93.3057 20.3804C92.5993 21.8843 92.2461 23.6274 92.2461 25.6099C92.2461 28.7772 93.0892 31.4033 94.7754 33.4883C96.5299 35.653 98.8143 36.7354 101.628 36.7354C103.121 36.7354 104.562 36.4163 105.952 35.7783C106.032 34.9808 106.072 33.887 106.072 32.4971C106.072 31.3691 106.032 30.6855 105.952 30.4463C105.884 30.264 105.667 30.133 105.303 30.0532C104.995 29.9849 104.032 29.8994 102.415 29.7969L102.227 29.626V28.5493L102.415 28.3784C104.067 28.424 105.798 28.4411 107.61 28.4297C108.658 28.4183 110.225 28.4012 112.31 28.3784L112.48 28.5493V29.3696ZM127.742 21.4912L127.622 24.5332C127.611 25.0345 127.588 25.6042 127.554 26.2422L126.836 26.4644C126.3 25.6896 125.56 25.3022 124.614 25.3022C123.76 25.3022 123.053 25.644 122.495 26.3276C122.153 26.7492 121.982 27.3701 121.982 28.1904V32.1895C121.982 33.0212 122.022 34.1776 122.102 35.6587C122.125 36.0802 122.244 36.3537 122.461 36.479C122.677 36.6043 123.469 36.6898 124.836 36.7354L125.007 36.8892V37.9316L124.836 38.1025C123.162 38.0342 121.498 38 119.846 38C117.807 38 116.252 38.0399 115.181 38.1196L115.01 37.9487V36.9062L115.181 36.7354C116.274 36.7012 116.952 36.6157 117.214 36.479C117.442 36.3765 117.568 36.103 117.59 35.6587C117.67 34.1776 117.71 32.5882 117.71 30.8906V28.4468C117.71 26.1681 117.625 24.8579 117.454 24.5161C117.34 24.2882 117.095 24.1458 116.719 24.0889C116.582 24.0661 116.086 24.0376 115.232 24.0034L115.061 23.8325V22.8755L115.232 22.6875C117.283 22.4938 119.442 22.021 121.709 21.269L122.085 21.4912L122.051 24.8408C122.757 24.0205 123.612 23.0635 124.614 21.9697C125.081 21.514 125.719 21.2861 126.528 21.2861C127.007 21.2861 127.411 21.3545 127.742 21.4912ZM144.49 37.8975L144.302 38.0854C143.345 38.0285 142.245 38 141.003 38C140.035 38 139.106 38.0285 138.218 38.0854L138.064 37.8975L138.218 35.6074L134.902 38.1367C134.64 38.3304 134.264 38.45 133.774 38.4956C133.581 38.5184 133.353 38.5298 133.091 38.5298C131.826 38.5298 130.852 38.1481 130.168 37.3848C129.496 36.6214 129.16 35.5675 129.16 34.2231C129.16 32.4458 129.724 31.1868 130.852 30.4463C132.071 29.6374 134.526 28.9082 138.218 28.2588C138.218 26.4473 137.739 25.2339 136.782 24.6187C136.201 24.2427 135.506 24.0547 134.697 24.0547C133.809 24.0547 133.108 24.237 132.595 24.6016L131.946 26.1909L131.724 26.3105L130.852 26.1055L130.732 25.8662L130.818 23.8496C132.698 22.4596 134.111 21.6735 135.056 21.4912C135.455 21.4115 135.973 21.3716 136.611 21.3716C138.856 21.3716 140.457 21.9583 141.414 23.1318C142.109 23.9863 142.456 25.2965 142.456 27.0625C142.456 27.4954 142.439 28.1904 142.405 29.1475C142.348 30.7425 142.319 31.8078 142.319 32.3433C142.319 34.0636 142.348 35.1631 142.405 35.6416C142.462 36.1087 142.593 36.4049 142.798 36.5303C143.014 36.6556 143.521 36.7297 144.319 36.7524L144.49 36.9404V37.8975ZM138.218 33.9155V29.7114C136.338 30.1216 135.068 30.5659 134.407 31.0444C133.757 31.5116 133.433 32.2293 133.433 33.1978C133.433 34.7472 134.111 35.522 135.466 35.522C136.617 35.522 137.534 34.9865 138.218 33.9155ZM165.938 37.9316L165.767 38.1196C164.513 38.0399 163.454 38 162.588 38C161.79 38 160.628 38.0399 159.102 38.1196L158.931 37.9487C159.136 35.408 159.238 33.4484 159.238 32.0698V28.7202C159.238 25.9403 158.236 24.5503 156.23 24.5503C155.182 24.5503 154.362 24.9092 153.77 25.627C153.268 26.2308 153.018 26.8403 153.018 27.4556V30.6514C153.018 33.6022 153.092 35.4137 153.24 36.0859C153.331 36.4847 153.992 36.6955 155.222 36.7183L155.393 36.8892V37.9316L155.222 38.1025C154.254 38.0342 152.807 38 150.881 38C148.842 38 147.287 38.0399 146.216 38.1196L146.045 37.9487V36.9062L146.216 36.7354C147.31 36.7012 147.987 36.6157 148.25 36.479C148.477 36.3765 148.603 36.103 148.625 35.6587C148.705 34.1776 148.745 32.5882 148.745 30.8906V28.4468C148.745 26.1681 148.66 24.8579 148.489 24.5161C148.375 24.2882 148.13 24.1458 147.754 24.0889C147.617 24.0661 147.122 24.0376 146.267 24.0034L146.096 23.8325V22.8755L146.267 22.6875C148.318 22.4938 150.477 22.021 152.744 21.269L153.12 21.4912L153.086 24.3623L156.025 21.9014C156.777 21.5938 157.603 21.4399 158.503 21.4399C160.315 21.4399 161.671 21.9868 162.571 23.0806C163.3 23.9692 163.665 25.2738 163.665 26.9941C163.665 27.1878 163.642 27.9797 163.596 29.3696C163.551 30.7596 163.528 31.7508 163.528 32.3433C163.528 34.0636 163.556 35.1631 163.613 35.6416C163.67 36.1087 163.801 36.4049 164.006 36.5303C164.211 36.6556 164.804 36.7297 165.784 36.7524L165.938 36.9233V37.9316ZM187.197 37.9487L187.026 38.1196C185.91 38.0399 184.902 38 184.001 38C183.147 38 181.991 38.0399 180.532 38.1196L180.378 38C180.424 37.4417 180.447 36.5075 180.447 35.1973C180.037 35.5391 179.45 36.0632 178.687 36.7695C177.741 37.6468 177.126 38.1709 176.841 38.3418C176.476 38.5127 175.884 38.5981 175.063 38.5981C173.115 38.5981 171.543 37.8633 170.347 36.3936C169.15 34.9238 168.552 33.0212 168.552 30.6855C168.552 28.4183 169.014 26.6523 169.937 25.3877C170.176 25.0573 170.882 24.4705 172.056 23.6274C173.423 22.6476 174.42 22.0267 175.046 21.7646C175.593 21.5368 176.288 21.4229 177.131 21.4229C178.316 21.4229 179.421 21.6735 180.447 22.1748V21.2178C180.447 18.2214 180.373 16.4554 180.225 15.9199C180.145 15.6237 179.911 15.4414 179.524 15.373C179.342 15.3389 178.818 15.3047 177.952 15.2705L177.781 15.0825V14.1426L177.952 13.9546C180.139 13.7267 182.344 13.2539 184.565 12.5361L184.941 12.7412C184.941 12.7868 184.919 13.3507 184.873 14.4331C184.771 16.8826 184.719 20.5627 184.719 25.4731V30.9932C184.719 34.1947 184.793 35.9549 184.941 36.2739C185.033 36.4676 185.158 36.5872 185.317 36.6328C185.568 36.7126 186.138 36.7866 187.026 36.855L187.197 37.0259V37.9487ZM180.447 29.0278V25.8149C179.626 24.8351 178.84 24.2085 178.088 23.9351C177.576 23.7528 177.029 23.6616 176.448 23.6616C174.875 23.6616 173.861 24.4705 173.406 26.0884C173.155 26.9884 173.03 27.991 173.03 29.0962C173.03 31.4546 173.582 33.2035 174.688 34.3428C175.269 34.9466 176.049 35.2485 177.029 35.2485C177.838 35.2485 178.59 34.9922 179.285 34.4795C179.911 34.0238 180.282 33.5339 180.396 33.0098C180.43 32.8503 180.447 31.5229 180.447 29.0278Z" fill="#8B4513"/>
<path d="M104.91 65.292C104.659 66.9554 104.534 68.8353 104.534 70.9316L104.363 71.1025L91.9385 71C89.8649 71 88.4009 71.0342 87.5464 71.1025L87.3755 70.9316V70.4531L87.4609 70.248C88.304 69.7126 88.7598 69.3765 88.8281 69.2397C88.9307 69.0347 88.9933 68.277 89.0161 66.9668L89.0674 63.1387V54.4741C89.0674 51.7625 88.9933 49.9966 88.8452 49.1763C88.7882 48.8459 88.5946 48.6351 88.2642 48.5439C88.0933 48.4984 87.4268 48.4414 86.2646 48.373L86.0938 48.2021V47.04L86.2646 46.8862C87.4382 46.9546 89.1585 46.9888 91.4258 46.9888C93.7728 46.9888 95.5558 46.9546 96.7749 46.8862L96.9458 47.04V48.2192L96.7749 48.373C95.6128 48.4414 94.9463 48.4984 94.7754 48.5439C94.445 48.6351 94.2513 48.8459 94.1943 49.1763C94.0462 49.9966 93.9722 51.7625 93.9722 54.4741V64.6938C93.9722 66.1864 94.0007 67.6333 94.0576 69.0347H96.3818C99.7087 69.0347 101.748 68.9036 102.5 68.6416C102.625 68.596 102.716 68.5334 102.773 68.4536C102.887 68.2941 102.996 67.9523 103.098 67.4282L103.508 65.3091L103.679 65.1211H104.722L104.91 65.292ZM122.495 61.4126C122.495 61.6063 122.489 61.8968 122.478 62.2842L122.29 62.5234C120.786 62.9336 118.792 63.1387 116.309 63.1387C115.864 63.1387 115.192 63.1501 114.292 63.1729C113.392 63.1842 112.714 63.1899 112.258 63.1899C112.327 64.8647 112.845 66.249 113.813 67.3428C114.827 68.5163 116.149 69.103 117.778 69.103C118.872 69.103 120.171 68.7271 121.675 67.9751L122.085 68.4707L121.333 70.1626C119.67 71.2222 117.864 71.752 115.916 71.752C113.352 71.752 111.358 71.0285 109.934 69.5815C108.521 68.1346 107.815 66.0724 107.815 63.395C107.815 60.2163 108.573 58.0402 110.088 56.8667C112.184 55.2489 114.172 54.4399 116.052 54.4399C118.092 54.4399 119.67 55.0267 120.786 56.2002C121.925 57.4079 122.495 59.1453 122.495 61.4126ZM118.035 60.9683C118.035 57.8921 117.078 56.354 115.164 56.354C113.147 56.354 112.139 57.8807 112.139 60.9341V61.3101C112.799 61.4126 113.973 61.4639 115.659 61.4639C116.536 61.4639 117.323 61.4126 118.018 61.3101C118.029 61.1506 118.035 61.0366 118.035 60.9683ZM142.815 72.1792C142.815 74.6743 141.881 76.6624 140.012 78.1436C138.155 79.6247 135.723 80.3652 132.715 80.3652C130.356 80.3652 128.488 79.9209 127.109 79.0322C125.742 78.1549 125.059 76.9701 125.059 75.4775C125.059 74.4749 125.281 73.7173 125.725 73.2046C125.771 73.1476 126.375 72.7716 127.537 72.0767C128.095 71.7463 128.505 71.5127 128.767 71.376C127.195 71.1025 126.409 70.3449 126.409 69.103C126.409 68.4422 126.637 67.77 127.092 67.0864C127.126 67.0409 127.434 66.813 128.015 66.4028C128.289 66.2091 128.773 65.8617 129.468 65.3604C127.007 64.4717 125.776 62.8254 125.776 60.4214C125.776 58.5643 126.471 57.0718 127.861 55.9438C129.251 54.8045 131.103 54.2349 133.416 54.2349C135.649 54.2349 137.397 54.7305 138.662 55.7217C139.38 55.7559 139.841 55.7673 140.046 55.7559C140.605 55.7331 141.448 55.7046 142.576 55.6704L142.781 55.8584L142.593 57.6187L142.405 57.7896H139.875C140.024 58.3364 140.098 58.8947 140.098 59.4644C140.098 62.1759 138.782 64.0273 136.15 65.0186C134.965 65.4629 133.797 65.6851 132.646 65.6851C132.259 65.6851 131.758 65.6566 131.143 65.5996C130.425 65.987 130.066 66.494 130.066 67.1206C130.066 67.7017 130.482 68.0321 131.313 68.1118C131.792 68.1574 132.59 68.1802 133.706 68.1802C134.059 68.1802 134.674 68.1631 135.552 68.1289C136.429 68.0947 137.078 68.0776 137.5 68.0776C140.075 68.0776 141.676 68.6473 142.302 69.7866C142.644 70.4019 142.815 71.1994 142.815 72.1792ZM135.791 60.2334C135.791 57.3623 134.828 55.9268 132.903 55.9268C131.012 55.9268 130.066 57.1686 130.066 59.6523C130.066 62.5918 131.051 64.0615 133.022 64.0615C134.868 64.0615 135.791 62.7855 135.791 60.2334ZM138.901 74.1274C138.901 72.8856 138.468 72.1051 137.603 71.7861C137.238 71.6494 136.509 71.5754 135.415 71.564L132.168 71.5298C131.803 71.5298 131.302 71.5412 130.664 71.564C129.103 72.5324 128.323 73.6432 128.323 74.8965C128.323 76.0472 128.784 76.9473 129.707 77.5967C130.63 78.2575 131.866 78.5879 133.416 78.5879C135.079 78.5879 136.406 78.1834 137.397 77.3745C138.4 76.577 138.901 75.4946 138.901 74.1274ZM159.871 70.8975L159.683 71.0854C158.726 71.0285 157.626 71 156.384 71C155.416 71 154.487 71.0285 153.599 71.0854L153.445 70.8975L153.599 68.6074L150.283 71.1367C150.021 71.3304 149.645 71.45 149.155 71.4956C148.962 71.5184 148.734 71.5298 148.472 71.5298C147.207 71.5298 146.233 71.1481 145.549 70.3848C144.877 69.6214 144.541 68.5675 144.541 67.2231C144.541 65.4458 145.105 64.1868 146.233 63.4463C147.452 62.6374 149.907 61.9082 153.599 61.2588C153.599 59.4473 153.12 58.2339 152.163 57.6187C151.582 57.2427 150.887 57.0547 150.078 57.0547C149.189 57.0547 148.489 57.237 147.976 57.6016L147.327 59.1909L147.104 59.3105L146.233 59.1055L146.113 58.8662L146.199 56.8496C148.079 55.4596 149.491 54.6735 150.437 54.4912C150.836 54.4115 151.354 54.3716 151.992 54.3716C154.237 54.3716 155.837 54.9583 156.794 56.1318C157.489 56.9863 157.837 58.2965 157.837 60.0625C157.837 60.4954 157.82 61.1904 157.786 62.1475C157.729 63.7425 157.7 64.8078 157.7 65.3433C157.7 67.0636 157.729 68.1631 157.786 68.6416C157.843 69.1087 157.974 69.4049 158.179 69.5303C158.395 69.6556 158.902 69.7297 159.7 69.7524L159.871 69.9404V70.8975ZM153.599 66.9155V62.7114C151.719 63.1216 150.448 63.5659 149.788 64.0444C149.138 64.5116 148.813 65.2293 148.813 66.1978C148.813 67.7472 149.491 68.522 150.847 68.522C151.998 68.522 152.915 67.9865 153.599 66.9155ZM175.388 68.8467L174.636 70.5386C173.087 71.3475 171.56 71.752 170.056 71.752C167.515 71.752 165.573 71.0228 164.229 69.5645C162.884 68.1061 162.212 66.1066 162.212 63.5659C162.212 61.2189 162.73 59.4359 163.767 58.2168C164.052 57.875 164.593 57.425 165.391 56.8667C167.031 55.7046 168.125 55.0096 168.672 54.7817C169.23 54.5539 170.079 54.4399 171.218 54.4399C172.768 54.4399 174.049 54.6735 175.063 55.1406L175.234 55.4482C175.223 55.5964 175.143 56.1261 174.995 57.0376L174.807 58.1997C174.773 58.3934 174.722 59.1567 174.653 60.4897L174.482 60.6606H173.457L173.286 60.4897C173.218 59.4757 173.138 58.7694 173.047 58.3706C172.546 57.4819 171.583 57.0376 170.159 57.0376C167.743 57.0376 166.536 58.6042 166.536 61.7373C166.536 64.016 167.02 65.8104 167.988 67.1206C168.979 68.4764 170.375 69.1543 172.175 69.1543C173.269 69.1543 174.232 68.9207 175.063 68.4536L175.388 68.8467ZM195.315 56.0806L195.161 56.2344C194.409 56.2344 193.896 56.4508 193.623 56.8838C193.475 57.1344 193.07 57.9718 192.41 59.396C190.917 62.6431 189.681 65.48 188.701 67.9067L185.95 74.7085C185.095 76.8162 184.178 78.3145 183.198 79.2031C182.275 80.0348 181.147 80.4507 179.814 80.4507C178.971 80.4507 178.157 80.2513 177.371 79.8525C177.564 79.0436 177.764 77.91 177.969 76.4517L178.413 76.3662C179.006 77.2093 179.809 77.6309 180.823 77.6309C182.019 77.6309 183.118 76.4631 184.121 74.1274L184.822 72.4868L179.285 58.0972C178.966 57.2655 178.669 56.7528 178.396 56.5591C178.134 56.354 177.61 56.2458 176.824 56.2344L176.653 56.0635V55.0381L176.841 54.8672C177.57 54.9014 178.966 54.9185 181.028 54.9185C182.942 54.9185 184.497 54.9014 185.693 54.8672L185.864 55.0381V56.0635L185.693 56.2344C184.395 56.2344 183.745 56.4679 183.745 56.9351C183.745 57.1401 183.802 57.3908 183.916 57.687C184.098 58.2111 184.377 58.9915 184.753 60.0283L187.249 66.625L188.752 63.019C190.222 59.4985 190.957 57.4421 190.957 56.8496C190.957 56.4395 190.296 56.2344 188.975 56.2344L188.804 56.0635V55.0381L188.992 54.8672C189.653 54.9014 190.769 54.9185 192.341 54.9185C193.23 54.9185 194.159 54.9014 195.127 54.8672L195.315 55.0381V56.0806Z" fill="#401306"/>
<path fill-rule="evenodd" clip-rule="evenodd" d="M30.8091 0.465486C30.512 0.729902 30.149 1.2498 30.0025 1.62081C29.7512 2.25719 29.7235 2.27794 29.5137 1.98719C29.3913 1.81772 29.2913 1.59049 29.2913 1.48246C29.2913 1.37427 29.1079 1.06485 28.8836 0.794849C27.7328 -0.59106 25.1969 1.14416 25.1969 3.31757C25.1969 4.00055 25.2674 4.21518 25.5928 4.52076C25.9817 4.88603 26.6088 5.09109 27.3365 5.09109C27.6969 5.09109 27.7049 5.12428 27.7107 6.64694C27.714 7.50274 27.7468 8.34641 27.7833 8.52195C27.82 8.69748 27.8654 9.09243 27.8843 9.39961C27.9074 9.77301 27.9565 9.6144 28.0328 8.92088C28.3647 5.89933 28.5024 5.25066 28.811 5.25066C28.8975 5.25066 29.0784 5.46641 29.2129 5.73002C29.4392 6.17332 29.4345 6.25423 29.1518 6.80715C28.9836 7.13588 28.7276 7.91508 28.5828 8.53886L28.3195 9.67264L28.8876 10.8155C29.4006 11.8478 29.7981 13.389 29.5512 13.389C29.4973 13.389 29.2329 12.9466 28.9636 12.4058C28.3825 11.2395 27.1156 9.82759 26.4094 9.5595C26.1323 9.45434 25.0112 8.94594 23.918 8.43003C22.1287 7.58524 20.235 6.88535 18.9992 6.61215C18.6638 6.53795 18.5687 6.43933 18.6243 6.22359C18.6654 6.06449 18.6383 5.82433 18.5641 5.69013C18.4761 5.53056 18.5099 5.378 18.662 5.25018C18.8512 5.09109 19.1213 5.16321 20.1005 5.63444C20.7635 5.95359 21.3302 6.18992 21.36 6.15976C21.3898 6.1296 20.8843 5.8229 20.2365 5.47837C19.5888 5.13369 19.0813 4.77991 19.1087 4.69215C19.2915 4.10667 20.7131 4.87167 22.6772 6.61263C23.866 7.66631 25.845 9.11509 25.9502 9.00865C25.9899 8.96844 25.7027 8.42907 25.3118 7.81024C24.9211 7.19125 24.365 5.98518 24.0761 5.13002C23.6285 3.80523 23.4335 3.45528 22.7583 2.76544C21.5036 1.48373 19.8701 1.08911 18.475 1.73092C17.2887 2.27682 16.5625 3.96321 16.7713 5.6879C16.917 6.89029 16.8049 7.10285 15.8587 7.41689C15.0301 7.692 13.1487 8.59775 12.4704 9.04807C12.1767 9.24307 12.1469 9.31902 12.3246 9.41972C12.7713 9.67312 14.0553 9.88184 16.0471 10.025C18.2317 10.182 18.5213 10.2734 19.3701 11.0747C19.6732 11.3608 20.588 12.1033 21.4032 12.7245L22.885 13.8543L23.5291 13.1988C24.2227 12.493 25.8235 11.634 26.4457 11.6338C27.1159 11.6335 28.114 12.9324 29.1802 15.1919C30.0427 17.0198 30.1654 17.2044 30.298 16.873C31.003 15.111 31.5935 14.4443 33.7991 12.9206C37.5458 10.3323 38.5556 9.20573 39.6167 6.43104C39.932 5.60635 40.2416 4.93151 40.3044 4.93151C40.3674 4.93151 40.5397 5.50135 40.6874 6.1979C41.3317 9.2362 42.7688 11.0105 46.0564 12.8268C48.2153 14.0196 48.8143 14.5936 49.3959 16.0263C49.7035 16.7841 49.7943 16.8575 50.0329 16.5406C50.1813 16.3435 51.058 14.1146 51.2529 13.4388C51.3083 13.2466 51.5953 12.8745 51.8907 12.6117C53.1488 11.4923 56.0016 11.8934 56.9239 13.3194L57.2375 13.8044L58.7369 12.5809C61.2901 10.4976 62.1181 10.1557 64.5669 10.1724C66.2139 10.1836 67.1646 9.99913 67.2998 9.64232C67.3553 9.49599 67.142 9.21051 66.7255 8.87317C65.5794 7.94508 65.0773 7.6403 64.1764 7.32625C63.695 7.15838 63.2408 6.98333 63.1669 6.93705C63.0932 6.89077 63.1367 6.40279 63.2638 5.85242C63.9693 2.79704 62.2562 0.694476 59.6573 1.42597C58.7707 1.67554 57.295 2.76081 56.8009 3.52645C56.3306 4.25571 54.6203 7.96343 54.7543 7.96343C54.798 7.96343 55.305 7.52444 55.8814 6.98779C57.2244 5.7372 58.84 4.56497 59.0939 4.65672C59.2025 4.69598 59.471 4.6363 59.6909 4.52412C60.0353 4.34826 60.1436 4.36183 60.4783 4.62225L60.8661 4.92449L60.5135 4.928C59.832 4.93486 58.5891 5.54141 57.0973 6.5954C56.2685 7.18088 55.5906 7.69647 55.5906 7.74131C55.5906 7.84551 55.9063 7.66359 56.2608 7.35498C56.4129 7.22269 56.5742 7.15168 56.6192 7.19732C56.6643 7.24295 56.162 7.69136 55.503 8.19386C54.8441 8.69652 54.3414 9.14445 54.3858 9.18961C54.4302 9.23461 55.6096 8.6429 57.0063 7.87471C58.5628 7.01859 59.4724 6.43183 59.3559 6.35875C59.2513 6.29332 58.8397 6.37598 58.4411 6.54258L57.7165 6.84529L58.3465 6.27258C58.6929 5.95758 59.2394 5.56295 59.5606 5.39555C60.1458 5.09061 61.194 4.97124 61.038 5.2272C60.9923 5.30204 61.0567 5.49944 61.1811 5.66603C61.5636 6.17795 61.4767 6.66769 60.9843 6.77572C59.5537 7.08944 58.3008 7.59003 56.7717 8.45891C55.231 9.33418 53.5085 10.1975 53.3025 10.1975C53.2617 10.1975 53.2283 10.0898 53.2283 9.95812C53.2283 9.82647 53.1874 9.71876 53.1373 9.71876C53.0872 9.71876 52.4216 10.3071 51.6581 11.0262C50.2978 12.3075 50.268 12.3514 50.1701 13.2203C50.0148 14.5962 49.8408 14.6566 49.6211 13.411C49.2272 11.1776 48.2869 9.8536 45.9843 8.29008C44.231 7.09966 43.3485 6.2405 42.4024 4.80337C41.9 4.04012 41.2501 2.7873 40.9581 2.01927C40.5061 0.830274 40.3742 0.622987 40.0688 0.622987C39.7757 0.622987 39.6609 0.7757 39.4397 1.46076C38.5693 4.15502 37.1855 5.97018 34.7254 7.64524C31.822 9.6219 30.8849 11.0378 30.3431 14.2666L30.129 15.5432L29.9564 14.7452C29.7674 13.8711 29.845 11.3775 30.1005 10.1177C30.1894 9.67887 30.6235 8.57014 31.065 7.65386C32.0888 5.52912 33.4444 4.04762 34.8485 3.51927C35.3498 3.33049 35.9302 3.17619 36.1383 3.17619C36.3465 3.17619 36.5513 3.11954 36.5935 3.05044C36.723 2.83805 34.3087 0.919158 33.3071 0.438518C32.0734 -0.153665 31.4981 -0.147441 30.8091 0.465486ZM51.7323 0.328252C51.2957 0.594104 51.0627 0.906232 50.6783 1.74001L50.3472 2.4581L50.1173 1.66022C49.7745 0.470273 49.5279 0.25772 48.583 0.337188C48.1498 0.373571 47.4055 0.586603 46.9291 0.810647C45.9083 1.29081 44.4153 2.37847 44.4118 2.64448C44.4106 2.74709 44.6397 2.97592 44.9213 3.15305C45.6302 3.59938 46.3613 4.41098 47.8321 6.38508C49.1057 8.09445 49.4602 8.86934 49.9252 10.9607C50.16 12.0165 50.3296 11.9116 51.1321 10.215C51.6872 9.04152 51.7057 8.94594 51.6762 7.37684C51.6455 5.72683 51.8247 5.16609 52.1263 5.96955C52.2128 6.19997 52.2846 6.68891 52.2858 7.05625C52.2877 7.54615 52.329 7.6604 52.4409 7.48471C52.5249 7.35306 52.5976 6.81449 52.6025 6.2879L52.6113 5.33045L53.406 4.95257C54.332 4.51215 54.8017 3.84528 54.8025 2.97033C54.8043 1.26623 52.8929 -0.378506 51.7323 0.328252ZM74.8031 3.64294C71.277 4.91172 70.8291 5.32917 69.7496 8.35184C69.1509 10.0287 68.4476 10.8701 66.9487 11.7026C65.7808 12.3513 65.588 12.5549 66.42 12.2609C66.6879 12.1665 67.1068 12.1122 67.351 12.1406L67.7953 12.1922V13.8187C67.7953 16.1233 68.0252 16.2369 68.6389 14.2355C69.1535 12.5566 70.0672 10.9296 70.7498 10.4766C70.9745 10.3274 71.7124 10.0548 72.3898 9.87083C74.2616 9.36259 74.9939 8.80886 75.5849 7.45519C75.9269 6.67152 76.5934 3.64725 76.5072 3.26954C76.468 3.09752 76.0877 3.18081 74.8031 3.64294ZM3.46661 3.53523C3.47102 4.29975 4.08772 6.88263 4.46551 7.71881C4.68378 8.202 5.21228 8.95168 5.63984 9.38493C6.43606 10.1917 6.94126 10.4159 8.37433 10.5985C9.88677 10.7911 10.8302 11.9992 10.9839 13.9402C11.0294 14.5146 11.1169 14.9847 11.1783 14.9847C11.5619 14.9847 12.4409 13.1691 12.4409 12.3766C12.4409 12.1729 12.4751 11.9715 12.5169 11.9292C12.5586 11.8869 13.1076 11.9408 13.7368 12.0492C14.3663 12.1575 14.9043 12.2226 14.9326 12.1941C14.9608 12.1654 14.6066 12.0305 14.1455 11.8942C13.0609 11.574 11.5498 10.6626 10.925 9.95206C10.6543 9.64408 10.2083 8.78971 9.93417 8.05343C9.65984 7.31716 9.24362 6.42689 9.00913 6.07487C8.19323 4.85077 6.73874 3.94438 4.7537 3.42321C3.5337 3.10294 3.46425 3.109 3.46661 3.53523ZM20.0835 4.12582C20.0326 4.20927 20.3957 4.53991 20.8904 4.8605C21.9717 5.56135 23.937 7.15184 23.937 7.32609C23.937 7.39455 24.0449 7.49253 24.1768 7.54391C24.3787 7.62242 24.3877 7.58093 24.2328 7.28157C23.672 6.19774 22.0071 4.71162 20.7406 4.16443C20.2099 3.93512 20.2002 3.93449 20.0835 4.12582ZM72.2835 8.45636C71.9443 8.73753 71.9376 8.75908 72.2353 8.61163C72.4254 8.51748 72.6244 8.36907 72.6776 8.28179C72.8198 8.04865 72.7244 8.09094 72.2835 8.45636ZM39.1584 10.9796C39.0233 11.322 38.8644 11.9699 38.8057 12.4194C38.6794 13.3839 38.5389 13.5237 38.1893 13.0327C37.9416 12.6846 37.9361 12.7014 38.0435 13.4688C38.1049 13.9076 38.2512 14.5449 38.3688 14.8852C38.4865 15.2252 38.5809 15.692 38.5786 15.9224C38.5754 16.2542 38.4789 16.1412 38.114 15.3789C37.8606 14.8497 37.4613 14.2394 37.2266 14.0225C36.7761 13.6063 36.778 13.6232 37.3315 14.9487C37.5247 15.4114 37.6469 15.8267 37.6028 15.8712C37.5589 15.9157 37.1413 15.6964 36.6748 15.3837C35.0532 14.2965 34.4923 14.4245 35.8655 15.5683C37.1748 16.6588 37.9734 17.7739 38.7324 19.5714C39.0942 20.4277 39.458 21.272 39.5411 21.4475C39.7721 21.9357 39.5753 20.11 39.3157 19.3572C39.1976 19.015 39.0537 18.4475 38.9957 18.0964C38.9002 17.5162 38.9115 17.4851 39.1209 17.755C39.2477 17.9182 39.422 18.385 39.5083 18.7922C39.5948 19.1994 39.7323 19.7121 39.814 19.9316C40.085 20.6589 40.212 18.6342 40.0735 15.7895C40.003 14.3375 39.9398 12.5212 39.9332 11.7533C39.9232 10.5699 39.8819 10.3569 39.6628 10.3571C39.5093 10.3571 39.3044 10.61 39.1584 10.9796ZM41.1798 12.8088C41.0184 13.2002 40.8476 14.4991 40.7049 16.4182C40.5822 18.0671 40.4065 19.757 40.3143 20.1738C40.2222 20.5904 40.1761 20.961 40.2118 20.9972C40.2476 21.0334 40.5063 20.6469 40.7869 20.1384C41.0676 19.6296 41.6447 18.7108 42.0698 18.0964C42.4946 17.4821 43.1213 16.5486 43.4622 16.022C43.803 15.4954 44.271 14.8311 44.502 14.5459C44.8269 14.1449 44.8655 14.0273 44.6724 14.0273C44.3976 14.0273 43.4921 14.8718 42.7087 15.8589C42.2657 16.4168 42.2047 16.4499 42.2047 16.1335C42.2047 15.9355 42.4173 15.3468 42.6772 14.8252C43.1912 13.7935 43.2168 13.7081 43.0135 13.7081C42.9387 13.7081 42.6791 13.9984 42.4364 14.3531C41.8969 15.1421 41.7391 14.9798 41.7323 13.6283C41.7257 12.3209 41.5118 12.0037 41.1798 12.8088ZM8.29937 13.5133C7.9022 14.1032 7.42709 15.0648 7.24362 15.6503L6.90992 16.7147L6.10661 16.2088C4.64189 15.2862 2.78866 15.6151 1.91512 16.9528C1.54315 17.5223 1.49606 17.7483 1.49606 18.9625C1.49606 20.0926 1.56331 20.4693 1.88299 21.1284C2.41465 22.2246 3.48488 23.2529 4.84189 23.9717C5.75795 24.4568 7.55748 25.1975 7.82 25.1975C8.03228 25.1975 7.7726 24.8117 7.2115 24.2934C4.97118 22.2245 4.25339 21.4552 4.33134 21.2064C4.37764 21.0583 4.27465 20.8148 4.09669 20.6517C3.72457 20.3104 3.68866 20.0911 4.00472 20.0911C4.18236 20.0911 4.2 19.9852 4.08803 19.5897C3.91323 18.9717 4.02142 18.7636 4.4085 18.9736C4.64425 19.1014 4.72331 19.0695 4.80315 18.8144C4.85811 18.639 4.9515 18.4861 5.01055 18.4748C5.49165 18.3827 6.09606 18.4118 6.25339 18.5346C6.35811 18.6163 6.69685 19.4776 7.00614 20.4484C7.58441 22.2634 8.19669 23.7906 8.99055 25.397C9.51386 26.4559 9.37102 26.571 8.34646 25.9156C8.00346 25.6962 7.67669 25.5167 7.62016 25.5167C7.33276 25.5167 9.81055 27.7691 10.4811 28.1174C11.0049 28.3895 11.1825 28.5515 11.0236 28.6123C10.8937 28.6621 9.83748 28.7677 8.67654 28.847C6.92079 28.967 6.4463 28.9499 5.85638 28.7463C5.1926 28.5172 5.1663 28.487 5.44756 28.2756C5.64724 28.1254 6.05165 28.0665 6.65386 28.0997C7.67228 28.1559 7.87024 28.0017 6.9685 27.8548C6.15496 27.7222 5.78031 27.4164 5.23118 26.4369C4.52945 25.1854 4.05008 24.7956 3.2348 24.8134C1.90819 24.8425 0.944882 25.865 0.944882 27.2439C0.944882 27.7479 1.04898 27.9912 1.42945 28.3767C1.69591 28.6467 2.02173 28.8678 2.15339 28.8678C2.28803 28.8678 2.05874 29.1745 1.62945 29.5688C0.872126 30.2644 0.866299 30.2771 0.893858 31.2044C0.921102 32.1189 1.59102 34.3501 2.20268 35.5624L2.48063 36.1134L3.03717 34.8927C4.07165 32.624 5.47591 31.5408 8.91496 30.359C10.8 29.7113 11.8178 29.6344 15 29.9C16.3356 30.0116 16.5354 29.9961 16.5354 29.7812C16.5354 29.6147 16.3169 29.4968 15.8661 29.42C14.4488 29.1784 12.6342 28.1134 12.2041 27.2709C12.0181 26.9063 12.0181 26.6868 12.2044 25.7848C12.3246 25.2025 12.5687 24.3923 12.7469 23.9841C13.3282 22.6525 13.3258 22.6472 11.2162 20.6907C9.73402 19.3159 9.29465 17.8967 9.2926 14.4755C9.29181 13.4495 9.23055 12.572 9.15638 12.5254C9.0822 12.4789 8.69654 12.9235 8.29937 13.5133ZM66.6518 13.0631C65.2521 13.9958 60.8643 14.6892 58.4841 14.3538C54.5652 13.8015 51.9676 14.8674 50.7244 17.5379C50.3367 18.3709 50.3195 18.5172 50.3877 20.4103C50.529 24.3275 50.4543 27.4617 50.1921 28.6284C50.054 29.2428 49.9898 29.793 50.0493 29.8512C50.1088 29.9093 50.937 29.7041 51.8898 29.3948C53.3603 28.9177 53.9077 28.8215 55.5118 28.7583C57.3093 28.6876 57.4702 28.7079 58.8091 29.1748C60.4438 29.7448 61.0504 29.7818 61.8567 29.36C63.0608 28.73 63.7746 27.712 64.6376 25.3935C64.9457 24.5658 65.2176 24.1185 65.5857 23.8341L66.1017 23.4353L66.1882 20.2871C66.2748 17.1353 66.2861 17.0551 67.1394 13.5087C67.2609 13.0041 67.3518 12.5967 67.3416 12.6036C67.3312 12.6104 67.0209 12.8172 66.6518 13.0631ZM13.4126 14.3863C14.0513 16.6876 14.2542 18.7951 14.0302 20.8017C13.9318 21.6835 13.8091 22.5665 13.7576 22.764C13.6917 23.0176 13.7326 23.1231 13.8975 23.1231C14.4504 23.1231 14.9328 23.773 15.3469 25.0766C16.2764 28.0019 17.3935 29.6656 18.4283 29.6656C18.6838 29.6656 19.514 29.4818 20.2732 29.257C22.2847 28.6616 24.7953 28.6672 27.0882 29.2721C27.9967 29.512 28.9458 29.7441 29.1973 29.7883C29.6509 29.868 29.6535 29.8637 29.5457 29.2485C29.2351 27.4771 29.2627 26.3511 29.6854 23.522C30.3309 19.2028 30.0931 17.7522 28.4732 16.127C27.4868 15.1373 26.4049 14.7596 24.4882 14.7356C23.622 14.7248 22.7868 14.66 22.632 14.5915C22.4699 14.5201 21.9644 14.577 21.4405 14.7261C20.2817 15.0554 18.2575 15.058 17.1546 14.7315C16.6841 14.5922 15.58 14.0895 14.7009 13.6145C13.822 13.1394 13.0704 12.7507 13.0307 12.7507C12.9912 12.7507 13.163 13.4866 13.4126 14.3863ZM70.8191 15.0313C70.715 16.6837 70.2469 18.6487 69.6946 19.752C69.4913 20.158 68.8145 21.0645 68.1906 21.7667C66.6376 23.514 66.6293 23.5384 67.1715 24.7545C67.7928 26.1475 67.8638 27.3333 67.3701 28.0699C66.8663 28.8213 65.8866 29.3393 64.6272 29.5201C63.4595 29.6876 63.3071 29.7504 63.3071 30.0625C63.3071 30.1969 63.6365 30.3558 64.162 30.475C64.8735 30.6363 65.2781 30.6248 66.5705 30.4065C69.4202 29.9256 70.3712 30.1306 72.3786 31.6589C72.9939 32.1272 74.0085 32.7713 74.6331 33.0901C75.3156 33.4383 76.0693 33.9888 76.5216 34.4693L77.2743 35.2691L77.7457 34.7251C78.3946 33.9762 78.878 32.909 79.089 31.7594C79.3061 30.5757 79.1647 30.1828 78.2902 29.541L77.6715 29.0867L78.1258 28.7778C78.3757 28.6078 78.7359 28.1714 78.9265 27.8079C79.2432 27.2034 79.2553 27.0879 79.0677 26.4537C78.9543 26.0702 78.6296 25.5376 78.3413 25.262C77.057 24.0347 75.5405 24.6556 74.9387 26.6552C74.785 27.1659 74.6918 27.245 74.1589 27.3175C73.5899 27.3949 72.5496 27.9497 71.7646 28.5946C71.4802 28.8282 71.531 28.821 72.0449 28.5547C72.9283 28.0968 73.5997 28.1286 74.0022 28.6472C74.1805 28.8768 74.2874 29.1287 74.2398 29.2069C74.1923 29.2849 74.2641 29.3918 74.3995 29.4445C74.7858 29.5946 74.6902 29.8217 74.142 30.0552C73.5931 30.2891 73.2283 30.2283 73.2283 29.9029C73.2283 29.7837 73.1107 29.7266 72.9521 29.7687C72.6622 29.8455 71.1822 29.2534 71.1797 29.0597C71.1789 28.998 70.7422 28.9322 70.2091 28.9136C69.6762 28.8949 69.175 28.8137 69.0956 28.7332C69.0079 28.6443 69.2809 28.3921 69.7904 28.0914C70.2521 27.8189 71.1148 27.1032 71.7072 26.5009C72.3803 25.8168 73.4003 25.0301 74.4249 24.4052C77.0523 22.8026 78.1679 21.2678 78.3816 18.9618C78.4876 17.8172 78.0504 16.7334 77.2942 16.2661C76.214 15.5989 74.4997 15.9875 73.6386 17.0946L73.2318 17.6177L73.2266 17.139C73.2165 16.216 71.9868 14.145 71.1932 13.7147C70.935 13.5746 70.9039 13.6837 70.8191 15.0313ZM45.6019 14.8651C45.4809 15.1502 45.265 15.7209 45.1222 16.133C44.9126 16.7375 44.5243 17.2006 43.1146 18.5267C42.0353 19.5422 41.106 20.5828 40.6846 21.248C40.3091 21.8406 39.942 22.3252 39.8685 22.3252C39.7951 22.3252 39.2887 21.5532 38.743 20.6097C37.9189 19.1847 37.4009 18.5362 35.6844 16.78C34.5479 15.6171 33.5405 14.6656 33.446 14.6656C33.2309 14.6656 32.0373 16.3745 31.7272 17.1267C31.6002 17.435 31.4961 17.9645 31.4961 18.3033V18.9192L32.874 19.4468C36.2529 20.7401 37.7632 21.9184 39.2046 24.3859C39.6704 25.1833 40.0931 25.8357 40.1439 25.8355C40.1946 25.8352 40.4428 25.4342 40.6956 24.9444C41.4926 23.3986 42.9783 21.9778 45.7488 20.1112C47.1814 19.1463 48.3643 18.2343 48.494 17.9948C48.9556 17.1423 48.1822 15.6972 46.7833 14.7983C46.3965 14.5497 46.0219 14.3464 45.9509 14.3464C45.8798 14.3464 45.7227 14.5799 45.6019 14.8651ZM62.9921 16.4439C60.8743 17.4329 60.2605 17.5692 57.2865 17.7119C53.1287 17.9113 53.0088 18.0143 53.1652 21.2485C53.2439 22.8803 53.209 23.6745 53.0117 24.7313C52.7186 26.2997 52.683 27.272 52.9186 27.272C53.0082 27.272 53.4156 27.1009 53.8241 26.8919C55.7049 25.9293 57.422 25.7233 59.3485 26.229C59.8643 26.3645 60.4167 26.4326 60.5762 26.3805C61.7472 25.9975 62.1233 25.2969 62.3677 23.0433C62.669 20.2652 63.5312 16.8693 64.1168 16.1543C64.3676 15.8482 64.145 15.9055 62.9921 16.4439ZM17.0233 17.8533C17.3567 18.9037 17.5923 20.2324 17.8767 22.6676C18.2526 25.8843 18.5187 26.9921 18.9565 27.1624C19.0622 27.2035 19.5706 27.0475 20.0861 26.8158C20.957 26.4243 21.1754 26.3955 23.1602 26.4092C25.1216 26.4227 25.3717 26.4588 26.2107 26.848C26.7134 27.0812 27.1507 27.272 27.1824 27.272C27.2142 27.272 27.1951 26.7328 27.1402 26.0738C27.078 25.3295 27.1505 23.7259 27.3315 21.8418L27.6228 18.8083L27.2717 18.4523C26.8898 18.0655 27.048 18.0739 22.4409 18.1911C20.003 18.2531 18.9378 17.9517 16.9035 16.6247C16.5726 16.4088 16.5759 16.4436 17.0233 17.8533ZM74.4609 18.8988C73.4699 19.5559 72.486 21.1427 71.6636 23.4103C71.3994 24.1388 70.9724 25.1404 70.7148 25.6362C70.4572 26.1318 70.2811 26.5727 70.3236 26.6158C70.3661 26.6589 70.7359 26.3658 71.1454 25.9641C71.5548 25.5626 72.6485 24.6847 73.5759 24.0133C75.0411 22.9526 75.9055 22.1225 75.9055 21.7762C75.9055 21.5792 75.2523 22.0359 73.8868 23.1874C73.125 23.8298 72.3439 24.4411 72.1507 24.5458L71.7997 24.7362L72.0498 24.1292C72.5698 22.8674 73.0586 22.2329 74.0402 21.5457L75.0394 20.8461L74.1578 21.785C72.7146 23.3224 71.9724 24.6066 73.2677 23.3252C73.6357 22.9611 74.3976 22.3166 74.9606 21.8931C76.0439 21.0778 76.2789 20.6062 75.8287 20.15C75.6797 19.9991 75.6167 19.7822 75.6781 19.6317C75.9269 19.0225 75.9202 18.8547 75.6427 18.7566C75.4841 18.7006 75.2835 18.6234 75.1969 18.5851C75.1102 18.5468 74.7791 18.6878 74.4609 18.8988ZM60.2139 19.1105C59.3857 19.7185 56.3266 21.5284 56.2531 21.4539C56.2211 21.4215 56.2715 21.25 56.3652 21.0727C56.4589 20.8954 56.5354 20.5895 56.5354 20.3927C56.5354 20.1036 56.4298 20.1856 55.9843 20.8205L55.4331 21.6061V20.6093C55.4331 19.6174 55.2293 19.2867 55.04 19.9714C54.9855 20.169 54.5077 21.7123 53.9783 23.401C53.4488 25.0897 53.0575 26.5137 53.1085 26.5656C53.2693 26.7283 53.7969 26.3527 55.3723 24.9543C56.8674 23.6272 57.2238 23.3749 59.1146 22.3043C59.6238 22.0161 59.9581 21.7525 59.8576 21.7186C59.7572 21.6846 59.5 21.7731 59.2863 21.9149C59.0726 22.0568 58.8976 22.1313 58.8976 22.0804C58.8976 22.0293 59.357 21.4354 59.9186 20.7602C61.4633 18.9028 61.6094 18.0862 60.2139 19.1105ZM19.0551 19.2029C19.0551 19.6118 20.0332 20.8777 21.3598 22.1859C22.6438 23.4518 25.5928 25.846 26.4224 26.2959C26.8731 26.5404 26.8775 26.3567 26.4512 25.1029C26.0461 23.9112 25.6737 21.2038 25.7783 20.2108C25.8222 19.7938 25.8181 19.4528 25.7693 19.4528C25.6057 19.4528 25.306 20.157 25.1255 20.9658L24.9466 21.7667L24.3408 20.8491C23.5589 19.6649 23.3039 19.6055 23.6077 20.6785C23.6863 20.9567 23.7129 21.2224 23.6668 21.2691C23.6206 21.316 22.5641 20.828 21.3191 20.185C20.0739 19.5417 19.0551 19.0999 19.0551 19.2029ZM46.8291 21.7268C45.4454 23.6399 44.9819 24.3625 44.4439 25.445C43.875 26.59 42.8143 29.2196 42.8904 29.2967C42.9198 29.3264 43.2143 29.2362 43.5449 29.0961C43.9233 28.9359 44.4654 28.8612 45.008 28.8946L45.8699 28.9475L46.482 26.7933C47.1584 24.4127 48.0315 20.931 48.0315 20.6137C48.0315 20.1917 47.7531 20.4492 46.8291 21.7268ZM5.2274 21.1919C5.60094 21.9136 7.48535 24.0805 7.73968 24.0805C7.91591 24.0805 7.57717 23.3937 6.65748 21.8863C5.89307 20.6334 5.69858 20.4328 6.03906 21.248C6.22992 21.7051 6.42787 22.0667 7.08724 23.1629C7.46866 23.7971 7.0674 23.3656 6.20016 22.2092C4.92047 20.5025 4.81228 20.3894 5.2274 21.1919ZM59.685 22.7902C58.8622 23.117 57.909 23.5201 57.5668 23.686C56.9307 23.9945 55.4754 25.2936 55.6117 25.4316C55.6531 25.4736 55.931 25.4441 56.2293 25.3657C56.5276 25.2875 57.5466 25.1739 58.4939 25.1133C59.9641 25.0193 60.3039 24.9443 60.8167 24.6004C61.1471 24.3789 61.4173 24.1686 61.4173 24.133C61.4173 24.0599 60.4918 24.1681 59.7244 24.3309C58.912 24.5034 59.1025 24.1558 60.2329 23.4033C60.8372 23.0011 61.2546 22.6102 61.2565 22.4449C61.2584 22.2912 61.242 22.1725 61.2205 22.1808C61.1989 22.1891 60.5079 22.4632 59.685 22.7902ZM33.1386 24.1204C33.2663 26.0508 33.6627 29.6802 33.7561 29.7748C33.792 29.8112 34.0915 29.6553 34.4216 29.4283C35.0704 28.9822 35.4912 28.9919 36.4934 29.4762C36.7742 29.6119 37.0444 29.6819 37.0937 29.6318C37.1431 29.5817 36.9723 29.1918 36.7142 28.7655C36.4561 28.3391 36.0644 27.5024 35.8436 26.9066C35.0288 24.706 33.7016 22.4848 33.2017 22.4848C33.0822 22.4848 33.0631 22.9807 33.1386 24.1204ZM20.0187 23.5866C19.8646 23.6857 19.9791 23.7574 20.4124 23.8333C20.7487 23.8924 21.1954 24.035 21.4054 24.1507C21.7772 24.3553 21.7644 24.3676 20.9184 24.6168C20.0783 24.8642 19.2126 25.4 19.2126 25.6726C19.2126 25.7455 19.5846 25.6608 20.0394 25.4843C20.9233 25.1414 22.2428 25.1613 23.728 25.5403C24.1094 25.6376 24.4591 25.6791 24.505 25.6325C24.5509 25.5861 24.2471 25.2877 23.8298 24.9697C23.4123 24.6516 22.8761 24.2316 22.638 24.0365C22.0035 23.5164 20.5239 23.2624 20.0187 23.5866ZM39.6638 27.4285C39.1135 27.9863 39.088 28.5339 39.5902 29.0122L39.968 29.3717L39.22 30.1969C38.8085 30.6507 38.2483 31.2733 37.9751 31.5805C37.4983 32.1167 37.471 32.1263 37.2945 31.8199C36.7306 30.8412 35.6339 30.1648 35.3543 30.6231C35.3008 30.7108 35.0622 30.7827 34.8239 30.7827C34.0306 30.7827 33.8616 31.0624 33.6663 32.6996C33.5669 33.5323 33.474 34.2323 33.46 34.2555C33.4458 34.2786 33.1605 34.1816 32.8258 34.0399C31.9154 33.6545 30.5052 33.663 30.0761 34.0563C29.5861 34.5057 29.2913 35.1494 29.2913 35.77C29.2913 36.5138 29.9992 37.8778 30.6904 38.4659L31.2688 38.958L30.3476 39.9269C29.1402 41.197 28.9153 41.654 28.9057 42.8596C28.8986 43.7377 28.9482 43.8996 29.3575 44.3328C30.1183 45.1382 30.9435 45.3637 32.7594 45.2623C33.8931 45.199 34.3307 45.2259 34.3305 45.3589C34.3304 45.4604 34.2241 46.1537 34.0945 46.8997C33.757 48.8408 33.7803 49.2343 34.2513 49.5469C34.9587 50.0167 36.6194 49.4477 37.3672 48.4795L37.7561 47.9759L38.3865 48.9139C39.4901 50.5561 39.4277 50.5443 40.755 49.3604C41.3868 48.7969 41.9668 48.3359 42.0436 48.3359C42.1206 48.3359 42.2277 48.477 42.2817 48.6493C42.3943 49.0091 43.7038 50.2272 44.1732 50.4089C44.6677 50.6006 45.6515 50.014 45.9175 49.3688C46.1704 48.7553 46.2167 46.3821 45.9945 45.412C45.8723 44.8785 45.8874 44.8147 46.1145 44.903C46.5901 45.0879 48.2967 45.1883 49.0417 45.075C49.5342 45.0001 49.9625 44.7983 50.3386 44.4637C50.8617 43.9982 50.8953 43.9126 50.8291 43.215C50.7068 41.9242 49.6866 40.3457 48.6032 39.771L48.1512 39.5312L48.6032 39.2355C48.8517 39.0729 49.2798 38.7381 49.5546 38.4916C50.1176 37.9863 51.3386 36.2562 51.3386 35.9639C51.3386 35.6138 50.6871 34.927 50.0357 34.5903C49.4825 34.3043 49.1926 34.2681 47.9639 34.3322C47.1783 34.3732 46.4146 34.4594 46.2669 34.5239C46.0194 34.6319 46.0058 34.4905 46.0937 32.7204C46.2006 30.5637 46.0592 30.0994 45.2458 29.9379C44.5583 29.8014 43.3872 30.1201 42.6865 30.6346C42.3364 30.8915 41.9939 31.1018 41.925 31.1018C41.8564 31.1018 41.4318 30.7238 40.9816 30.2618L40.163 29.4218L40.7113 28.9785C41.3082 28.4959 41.4065 28.0338 41.0285 27.487C40.6449 26.932 40.1737 26.9118 39.6638 27.4285ZM71.1024 28.0796C70.4961 28.4225 70.0433 28.7043 70.0964 28.7056C70.3534 28.7123 72.2835 27.7274 72.2835 27.5896C72.2835 27.3936 72.4017 27.3446 71.1024 28.0796ZM8.34016 28.3129C8.72646 28.435 9.06677 28.5103 9.09622 28.4803C9.17685 28.3988 8.17984 28.0683 7.88992 28.0806C7.75118 28.0865 7.95386 28.191 8.34016 28.3129ZM47.3441 30.4752C46.4469 31.19 47.0383 32.8571 48.189 32.8571C48.7586 32.8571 49.4488 32.2448 49.4488 31.7395C49.4488 31.2718 49.0312 30.5045 48.6701 30.3087C48.2096 30.059 47.8019 30.11 47.3441 30.4752ZM30.4611 30.6358C30.0554 31.09 30.0587 32.1714 30.4668 32.4737C30.9189 32.8088 31.4156 32.7456 31.9564 32.2844C32.5477 31.7803 32.5654 31.4358 32.0332 30.7949C31.5469 30.2093 30.9005 30.1439 30.4611 30.6358ZM13.937 31.0498C12.6735 31.2095 11.0157 31.6626 10.2339 32.0615C9.62362 32.3728 8.68661 33.1895 7.08425 34.8062C4.56362 37.3493 3.05008 38.4644 1.18126 39.1551C0.531496 39.3952 0 39.6759 0 39.7789C0 39.8818 0.691024 40.3129 1.53543 40.7369C3.6548 41.801 4.77449 42.6877 7.25811 45.2689C9.95244 48.0689 10.7375 48.5269 13.0154 48.6279L14.4882 48.6932L14.4858 47.7565L14.4835 46.8199L12.0047 44.7804C9.21575 42.4857 7.80331 41.4571 6.05528 40.4475L4.8548 39.7543L6.11228 39.3298C8.44913 38.5413 10.6713 36.8556 13.0337 34.0796C14.4855 32.3738 15.6112 31.5805 16.5805 31.5805C16.9362 31.5805 17.0197 31.5229 16.946 31.3281C16.8934 31.1893 16.8504 31.0456 16.8504 31.0089C16.8504 30.9311 14.6294 30.9622 13.937 31.0498ZM35.2756 31.1704C35.2756 31.3333 35.4178 31.421 35.6824 31.421C36.1757 31.421 36.1217 31.0463 35.6176 30.971C35.3904 30.9371 35.2756 31.0041 35.2756 31.1704ZM44.4094 31.6603C44.4094 31.792 44.4803 31.8997 44.5669 31.8997C44.6535 31.8997 44.7244 31.792 44.7244 31.6603C44.7244 31.5287 44.6535 31.421 44.5669 31.421C44.4803 31.421 44.4094 31.5287 44.4094 31.6603ZM61.3183 32.2587C60.88 32.7194 59.9761 33.7926 59.3098 34.6434C58.0463 36.2566 57.1798 37.004 54.8046 38.5299C53.0268 39.6718 52.9901 39.8714 54.4367 40.5292C56.6619 41.5407 58.1254 42.9231 60.1636 45.9388C61.5425 47.9786 62.3734 48.4983 63.7106 48.1572C64.3128 48.0035 64.4139 48.0212 64.7233 48.3348C65.222 48.8402 66.1167 49.1741 66.9282 49.158C68.2524 49.1315 69.6557 48.2507 72.0578 45.938C74.4802 43.6056 75.5041 42.8653 78.1496 41.534C79.1672 41.0219 80 40.5558 80 40.4982C80 40.4406 79.7343 40.2705 79.4094 40.1202C77.8646 39.4051 76.5868 38.7048 75.9995 38.2509C75.6446 37.9768 74.2559 36.6233 72.9134 35.2431C69.9973 32.2455 69.6044 32.0095 66.9351 31.6543C65.9528 31.5234 65.1134 31.4522 65.0701 31.4963C65.0268 31.5402 65.1676 31.7165 65.383 31.8882C65.5984 32.0599 66.0502 32.6779 66.3869 33.2615C67.722 35.5747 70.974 38.4185 73.6038 39.5725C74.0872 39.7846 74.4841 40.0093 74.4855 40.0717C74.4869 40.1342 74.1869 40.2668 73.8189 40.3664C71.6539 40.952 68.9121 42.8274 67.5006 44.6879C65.9168 46.7756 65.6575 47.059 65.037 47.3796C64.3162 47.7523 64.1162 47.5808 64.5013 46.9203C64.6647 46.6398 64.731 46.3101 64.672 46.0715C64.5709 45.6635 61.963 42.9739 60.4724 41.7405C59.9961 41.3462 59.1137 40.7408 58.5118 40.3951C57.9098 40.0493 57.3912 39.6873 57.3594 39.5904C57.3274 39.4935 57.8909 39.1152 58.6113 38.7496C59.3318 38.384 60.2756 37.8285 60.7087 37.515C61.6636 36.8237 65.1969 33.3442 65.1969 33.0949C65.1969 32.7989 64.3746 32.0982 63.622 31.753C62.5157 31.2456 62.2205 31.3104 61.3183 32.2587ZM43.1765 31.8435C43.2069 32.004 43.3616 32.1607 43.52 32.1915C43.728 32.2322 43.7928 32.1666 43.7526 31.9558C43.7222 31.7953 43.5676 31.6386 43.4091 31.6078C43.2011 31.5671 43.1364 31.6327 43.1765 31.8435ZM55.2981 31.7599C54.3931 31.9123 51.6107 33.0834 51.325 33.4321C51.1972 33.5883 51.2438 33.956 51.5046 34.8459C51.8485 36.0199 52.0112 36.2628 52.171 35.8405C52.2849 35.5399 53.8743 34.717 56.3986 33.6518C58.8885 32.6012 59.4791 32.2654 59.2487 32.032C58.835 31.6128 56.945 31.4825 55.2981 31.7599ZM21.1024 31.9804C21.1024 32.0878 24.3282 34.5038 25.8704 35.5514L27.0951 36.3834L27.5389 36.0631C28.2805 35.5281 29.1611 34.3311 29.1054 33.9338C29.0633 33.6333 28.8025 33.4903 27.4957 33.0509C25.6732 32.4381 21.1024 31.6728 21.1024 31.9804ZM35.2756 32.2018C35.2756 32.3636 35.7553 32.5839 35.865 32.4726C35.9047 32.4325 35.8904 32.323 35.8332 32.2295C35.7076 32.0235 35.2756 32.002 35.2756 32.2018ZM15.9965 32.7314C15.6569 32.9321 15.3518 33.1799 15.3187 33.2819C15.2438 33.5131 16.7828 35.3348 18.1293 36.6084C18.9713 37.405 20.5731 38.6762 22.126 39.7804C22.4309 39.9971 22.4241 40.0137 21.9139 40.3005C20.38 41.1619 17.6265 43.125 16.9956 43.8067C15.6907 45.2168 14.6184 46.8426 14.674 47.3264C14.7367 47.8711 15.8324 48.7564 16.6321 48.9083C17.4528 49.0644 17.8227 48.713 19.4306 46.2501C21.3496 43.3104 22.4619 42.2387 24.8058 41.0704C25.8521 40.5491 26.6142 40.0733 26.6142 39.9415C26.6142 39.8162 26.3485 39.6006 26.0236 39.4626C23.2315 38.275 21.8724 37.0974 20.6038 34.766C20.1995 34.0233 19.6469 33.2015 19.3757 32.9396C18.9364 32.5155 18.7589 32.4584 17.7483 32.4149C16.7967 32.3739 16.5148 32.425 15.9965 32.7314ZM39.3405 33.4921C37.5324 33.8194 35.0915 35.7434 34.5935 37.2339C34.2057 38.3947 34.242 40.5555 34.6718 41.8819C35.2995 43.8198 37.0888 45.2914 39.1318 45.55C40.0641 45.668 41.5317 45.348 42.6469 44.7836C43.5524 44.3253 44.8931 42.8454 45.4572 41.6813C45.8458 40.8793 45.9046 40.5754 45.8989 39.3997C45.8948 38.5423 45.792 37.7499 45.6194 37.2454C44.7282 34.6399 42.002 33.0103 39.3405 33.4921ZM40.0924 34.8119C40.049 35.0971 39.9718 35.7261 39.9213 36.2096C39.7805 37.5558 39.6134 37.645 39.3069 36.5379C39.1594 36.0055 38.9786 35.5699 38.9049 35.5699C38.8312 35.5699 38.6968 35.3545 38.6063 35.0912C38.266 34.102 38.3028 34.6642 38.666 36.0016C38.8734 36.7656 39.0191 37.4151 38.9896 37.4449C38.9496 37.4853 37.7964 36.0694 37.2135 35.264C37.1871 35.2275 37.1195 35.2441 37.0636 35.3007C36.9298 35.4362 37.5923 36.4271 38.4118 37.3177C39.4934 38.493 39.0887 38.5385 37.7419 37.3929C37.063 36.8154 36.4831 36.3676 36.4532 36.3978C36.4235 36.4281 36.6424 36.7381 36.9397 37.0868C37.237 37.4353 37.4803 37.7735 37.4803 37.8381C37.4803 37.9629 36.9584 37.787 36.0901 37.3694C35.6392 37.1527 35.5405 37.1483 35.4208 37.3399C35.3436 37.4634 35.2794 37.612 35.278 37.6701C35.275 37.7996 36.4046 38.3438 37.2047 38.5983C37.5296 38.7016 37.7953 38.8533 37.7953 38.9352C37.7953 39.0172 37.5296 39.047 37.2047 39.0016C35.9191 38.8216 35.2756 38.7949 35.2756 38.9215C35.2756 39.2195 36.8888 39.4139 37.7471 39.2192C38.2077 39.1149 38.6372 39.0826 38.7016 39.1477C38.9644 39.4141 38.1632 39.6983 36.8776 39.7946C35.0742 39.9298 35.057 39.9328 35.0913 40.1178C35.1291 40.3219 36.6813 40.304 37.7622 40.087C38.3726 39.9644 38.5808 39.9675 38.5408 40.0985C38.4959 40.2459 37.2466 40.7349 35.6693 41.2225C35.3751 41.3135 35.3723 41.3337 35.625 41.5307C35.8562 41.7107 36.0367 41.673 36.8573 41.2739C37.386 41.0168 37.8523 40.8405 37.8934 40.8822C37.9345 40.9238 37.5934 41.3202 37.1354 41.763C36.6773 42.2057 36.3532 42.6193 36.4151 42.6822C36.4772 42.7449 36.6535 42.6962 36.8072 42.5741C37.062 42.3713 37.0674 42.3767 36.8672 42.6349C36.7468 42.7907 36.6822 42.9526 36.7238 42.9949C36.7655 43.0372 37.2894 42.4836 37.8879 41.7651C38.9942 40.4366 39.2739 40.3688 38.9183 41.5153C38.8301 41.7999 38.7146 42.4635 38.662 42.9901C38.6093 43.5167 38.5315 44.1151 38.4893 44.32C38.4419 44.5503 38.4743 44.6537 38.5743 44.5911C38.725 44.4967 39.1277 43.2628 39.5282 41.6689C39.6225 41.2932 39.7597 41.0234 39.8331 41.0693C39.9065 41.1153 40.0159 41.7817 40.0764 42.5502C40.1368 43.3187 40.2803 44.163 40.3953 44.4263L40.6044 44.905L40.6165 44.2667C40.6233 43.9157 40.5257 42.9852 40.3997 42.1988C40.2737 41.4126 40.1885 40.7511 40.2104 40.7291C40.2323 40.7069 40.6227 41.3862 41.0781 42.2384C41.6236 43.2592 41.8723 43.611 41.8068 43.2694C41.6726 42.5697 41.9115 42.6148 42.4409 43.3891C42.6811 43.7401 42.9387 44.0274 43.0135 44.0274C43.3239 44.0274 43.1038 43.6466 42.3542 42.8871C41.628 42.1512 40.8701 41.0181 41.0094 40.8769C41.0408 40.8451 41.7831 41.1782 42.6592 41.617C45.0743 42.8269 44.6457 42.2119 42.0981 40.8119C40.4285 39.8945 40.9187 39.7393 43.2512 40.4468C44.7397 40.8984 44.8819 40.913 44.8819 40.6137C44.8819 40.3619 44.5469 40.256 43.3071 40.1154C42.3129 40.0027 41.9704 39.7846 42.5545 39.636C42.772 39.5807 43.0479 39.5494 43.1679 39.5663C43.6332 39.632 44.772 39.5542 44.6817 39.4627C44.6293 39.4098 43.7495 39.3713 42.7263 39.3775C41.5443 39.3847 40.9554 39.336 41.111 39.2441C41.3041 39.1302 44.4403 38.2827 44.6691 38.2827C44.6995 38.2827 44.7244 38.1692 44.7244 38.0307C44.7244 37.7361 44.4504 37.7789 42.3622 38.3998C41.626 38.6186 40.8995 38.8338 40.748 38.8779C40.5666 38.9309 40.4724 38.8701 40.4724 38.7003C40.4724 38.5583 40.5512 38.4423 40.6476 38.4423C40.9046 38.4423 43.8258 37.3203 44.048 37.1361C44.2277 36.9872 44.1907 36.8404 43.8173 36.2199C43.7946 36.1824 43.582 36.3344 43.3449 36.5577C43.1076 36.7811 42.5828 37.1561 42.1787 37.3911C41.7746 37.6262 41.3584 37.9228 41.2539 38.0505C41.1493 38.1782 41.0044 38.2827 40.9317 38.2827C40.8591 38.2827 41.3378 37.5622 41.9956 36.6815C42.6534 35.801 43.1471 35.0355 43.0928 34.9804C42.9353 34.8209 42.4304 35.3647 41.6463 36.5382C40.3254 38.5153 40.2976 38.2816 41.4976 35.2841C41.6483 34.9073 41.7257 34.5526 41.6695 34.4956C41.4912 34.3148 41.1013 34.8467 40.7257 35.7829L40.362 36.6895L40.438 35.4914C40.4888 34.6884 40.4575 34.2933 40.3428 34.2933C40.2487 34.2933 40.1361 34.5268 40.0924 34.8119ZM30.7874 35.2508C30.642 35.4892 30.8443 35.7295 31.1904 35.7295C31.5387 35.7295 31.5825 35.5618 31.3071 35.2827C31.0769 35.0494 30.9162 35.0395 30.7874 35.2508ZM48.3465 35.4901C48.0918 35.8011 48.3948 36.2093 48.8775 36.2058C49.1257 36.2039 49.1572 36.1677 48.9989 36.0662C48.8649 35.98 48.8247 35.8026 48.8913 35.5898C49.0184 35.1844 48.6518 35.1172 48.3465 35.4901ZM14.854 36.1366C15.1033 36.8508 16.297 37.6833 18.189 38.4624C19.6956 39.0828 19.9351 39.2208 19.3701 39.1433C18.9803 39.0898 18.3071 38.9502 17.874 38.8329C15.411 38.1657 13.475 38.2201 11.3556 39.0162C10.0953 39.4895 9.86441 39.8184 10.9055 39.6574C12.1584 39.4635 15.1181 39.3499 15.1168 39.4956C15.1161 39.5746 14.6521 39.8885 14.0858 40.1933C13.5194 40.4981 12.9354 40.8858 12.7879 41.055C12.5304 41.3502 12.5354 41.3586 12.9134 41.268C14.4896 40.8903 19.0391 40.5469 18.5811 40.8402C18.4521 40.9228 18.2334 40.9916 18.0953 40.9931C17.5874 40.998 16.043 41.6044 15.4146 42.0456C14.7739 42.4956 13.9079 43.4926 14.0408 43.6273C14.0787 43.6658 14.4962 43.4202 14.9683 43.0817C15.4405 42.7433 16.4291 42.2507 17.1654 41.987C17.9016 41.7234 19.248 41.1549 20.1575 40.7235L21.811 39.9392L20.654 39.2545C20.0178 38.8779 18.646 38.1097 17.6057 37.5472C16.5655 36.9849 15.4964 36.3675 15.2299 36.1752C14.7734 35.8458 14.7517 35.8436 14.854 36.1366ZM64.5676 36.4469C63.9757 37.0656 63.1131 37.525 61.1691 38.2567C60.4828 38.515 59.4994 38.9194 58.9838 39.1551L58.0463 39.5839L58.9838 40.1026C59.4994 40.3879 60.8071 41.1083 61.8898 41.7035C62.9724 42.2985 64.0923 42.9295 64.3784 43.1055C64.6644 43.2815 64.9479 43.3742 65.0083 43.3115C65.1937 43.1192 64.0402 42.2277 62.6822 41.5141L61.3918 40.8359H62.4124C63.5178 40.8359 66.6707 40.3375 67.9734 39.9571C68.4178 39.8272 68.9469 39.5853 69.1491 39.4193L69.5167 39.1176L68.2624 38.8246C66.4323 38.3971 63.3923 38.4166 61.3397 38.8688C59.606 39.2508 59.1502 39.2406 60.5343 38.8506C62.7446 38.2279 63.1181 38.0966 63.8512 37.6843C64.594 37.2665 65.2872 36.4034 65.169 36.0435C65.1386 35.9513 64.868 36.1329 64.5676 36.4469ZM31.2861 36.1551C31.0554 36.3888 31.1882 36.8465 31.4868 36.8465C31.8888 36.8465 32.0435 36.5719 31.8054 36.281C31.5973 36.0271 31.448 35.9909 31.2861 36.1551ZM47.874 36.6869C47.874 36.7747 47.9803 36.8465 48.1102 36.8465C48.2402 36.8465 48.3465 36.7747 48.3465 36.6869C48.3465 36.5992 48.2402 36.5274 48.1102 36.5274C47.9803 36.5274 47.874 36.5992 47.874 36.6869ZM43.3709 37.0308L43.0709 37.3747L43.5039 37.0922C43.9506 36.801 44.035 36.6869 43.8039 36.6869C43.7307 36.6869 43.5359 36.8417 43.3709 37.0308ZM36.8504 38.1855C36.8504 38.2196 37.0934 38.2765 37.3905 38.3117C37.6876 38.3468 37.8961 38.3187 37.8537 38.2493C37.7775 38.1244 36.8504 38.0653 36.8504 38.1855ZM51.2109 38.7676C50.8003 39.1552 50.7534 39.9633 51.1113 40.4811C51.4175 40.9241 51.8058 40.9318 52.3409 40.5051C52.8835 40.0728 52.8954 39.367 52.3693 38.834C51.8989 38.3572 51.66 38.3436 51.2109 38.7676ZM27.798 38.8611C27.4833 39.1801 27.5386 40.0227 27.889 40.2448C28.0272 40.3324 28.3272 40.3565 28.5559 40.2984C29.094 40.1615 29.2632 39.5436 28.9113 38.9996C28.6156 38.5421 28.1677 38.4866 27.798 38.8611ZM41.2598 41.2843C41.2598 41.37 41.3721 41.4836 41.5093 41.537C41.6625 41.5966 41.7346 41.561 41.6962 41.4443C41.6178 41.2058 41.2598 41.0744 41.2598 41.2843ZM41.8898 41.7132C41.8898 41.9821 43.5581 43.1879 43.7131 43.031C43.7469 42.9965 43.4392 42.7219 43.0291 42.4208C42.037 41.6922 41.8898 41.6007 41.8898 41.7132ZM48.0315 41.9282C48.0315 42.381 48.5054 42.8472 48.678 42.5641C48.8156 42.3384 48.5231 41.7732 48.2148 41.669C48.114 41.635 48.0315 41.7517 48.0315 41.9282ZM30.8268 42.8065C29.9523 43.601 29.7789 44.1271 30.5246 43.7226C30.8323 43.5558 31.8957 42.1088 31.7027 42.1197C31.6323 42.1235 31.2383 42.4326 30.8268 42.8065ZM37.8044 42.7726C37.4731 43.3232 37.3723 43.7947 37.6186 43.6404C37.8189 43.515 38.3099 42.4211 38.2109 42.3209C38.1649 42.2743 37.9819 42.4776 37.8044 42.7726ZM31.717 43.3985C31.4521 43.6669 30.9573 43.9848 30.6176 44.1048L30 44.3231L30.5855 44.5741C30.9076 44.7123 31.311 44.8252 31.4822 44.8252C31.9217 44.8252 32.5512 44.2125 32.8343 43.5088L33.0751 42.9103H32.6369C32.3581 42.9103 32.0235 43.088 31.717 43.3985ZM27.2441 43.5048C24.006 45.0581 21.7694 46.3573 21.257 46.9829C21.0159 47.2773 20.9921 47.2774 23.1416 46.9736C25.1539 46.6892 26.9487 46.2491 27.978 45.7878L28.7019 45.4634L28.5942 44.6256C28.4548 43.5429 28.337 43.0675 28.2113 43.0797C28.1557 43.0849 27.7205 43.2763 27.2441 43.5048ZM48.2283 43.3469C47.7397 43.5174 48.3219 44.3465 48.9301 44.3465C49.3145 44.3465 49.72 43.913 49.5131 43.7232C49.289 43.5178 48.4461 43.271 48.2283 43.3469ZM51.702 44.1885C51.2759 44.3625 50.822 45.0376 50.8924 45.3927C50.9707 45.7865 53.56 46.8447 55.3706 47.2227C56.9707 47.5567 59.2126 47.8112 59.2126 47.6588C59.2126 47.5401 55.8502 45.4334 54.8452 44.9224C54.1499 44.569 52.4169 44.0036 52.1323 44.0374C52.0855 44.043 51.892 44.111 51.702 44.1885ZM2.29543 44.7056C1.53764 45.8804 0.82252 48.3142 1.02976 49.013C1.0885 49.211 1.37764 49.6283 1.67228 49.9401L2.20803 50.5071L1.73591 50.9654C1.2326 51.454 1.00425 52.2263 1.16772 52.8868C1.32646 53.5278 2.32772 54.536 3.0115 54.7436C3.84173 54.9958 4.31449 54.7251 4.90929 53.6571C5.55402 52.4994 5.66299 52.4319 6.38961 52.7394C6.81323 52.9187 7.25921 52.9703 7.86819 52.9104C8.77606 52.8211 9.99827 52.5096 9.8863 52.3961C9.85071 52.3602 9.57874 52.4014 9.28189 52.4876C8.75323 52.6412 6.19921 52.6931 6.56268 52.5429C6.67197 52.4976 6.51165 52.2461 6.16898 51.9257C5.68693 51.4749 5.61953 51.337 5.76441 51.0983C5.97811 50.7461 6.7778 50.4969 7.28236 50.6252C7.81449 50.7605 9.00661 51.6678 8.89433 51.852C8.7611 52.0703 7.87402 52.0441 7.87402 51.8218C7.87402 51.7174 7.73685 51.7632 7.55811 51.9273C7.38425 52.0865 7.26835 52.2434 7.30031 52.276C7.33244 52.3084 7.84661 52.2656 8.44315 52.1809C9.03953 52.096 9.93638 51.9913 10.4359 51.9479L11.3443 51.869L11.0157 52.3364C10.8351 52.5937 10.5956 52.804 10.4836 52.804C10.3718 52.804 10.0046 52.9953 9.66772 53.2293C8.88835 53.7704 6.53039 55.1205 5.17039 55.8042C1.74457 57.5263 0.594016 62.0343 3.13732 63.7709C3.93543 64.3161 4.96551 64.269 5.81055 63.6487C6.17402 63.3819 6.51118 63.0588 6.55968 62.9306C6.73339 62.472 6.8874 62.7123 6.99071 63.6026C7.0485 64.1003 7.2252 64.8004 7.38362 65.1584C7.74268 65.9704 8.86142 67.2565 9.08614 67.1158C9.17811 67.0582 9.30315 66.3098 9.36394 65.4527C9.50819 63.4168 9.67669 62.7213 10.3984 61.1788C10.872 60.1671 11.2633 59.6319 12.269 58.621L13.5408 57.3426L12.9928 56.0707C12.4146 54.7286 12.3099 53.8471 12.6019 52.7817C12.811 52.019 14.0041 51.1905 15.5512 50.7338C16.3145 50.5085 16.6929 50.3173 16.6929 50.157C16.6929 49.7903 15.1863 49.9725 13.3071 50.5666C10.912 51.3239 9.80661 51.083 7.67528 49.3395C6.99717 48.7846 6.17165 48.1577 5.8411 47.9461C4.81244 47.2881 3.34378 45.8007 2.98866 45.0573C2.80189 44.6665 2.62157 44.3465 2.58803 44.3465C2.55449 44.3465 2.42268 44.508 2.29543 44.7056ZM77.2655 45.3187C76.777 46.3918 75.6085 47.4228 73.8715 48.3136C73.0016 48.7597 71.8455 49.4078 71.3024 49.7537C70.0139 50.5743 68.8409 50.9574 67.9822 50.8382C67.6165 50.7873 66.6657 50.4908 65.8693 50.1791C63.2077 49.1376 62.4907 49.6127 64.9099 50.8147C67.2055 51.9554 68.0296 52.7635 68.0309 53.8751C68.0317 54.5084 67.4795 56.0461 66.9839 56.7905C66.4282 57.6256 66.5 57.83 67.5472 58.3957C68.0605 58.6728 68.8696 59.2847 69.3454 59.7554C70.4531 60.8512 70.7176 61.6918 70.8608 64.5699C70.9658 66.6819 71.0238 66.9639 71.3162 66.7808C71.5959 66.6056 72.9447 64.7089 73.2704 64.033L73.588 63.3734L74.1419 63.7046C75.2055 64.3405 76.9693 63.9648 77.7715 62.9314C78.8709 61.515 78.4642 58.7451 76.937 57.2496C76.2213 56.5486 74.9802 55.9138 74.0157 55.7557C73.0995 55.6052 72.8935 55.4919 71.5847 54.4183C70.4334 53.4739 69.9405 53.1381 69.6917 53.1287C69.4342 53.1192 70.8825 54.5357 72.2061 55.5881C73.3869 56.527 75.4324 58.9218 75.2293 59.1275C75.1809 59.1766 74.9263 58.9049 74.6636 58.5236C73.8335 57.3192 73.0241 56.3146 72.8838 56.3146C72.6274 56.3146 73.9384 58.2021 74.9337 59.2658C75.8928 60.2908 75.92 60.3425 75.6573 60.6366C75.5071 60.8048 75.3145 60.9423 75.2291 60.9423C75.1439 60.9423 74.9863 61.0641 74.8789 61.2126C74.6957 61.4667 74.6592 61.4667 74.2776 61.2133C74.0261 61.0464 73.8022 60.6849 73.6899 60.2648C73.1854 58.3751 72.9894 57.8729 72.3665 56.8709C71.9945 56.2728 71.1005 55.1861 70.3798 54.4561L69.0696 53.1289L69.5069 52.6663C70.0655 52.0755 71.4413 51.3085 71.5685 51.517C71.6233 51.6069 71.9702 51.4763 72.3843 51.2103C72.7806 50.9556 73.3164 50.7003 73.5748 50.6427C74.0928 50.5275 75.4381 50.6848 75.4244 50.8589C75.397 51.2036 74.3315 51.7543 73.183 52.0176C71.8405 52.3253 70.7929 52.6655 70.6066 52.8543C70.4244 53.0387 70.7386 52.9787 71.9687 52.5942C72.6184 52.391 73.4331 52.2295 73.7791 52.2351C74.3945 52.2453 74.4194 52.2685 74.9224 53.2977C75.6384 54.7634 76.5408 55.1135 77.6501 54.356C78.935 53.4787 79.2368 52.2492 78.4035 51.2874C77.9767 50.7948 77.9414 50.6907 78.1443 50.5238C78.9337 49.8744 79.1106 48.649 78.6461 47.0484C78.3346 45.9751 77.7901 44.6642 77.6578 44.6698C77.6035 44.6721 77.4269 44.9641 77.2655 45.3187ZM30.5786 46.7903C30.1235 47.2813 30.1124 48.3008 30.5573 48.7845C31.0076 49.2742 31.8639 49.2543 32.3693 48.742C32.8148 48.2907 32.8417 48.055 32.5331 47.3063C32.1517 46.3814 31.1924 46.1282 30.5786 46.7903ZM48.043 47.0011C47.675 47.475 47.6368 47.8246 47.8913 48.3906C48.3935 49.5075 49.9213 49.1082 49.9213 47.8602C49.9213 46.7137 48.6998 46.1548 48.043 47.0011ZM36.7726 48.0158C36.6153 48.1918 36.5598 48.3359 36.6493 48.3359C36.8474 48.3359 37.2402 47.8798 37.1343 47.7726C37.0926 47.7303 36.9298 47.8396 36.7726 48.0158ZM42.3622 48.1535C42.3622 48.3846 44.2427 50.0912 44.4972 50.0912C45.0139 50.0912 44.6934 49.4772 43.8976 48.9429C42.7781 48.1913 42.3622 47.9775 42.3622 48.1535ZM35.4942 48.3649C35.3266 48.6396 35.7077 48.8818 36.0554 48.7216C36.3624 48.5802 36.3598 48.569 35.9819 48.3908C35.7282 48.2713 35.5569 48.2622 35.4942 48.3649ZM58.2677 49.9441C55.3855 50.474 53.185 50.539 51.4202 50.1461C50.7672 50.0006 50.1934 49.9219 50.145 49.9709C50.0965 50.0199 50.1439 50.787 50.2502 51.6755C50.4151 53.0544 50.4027 53.7351 50.1649 56.3239C49.8477 59.7755 49.9065 60.6517 50.5463 62.0228C51.3383 63.7197 53.4082 64.9317 55.5139 64.9317C56.0772 64.9317 56.4008 65.0332 56.7857 65.3306C57.3831 65.7924 57.498 65.8046 58.3465 65.4948C59.1778 65.1913 61.2787 65.1902 62.4243 65.4924C63.8074 65.8575 65.618 66.666 66.3902 67.2632L67.0795 67.7965L66.9813 67.0422C66.9272 66.6275 66.6405 65.3187 66.3439 64.1338C65.8962 62.3443 65.7907 61.5878 65.7205 59.6657C65.6472 57.6571 65.5909 57.2782 65.2934 56.7934C64.7691 55.939 64.5813 55.432 64.2403 53.9502C63.7 51.6018 62.9899 50.3408 61.8869 49.7706C61.1532 49.3913 61.3161 49.3835 58.2677 49.9441ZM18.7879 50.0861C17.0019 51.0018 15.7835 52.7475 14.7247 55.9082C14.415 56.8334 14.2419 57.8279 14.0865 59.5784C13.8773 61.9338 13.6072 63.2038 12.8178 65.5433C12.6006 66.1871 12.4447 66.923 12.4713 67.179L12.5197 67.6441L13.2283 67.1566C16.0066 65.2451 18.809 64.515 21.5328 64.993C22.9613 65.2437 25.3557 65.1058 26.425 64.7113C27.2528 64.406 28.3509 63.6241 28.7824 63.0329C29.6622 61.827 29.8759 60.185 29.5231 57.3399C29.2219 54.9088 29.2757 52.8769 29.6816 51.3678C29.8113 50.8851 29.9184 50.3408 29.9194 50.1581C29.9213 49.8349 29.8953 49.8317 28.937 50.0352C27.5915 50.3208 24.4233 50.3031 23.1496 50.0027C22.5866 49.8699 21.5945 49.7218 20.9449 49.6736C19.8465 49.5921 19.6956 49.621 18.7879 50.0861ZM45.8397 51.0563L45.309 51.7254L44.462 51.6246L43.6151 51.5237L43.7148 51.9645C44.0739 53.5505 47.2161 58.7799 47.3661 58.0408C47.3961 57.8932 47.3052 56.9237 47.1643 55.8865C47.0233 54.8494 46.8055 53.2468 46.6805 52.3253C46.5553 51.4037 46.4343 50.5907 46.4117 50.5184C46.389 50.4463 46.1315 50.6884 45.8397 51.0563ZM33.1781 53.0288C32.3646 56.4144 31.775 59.3632 31.8887 59.4785C31.991 59.5821 32.289 59.2296 33.7405 57.2874C34.7123 55.9869 35.4772 54.6101 36.1995 52.8605C36.448 52.2589 36.769 51.4945 36.9131 51.1618L37.175 50.557L36.4233 50.9623C35.4992 51.4609 35.2139 51.4652 34.3981 50.9923L33.7569 50.6207L33.1781 53.0288ZM39.3975 51.2584C38.9666 51.7232 38.9606 52.32 39.3816 52.8622C40.0239 53.6898 41.1024 53.2264 41.1024 52.1229C41.1024 51.6059 40.482 50.8891 40.0346 50.8891C39.8726 50.8891 39.5858 51.0554 39.3975 51.2584ZM72.3622 51.6014C71.754 51.8836 72.0369 51.8877 72.7559 51.6072C73.0591 51.4889 73.2008 51.3898 73.0709 51.3871C72.9409 51.3844 72.622 51.4808 72.3622 51.6014ZM52.3074 52.3824C52.2187 52.4947 52.2743 53.2382 52.4523 54.32C52.6112 55.2854 52.7446 56.6498 52.7487 57.3519C52.7529 58.054 52.8573 59.1658 52.9809 59.8226C53.2573 61.2905 53.5967 61.6545 54.5614 61.5171C58.306 60.9835 59.891 61.32 62.7671 63.2592C63.4806 63.7401 64.1065 64.1338 64.158 64.1338C64.2093 64.1338 64.0118 63.7928 63.7191 63.3758C62.1868 61.1946 61.8294 59.8202 61.8191 56.0684C61.8121 53.5896 61.7721 53.129 61.5318 52.7572C61.1959 52.2375 61.1137 52.2327 59.9157 52.6618C59.08 52.9613 58.7419 52.9891 56.8504 52.9141C55.4583 52.8589 54.3321 52.721 53.5879 52.515C52.7485 52.2825 52.4135 52.2479 52.3074 52.3824ZM19.3701 52.6048C18.5463 53.0218 18.2543 53.782 18.0969 55.9202C17.8854 58.7932 17.2126 60.9506 15.8965 62.9769C15.7112 63.2622 15.6121 63.4955 15.6762 63.4955C15.7403 63.4955 16.2257 63.2187 16.7546 62.8804C18.1266 62.003 19.0187 61.5631 19.9213 61.3188C20.8441 61.069 22.9261 61.0472 23.937 61.2766C24.3268 61.3652 25 61.4766 25.4331 61.5244C26.1353 61.6018 26.2619 61.5663 26.6028 61.1964C26.9652 60.8032 26.9954 60.613 27.1835 57.5507C27.2924 55.7738 27.431 53.9802 27.4913 53.5652C27.6304 52.6079 27.534 52.5657 25.7186 52.7895C24.5395 52.9347 24.0093 52.9127 22.2044 52.6436C19.6597 52.2643 20.0326 52.2694 19.3701 52.6048ZM70.4735 52.4831C70.4184 52.5734 70.4816 52.6002 70.6217 52.5458C70.8945 52.4397 70.9444 52.3253 70.718 52.3253C70.6364 52.3253 70.5265 52.3963 70.4735 52.4831ZM52.5984 52.9136C52.5984 53.8532 55.9978 57.3099 58.8082 59.2282C59.9282 59.9928 60.8729 60.5897 60.9076 60.5546C61.0124 60.4483 60.6274 59.8133 59.5805 58.3666C59.0317 57.6082 58.5827 56.9395 58.5827 56.8805C58.5827 56.8216 58.7068 56.786 58.8583 56.8017C59.3757 56.8551 60.3943 56.7683 60.1575 56.6912C59.5194 56.4832 58.4252 55.9258 58.4252 55.8086C58.4252 55.7359 58.8054 55.6763 59.2701 55.6763C59.8865 55.6763 60.2272 55.5868 60.5299 55.3455C61.1225 54.8732 61.0465 54.7465 60.2261 54.8402C59.6539 54.9056 59.0361 54.7687 57.1946 54.1684C52.4507 52.6218 52.5984 52.6621 52.5984 52.9136ZM25.5906 53.5313C24.2584 54.0962 22.2887 54.5569 21.1997 54.5582C20.5376 54.559 20.122 54.6541 19.743 54.8916C19.4513 55.0741 19.2126 55.275 19.2126 55.3379C19.2126 55.4008 19.6732 55.4225 20.2362 55.3861C20.8288 55.3478 21.2598 55.3843 21.2598 55.4729C21.2598 55.5568 20.9077 55.8198 20.4773 56.0572C19.3063 56.703 19.3091 56.8532 20.4898 56.7321C21.0431 56.6754 21.5783 56.6842 21.6787 56.7516C21.8011 56.8337 21.5282 57.2581 20.852 58.0377C19.9389 59.0901 19.6263 59.6657 19.9679 59.6657C20.1529 59.6657 22.331 58.2846 22.868 57.8266C23.3391 57.425 23.6973 57.3273 23.8402 57.5614C23.8836 57.6329 23.8101 58.1764 23.6765 58.7694C23.5431 59.3622 23.4805 59.8945 23.5373 59.9523C23.5943 60.0099 23.882 59.7717 24.1767 59.4227L24.7126 58.7881L24.7184 59.3734C24.7254 60.0477 24.8542 60.4636 25.0562 60.4636C25.1335 60.4636 25.1969 60.3335 25.1969 60.1746C25.1969 59.9344 26.6569 54.5775 27.0099 53.5221C27.1279 53.1694 26.6696 53.6331 25.1474 55.407C24.6439 55.9937 24.0841 56.554 23.9033 56.6521C23.585 56.8246 23.586 56.8143 23.9321 56.3217C24.1287 56.0419 24.685 55.3693 25.1685 54.8271C26.4661 53.3718 26.6761 53.1228 26.6022 53.127C26.5655 53.129 26.1102 53.311 25.5906 53.5313ZM9.67134 53.9119C9.05827 54.0605 9.05953 54.0595 7.13764 55.4692C5.35654 56.7757 4.56693 57.5869 4.56693 58.1108C4.56693 58.4033 4.72583 58.3033 5.55118 57.4901C6.66394 56.3938 8.80504 54.6517 8.90961 54.7575C8.98929 54.8384 6.0778 57.5804 5.06409 58.3792C4.45811 58.8567 4.39087 58.973 4.47465 59.3978C4.54094 59.7335 4.4863 59.9724 4.2926 60.1949C4.02173 60.5056 4.02677 60.5102 4.52756 60.4122C5.00315 60.319 5.03969 60.3428 5.04441 60.7468L5.04929 61.1817L5.43339 60.7395L5.81748 60.2972L5.79654 60.8598C5.78504 61.1692 5.81764 61.4651 5.86898 61.5171C6.04913 61.6997 7.41669 59.6038 8.3663 57.6895C8.89386 56.6261 9.56598 55.3518 9.85969 54.8576C10.5701 53.6622 10.5762 53.6927 9.67134 53.9119ZM39.3424 55.3905C37.9854 57.4612 36.5225 58.733 33.8735 60.1444C32.038 61.1225 31.5726 61.6065 31.5961 62.5125C31.6258 63.6645 32.372 64.6459 33.7619 65.3611C34.6515 65.8189 34.6701 65.806 35.057 64.453C35.4283 63.1542 35.9208 62.3921 37.0087 61.4333C37.5657 60.9423 38.3674 59.9858 38.8787 59.2023C39.3709 58.4478 39.8712 57.8306 39.9906 57.8306C40.1098 57.8306 40.7077 58.5846 41.3194 59.5061C42.5975 61.4321 46.377 65.4104 46.9285 65.4104C47.4586 65.4104 48.189 64.0828 48.189 63.1192C48.189 61.7719 47.7304 61.2071 45.2433 59.49C42.8688 57.8507 41.3753 56.4696 40.7761 55.3589C40.5635 54.965 40.2784 54.6209 40.1425 54.5944C39.9906 54.5647 39.6832 54.8707 39.3424 55.3905ZM54.2666 56.9038C54.3912 57.4136 54.5611 58.4769 54.6439 59.2668C54.7268 60.0567 54.7965 60.721 54.7989 60.7428C54.8013 60.7647 54.874 60.7827 54.9606 60.7827C55.0472 60.7827 55.1187 60.3699 55.1195 59.8652L55.1211 58.9476L55.5272 59.6344C56.3019 60.9442 56.5581 59.8778 55.8452 58.3111C55.5061 57.566 54.4573 56.1374 54.1679 56.0261C54.0975 55.9992 54.1419 56.3941 54.2666 56.9038ZM7.78299 56.4367C7.44504 56.67 5.35433 59.0823 5.35433 59.239C5.35433 59.3273 5.90346 58.8032 6.5748 58.0741C7.93685 56.5949 8.33433 56.0561 7.78299 56.4367ZM6.7515 58.5088C6.55575 58.7619 6.56126 58.7675 6.81102 58.5691C6.96252 58.4486 7.08661 58.3229 7.08661 58.2899C7.08661 58.1585 6.95732 58.2429 6.7515 58.5088ZM39.8293 59.6729C39.434 61.9116 39.6882 68.7615 40.1666 68.7615C40.4041 68.7615 40.68 66.9262 40.6943 65.2508C40.7022 64.3293 40.6578 62.6059 40.5956 61.421L40.4824 59.2668L40.946 61.5768C41.4205 63.9409 41.8994 65.4066 42.3102 65.7521C42.5115 65.9214 42.5274 65.8178 42.4317 64.9606C42.371 64.418 42.3535 63.9742 42.3928 63.9742C42.432 63.9742 42.803 64.4769 43.2173 65.0913C43.6315 65.7056 43.9984 66.2083 44.0324 66.2083C44.2998 66.2083 43.9263 65.3292 42.989 63.752C42.3809 62.7288 41.6121 61.301 41.2806 60.5793C40.949 59.8574 40.534 59.0905 40.3586 58.875L40.0394 58.4833L39.8293 59.6729ZM38.8172 60.2635C38.0685 61.4191 36.0631 65.33 36.063 65.6346C36.063 65.9147 36.7447 65.157 37.5932 63.9343C38.0652 63.2542 38.4633 62.6976 38.4776 62.6975C38.4921 62.6975 38.4802 63.3616 38.4512 64.1735C38.4222 64.9855 38.4255 65.9011 38.4584 66.2083L38.5186 66.7668L38.6983 66.3436C38.7972 66.1108 38.9896 64.7105 39.1258 63.2319C39.262 61.7533 39.446 60.2287 39.5346 59.8441C39.6235 59.4595 39.675 59.1236 39.6494 59.0978C39.6238 59.0718 39.2493 59.5963 38.8172 60.2635ZM29.8435 63.2163C28.668 66.6682 27.6113 68.0453 26.1417 68.0402C25.238 68.037 23.7479 67.3456 23.0657 66.6127L22.5535 66.0623L22.0247 66.8817C20.8375 68.7214 19.6162 69.2314 15.9843 69.4044C13.6515 69.5155 12.4409 69.7304 12.4409 70.0333C12.4409 70.1782 13.5329 71.2122 14.3457 71.8371C14.6572 72.0765 15.3139 72.4126 15.8054 72.5838C16.2967 72.7552 16.7583 72.9325 16.8307 72.9779C16.9033 73.0234 16.8334 73.4396 16.6754 73.903C15.7622 76.5821 17.0362 78.9721 19.3786 78.9736C20.9376 78.9748 22.4688 77.8906 23.5539 76.0174C23.9726 75.2943 25.5118 71.5927 25.5118 71.3086C25.5118 71.2075 25.0269 71.8676 24.4342 72.7756C23.4923 74.2186 21.9904 75.9164 21.6209 75.9556C21.5523 75.9629 21.3476 75.9861 21.1661 76.007C20.9847 76.0279 20.6087 76.2092 20.3304 76.4101C19.6014 76.936 19.5343 76.6837 20.2312 76.037L20.8236 75.4871L20.2044 75.5339C19.8638 75.5597 19.4294 75.6652 19.2391 75.7684C18.9545 75.9227 18.8761 75.9114 18.7975 75.704C18.7449 75.5653 18.8069 75.3288 18.9351 75.1785C19.202 74.8654 19.4129 74.1414 19.198 74.2761C19.1194 74.3252 19.0551 74.4647 19.0551 74.586C19.0551 74.7073 18.9781 74.8547 18.8839 74.9137C18.7724 74.9836 18.7291 74.8616 18.76 74.564C18.786 74.3126 18.7483 74.0104 18.6764 73.8923C18.4477 73.5176 18.9302 73.247 20.2935 72.9848C21.8638 72.683 22.8707 72.2498 24.2734 71.2721C25.8402 70.1803 26.2746 69.9784 26.5532 70.2127C27.0707 70.6478 29.1079 68.064 29.6194 66.3233L29.9526 65.1897L30.3828 66.5369C31.2294 69.1871 31.665 69.8134 34.0997 71.881C36.3569 73.798 37.3402 75.0625 38.6969 77.793C39.5682 79.5465 39.8205 79.9321 40.0729 79.896C40.2728 79.8676 40.4619 79.6266 40.6082 79.2136C42.0476 75.1525 42.5731 74.4167 45.7191 72.0578C47.672 70.5937 48.2137 69.9942 48.6603 68.803C49.0159 67.8549 49.1899 66.0072 48.995 65.2508C48.9159 64.9437 48.8439 64.8117 48.835 64.9574C48.8261 65.1032 48.3597 65.649 47.7984 66.1702C47.014 66.8985 46.4402 67.2596 45.3187 67.7305C43.0559 68.6809 41.6998 70.2115 40.614 73.0403C39.8827 74.9458 39.851 75.0092 39.6844 74.9046C39.5981 74.8507 39.5276 74.6648 39.5276 74.4917C39.5276 73.9019 38.8778 72.1949 38.2272 71.0753C37.3153 69.5062 36.2687 68.5355 34.0981 67.2455C31.7943 65.8764 30.848 64.9962 30.4526 63.8546C30.1658 63.027 29.9757 62.8279 29.8435 63.2163ZM49.3315 63.8361C49.3707 64.307 49.5266 65.2309 49.678 65.8891C50.0197 67.3754 49.9269 69.6368 49.4619 71.1575C48.792 73.3485 46.7249 76.0212 45.0408 76.874L44.0948 77.3528L45.2879 78.3255C47.8332 80.4002 48.9532 80.5228 49.8761 78.8276C50.1175 78.3842 50.3545 78.0203 50.4028 78.0191C50.451 78.0178 50.611 78.2934 50.7581 78.6314C51.1183 79.4584 51.5068 79.7825 52.2608 79.885C53.8841 80.1057 55.3638 77.8163 54.5819 76.2934C54.2457 75.6387 53.6846 75.1952 53.0468 75.08C52.7302 75.0229 52.4354 74.8815 52.3917 74.7657C52.3477 74.6498 52.2294 73.8438 52.1288 72.9748C51.8192 70.3028 51.6787 69.5691 51.4055 69.1982C51.1775 68.8888 51.1584 68.8839 51.2624 69.1604C51.3283 69.336 51.417 69.8999 51.4594 70.4137C51.5351 71.333 51.5309 71.3448 51.1932 71.1617C50.8806 70.9922 50.8529 70.8631 50.8803 69.709C50.8968 69.0123 50.9591 68.4423 51.0184 68.4423C51.078 68.4423 51.6606 68.9989 52.3137 69.679C53.3598 70.7689 53.6219 71.173 54.5213 73.0821C56.4071 77.086 57.8038 78.647 59.7414 78.9162C61.0586 79.0991 62.3496 78.4008 63.1033 77.0975C63.4883 76.4316 63.5455 76.1445 63.6186 74.5099L63.7008 72.6711L64.9606 72.0321C65.6535 71.6808 66.6102 71.2295 67.0866 71.029L67.9528 70.6651L67.5591 70.3525C66.9498 69.8689 66.0808 69.685 63.8583 69.5689C62.1586 69.4802 61.6907 69.3992 61.1024 69.0918C60.0946 68.5652 57.9537 67.1294 57.4328 66.6307C56.8893 66.1103 56.8394 66.1097 56.3695 66.6163C55.8852 67.1386 54.4668 67.9636 54.0528 67.9636C53.8778 67.9636 53.6995 67.8739 53.6569 67.7641C53.5276 67.4321 52.2506 65.8694 52.1729 65.948C52.1331 65.9884 52.425 66.4253 52.8219 66.9189C53.2186 67.4126 53.5433 67.8854 53.5433 67.9698C53.5433 68.1682 53.1301 68.1666 52.7616 67.9666C52.3502 67.7436 51.1841 66.0382 50.366 64.4632C49.5041 62.8039 49.2317 62.6388 49.3315 63.8361ZM11.1178 64.2535C11.0713 64.407 10.9572 65.0713 10.8643 65.7296C10.5383 68.0399 9.93228 69.0964 8.74677 69.4223C6.00803 70.175 4.99118 70.8044 4.35323 72.1416C3.89591 73.1003 3.62504 74.5703 3.62331 76.1024L3.62205 77.1401L5.7874 76.0826C8.74189 74.6398 9.58614 73.7546 10.2852 71.3672C10.5991 70.2953 10.7945 69.9313 11.4627 69.1745L12.0137 68.5502L11.9145 66.8606C11.8123 65.1173 11.5855 63.9742 11.3417 63.9742C11.265 63.9742 11.1643 64.1 11.1178 64.2535ZM68.6112 65.1955C67.4458 66.9353 67.5178 68.5148 68.8402 70.2202C69.0879 70.5398 69.4965 71.3137 69.748 71.9401C70.7457 74.4242 72.2715 75.605 75.9603 76.7476C76.3835 76.8786 76.4031 76.8639 76.3098 76.4865C76.2553 76.2665 76.1063 75.3329 75.9787 74.412C75.7293 72.6117 75.3132 71.556 74.5476 70.78C73.8953 70.1192 73.3176 69.8649 72.0702 69.6897C70.7175 69.4998 70.2283 69.2579 69.6539 68.4952C69.2512 67.9606 69.2057 67.7616 69.1339 66.2211L69.0551 64.5328L68.6112 65.1955ZM29.123 69.1936C28.8956 69.886 28.7381 70.8577 28.677 71.9447C28.5998 73.3201 28.5362 73.6341 28.3269 73.6745C27.9994 73.7378 27.8287 73.2945 28.0321 72.9093C28.2403 72.515 28.2398 70.9448 28.0315 71.0753C27.9449 71.1296 27.8743 71.4749 27.8748 71.8427C27.8753 72.2105 27.7715 72.8346 27.6443 73.2296C27.517 73.6245 27.3775 74.1272 27.3342 74.3466C27.2805 74.619 27.0271 74.8675 26.5357 75.1297C26.1398 75.3409 25.6058 75.7563 25.349 76.0528C24.3359 77.2218 25.0496 79.1 26.7861 79.8352C27.7814 80.2563 28.5739 79.8524 29.2254 78.5918L29.6616 77.7475L30.0414 78.5198C30.7613 79.9834 31.5265 80.2437 32.958 79.5116C33.8751 79.0424 36.0425 77.5231 36.055 77.3407C36.0594 77.2759 35.5504 76.9614 34.9238 76.6416C33.0413 75.681 30.9847 73.3478 30.2159 71.3003C30.0376 70.8256 29.8528 69.9165 29.805 69.2801C29.7573 68.6437 29.6635 68.1232 29.5964 68.1232C29.5293 68.1232 29.3162 68.6049 29.123 69.1936ZM53.3858 70.3268C53.3858 70.7292 55.4482 73.6496 56.2951 74.4463C57.1178 75.2201 58.2699 75.8444 58.4808 75.6307C58.5687 75.5417 58.7143 75.5742 58.8515 75.7132C59.0989 75.9639 59.685 76.0265 59.685 75.8021C59.685 75.725 59.4843 75.5777 59.2389 75.4746C58.9935 75.3717 58.409 74.9112 57.9397 74.4513C57.4705 73.9914 56.8386 73.4449 56.5354 73.2369L55.9843 72.8587L56.6068 73.5229C56.965 73.9051 57.1346 74.187 57.0063 74.187C56.7331 74.187 55.3107 72.6738 54.8893 71.9346C54.588 71.4061 54.6024 71.4119 55.598 72.2142C56.8614 73.2321 60.889 75.265 61.1395 75.0111C61.3698 74.7778 60.8562 74.3551 59.4194 73.5952C58.797 73.266 58.3068 72.9773 58.3299 72.9538C58.3902 72.8927 60.3076 73.6684 60.8409 73.9695C61.1844 74.1634 61.3307 74.1783 61.4709 74.0337C61.7592 73.7362 61.1833 73.3671 59.5965 72.8324C58.8224 72.5715 57.1721 71.8362 55.9294 71.198C54.6868 70.5601 53.606 70.0381 53.5279 70.0381C53.4498 70.0381 53.3858 70.168 53.3858 70.3268ZM51.0293 71.7877C50.5357 72.2878 50.5935 74.187 51.1024 74.187C51.3713 74.187 51.4444 73.9601 51.5756 72.7185C51.6998 71.5432 51.5397 71.2705 51.0293 71.7877ZM22.5693 73.8679C21.9803 74.57 21.4472 75.1445 21.3847 75.1445C21.322 75.1445 21.1921 75.2935 21.0959 75.4758C20.9408 75.7697 20.9534 75.789 21.2085 75.6479C21.7469 75.3502 24.0167 72.5913 23.7233 72.5913C23.6775 72.5913 23.1583 73.1658 22.5693 73.8679ZM21.9323 73.591C21.6643 73.9627 21.2483 74.5182 21.008 74.8253L20.5709 75.3839L21.0085 74.9849C21.5326 74.507 22.5858 73.0839 22.4883 72.9851C22.4506 72.9467 22.2002 73.2194 21.9323 73.591ZM20.5438 74.1965C20.2014 74.5526 20.0276 74.7977 20.1575 74.7411C20.3792 74.6444 21.3635 73.5487 21.2285 73.5487C21.1943 73.5487 20.8861 73.8401 20.5438 74.1965ZM57.8857 74.2003C58.0524 74.3871 58.4452 74.6726 58.7584 74.8348C59.0718 74.9967 59.5419 75.3116 59.8033 75.5345C60.1833 75.8584 60.3126 75.8982 60.4485 75.7322C60.6871 75.441 60.2394 75.0874 58.7773 74.4124C57.7702 73.9472 57.6301 73.9138 57.8857 74.2003Z" fill="#FFD700"/>
</svg>
