<svg width="161" height="67" viewBox="0 0 161 67" fill="none" xmlns="http://www.w3.org/2000/svg">
<path d="M89.5547 19.6025L89.4082 19.7637C88.8027 19.9102 88.4512 20.1152 88.3535 20.3789C88.2559 20.6328 88.207 21.6191 88.207 23.3379C88.207 24.168 88.2461 24.9883 88.3242 25.7988C85.0625 27.0293 82.1035 27.6445 79.4473 27.6445C75.9512 27.6445 73.1191 26.668 70.9512 24.7148C68.793 22.752 67.7139 20.0811 67.7139 16.7021C67.7139 12.2979 69.623 9.1582 73.4414 7.2832C75.1895 6.42383 77.4111 5.99414 80.1064 5.99414C81.6689 5.99414 83.251 6.16504 84.8525 6.50684C86.1709 6.79004 87.2109 7.1123 87.9727 7.47363L88.1045 7.7373C87.8506 8.59668 87.6406 10.0908 87.4746 12.2197L87.3135 12.3662H86.4346L86.2881 12.2197C86.2881 12.0342 86.2686 11.6533 86.2295 11.0771C86.1904 10.4912 86.1416 10.0811 86.083 9.84668C85.6533 9.26074 84.9209 8.7627 83.8857 8.35254C82.7725 7.92285 81.5713 7.70801 80.2822 7.70801C76.8252 7.70801 74.4375 9.10449 73.1191 11.8975C72.5137 13.1865 72.2109 14.6807 72.2109 16.3799C72.2109 19.0947 72.9336 21.3457 74.3789 23.1328C75.8828 24.9883 77.8408 25.916 80.2529 25.916C81.5322 25.916 82.7676 25.6426 83.959 25.0957C84.0273 24.4121 84.0615 23.4746 84.0615 22.2832C84.0615 21.3164 84.0273 20.7305 83.959 20.5254C83.9004 20.3691 83.7148 20.2568 83.4023 20.1885C83.1387 20.1299 82.3135 20.0566 80.9268 19.9688L80.7656 19.8223V18.8994L80.9268 18.7529C82.3428 18.792 83.8271 18.8066 85.3799 18.7969C86.2783 18.7871 87.6211 18.7725 89.4082 18.7529L89.5547 18.8994V19.6025ZM102.636 12.8496L102.533 15.457C102.523 15.8867 102.504 16.375 102.475 16.9219L101.859 17.1123C101.4 16.4482 100.766 16.1162 99.9551 16.1162C99.2227 16.1162 98.6172 16.4092 98.1387 16.9951C97.8457 17.3564 97.6992 17.8887 97.6992 18.5918V22.0195C97.6992 22.7324 97.7334 23.7236 97.8018 24.9932C97.8213 25.3545 97.9238 25.5889 98.1094 25.6963C98.2949 25.8037 98.9736 25.877 100.146 25.916L100.292 26.0479V26.9414L100.146 27.0879C98.71 27.0293 97.2842 27 95.8682 27C94.1201 27 92.7871 27.0342 91.8691 27.1025L91.7227 26.9561V26.0625L91.8691 25.916C92.8066 25.8867 93.3877 25.8135 93.6123 25.6963C93.8076 25.6084 93.915 25.374 93.9346 24.9932C94.0029 23.7236 94.0371 22.3613 94.0371 20.9062V18.8115C94.0371 16.8584 93.9639 15.7354 93.8174 15.4424C93.7197 15.2471 93.5098 15.125 93.1875 15.0762C93.0703 15.0566 92.6455 15.0322 91.9131 15.0029L91.7666 14.8564V14.0361L91.9131 13.875C93.6709 13.709 95.5215 13.3037 97.4648 12.6592L97.7871 12.8496L97.7578 15.7207C98.3633 15.0176 99.0957 14.1973 99.9551 13.2598C100.355 12.8691 100.902 12.6738 101.596 12.6738C102.006 12.6738 102.353 12.7324 102.636 12.8496ZM116.991 26.9121L116.83 27.0732C116.01 27.0244 115.067 27 114.003 27C113.173 27 112.377 27.0244 111.615 27.0732L111.483 26.9121L111.615 24.9492L108.773 27.1172C108.549 27.2832 108.227 27.3857 107.807 27.4248C107.641 27.4443 107.445 27.4541 107.221 27.4541C106.137 27.4541 105.302 27.127 104.716 26.4727C104.14 25.8184 103.852 24.915 103.852 23.7627C103.852 22.2393 104.335 21.1602 105.302 20.5254C106.347 19.832 108.451 19.207 111.615 18.6504C111.615 17.0977 111.205 16.0576 110.385 15.5303C109.887 15.208 109.291 15.0469 108.598 15.0469C107.836 15.0469 107.235 15.2031 106.796 15.5156L106.239 16.8779L106.049 16.9805L105.302 16.8047L105.199 16.5996L105.272 14.8711C106.884 13.6797 108.095 13.0059 108.905 12.8496C109.247 12.7812 109.691 12.7471 110.238 12.7471C112.162 12.7471 113.534 13.25 114.354 14.2559C114.95 14.9883 115.248 16.1113 115.248 17.625C115.248 17.9961 115.233 18.5918 115.204 19.4121C115.155 20.7793 115.131 21.6924 115.131 22.1514C115.131 23.626 115.155 24.5684 115.204 24.9785C115.253 25.3789 115.365 25.6328 115.541 25.7402C115.727 25.8477 116.161 25.9111 116.845 25.9307L116.991 26.0918V26.9121ZM111.615 23.499V19.8955C110.004 20.2471 108.915 20.6279 108.349 21.0381C107.792 21.4385 107.514 22.0537 107.514 22.8838C107.514 24.2119 108.095 24.876 109.257 24.876C110.243 24.876 111.029 24.417 111.615 23.499ZM135.375 26.9414L135.229 27.1025C134.154 27.0342 133.246 27 132.504 27C131.82 27 130.824 27.0342 129.516 27.1025L129.369 26.9561C129.545 24.7783 129.633 23.0986 129.633 21.917V19.0459C129.633 16.6631 128.773 15.4717 127.055 15.4717C126.156 15.4717 125.453 15.7793 124.945 16.3945C124.516 16.9121 124.301 17.4346 124.301 17.9619V20.7012C124.301 23.2305 124.364 24.7832 124.491 25.3594C124.569 25.7012 125.136 25.8818 126.19 25.9014L126.337 26.0479V26.9414L126.19 27.0879C125.36 27.0293 124.12 27 122.47 27C120.722 27 119.389 27.0342 118.471 27.1025L118.324 26.9561V26.0625L118.471 25.916C119.408 25.8867 119.989 25.8135 120.214 25.6963C120.409 25.6084 120.517 25.374 120.536 24.9932C120.604 23.7236 120.639 22.3613 120.639 20.9062V18.8115C120.639 16.8584 120.565 15.7354 120.419 15.4424C120.321 15.2471 120.111 15.125 119.789 15.0762C119.672 15.0566 119.247 15.0322 118.515 15.0029L118.368 14.8564V14.0361L118.515 13.875C120.272 13.709 122.123 13.3037 124.066 12.6592L124.389 12.8496L124.359 15.3105L126.879 13.2012C127.523 12.9375 128.231 12.8057 129.003 12.8057C130.556 12.8057 131.718 13.2744 132.489 14.2119C133.114 14.9736 133.427 16.0918 133.427 17.5664C133.427 17.7324 133.407 18.4111 133.368 19.6025C133.329 20.7939 133.31 21.6436 133.31 22.1514C133.31 23.626 133.334 24.5684 133.383 24.9785C133.432 25.3789 133.544 25.6328 133.72 25.7402C133.896 25.8477 134.403 25.9111 135.243 25.9307L135.375 26.0771V26.9414ZM153.598 26.9561L153.451 27.1025C152.494 27.0342 151.63 27 150.858 27C150.126 27 149.135 27.0342 147.885 27.1025L147.753 27C147.792 26.5215 147.812 25.7207 147.812 24.5977C147.46 24.8906 146.957 25.3398 146.303 25.9453C145.492 26.6973 144.965 27.1465 144.721 27.293C144.408 27.4395 143.9 27.5127 143.197 27.5127C141.527 27.5127 140.18 26.8828 139.154 25.623C138.129 24.3633 137.616 22.7324 137.616 20.7305C137.616 18.7871 138.012 17.2734 138.803 16.1895C139.008 15.9062 139.613 15.4033 140.619 14.6807C141.791 13.8408 142.646 13.3086 143.183 13.084C143.651 12.8887 144.247 12.791 144.97 12.791C145.985 12.791 146.933 13.0059 147.812 13.4355V12.6152C147.812 10.0469 147.748 8.5332 147.621 8.07422C147.553 7.82031 147.353 7.66406 147.021 7.60547C146.864 7.57617 146.415 7.54688 145.673 7.51758L145.526 7.35645V6.55078L145.673 6.38965C147.548 6.19434 149.438 5.78906 151.342 5.17383L151.664 5.34961C151.664 5.38867 151.645 5.87207 151.605 6.7998C151.518 8.89941 151.474 12.0537 151.474 16.2627V20.9941C151.474 23.7383 151.537 25.2471 151.664 25.5205C151.742 25.6865 151.85 25.7891 151.986 25.8281C152.201 25.8965 152.689 25.96 153.451 26.0186L153.598 26.165V26.9561ZM147.812 19.3096V16.5557C147.108 15.7158 146.435 15.1787 145.79 14.9443C145.351 14.7881 144.882 14.71 144.384 14.71C143.036 14.71 142.167 15.4033 141.776 16.79C141.562 17.5615 141.454 18.4209 141.454 19.3682C141.454 21.3896 141.928 22.8887 142.875 23.8652C143.373 24.3828 144.042 24.6416 144.882 24.6416C145.575 24.6416 146.22 24.4219 146.815 23.9824C147.353 23.5918 147.67 23.1719 147.768 22.7227C147.797 22.5859 147.812 21.4482 147.812 19.3096Z" fill="#8B4513"/>
<path d="M83.0654 49.1074C82.8506 50.5332 82.7432 52.1445 82.7432 53.9414L82.5967 54.0879L71.9473 54C70.1699 54 68.915 54.0293 68.1826 54.0879L68.0361 53.9414V53.5312L68.1094 53.3555C68.832 52.8965 69.2227 52.6084 69.2812 52.4912C69.3691 52.3154 69.4229 51.666 69.4424 50.543L69.4863 47.2617V39.835C69.4863 37.5107 69.4229 35.9971 69.2959 35.2939C69.2471 35.0107 69.0811 34.8301 68.7979 34.752C68.6514 34.7129 68.0801 34.6641 67.084 34.6055L66.9375 34.459V33.4629L67.084 33.3311C68.0898 33.3896 69.5645 33.4189 71.5078 33.4189C73.5195 33.4189 75.0479 33.3896 76.0928 33.3311L76.2393 33.4629V34.4736L76.0928 34.6055C75.0967 34.6641 74.5254 34.7129 74.3789 34.752C74.0957 34.8301 73.9297 35.0107 73.8809 35.2939C73.7539 35.9971 73.6904 37.5107 73.6904 39.835V48.5947C73.6904 49.874 73.7148 51.1143 73.7637 52.3154H75.7559C78.6074 52.3154 80.3555 52.2031 81 51.9785C81.1074 51.9395 81.1855 51.8857 81.2344 51.8174C81.332 51.6807 81.4248 51.3877 81.5127 50.9385L81.8643 49.1221L82.0107 48.9609H82.9043L83.0654 49.1074ZM98.1387 45.7822C98.1387 45.9482 98.1338 46.1973 98.124 46.5293L97.9629 46.7344C96.6738 47.0859 94.9648 47.2617 92.8359 47.2617C92.4551 47.2617 91.8789 47.2715 91.1074 47.291C90.3359 47.3008 89.7549 47.3057 89.3643 47.3057C89.4229 48.7412 89.8672 49.9277 90.6973 50.8652C91.5664 51.8711 92.6992 52.374 94.0957 52.374C95.0332 52.374 96.1465 52.0518 97.4355 51.4072L97.7871 51.832L97.1426 53.2822C95.7168 54.1904 94.1689 54.6445 92.499 54.6445C90.3018 54.6445 88.5928 54.0244 87.3721 52.7842C86.1611 51.5439 85.5557 49.7764 85.5557 47.4814C85.5557 44.7568 86.2051 42.8916 87.5039 41.8857C89.3008 40.499 91.0049 39.8057 92.6162 39.8057C94.3643 39.8057 95.7168 40.3086 96.6738 41.3145C97.6504 42.3496 98.1387 43.8389 98.1387 45.7822ZM94.3154 45.4014C94.3154 42.7646 93.4951 41.4463 91.8545 41.4463C90.126 41.4463 89.2617 42.7549 89.2617 45.3721V45.6943C89.8281 45.7822 90.834 45.8262 92.2793 45.8262C93.0312 45.8262 93.7051 45.7822 94.3008 45.6943C94.3105 45.5576 94.3154 45.46 94.3154 45.4014ZM115.556 55.0107C115.556 57.1494 114.755 58.8535 113.153 60.123C111.562 61.3926 109.477 62.0273 106.898 62.0273C104.877 62.0273 103.275 61.6465 102.094 60.8848C100.922 60.1328 100.336 59.1172 100.336 57.8379C100.336 56.9785 100.526 56.3291 100.907 55.8896C100.946 55.8408 101.464 55.5186 102.46 54.9229C102.938 54.6396 103.29 54.4395 103.515 54.3223C102.167 54.0879 101.493 53.4385 101.493 52.374C101.493 51.8076 101.688 51.2314 102.079 50.6455C102.108 50.6064 102.372 50.4111 102.87 50.0596C103.104 49.8936 103.52 49.5957 104.115 49.166C102.006 48.4043 100.951 46.9932 100.951 44.9326C100.951 43.3408 101.547 42.0615 102.738 41.0947C103.93 40.1182 105.517 39.6299 107.499 39.6299C109.413 39.6299 110.912 40.0547 111.996 40.9043C112.611 40.9336 113.007 40.9434 113.183 40.9336C113.661 40.9141 114.384 40.8896 115.351 40.8604L115.526 41.0215L115.365 42.5303L115.204 42.6768H113.036C113.163 43.1455 113.227 43.624 113.227 44.1123C113.227 46.4365 112.099 48.0234 109.843 48.873C108.827 49.2539 107.826 49.4443 106.84 49.4443C106.508 49.4443 106.078 49.4199 105.551 49.3711C104.936 49.7031 104.628 50.1377 104.628 50.6748C104.628 51.1729 104.984 51.4561 105.697 51.5244C106.107 51.5635 106.791 51.583 107.748 51.583C108.051 51.583 108.578 51.5684 109.33 51.5391C110.082 51.5098 110.639 51.4951 111 51.4951C113.207 51.4951 114.579 51.9834 115.116 52.96C115.409 53.4873 115.556 54.1709 115.556 55.0107ZM109.535 44.7715C109.535 42.3105 108.71 41.0801 107.06 41.0801C105.438 41.0801 104.628 42.1445 104.628 44.2734C104.628 46.793 105.473 48.0527 107.162 48.0527C108.744 48.0527 109.535 46.959 109.535 44.7715ZM112.201 56.6807C112.201 55.6162 111.83 54.9473 111.088 54.6738C110.775 54.5566 110.15 54.4932 109.213 54.4834L106.43 54.4541C106.117 54.4541 105.688 54.4639 105.141 54.4834C103.803 55.3135 103.134 56.2656 103.134 57.3398C103.134 58.3262 103.529 59.0977 104.32 59.6543C105.111 60.2207 106.171 60.5039 107.499 60.5039C108.925 60.5039 110.062 60.1572 110.912 59.4639C111.771 58.7803 112.201 57.8525 112.201 56.6807ZM130.175 53.9121L130.014 54.0732C129.193 54.0244 128.251 54 127.187 54C126.356 54 125.561 54.0244 124.799 54.0732L124.667 53.9121L124.799 51.9492L121.957 54.1172C121.732 54.2832 121.41 54.3857 120.99 54.4248C120.824 54.4443 120.629 54.4541 120.404 54.4541C119.32 54.4541 118.485 54.127 117.899 53.4727C117.323 52.8184 117.035 51.915 117.035 50.7627C117.035 49.2393 117.519 48.1602 118.485 47.5254C119.53 46.832 121.635 46.207 124.799 45.6504C124.799 44.0977 124.389 43.0576 123.568 42.5303C123.07 42.208 122.475 42.0469 121.781 42.0469C121.02 42.0469 120.419 42.2031 119.979 42.5156L119.423 43.8779L119.232 43.9805L118.485 43.8047L118.383 43.5996L118.456 41.8711C120.067 40.6797 121.278 40.0059 122.089 39.8496C122.431 39.7812 122.875 39.7471 123.422 39.7471C125.346 39.7471 126.718 40.25 127.538 41.2559C128.134 41.9883 128.432 43.1113 128.432 44.625C128.432 44.9961 128.417 45.5918 128.388 46.4121C128.339 47.7793 128.314 48.6924 128.314 49.1514C128.314 50.626 128.339 51.5684 128.388 51.9785C128.437 52.3789 128.549 52.6328 128.725 52.7402C128.91 52.8477 129.345 52.9111 130.028 52.9307L130.175 53.0918V53.9121ZM124.799 50.499V46.8955C123.188 47.2471 122.099 47.6279 121.532 48.0381C120.976 48.4385 120.697 49.0537 120.697 49.8838C120.697 51.2119 121.278 51.876 122.44 51.876C123.427 51.876 124.213 51.417 124.799 50.499ZM143.476 52.1543L142.831 53.6045C141.503 54.2979 140.194 54.6445 138.905 54.6445C136.728 54.6445 135.062 54.0195 133.91 52.7695C132.758 51.5195 132.182 49.8057 132.182 47.6279C132.182 45.6162 132.626 44.0879 133.515 43.043C133.759 42.75 134.223 42.3643 134.906 41.8857C136.312 40.8896 137.25 40.2939 137.719 40.0986C138.197 39.9033 138.925 39.8057 139.901 39.8057C141.229 39.8057 142.328 40.0059 143.197 40.4062L143.344 40.6699C143.334 40.7969 143.266 41.251 143.139 42.0322L142.978 43.0283C142.948 43.1943 142.904 43.8486 142.846 44.9912L142.699 45.1377H141.82L141.674 44.9912C141.615 44.1221 141.547 43.5166 141.469 43.1748C141.039 42.4131 140.214 42.0322 138.993 42.0322C136.923 42.0322 135.888 43.375 135.888 46.0605C135.888 48.0137 136.303 49.5518 137.133 50.6748C137.982 51.8369 139.179 52.418 140.722 52.418C141.659 52.418 142.484 52.2178 143.197 51.8174L143.476 52.1543ZM160.556 41.2119L160.424 41.3438C159.779 41.3438 159.34 41.5293 159.105 41.9004C158.979 42.1152 158.632 42.833 158.065 44.0537C156.786 46.8369 155.727 49.2686 154.887 51.3486L152.528 57.1787C151.796 58.9854 151.01 60.2695 150.17 61.0312C149.379 61.7441 148.412 62.1006 147.27 62.1006C146.547 62.1006 145.849 61.9297 145.175 61.5879C145.341 60.8945 145.512 59.9229 145.688 58.6729L146.068 58.5996C146.576 59.3223 147.265 59.6836 148.134 59.6836C149.159 59.6836 150.102 58.6826 150.961 56.6807L151.562 55.2744L146.815 42.9404C146.542 42.2275 146.288 41.7881 146.054 41.6221C145.829 41.4463 145.38 41.3535 144.706 41.3438L144.56 41.1973V40.3184L144.721 40.1719C145.346 40.2012 146.542 40.2158 148.31 40.2158C149.95 40.2158 151.283 40.2012 152.309 40.1719L152.455 40.3184V41.1973L152.309 41.3438C151.195 41.3438 150.639 41.5439 150.639 41.9443C150.639 42.1201 150.688 42.335 150.785 42.5889C150.941 43.0381 151.181 43.707 151.503 44.5957L153.642 50.25L154.931 47.1592C156.19 44.1416 156.82 42.3789 156.82 41.8711C156.82 41.5195 156.254 41.3438 155.121 41.3438L154.975 41.1973V40.3184L155.136 40.1719C155.702 40.2012 156.659 40.2158 158.007 40.2158C158.769 40.2158 159.564 40.2012 160.395 40.1719L160.556 40.3184V41.2119Z" fill="#FFF8E7"/>
<path fill-rule="evenodd" clip-rule="evenodd" d="M23.1069 0.349115C22.884 0.547426 22.6117 0.937348 22.5019 1.21561C22.3134 1.6929 22.2926 1.70845 22.1353 1.49039C22.0435 1.36329 21.9685 1.19287 21.9685 1.11184C21.9685 1.0307 21.8309 0.798637 21.6627 0.596137C20.7996 -0.443295 18.8976 0.858119 18.8976 2.48818C18.8976 3.00041 18.9506 3.16138 19.1946 3.39057C19.4863 3.66452 19.9566 3.81831 20.5024 3.81831C20.7726 3.81831 20.7787 3.84321 20.783 4.98521C20.7855 5.62706 20.8101 6.25981 20.8375 6.39146C20.865 6.52311 20.899 6.81932 20.9132 7.04971C20.9306 7.32976 20.9674 7.2108 21.0246 6.69066C21.2735 4.4245 21.3768 3.938 21.6083 3.938C21.6731 3.938 21.8088 4.0998 21.9097 4.29752C22.0794 4.62999 22.0759 4.69067 21.8639 5.10537C21.7377 5.35191 21.5457 5.93631 21.4371 6.40415L21.2396 7.25448L21.6657 8.11164C22.0505 8.88586 22.3486 10.0417 22.1634 10.0417C22.123 10.0417 21.9247 9.70998 21.7227 9.30438C21.2869 8.42963 20.3367 7.37069 19.8071 7.16963C19.5992 7.09076 18.7584 6.70945 17.9385 6.32252C16.5965 5.68893 15.1762 5.16401 14.2494 4.95912C13.9978 4.90346 13.9265 4.8295 13.9682 4.66769C13.999 4.54837 13.9787 4.36825 13.9231 4.2676C13.857 4.14792 13.8824 4.0335 13.9965 3.93764C14.1384 3.81831 14.3409 3.87241 15.0754 4.22583C15.5726 4.46519 15.9977 4.64244 16.02 4.61982C16.0423 4.5972 15.6632 4.36717 15.1774 4.10878C14.6916 3.85027 14.3109 3.58494 14.3315 3.51911C14.4686 3.08 15.5348 3.65375 17.0079 4.95947C17.8995 5.74973 19.3838 6.83632 19.4627 6.75649C19.4924 6.72633 19.277 6.32181 18.9839 5.85768C18.6908 5.39344 18.2738 4.48889 18.057 3.84752C17.7214 2.85392 17.5752 2.59146 17.0687 2.07408C16.1277 1.1128 14.9026 0.816829 13.8562 1.29819C12.9665 1.70762 12.4219 2.97241 12.5785 4.26592C12.6878 5.16772 12.6037 5.32714 11.8941 5.56267C11.2726 5.769 9.8615 6.44831 9.3528 6.78605C9.13252 6.9323 9.1102 6.98927 9.24343 7.06479C9.5785 7.25484 10.5415 7.41138 12.0353 7.51874C13.6737 7.6365 13.8909 7.70508 14.5276 8.306C14.7549 8.52059 15.441 9.07747 16.0524 9.54338L17.1638 10.3907L17.6469 9.89908C18.167 9.36973 19.3676 8.72548 19.8343 8.72536C20.3369 8.72512 21.0855 9.69933 21.8851 11.3939C22.532 12.7648 22.624 12.9033 22.7235 12.6547C23.2522 11.3332 23.6952 10.8332 25.3493 9.69047C28.1594 7.74924 28.9167 6.90429 29.7125 4.82328C29.949 4.20476 30.1812 3.69863 30.2283 3.69863C30.2756 3.69863 30.4048 4.12601 30.5156 4.64842C30.9987 6.92715 32.0766 8.25789 34.5423 9.6201C36.1615 10.5147 36.6107 10.9452 37.0469 12.0197C37.2776 12.5881 37.3458 12.6431 37.5247 12.4054C37.6359 12.2576 38.2935 10.5859 38.4397 10.0791C38.4813 9.93498 38.6965 9.65588 38.918 9.45877C39.8616 8.61921 42.0012 8.92009 42.693 9.98956L42.9281 10.3533L44.0526 9.43567C45.9676 7.87323 46.5886 7.61676 48.4252 7.62932C49.6604 7.6377 50.3734 7.49935 50.4749 7.23174C50.5165 7.12199 50.3565 6.90788 50.0441 6.65488C49.1845 5.95881 48.808 5.73022 48.1323 5.49469C47.7712 5.36878 47.4306 5.23749 47.3752 5.20279C47.3199 5.16808 47.3525 4.80209 47.4478 4.38931C47.977 2.09778 46.6922 0.520857 44.743 1.06948C44.078 1.25666 42.9712 2.07061 42.6007 2.64484C42.2479 3.19178 40.9652 5.97258 41.0657 5.97258C41.0985 5.97258 41.4788 5.64333 41.9111 5.24085C42.9183 4.3029 44.13 3.42373 44.3204 3.49254C44.4019 3.52198 44.6033 3.47722 44.7681 3.39309C45.0265 3.2612 45.1077 3.27137 45.3587 3.46669L45.6496 3.69337L45.3852 3.696C44.874 3.70115 43.9419 4.15605 42.823 4.94655C42.2014 5.38566 41.6929 5.77235 41.6929 5.80598C41.6929 5.88413 41.9297 5.74769 42.1956 5.51623C42.3097 5.41702 42.4306 5.36376 42.4644 5.39799C42.4982 5.43222 42.1215 5.76852 41.6272 6.1454C41.1331 6.52239 40.7561 6.85834 40.7894 6.89221C40.8227 6.92596 41.7072 6.48218 42.7547 5.90603C43.9221 5.26394 44.6043 4.82388 44.5169 4.76906C44.4385 4.71999 44.1298 4.78199 43.8308 4.90693L43.2874 5.13397L43.7598 4.70443C44.0197 4.46818 44.4295 4.17221 44.6705 4.04667C45.1094 3.81796 45.8955 3.72843 45.7785 3.9204C45.7442 3.97653 45.7925 4.12458 45.8858 4.24953C46.1727 4.63346 46.1075 5.00076 45.7382 5.08179C44.6653 5.31708 43.7256 5.69252 42.5787 6.34419C41.4233 7.00064 40.1314 7.64811 39.9769 7.64811C39.9463 7.64811 39.9213 7.56733 39.9213 7.46859C39.9213 7.36985 39.8906 7.28907 39.853 7.28907C39.8154 7.28907 39.3162 7.73033 38.7436 8.26962C37.7233 9.23066 37.701 9.26357 37.6276 9.91523C37.5111 10.9471 37.3806 10.9925 37.2158 10.0583C36.9204 8.3832 36.2152 7.3902 34.4882 6.21756C33.1733 5.32474 32.5114 4.68038 31.8018 3.60253C31.425 3.03009 30.9376 2.09048 30.7186 1.51445C30.3796 0.622706 30.2806 0.46724 30.0516 0.46724C29.8318 0.46724 29.7457 0.581775 29.5798 1.09557C28.927 3.11626 27.8891 4.47764 26.044 5.73393C23.8665 7.21642 23.1637 8.27835 22.7574 10.7L22.5967 11.6574L22.4673 11.0589C22.3256 10.4033 22.3838 8.53316 22.5754 7.58827C22.6421 7.25915 22.9676 6.4276 23.2988 5.74039C24.0666 4.14684 25.0833 3.03572 26.1364 2.63945C26.5123 2.49787 26.9477 2.38214 27.1037 2.38214C27.2598 2.38214 27.4135 2.33965 27.4452 2.28783C27.5422 2.12853 25.7315 0.689368 24.9803 0.328888C24.055 -0.115249 23.6236 -0.110581 23.1069 0.349115ZM38.7992 0.246189C38.4718 0.445578 38.297 0.679674 38.0087 1.30501L37.7604 1.84357L37.588 1.24517C37.3309 0.352705 37.1459 0.19329 36.4372 0.252891C36.1123 0.280178 35.5541 0.439953 35.1969 0.607985C34.4313 0.968106 33.3115 1.78385 33.3089 1.98336C33.3079 2.06032 33.4798 2.23194 33.6909 2.36479C34.2227 2.69953 34.7709 3.30823 35.8741 4.78881C36.8293 6.07083 37.0951 6.65201 37.4439 8.22055C37.62 9.01236 37.7472 8.93373 38.3491 7.66128C38.7654 6.78114 38.7793 6.70945 38.7572 5.53263C38.7341 4.29512 38.8685 3.87456 39.0947 4.47716C39.1596 4.64998 39.2134 5.01668 39.2144 5.29219C39.2158 5.65961 39.2467 5.7453 39.3307 5.61353C39.3937 5.5148 39.4482 5.11087 39.4519 4.71592L39.4585 3.99784L40.0545 3.71443C40.749 3.38411 41.1013 2.88396 41.1019 2.22775C41.1032 0.949675 39.6697 -0.283879 38.7992 0.246189ZM56.1024 2.73221C53.4578 3.68379 53.1219 3.99688 52.3122 6.26388C51.8632 7.52149 51.3357 8.15257 50.2115 8.77695C49.3356 9.26345 49.191 9.41616 49.815 9.19571C50.0159 9.12486 50.3301 9.08417 50.5133 9.10547L50.8465 9.14413V10.364C50.8465 12.0925 51.0189 12.1777 51.4792 10.6766C51.8652 9.41748 52.5504 8.19721 53.0623 7.85744C53.2309 7.74553 53.7843 7.54112 54.2923 7.40313C55.6962 7.02194 56.2454 6.60665 56.6887 5.59139C56.9452 5.00364 57.445 2.73544 57.3804 2.45215C57.351 2.32314 57.0658 2.38561 56.1024 2.73221ZM2.59996 2.65142C2.60327 3.22481 3.06579 5.16197 3.34913 5.7891C3.51283 6.1515 3.90921 6.71376 4.22988 7.0387C4.82705 7.6438 5.20594 7.81196 6.28075 7.94887C7.41508 8.09333 8.12268 8.99943 8.23795 10.4551C8.27209 10.886 8.33764 11.2385 8.3837 11.2385C8.67142 11.2385 9.33071 9.87682 9.33071 9.28248C9.33071 9.12965 9.35634 8.97861 9.38764 8.94689C9.41894 8.91518 9.83067 8.95563 10.3026 9.03689C10.7747 9.11816 11.1782 9.16699 11.1994 9.14556C11.2206 9.12402 10.955 9.02289 10.6091 8.92068C9.79571 8.68048 8.66232 7.99698 8.19378 7.46404C7.99075 7.23306 7.65626 6.59229 7.45063 6.04008C7.24488 5.48787 6.93272 4.82017 6.75685 4.55615C6.14492 3.63807 5.05406 2.95828 3.56528 2.56741C2.65028 2.32721 2.59819 2.33175 2.59996 2.65142ZM15.0626 3.09436C15.0244 3.15696 15.2968 3.40494 15.6678 3.64537C16.4787 4.17101 17.9528 5.36388 17.9528 5.49457C17.9528 5.54591 18.0337 5.6194 18.1326 5.65793C18.2841 5.71682 18.2908 5.6857 18.1746 5.46118C17.754 4.6483 16.5053 3.53371 15.5555 3.12333C15.1574 2.95134 15.1501 2.95086 15.0626 3.09436ZM54.2126 6.34227C53.9582 6.55315 53.9532 6.56931 54.1765 6.45872C54.319 6.38811 54.4683 6.27681 54.5082 6.21134C54.6149 6.03649 54.5433 6.0682 54.2126 6.34227ZM29.3688 8.23467C29.2675 8.49151 29.1483 8.97741 29.1043 9.31455C29.0095 10.0379 28.9042 10.1427 28.642 9.77449C28.4562 9.51346 28.452 9.52603 28.5326 10.1016C28.5787 10.4307 28.6884 10.9087 28.7766 11.1639C28.8648 11.4189 28.9357 11.769 28.9339 11.9418C28.9316 12.1906 28.8592 12.1059 28.5855 11.5342C28.3955 11.1373 28.0959 10.6795 27.92 10.5169C27.582 10.2047 27.5835 10.2174 27.9986 11.2115C28.1435 11.5586 28.2352 11.87 28.2021 11.9034C28.1692 11.9368 27.8559 11.7723 27.5061 11.5378C26.2899 10.7224 25.8692 10.8183 26.8991 11.6762C27.8811 12.4941 28.48 13.3305 29.0493 14.6785C29.3206 15.3208 29.5935 15.954 29.6558 16.0856C29.8291 16.4517 29.6815 15.0825 29.4868 14.5179C29.3982 14.2612 29.2903 13.8356 29.2468 13.5723C29.1751 13.1372 29.1836 13.1138 29.3407 13.3162C29.4358 13.4386 29.5665 13.7887 29.6313 14.0941C29.6961 14.3996 29.7992 14.7841 29.8605 14.9487C30.0638 15.4942 30.159 13.9757 30.0552 11.8421C30.0022 10.7531 29.9549 9.39091 29.9499 8.815C29.9424 7.92745 29.9114 7.76767 29.7471 7.76779C29.632 7.76779 29.4783 7.95749 29.3688 8.23467ZM30.8849 9.60658C30.7638 9.90015 30.6357 10.8744 30.5287 12.3136C30.4367 13.5503 30.3048 14.8177 30.2357 15.1303C30.1667 15.4428 30.132 15.7207 30.1589 15.7479C30.1857 15.7751 30.3797 15.4852 30.5902 15.1038C30.8007 14.7222 31.2335 14.0331 31.5523 13.5723C31.871 13.1116 32.3409 12.4114 32.5967 12.0165C32.8522 11.6215 33.2033 11.1233 33.3765 10.9094C33.6202 10.6087 33.6491 10.5205 33.5043 10.5205C33.2982 10.5205 32.6191 11.1538 32.0315 11.8942C31.6993 12.3126 31.6535 12.3375 31.6535 12.1001C31.6535 11.9516 31.813 11.5101 32.0079 11.1189C32.3934 10.3451 32.4126 10.2811 32.2602 10.2811C32.2041 10.2811 32.0093 10.4988 31.8273 10.7649C31.4226 11.3566 31.3043 11.2348 31.2992 10.2213C31.2943 9.24071 31.1339 9.00278 30.8849 9.60658ZM6.22453 10.135C5.92665 10.5774 5.57032 11.2986 5.43272 11.7377L5.18244 12.536L4.57996 12.1566C3.48142 11.4646 2.0915 11.7113 1.43634 12.7146C1.15736 13.1417 1.12205 13.3112 1.12205 14.2218C1.12205 15.0694 1.17248 15.352 1.41224 15.8463C1.81098 16.6685 2.61366 17.4397 3.63142 17.9788C4.31846 18.3426 5.66811 18.8981 5.865 18.8981C6.02421 18.8981 5.82945 18.6088 5.40862 18.22C3.72839 16.6684 3.19004 16.0914 3.2485 15.9048C3.28323 15.7937 3.20598 15.6111 3.07252 15.4888C2.79343 15.2328 2.7665 15.0683 3.00354 15.0683C3.13677 15.0683 3.15 14.9889 3.06602 14.6923C2.93492 14.2288 3.01606 14.0727 3.30638 14.2302C3.48319 14.3261 3.54248 14.3021 3.60236 14.1108C3.64358 13.9792 3.71362 13.8646 3.75791 13.8561C4.11874 13.787 4.57205 13.8088 4.69004 13.901C4.76858 13.9623 5.02264 14.6082 5.25461 15.3363C5.68831 16.6976 6.14752 17.8429 6.74291 19.0477C7.13539 19.842 7.02827 19.9282 6.25984 19.4367C6.0026 19.2722 5.75752 19.1375 5.71512 19.1375C5.49957 19.1375 7.35791 20.8268 7.86083 21.0881C8.25366 21.2921 8.38689 21.4136 8.26772 21.4592C8.17028 21.4965 7.37811 21.5758 6.5074 21.6353C5.19059 21.7253 4.83472 21.7125 4.39228 21.5597C3.89445 21.3879 3.87472 21.3653 4.08567 21.2067C4.23543 21.0941 4.53874 21.0499 4.99039 21.0748C5.75421 21.1169 5.90268 21.0013 5.22638 20.8911C4.61622 20.7916 4.33524 20.5623 3.92339 19.8277C3.39709 18.8891 3.03756 18.5967 2.4261 18.6101C1.43114 18.6319 0.708661 19.3988 0.708661 20.4329C0.708661 20.8109 0.786732 20.9934 1.07209 21.2826C1.27193 21.4851 1.5163 21.6508 1.61504 21.6508C1.71602 21.6508 1.54406 21.8808 1.22209 22.1766C0.654095 22.6983 0.649724 22.7078 0.670394 23.4033C0.690827 24.0892 1.19327 25.7626 1.65201 26.6718L1.86047 27.0851L2.27787 26.1695C3.05374 24.468 4.10693 23.6556 6.68622 22.7692C8.1 22.2835 8.86335 22.2258 11.25 22.425C12.2517 22.5087 12.4016 22.4971 12.4016 22.3359C12.4016 22.211 12.2376 22.1226 11.8996 22.065C10.8366 21.8838 9.47563 21.0851 9.15307 20.4532C9.01358 20.1797 9.01358 20.0151 9.15331 19.3386C9.24343 18.9019 9.4265 18.2942 9.5602 17.9881C9.99614 16.9894 9.99437 16.9854 8.41217 15.518C7.30051 14.4869 6.97098 13.4225 6.96945 10.8566C6.96886 10.0871 6.92291 9.42897 6.86728 9.39402C6.81165 9.3592 6.5224 9.69263 6.22453 10.135ZM49.9889 9.79735C48.9391 10.4969 45.6482 11.0169 43.8631 10.7653C40.9239 10.3511 38.9757 11.1506 38.0433 13.1534C37.7525 13.7782 37.7396 13.8879 37.7908 15.3077C37.8967 18.2456 37.8407 20.5963 37.6441 21.4713C37.5405 21.9321 37.4923 22.3447 37.537 22.3884C37.5816 22.432 38.2028 22.2781 38.9173 22.0461C40.0202 21.6883 40.4308 21.6161 41.6339 21.5687C42.982 21.5157 43.1027 21.5309 44.1069 21.8811C45.3328 22.3086 45.7878 22.3364 46.3925 22.02C47.2956 21.5475 47.831 20.784 48.4782 19.0451C48.7093 18.4243 48.9132 18.0889 49.1893 17.8756L49.5763 17.5765L49.6411 15.2153C49.7061 12.8515 49.7146 12.7913 50.3545 10.1315C50.4457 9.75307 50.5139 9.44752 50.5062 9.45267C50.4984 9.45781 50.2657 9.61292 49.9889 9.79735ZM10.0594 10.7897C10.5385 12.5157 10.6906 14.0963 10.5227 15.6013C10.4489 16.2626 10.3569 16.9248 10.3182 17.073C10.2687 17.2632 10.2994 17.3423 10.4231 17.3423C10.8378 17.3423 11.1996 17.8298 11.5102 18.8074C12.2073 21.0014 13.0452 22.2492 13.8213 22.2492C14.0128 22.2492 14.6355 22.1113 15.2049 21.9427C16.7135 21.4962 18.5965 21.5004 20.3161 21.9541C20.9975 22.134 21.7094 22.3081 21.898 22.3413C22.2382 22.401 22.2402 22.3977 22.1593 21.9364C21.9263 20.6078 21.947 19.7633 22.264 17.6415C22.7482 14.4021 22.5698 13.3142 21.3549 12.0952C20.6151 11.353 19.8037 11.0697 18.3661 11.0517C17.7165 11.0436 17.0901 10.995 16.974 10.9437C16.8524 10.89 16.4733 10.9328 16.0804 11.0445C15.2113 11.2916 13.6931 11.2935 12.866 11.0486C12.5131 10.9441 11.685 10.5671 11.0257 10.2108C10.3665 9.85456 9.8028 9.56301 9.77303 9.56301C9.74339 9.56301 9.87224 10.115 10.0594 10.7897ZM53.1143 11.2735C53.0362 12.5128 52.6852 13.9865 52.271 14.814C52.1185 15.1185 51.6109 15.7984 51.1429 16.325C49.9782 17.6355 49.972 17.6538 50.3786 18.5659C50.8446 19.6106 50.8978 20.5 50.5276 21.0524C50.1497 21.616 49.415 22.0045 48.4704 22.1401C47.5946 22.2657 47.4803 22.3128 47.4803 22.5469C47.4803 22.6476 47.7274 22.7668 48.1215 22.8562C48.6552 22.9772 48.9586 22.9686 49.9279 22.8049C52.0651 22.4442 52.7784 22.598 54.2839 23.7442C54.7454 24.0954 55.5064 24.5785 55.9748 24.8176C56.4867 25.0787 57.052 25.4916 57.3912 25.852L57.9557 26.4518L58.3093 26.0438C58.796 25.4822 59.1585 24.6817 59.3167 23.8196C59.4796 22.9318 59.3735 22.6371 58.7177 22.1557L58.2536 21.815L58.5944 21.5833C58.7818 21.4559 59.0519 21.1285 59.1948 20.8559C59.4324 20.4025 59.4415 20.3159 59.3008 19.8403C59.2157 19.5527 58.9722 19.1532 58.7559 18.9465C57.7928 18.026 56.6554 18.4917 56.2041 19.9914C56.0888 20.3744 56.0189 20.4338 55.6192 20.4881C55.1924 20.5462 54.4122 20.9623 53.8234 21.4459C53.6101 21.6211 53.6483 21.6157 54.0337 21.416C54.6963 21.0726 55.1998 21.0965 55.5017 21.4854C55.6354 21.6576 55.7156 21.8465 55.6799 21.9051C55.6442 21.9637 55.6981 22.0438 55.7996 22.0833C56.0894 22.196 56.0177 22.3663 55.6065 22.5414C55.1948 22.7168 54.9213 22.6712 54.9213 22.4272C54.9213 22.3378 54.833 22.2949 54.7141 22.3265C54.4967 22.3841 53.3867 21.9401 53.3848 21.7948C53.3842 21.7485 53.0567 21.6992 52.6569 21.6852C52.2572 21.6712 51.8812 21.6102 51.8217 21.5499C51.7559 21.4833 51.9607 21.294 52.3428 21.0686C52.6891 20.8642 53.3361 20.3274 53.7804 19.8757C54.2852 19.3626 55.0502 18.7726 55.8187 18.3039C57.7892 17.102 58.6259 15.9509 58.7862 14.2214C58.8657 13.3629 58.5378 12.55 57.9706 12.1996C57.1605 11.6992 55.8748 11.9906 55.2289 12.821L54.9239 13.2133L54.92 12.8542C54.9124 12.162 53.9901 10.6088 53.3949 10.286C53.2012 10.1809 53.178 10.2628 53.1143 11.2735ZM34.2014 11.1488C34.1107 11.3627 33.9488 11.7906 33.8417 12.0998C33.6844 12.5531 33.3932 12.9004 32.336 13.895C31.5265 14.6566 30.8295 15.4371 30.5134 15.936C30.2318 16.3804 29.9565 16.7439 29.9014 16.7439C29.8463 16.7439 29.4665 16.1649 29.0572 15.4573C28.4392 14.3886 28.0507 13.9022 26.7633 12.585C25.9109 11.7128 25.1554 10.9992 25.0845 10.9992C24.9232 10.9992 24.028 12.2809 23.7954 12.845C23.7001 13.0763 23.622 13.4734 23.622 13.7274V14.1894L24.6555 14.5851C27.1897 15.5551 28.3224 16.4388 29.4034 18.2894C29.7528 18.8875 30.0698 19.3768 30.108 19.3766C30.146 19.3764 30.3321 19.0756 30.5217 18.7083C31.1194 17.549 32.2337 16.4833 34.3116 15.0834C35.3861 14.3597 36.2732 13.6757 36.3705 13.4961C36.7167 12.8568 36.1367 11.7729 35.0875 11.0988C34.7974 10.9123 34.5164 10.7598 34.4631 10.7598C34.4099 10.7598 34.292 10.9349 34.2014 11.1488ZM47.2441 12.3329C45.6557 13.0747 45.1954 13.1769 42.9648 13.2839C39.8465 13.4335 39.7566 13.5107 39.8739 15.9364C39.933 17.1603 39.9067 17.7559 39.7587 18.5484C39.5389 19.7248 39.5122 20.454 39.6889 20.454C39.7561 20.454 40.0617 20.3257 40.3681 20.1689C41.7787 19.447 43.0665 19.2925 44.5114 19.6718C44.8982 19.7734 45.3125 19.8245 45.4322 19.7853C46.3104 19.4981 46.5925 18.9727 46.7758 17.2825C47.0017 15.1989 47.6484 12.652 48.0876 12.1157C48.2757 11.8861 48.1088 11.9291 47.2441 12.3329ZM12.7675 13.3899C13.0175 14.1778 13.1942 15.1743 13.4075 17.0007C13.6894 19.4133 13.8891 20.2441 14.2174 20.3718C14.2967 20.4027 14.6779 20.2856 15.0646 20.1118C15.7178 19.8183 15.8816 19.7966 17.3701 19.8069C18.8412 19.8171 19.0287 19.8441 19.658 20.136C20.035 20.3109 20.363 20.454 20.3868 20.454C20.4106 20.454 20.3963 20.0496 20.3551 19.5553C20.3085 18.9971 20.3629 17.7944 20.4986 16.3814L20.7171 14.1062L20.4537 13.8392C20.1673 13.5491 20.286 13.5555 16.8307 13.6433C15.0022 13.6899 14.2033 13.4638 12.6776 12.4685C12.4294 12.3066 12.4319 12.3327 12.7675 13.3899ZM55.8457 14.1741C55.1024 14.6669 54.3645 15.857 53.7477 17.5577C53.5495 18.1041 53.2293 18.8553 53.0361 19.2272C52.8429 19.5989 52.7108 19.9296 52.7427 19.9619C52.7746 19.9942 53.0519 19.7743 53.359 19.4731C53.6661 19.172 54.4864 18.5135 55.1819 18.01C56.2808 17.2145 56.9291 16.5919 56.9291 16.3322C56.9291 16.1844 56.4392 16.5269 55.4151 17.3905C54.8438 17.8724 54.258 18.3309 54.113 18.4094L53.8498 18.5521L54.0373 18.0969C54.4273 17.1506 54.7939 16.6747 55.5301 16.1592L56.2795 15.6346L55.6183 16.3388C54.536 17.4918 53.9793 18.455 54.9508 17.4939C55.2268 17.2208 55.7982 16.7374 56.2205 16.4198C57.033 15.8083 57.2092 15.4547 56.8715 15.1125C56.7598 14.9993 56.7125 14.8366 56.7586 14.7238C56.9452 14.2668 56.9401 14.1411 56.732 14.0675C56.6131 14.0254 56.4626 13.9675 56.3976 13.9388C56.3327 13.9101 56.0843 14.0159 55.8457 14.1741ZM45.1604 14.3329C44.5393 14.7889 42.245 16.1463 42.1898 16.0904C42.1658 16.0661 42.2036 15.9375 42.2739 15.8045C42.3442 15.6715 42.4016 15.4421 42.4016 15.2945C42.4016 15.0777 42.3223 15.1392 41.9882 15.6154L41.5748 16.2046V15.457C41.5748 14.713 41.422 14.465 41.28 14.9786C41.2391 15.1268 40.8808 16.2842 40.4837 17.5508C40.0866 18.8172 39.7931 19.8853 39.8314 19.9242C39.952 20.0462 40.3476 19.7645 41.5292 18.7158C42.6506 17.7204 42.9178 17.5311 44.336 16.7282C44.7178 16.5121 44.9686 16.3144 44.8932 16.289C44.8179 16.2635 44.625 16.3298 44.4647 16.4362C44.3044 16.5426 44.1732 16.5985 44.1732 16.5603C44.1732 16.522 44.5178 16.0765 44.9389 15.5702C46.0975 14.1771 46.2071 13.5647 45.1604 14.3329ZM14.2913 14.4022C14.2913 14.7088 15.0249 15.6583 16.0199 16.6394C16.9828 17.5888 19.1946 19.3845 19.8168 19.7219C20.1548 19.9053 20.1581 19.7675 19.8384 18.8272C19.5346 17.9334 19.2553 15.9029 19.3337 15.1581C19.3667 14.8454 19.3636 14.5896 19.327 14.5896C19.2043 14.5896 18.9795 15.1178 18.8441 15.7243L18.71 16.325L18.2556 15.6368C17.6692 14.7487 17.478 14.7042 17.7058 15.5089C17.7647 15.7175 17.7847 15.9168 17.7501 15.9518C17.7155 15.987 16.9231 15.621 15.9893 15.1387C15.0554 14.6563 14.2913 14.3249 14.2913 14.4022ZM35.1219 16.2951C34.084 17.7299 33.7364 18.2719 33.333 19.0838C32.9062 19.9425 32.1107 21.9147 32.1678 21.9725C32.1899 21.9948 32.4108 21.9272 32.6587 21.8221C32.9425 21.7019 33.349 21.6459 33.756 21.6709L34.4024 21.7107L34.8615 20.095C35.3688 18.3096 36.0236 15.6982 36.0236 15.4603C36.0236 15.1437 35.8148 15.3369 35.1219 16.2951ZM3.92055 15.8939C4.20071 16.4352 5.61402 18.0604 5.80476 18.0604C5.93693 18.0604 5.68287 17.5453 4.99311 16.4148C4.4198 15.475 4.27394 15.3246 4.52929 15.936C4.67244 16.2788 4.82091 16.55 5.31543 17.3722C5.6015 17.8478 5.30055 17.5242 4.65012 16.6569C3.69035 15.3769 3.60921 15.292 3.92055 15.8939ZM44.7638 17.0926C44.1467 17.3377 43.4317 17.6401 43.1751 17.7645C42.698 17.9959 41.6066 18.9702 41.7087 19.0737C41.7398 19.1052 41.9483 19.0831 42.172 19.0243C42.3957 18.9656 43.16 18.8804 43.8704 18.835C44.9731 18.7645 45.228 18.7082 45.6125 18.4503C45.8603 18.2842 46.063 18.1264 46.063 18.0998C46.063 18.0449 45.3689 18.1261 44.7933 18.2482C44.184 18.3775 44.3269 18.1169 45.1747 17.5525C45.6279 17.2509 45.941 16.9576 45.9424 16.8336C45.9438 16.7184 45.9315 16.6294 45.9154 16.6356C45.8992 16.6418 45.3809 16.8474 44.7638 17.0926ZM24.8539 18.0903C24.9497 19.5381 25.247 22.2601 25.317 22.3311C25.344 22.3584 25.5686 22.2414 25.8162 22.0713C26.3028 21.7366 26.6184 21.7439 27.37 22.1072C27.5806 22.2089 27.7833 22.2614 27.8203 22.2238C27.8574 22.1863 27.7292 21.8939 27.5356 21.5741C27.342 21.2543 27.0483 20.6268 26.8827 20.1799C26.2716 18.5295 25.2762 16.8636 24.9013 16.8636C24.8117 16.8636 24.7974 17.2355 24.8539 18.0903ZM15.0141 17.69C14.8984 17.7643 14.9843 17.818 15.3093 17.875C15.5615 17.9193 15.8966 18.0263 16.054 18.113C16.3329 18.2665 16.3233 18.2757 15.6888 18.4626C15.0587 18.6481 14.4094 19.05 14.4094 19.2544C14.4094 19.3091 14.6884 19.2456 15.0295 19.1132C15.6925 18.856 16.6821 18.871 17.796 19.1552C18.0821 19.2282 18.3443 19.2593 18.3788 19.2244C18.4131 19.1896 18.1853 18.9658 17.8723 18.7272C17.5592 18.4887 17.157 18.1737 16.9785 18.0273C16.5026 17.6373 15.393 17.4468 15.0141 17.69ZM29.7478 20.5714C29.3352 20.9897 29.316 21.4004 29.6927 21.7591L29.976 22.0288L29.415 22.6476C29.1064 22.988 28.6863 23.455 28.4813 23.6854C28.1237 24.0875 28.1033 24.0947 27.9709 23.8649C27.5479 23.1309 26.7254 22.6236 26.5157 22.9673C26.4756 23.0331 26.2967 23.087 26.118 23.087C25.5229 23.087 25.3962 23.2968 25.2497 24.5247C25.1752 25.1492 25.1055 25.6743 25.095 25.6916C25.0844 25.709 24.8704 25.6362 24.6194 25.5299C23.9366 25.2409 22.8789 25.2472 22.557 25.5423C22.1896 25.8793 21.9685 26.3621 21.9685 26.8275C21.9685 27.3853 22.4994 28.4084 23.0178 28.8494L23.4516 29.2185L22.7607 29.9452C21.8551 30.8977 21.6865 31.2405 21.6793 32.1447C21.6739 32.8033 21.7111 32.9247 22.0181 33.2496C22.5887 33.8536 23.2076 34.0227 24.5695 33.9467C25.4198 33.8992 25.748 33.9195 25.7479 34.0191C25.7478 34.0953 25.6681 34.6153 25.5709 35.1748C25.3178 36.6306 25.3352 36.9257 25.6885 37.1602C26.2191 37.5125 27.4645 37.0857 28.0254 36.3596L28.317 35.9819L28.7898 36.6854C29.6176 37.917 29.5708 37.9082 30.5662 37.0203C31.0401 36.5977 31.4751 36.2519 31.5327 36.2519C31.5905 36.2519 31.6708 36.3577 31.7113 36.487C31.7958 36.7569 32.7778 37.6704 33.1299 37.8067C33.5008 37.9504 34.2386 37.5105 34.4381 37.0266C34.6278 36.5664 34.6625 34.7865 34.4959 34.059C34.4042 33.6589 34.4156 33.611 34.5859 33.6772C34.9426 33.8159 36.2225 33.8912 36.7813 33.8062C37.1506 33.7501 37.4719 33.5987 37.7539 33.3477C38.1463 32.9986 38.1715 32.9345 38.1219 32.4112C38.0301 31.4431 37.265 30.2592 36.4524 29.8283L36.1134 29.6484L36.4524 29.4266C36.6387 29.3047 36.9599 29.0536 37.166 28.8687C37.5882 28.4898 38.5039 27.1922 38.5039 26.9729C38.5039 26.7103 38.0153 26.1952 37.5268 25.9427C37.1119 25.7282 36.8945 25.7011 35.973 25.7492C35.3837 25.7799 34.811 25.8446 34.7002 25.8929C34.5145 25.9739 34.5044 25.8679 34.5703 24.5403C34.6505 22.9228 34.5444 22.5745 33.9344 22.4534C33.4187 22.3511 32.5404 22.5901 32.0148 22.9759C31.7523 23.1686 31.4954 23.3264 31.4438 23.3264C31.3923 23.3264 31.0739 23.0428 30.7362 22.6963L30.1222 22.0663L30.5335 21.7339C30.9811 21.372 31.0548 21.0254 30.7714 20.6152C30.4837 20.199 30.1303 20.1839 29.7478 20.5714ZM53.3268 21.0597C52.872 21.3169 52.5325 21.5283 52.5723 21.5292C52.765 21.5342 54.2126 20.7956 54.2126 20.6922C54.2126 20.5452 54.3013 20.5085 53.3268 21.0597ZM6.25512 21.2347C6.54484 21.3262 6.80008 21.3827 6.82217 21.3602C6.88264 21.2991 6.13488 21.0512 5.91744 21.0604C5.81339 21.0649 5.96539 21.1432 6.25512 21.2347ZM35.5081 22.8564C34.8352 23.3925 35.2787 24.6428 36.1417 24.6428C36.5689 24.6428 37.0866 24.1836 37.0866 23.8046C37.0866 23.4538 36.7734 22.8784 36.5026 22.7315C36.1572 22.5442 35.8514 22.5825 35.5081 22.8564ZM22.8458 22.9769C22.5416 23.3175 22.5441 24.1286 22.8501 24.3553C23.1892 24.6066 23.5617 24.5592 23.9673 24.2133C24.4108 23.8352 24.424 23.5768 24.0249 23.0962C23.6602 22.657 23.1754 22.6079 22.8458 22.9769ZM10.4528 23.2873C9.50516 23.4071 8.26181 23.7469 7.67539 24.0461C7.21772 24.2796 6.51496 24.8921 5.31319 26.1046C3.42272 28.012 2.28756 28.8483 0.885945 29.3663C0.398622 29.5464 0 29.7569 0 29.8341C0 29.9113 0.518268 30.2347 1.15157 30.5527C2.7411 31.3507 3.58087 32.0158 5.44358 33.9516C7.46433 36.0517 8.05311 36.3952 9.76158 36.4709L10.8661 36.5199L10.8644 35.8174L10.8626 35.115L9.00354 33.5853C6.91181 31.8643 5.85248 31.0928 4.54146 30.3356L3.6411 29.8157L4.58421 29.4974C6.33685 28.906 8.0035 27.6417 9.77528 25.5597C10.8641 24.2803 11.7084 23.6854 12.4354 23.6854C12.7022 23.6854 12.7648 23.6422 12.7095 23.4961C12.67 23.3919 12.6378 23.2842 12.6378 23.2567C12.6378 23.1983 10.9721 23.2216 10.4528 23.2873ZM26.4567 23.3778C26.4567 23.5 26.5633 23.5657 26.7618 23.5657C27.1318 23.5657 27.0913 23.2847 26.7132 23.2282C26.5428 23.2028 26.4567 23.2531 26.4567 23.3778ZM33.3071 23.7452C33.3071 23.844 33.3602 23.9248 33.4252 23.9248C33.4902 23.9248 33.5433 23.844 33.5433 23.7452C33.5433 23.6465 33.4902 23.5657 33.4252 23.5657C33.3602 23.5657 33.3071 23.6465 33.3071 23.7452ZM45.9887 24.194C45.66 24.5396 44.982 25.3444 44.4823 25.9826C43.5347 27.1924 42.8849 27.753 41.1034 28.8974C39.7701 29.7538 39.7426 29.9036 40.8275 30.3969C42.4964 31.1555 43.594 32.1923 45.1227 34.4541C46.1569 35.984 46.78 36.3738 47.7829 36.1179C48.2346 36.0026 48.3104 36.0159 48.5425 36.2511C48.9165 36.6301 49.5875 36.8806 50.1961 36.8685C51.1893 36.8487 52.2418 36.188 54.0433 34.4535C55.8601 32.7042 56.6281 32.149 58.6122 31.1505C59.3754 30.7665 60 30.4169 60 30.3737C60 30.3305 59.8007 30.2029 59.5571 30.0901C58.3984 29.5538 57.4401 29.0286 56.9996 28.6882C56.7334 28.4826 55.6919 27.4674 54.685 26.4323C52.498 24.1841 52.2033 24.0071 50.2013 23.7407C49.4646 23.6426 48.835 23.5892 48.8026 23.6222C48.7701 23.6551 48.8757 23.7874 49.0372 23.9161C49.1988 24.0449 49.5377 24.5084 49.7902 24.9461C50.7915 26.681 53.2305 28.8139 55.2028 29.6794C55.5654 29.8384 55.8631 30.007 55.8641 30.0538C55.8652 30.1007 55.6402 30.2001 55.3642 30.2748C53.7404 30.714 51.6841 32.1205 50.6255 33.5159C49.4376 35.0817 49.2431 35.2942 48.7778 35.5347C48.2372 35.8142 48.0872 35.6856 48.3759 35.1902C48.4985 34.9798 48.5483 34.7326 48.504 34.5536C48.4282 34.2476 46.4722 32.2304 45.3543 31.3054C44.997 31.0096 44.3353 30.5556 43.8839 30.2963C43.4323 30.037 43.0434 29.7654 43.0195 29.6928C42.9956 29.6201 43.4182 29.3364 43.9585 29.0622C44.4989 28.788 45.2067 28.3714 45.5315 28.1362C46.2477 27.6178 48.8976 25.0081 48.8976 24.8212C48.8976 24.5992 48.281 24.0736 47.7165 23.8148C46.8868 23.4342 46.6654 23.4828 45.9887 24.194ZM32.3824 23.8826C32.4052 24.003 32.5212 24.1206 32.64 24.1437C32.796 24.1742 32.8446 24.125 32.8145 23.9669C32.7917 23.8465 32.6757 23.729 32.5569 23.7059C32.4008 23.6753 32.3523 23.7245 32.3824 23.8826ZM41.4736 23.8199C40.7948 23.9342 38.708 24.8126 38.4938 25.0741C38.3979 25.1912 38.4328 25.467 38.6284 26.1344C38.8864 27.0149 39.0084 27.1971 39.1283 26.8804C39.2137 26.6549 40.4058 26.0377 42.2989 25.2389C44.1664 24.4509 44.6093 24.1991 44.4365 24.024C44.1262 23.7096 42.7088 23.6119 41.4736 23.8199ZM15.8268 23.9853C15.8268 24.0659 18.2461 25.8778 19.4028 26.6635L20.3213 27.2876L20.6542 27.0474C21.2104 26.6461 21.8708 25.7483 21.829 25.4503C21.7975 25.225 21.6019 25.1177 20.6218 24.7881C19.2549 24.3286 15.8268 23.7546 15.8268 23.9853ZM26.4567 24.1513C26.4567 24.2727 26.8165 24.438 26.8988 24.3544C26.9285 24.3244 26.9178 24.2423 26.8749 24.1721C26.7807 24.0176 26.4567 24.0015 26.4567 24.1513ZM11.9974 24.5485C11.7426 24.6991 11.5139 24.885 11.4891 24.9614C11.4328 25.1349 12.5871 26.5011 13.597 27.4563C14.2285 28.0538 15.4298 29.0071 16.5945 29.8353C16.8232 29.9979 16.8181 30.0103 16.4354 30.2254C15.285 30.8714 13.2198 32.3437 12.7467 32.855C11.768 33.9126 10.9638 35.1319 11.0055 35.4948C11.0525 35.9033 11.8743 36.5673 12.4741 36.6812C13.0896 36.7983 13.367 36.5347 14.5729 34.6876C16.0122 32.4828 16.8464 31.679 18.6044 30.8028C19.3891 30.4118 19.9606 30.055 19.9606 29.9561C19.9606 29.8621 19.7614 29.7005 19.5177 29.5969C17.4236 28.7063 16.4043 27.823 15.4528 26.0745C15.1496 25.5175 14.7352 24.9011 14.5318 24.7047C14.2023 24.3866 14.0692 24.3438 13.3113 24.3112C12.5975 24.2805 12.3861 24.3187 11.9974 24.5485ZM29.5054 25.1191C28.1493 25.3645 26.3186 26.8075 25.9452 27.9255C25.6543 28.796 25.6815 30.4166 26.0039 31.4114C26.4746 32.8648 27.8166 33.9685 29.3489 34.1625C30.0481 34.251 31.1487 34.011 31.9852 33.5877C32.6643 33.244 33.6698 32.1341 34.0929 31.261C34.3844 30.6595 34.4284 30.4316 34.4242 29.5498C34.4211 28.9067 34.344 28.3124 34.2145 27.9341C33.5461 25.9799 31.5015 24.7577 29.5054 25.1191ZM30.0693 26.1089C30.0367 26.3228 29.9789 26.7946 29.9409 27.1572C29.8354 28.1669 29.71 28.2338 29.4802 27.4034C29.3695 27.0042 29.2339 26.6774 29.1787 26.6774C29.1234 26.6774 29.0226 26.5159 28.9547 26.3184C28.6995 25.5765 28.7271 25.9981 28.9995 27.0012C29.155 27.5742 29.2643 28.0613 29.2422 28.0837C29.2122 28.114 28.3473 27.052 27.9102 26.448C27.8903 26.4206 27.8396 26.433 27.7977 26.4755C27.6973 26.5771 28.1942 27.3204 28.8089 27.9883C29.62 28.8697 29.3165 28.9039 28.3064 28.0447C27.7972 27.6115 27.3624 27.2757 27.3399 27.2983C27.3176 27.3211 27.4818 27.5536 27.7048 27.8151C27.9278 28.0765 28.1102 28.3301 28.1102 28.3786C28.1102 28.4722 27.7188 28.3403 27.0676 28.0271C26.7294 27.8645 26.6554 27.8612 26.5656 28.0049C26.5077 28.0976 26.4595 28.209 26.4585 28.2526C26.4562 28.3497 27.3034 28.7578 27.9035 28.9487C28.1472 29.0262 28.3465 29.14 28.3465 29.2014C28.3465 29.2629 28.1472 29.2853 27.9035 29.2512C26.9393 29.1162 26.4567 29.0962 26.4567 29.1911C26.4567 29.4147 27.6666 29.5604 28.3103 29.4144C28.6558 29.3361 28.9779 29.312 29.0262 29.3608C29.2233 29.5605 28.6224 29.7737 27.6582 29.846C26.3056 29.9474 26.2928 29.9496 26.3185 30.0883C26.3469 30.2414 27.5109 30.228 28.3217 30.0652C28.7794 29.9733 28.9356 29.9756 28.9056 30.0739C28.8719 30.1844 27.935 30.5511 26.752 30.9169C26.5313 30.9851 26.5292 31.0003 26.7188 31.148C26.8922 31.283 27.0275 31.2548 27.643 30.9554C28.0395 30.7626 28.3892 30.6304 28.42 30.6616C28.4509 30.6929 28.195 30.9901 27.8516 31.3223C27.508 31.6542 27.2649 31.9645 27.3113 32.0116C27.3579 32.0587 27.4902 32.0221 27.6054 31.9306C27.7965 31.7785 27.8006 31.7825 27.6504 31.9762C27.5601 32.093 27.5117 32.2145 27.5428 32.2462C27.5741 32.2779 27.9671 31.8627 28.4159 31.3238C29.2456 30.3275 29.4554 30.2766 29.1887 31.1365C29.1226 31.3499 29.036 31.8477 28.9965 32.2426C28.957 32.6375 28.8986 33.0864 28.867 33.24C28.8314 33.4127 28.8557 33.4903 28.9307 33.4434C29.0438 33.3725 29.3458 32.4471 29.6461 31.2516C29.7169 30.9699 29.8198 30.7675 29.8748 30.802C29.9298 30.8365 30.0119 31.3363 30.0573 31.9126C30.1026 32.489 30.2102 33.1223 30.2965 33.3197L30.4533 33.6788L30.4624 33.2001C30.4675 32.9368 30.3943 32.2389 30.2998 31.6491C30.2053 31.0594 30.1414 30.5634 30.1578 30.5468C30.1742 30.5302 30.467 31.0397 30.8086 31.6788C31.2177 32.4444 31.4042 32.7083 31.3551 32.452C31.2544 31.9272 31.4336 31.9611 31.8307 32.5418C32.0108 32.8051 32.2041 33.0205 32.2602 33.0205C32.493 33.0205 32.3278 32.735 31.7656 32.1653C31.221 31.6134 30.6526 30.7636 30.7571 30.6577C30.7806 30.6338 31.3374 30.8836 31.9944 31.2127C33.8057 32.1202 33.4843 31.6589 31.5736 30.609C30.3214 29.9209 30.6891 29.8045 32.4384 30.3351C33.5548 30.6738 33.6614 30.6847 33.6614 30.4603C33.6614 30.2715 33.4102 30.192 32.4803 30.0865C31.7347 30.002 31.4778 29.8384 31.9159 29.727C32.079 29.6855 32.2859 29.662 32.3759 29.6747C32.7249 29.724 33.579 29.6656 33.5113 29.5971C33.472 29.5573 32.8121 29.5285 32.0447 29.5331C31.1582 29.5385 30.7166 29.502 30.8333 29.4331C30.9781 29.3476 33.3302 28.712 33.5018 28.712C33.5246 28.712 33.5433 28.6269 33.5433 28.523C33.5433 28.3021 33.3378 28.3342 31.7717 28.7999C31.2195 28.9639 30.6746 29.1254 30.561 29.1584C30.425 29.1982 30.3543 29.1526 30.3543 29.0252C30.3543 28.9187 30.4134 28.8317 30.4857 28.8317C30.6784 28.8317 32.8694 27.9902 33.036 27.8521C33.1708 27.7404 33.143 27.6303 32.863 27.1649C32.846 27.1368 32.6865 27.2508 32.5087 27.4183C32.3307 27.5858 31.9371 27.8671 31.6341 28.0433C31.331 28.2196 31.0188 28.4421 30.9404 28.5379C30.862 28.6336 30.7533 28.712 30.6987 28.712C30.6443 28.712 31.0033 28.1716 31.4967 27.5111C31.99 26.8507 32.3603 26.2766 32.3196 26.2353C32.2015 26.1156 31.8228 26.5235 31.2347 27.4037C30.244 28.8865 30.2232 28.7112 31.1232 26.4631C31.2363 26.1805 31.2943 25.9145 31.2521 25.8717C31.1184 25.7361 30.8259 26.135 30.5443 26.8372L30.2715 27.5171L30.3285 26.6185C30.3666 26.0163 30.3431 25.72 30.2571 25.72C30.1865 25.72 30.102 25.8951 30.0693 26.1089ZM23.0906 26.4381C22.9815 26.6169 23.1332 26.7971 23.3928 26.7971C23.6541 26.7971 23.6869 26.6713 23.4803 26.462C23.3076 26.287 23.1872 26.2796 23.0906 26.4381ZM36.2598 26.6176C36.0689 26.8508 36.2961 27.157 36.6581 27.1544C36.8443 27.1529 36.8679 27.1258 36.7492 27.0496C36.6487 26.985 36.6185 26.8519 36.6685 26.6924C36.7638 26.3883 36.4889 26.3379 36.2598 26.6176ZM11.1405 27.1024C11.3275 27.6381 12.2228 28.2625 13.6417 28.8468C14.7717 29.3121 14.9513 29.4156 14.5276 29.3574C14.2352 29.3174 13.7303 29.2126 13.4055 29.1247C11.5583 28.6243 10.1062 28.6651 8.51669 29.2622C7.57146 29.6172 7.39831 29.8638 8.17913 29.7431C9.11882 29.5976 11.3386 29.5124 11.3376 29.6217C11.337 29.6809 10.9891 29.9164 10.5644 30.1449C10.1395 30.3735 9.70158 30.6644 9.59091 30.7912C9.3978 31.0126 9.40158 31.019 9.68504 30.951C10.8672 30.6677 14.2793 30.4102 13.9358 30.6301C13.8391 30.6921 13.675 30.7437 13.5715 30.7448C13.1906 30.7485 12.0322 31.2033 11.561 31.5342C11.0804 31.8717 10.4309 32.6195 10.5306 32.7205C10.5591 32.7493 10.8722 32.5651 11.2263 32.3113C11.5804 32.0575 12.3219 31.688 12.874 31.4903C13.4262 31.2926 14.436 30.8661 15.1181 30.5426L16.3583 29.9544L15.4905 29.4409C15.0133 29.1584 13.9845 28.5823 13.2043 28.1604C12.4241 27.7386 11.6223 27.2756 11.4224 27.1314C11.08 26.8844 11.0637 26.8827 11.1405 27.1024ZM48.4257 27.3352C47.9818 27.7992 47.3348 28.1438 45.8769 28.6925C45.3621 28.8863 44.6245 29.1895 44.2378 29.3663L43.5347 29.6879L44.2378 30.077C44.6245 30.291 45.6053 30.8312 46.4173 31.2776C47.2293 31.7239 48.0692 32.1971 48.2838 32.3291C48.4983 32.4611 48.7109 32.5307 48.7563 32.4836C48.8953 32.3394 48.0301 31.6708 47.0117 31.1355L46.0439 30.6269H46.8093C47.6383 30.6269 50.003 30.2531 50.98 29.9678C51.3133 29.8704 51.7102 29.689 51.8619 29.5645L52.1375 29.3382L51.1968 29.1184C49.8242 28.7978 47.5442 28.8124 46.0048 29.1516C44.7045 29.4381 44.3627 29.4305 45.4007 29.138C47.0584 28.671 47.3386 28.5725 47.8884 28.2632C48.4455 27.9499 48.9654 27.3025 48.8767 27.0326C48.8539 26.9635 48.651 27.0997 48.4257 27.3352ZM23.4646 27.1163C23.2916 27.2916 23.3911 27.6349 23.6151 27.6349C23.9166 27.6349 24.0326 27.4289 23.854 27.2107C23.698 27.0203 23.586 26.9931 23.4646 27.1163ZM35.9055 27.5152C35.9055 27.581 35.9852 27.6349 36.0827 27.6349C36.1801 27.6349 36.2598 27.581 36.2598 27.5152C36.2598 27.4494 36.1801 27.3955 36.0827 27.3955C35.9852 27.3955 35.9055 27.4494 35.9055 27.5152ZM32.5282 27.7731L32.3032 28.031L32.628 27.8192C32.9629 27.6008 33.0262 27.5152 32.853 27.5152C32.798 27.5152 32.6519 27.6313 32.5282 27.7731ZM27.6378 28.6391C27.6378 28.6647 27.82 28.7073 28.0429 28.7338C28.2657 28.7601 28.422 28.7391 28.3903 28.687C28.3331 28.5933 27.6378 28.549 27.6378 28.6391ZM38.4082 29.0757C38.1002 29.3664 38.065 29.9725 38.3335 30.3609C38.5631 30.6931 38.8544 30.6988 39.2557 30.3788C39.6626 30.0546 39.6716 29.5252 39.277 29.1255C38.9242 28.7679 38.745 28.7577 38.4082 29.0757ZM20.8485 29.1459C20.6125 29.3851 20.6539 30.017 20.9167 30.1836C21.0204 30.2493 21.2454 30.2674 21.4169 30.2238C21.8205 30.1211 21.9474 29.6577 21.6835 29.2497C21.4617 28.9066 21.1258 28.865 20.8485 29.1459ZM30.9449 30.9632C30.9449 31.0275 31.0291 31.1127 31.132 31.1528C31.2469 31.1974 31.301 31.1707 31.2722 31.0832C31.2133 30.9043 30.9449 30.8058 30.9449 30.9632ZM31.4173 31.2849C31.4173 31.4866 32.6686 32.3909 32.7848 32.2732C32.8102 32.2474 32.5794 32.0414 32.2718 31.8156C31.5278 31.2691 31.4173 31.2005 31.4173 31.2849ZM36.0236 31.4461C36.0236 31.7858 36.379 32.1354 36.5085 31.9231C36.6117 31.7538 36.3924 31.3299 36.1611 31.2518C36.0855 31.2263 36.0236 31.3138 36.0236 31.4461ZM23.1201 32.1048C22.4642 32.7007 22.3342 33.0953 22.8934 32.7919C23.1242 32.6669 23.9218 31.5816 23.777 31.5897C23.7242 31.5926 23.4287 31.8244 23.1201 32.1048ZM28.3533 32.0795C28.1048 32.4924 28.0292 32.846 28.2139 32.7303C28.3642 32.6362 28.7324 31.8158 28.6582 31.7407C28.6237 31.7057 28.4864 31.8582 28.3533 32.0795ZM23.7878 32.5489C23.5891 32.7502 23.218 32.9886 22.9632 33.0786L22.5 33.2423L22.9391 33.4306C23.1807 33.5342 23.4833 33.6189 23.6117 33.6189C23.9413 33.6189 24.4134 33.1594 24.6257 32.6316L24.8063 32.1828H24.4776C24.2686 32.1828 24.0176 32.316 23.7878 32.5489ZM20.4331 32.6286C18.0045 33.7936 16.3271 34.768 15.9428 35.2371C15.7619 35.458 15.7441 35.4581 17.3562 35.2302C18.8654 35.0169 20.2115 34.6869 20.9835 34.3409L21.5264 34.0975L21.4456 33.4692C21.3411 32.6572 21.2528 32.3006 21.1585 32.3097C21.1168 32.3137 20.7904 32.4572 20.4331 32.6286ZM36.1713 32.5102C35.8048 32.638 36.2414 33.2599 36.6976 33.2599C36.9859 33.2599 37.29 32.9347 37.1348 32.7924C36.9667 32.6384 36.3346 32.4532 36.1713 32.5102ZM38.7765 33.1414C38.4569 33.2719 38.1165 33.7782 38.1693 34.0445C38.228 34.3399 40.17 35.1335 41.5279 35.417C42.728 35.6675 44.4095 35.8584 44.4095 35.7441C44.4095 35.6551 41.8877 34.075 41.1339 33.6918C40.6124 33.4267 39.3126 33.0027 39.0992 33.0281C39.0641 33.0323 38.919 33.0832 38.7765 33.1414ZM1.72157 33.5292C1.15323 34.4103 0.61689 36.2356 0.772323 36.7597C0.816378 36.9083 1.03323 37.2212 1.25421 37.4551L1.65602 37.8803L1.30193 38.224C0.924449 38.5905 0.753189 39.1698 0.875787 39.6651C0.994843 40.1459 1.74579 40.902 2.25862 41.0577C2.8813 41.2468 3.23587 41.0438 3.68197 40.2428C4.16551 39.3745 4.24724 39.3239 4.79221 39.5545C5.10992 39.689 5.44441 39.7277 5.90114 39.6828C6.58205 39.6158 7.4987 39.3822 7.41472 39.2971C7.38803 39.2702 7.18406 39.301 6.96142 39.3657C6.56492 39.4809 4.64941 39.5198 4.92201 39.4072C5.00398 39.3732 4.88374 39.1846 4.62673 38.9443C4.2652 38.6062 4.21465 38.5028 4.32331 38.3237C4.48358 38.0596 5.08335 37.8726 5.46177 37.9689C5.86087 38.0704 6.75496 38.7509 6.67075 38.889C6.57083 39.0527 5.90551 39.0331 5.90551 38.8664C5.90551 38.7881 5.80264 38.8224 5.66858 38.9455C5.53819 39.0649 5.45126 39.1826 5.47524 39.207C5.49933 39.2313 5.88496 39.1992 6.33236 39.1356C6.77965 39.072 7.45228 38.9935 7.82693 38.9609L8.50819 38.9018L8.26181 39.2523C8.12634 39.4453 7.94669 39.603 7.86272 39.603C7.77886 39.603 7.50343 39.7465 7.25079 39.9219C6.66626 40.3278 4.8978 41.3404 3.8778 41.8531C1.30843 43.1447 0.445512 46.5257 2.35299 47.8282C2.95157 48.237 3.72413 48.2017 4.35791 47.7365C4.63051 47.5364 4.88339 47.2941 4.91976 47.198C5.05004 46.854 5.16555 47.0342 5.24303 47.7019C5.28638 48.0752 5.4189 48.6003 5.53772 48.8688C5.80701 49.4778 6.64606 50.4424 6.81461 50.3368C6.88358 50.2936 6.97736 49.7323 7.02295 49.0895C7.13114 47.5626 7.25752 47.0409 7.79882 45.8841C8.15398 45.1253 8.44748 44.7239 9.20173 43.9657L10.1556 43.007L9.74457 42.053C9.31098 41.0465 9.23244 40.3854 9.45142 39.5862C9.60827 39.0143 10.5031 38.3929 11.6634 38.0504C12.2359 37.8814 12.5197 37.738 12.5197 37.6177C12.5197 37.3427 11.3897 37.4794 9.98032 37.9249C8.18398 38.493 7.35496 38.3122 5.75646 37.0046C5.24787 36.5885 4.62874 36.1182 4.38083 35.9595C3.60933 35.4661 2.50783 34.3505 2.2415 33.793C2.10142 33.4999 1.96618 33.2599 1.94102 33.2599C1.91587 33.2599 1.81701 33.381 1.72157 33.5292ZM57.9491 33.989C57.5828 34.7938 56.7064 35.5671 55.4036 36.2352C54.7512 36.5698 53.8841 37.0558 53.4768 37.3153C52.5104 37.9307 51.6307 38.218 50.9867 38.1286C50.7124 38.0905 49.9993 37.8681 49.402 37.6344C47.4058 36.8532 46.868 37.2095 48.6824 38.111C50.4041 38.9665 51.0222 39.5726 51.0232 40.4063C51.0237 40.8813 50.6096 42.0346 50.238 42.5929C49.8211 43.2192 49.875 43.3725 50.6604 43.7967C51.0454 44.0046 51.6522 44.4635 52.009 44.8166C52.8398 45.6384 53.0382 46.2689 53.1456 48.4275C53.2244 50.0114 53.2678 50.2229 53.4872 50.0856C53.6969 49.9542 54.7085 48.5317 54.9528 48.0247L55.191 47.5301L55.6064 47.7784C56.4041 48.2553 57.727 47.9736 58.3286 47.1986C59.1532 46.1363 58.8482 44.0588 57.7028 42.9372C57.1659 42.4114 56.2351 41.9353 55.5118 41.8167C54.8246 41.7039 54.6702 41.6189 53.6885 40.8137C52.825 40.1054 52.4554 39.8536 52.2687 39.8465C52.0756 39.8394 53.1619 40.9018 54.1546 41.6911C55.0402 42.3953 56.5743 44.1913 56.422 44.3456C56.3857 44.3825 56.1947 44.1786 55.9977 43.8927C55.3752 42.9894 54.7681 42.236 54.6628 42.236C54.4706 42.236 55.4538 43.6516 56.2003 44.4494C56.9196 45.2181 56.94 45.2569 56.743 45.4774C56.6303 45.6036 56.4859 45.7067 56.4219 45.7067C56.358 45.7067 56.2397 45.7981 56.1592 45.9095C56.0218 46.1 55.9944 46.1 55.7082 45.91C55.5196 45.7848 55.3517 45.5137 55.2674 45.1986C54.889 43.7813 54.7421 43.4047 54.2748 42.6532C53.9959 42.2046 53.3254 41.3896 52.7849 40.8421L51.8022 39.8467L52.1302 39.4997C52.5491 39.0567 53.5809 38.4813 53.6764 38.6378C53.7175 38.7051 53.9777 38.6072 54.2882 38.4077C54.5855 38.2167 54.9873 38.0252 55.1811 37.982C55.5696 37.8956 56.5786 38.0136 56.5683 38.1442C56.5478 38.4027 55.7486 38.8157 54.8872 39.0132C53.8804 39.244 53.0947 39.4991 52.955 39.6407C52.8183 39.779 53.0539 39.734 53.9765 39.4456C54.4638 39.2933 55.0748 39.1721 55.3343 39.1763C55.7959 39.184 55.8145 39.2013 56.1918 39.9733C56.7288 41.0726 57.4056 41.3351 58.2376 40.767C59.2012 40.109 59.4276 39.1869 58.8026 38.4655C58.4825 38.0961 58.4561 38.0181 58.6082 37.8929C59.2003 37.4058 59.3329 36.4867 58.9846 35.2863C58.751 34.4814 58.3426 33.4982 58.2433 33.5024C58.2026 33.504 58.0702 33.7231 57.9491 33.989ZM22.9339 35.0927C22.5926 35.4609 22.5843 36.2256 22.918 36.5883C23.2557 36.9556 23.898 36.9407 24.277 36.5565C24.6111 36.2181 24.6313 36.0413 24.3998 35.4797C24.1137 34.7861 23.3943 34.5961 22.9339 35.0927ZM36.0322 35.2508C35.7562 35.6062 35.7276 35.8685 35.9185 36.293C36.2952 37.1306 37.4409 36.8312 37.4409 35.8952C37.4409 35.0352 36.5249 34.6161 36.0322 35.2508ZM27.5794 36.0118C27.4615 36.1438 27.4199 36.2519 27.487 36.2519C27.6356 36.2519 27.9301 35.9099 27.8507 35.8294C27.8194 35.7977 27.6973 35.8797 27.5794 36.0118ZM31.7717 36.1151C31.7717 36.2884 33.182 37.5684 33.3729 37.5684C33.7604 37.5684 33.52 37.1079 32.9232 36.7072C32.0836 36.1435 31.7717 35.9831 31.7717 36.1151ZM26.6206 36.2737C26.495 36.4797 26.7808 36.6614 27.0416 36.5412C27.2718 36.4352 27.2699 36.4268 26.9864 36.2931C26.7961 36.2035 26.6676 36.1966 26.6206 36.2737ZM43.7008 37.4581C41.5391 37.8555 39.8888 37.9042 38.5651 37.6096C38.0754 37.5004 37.645 37.4414 37.6088 37.4782C37.5724 37.5149 37.608 38.0902 37.6877 38.7566C37.8113 39.7908 37.802 40.3013 37.6237 42.2429C37.3858 44.8316 37.4298 45.4888 37.9097 46.5171C38.5037 47.7898 40.0561 48.6988 41.6354 48.6988C42.0579 48.6988 42.3006 48.7749 42.5893 48.998C43.0374 49.3443 43.1235 49.3534 43.7598 49.1211C44.3833 48.8935 45.9591 48.8927 46.8182 49.1193C47.8556 49.3932 49.2135 49.9995 49.7927 50.4474L50.3096 50.8474L50.2359 50.2817C50.1954 49.9706 49.9804 48.989 49.758 48.1004C49.4222 46.7583 49.343 46.1908 49.2904 44.7493C49.2354 43.2429 49.1932 42.9586 48.97 42.595C48.5769 41.9543 48.4359 41.574 48.1802 40.4627C47.775 38.7013 47.2424 37.7556 46.4152 37.328C45.8649 37.0435 45.987 37.0376 43.7008 37.4581ZM14.0909 37.5646C12.7514 38.2513 11.8376 39.5606 11.0435 41.9312C10.8112 42.6251 10.6814 43.3709 10.5648 44.6838C10.408 46.4503 10.2054 47.4029 9.61335 49.1575C9.45047 49.6403 9.33354 50.1923 9.3535 50.3842L9.38976 50.7331L9.92126 50.3675C12.005 48.9338 14.1067 48.3863 16.1496 48.7447C17.2209 48.9327 19.0168 48.8293 19.8188 48.5335C20.4396 48.3045 21.2632 47.7181 21.5868 47.2747C22.2467 46.3703 22.4069 45.1387 22.1424 43.0049C21.9164 41.1816 21.9568 39.6577 22.2612 38.5259C22.3585 38.1638 22.4388 37.7556 22.4395 37.6186C22.4409 37.3762 22.4215 37.3738 21.7028 37.5264C20.6936 37.7406 18.3175 37.7274 17.3622 37.502C16.94 37.4024 16.1959 37.2914 15.7087 37.2552C14.8848 37.1941 14.7717 37.2157 14.0909 37.5646ZM34.3798 38.2922L33.9817 38.7941L33.3465 38.7184L32.7113 38.6428L32.7861 38.9734C33.0554 40.1629 35.412 44.0849 35.5246 43.5306C35.547 43.4199 35.4789 42.6928 35.3732 41.9149C35.2675 41.1371 35.1041 39.9351 35.0104 39.244C34.9165 38.5528 34.8257 37.943 34.8087 37.8888C34.7917 37.8347 34.5986 38.0163 34.3798 38.2922ZM24.8836 39.7716C24.2734 42.3108 23.8312 44.5224 23.9165 44.6089C23.9933 44.6866 24.2167 44.4222 25.3054 42.9656C26.0342 41.9902 26.6079 40.9575 27.1496 39.6454C27.336 39.1942 27.5767 38.6209 27.6848 38.3714L27.8812 37.9178L27.3175 38.2218C26.6244 38.5956 26.4104 38.5989 25.7986 38.2443L25.3176 37.9655L24.8836 39.7716ZM29.5481 38.4438C29.225 38.7924 29.2205 39.24 29.5362 39.6467C30.018 40.2673 30.8268 39.9198 30.8268 39.0922C30.8268 38.7044 30.3615 38.1668 30.026 38.1668C29.9044 38.1668 29.6894 38.2915 29.5481 38.4438ZM54.2717 38.7011C53.8155 38.9127 54.0276 38.9158 54.5669 38.7054C54.7943 38.6167 54.9006 38.5424 54.8032 38.5403C54.7057 38.5383 54.4665 38.6106 54.2717 38.7011ZM39.2306 39.2868C39.1641 39.3711 39.2057 39.9286 39.3392 40.74C39.4584 41.464 39.5584 42.4873 39.5615 43.0139C39.5647 43.5405 39.643 44.3743 39.7357 44.8669C39.943 45.9679 40.1975 46.2409 40.9211 46.1378C43.7295 45.7376 44.9183 45.99 47.0753 47.4444C47.6105 47.8051 48.0798 48.1004 48.1185 48.1004C48.157 48.1004 48.0089 47.8446 47.7893 47.5319C46.6401 45.896 46.3721 44.8651 46.3643 42.0513C46.3591 40.1922 46.3291 39.8468 46.1489 39.5679C45.8969 39.1781 45.8353 39.1745 44.9368 39.4964C44.31 39.721 44.0564 39.7418 42.6378 39.6856C41.5937 39.6442 40.7491 39.5408 40.1909 39.3863C39.5614 39.2119 39.3102 39.1859 39.2306 39.2868ZM14.5276 39.4536C13.9097 39.7664 13.6907 40.3365 13.5726 41.9401C13.414 44.0949 12.9094 45.713 11.9224 47.2327C11.7834 47.4467 11.7091 47.6216 11.7572 47.6216C11.8052 47.6216 12.1693 47.414 12.566 47.1603C13.595 46.5023 14.2641 46.1723 14.9409 45.9891C15.6331 45.8018 17.1946 45.7854 17.9528 45.9575C18.2451 46.0239 18.75 46.1074 19.0748 46.1433C19.6015 46.2014 19.6964 46.1747 19.9521 45.8973C20.2239 45.6024 20.2466 45.4597 20.3876 43.163C20.4693 41.8304 20.5733 40.4852 20.6185 40.1739C20.7228 39.4559 20.6505 39.4243 19.2889 39.5921C18.4046 39.701 18.007 39.6845 16.6533 39.4827C14.7448 39.1982 15.0244 39.2021 14.5276 39.4536ZM52.8552 39.3623C52.8138 39.4301 52.8612 39.4502 52.9663 39.4094C53.1709 39.3298 53.2083 39.244 53.0385 39.244C52.9773 39.244 52.8948 39.2972 52.8552 39.3623ZM39.4488 39.6852C39.4488 40.3899 41.9983 42.9824 44.1061 44.4211C44.9461 44.9946 45.6547 45.4422 45.6807 45.4159C45.7593 45.3362 45.4706 44.86 44.6854 43.775C44.2737 43.2061 43.937 42.7047 43.937 42.6604C43.937 42.6162 44.0301 42.5895 44.1437 42.6013C44.5318 42.6413 45.2957 42.5762 45.1181 42.5184C44.6395 42.3624 43.8189 41.9443 43.8189 41.8565C43.8189 41.8019 44.104 41.7573 44.4526 41.7573C44.9148 41.7573 45.1704 41.6901 45.3974 41.5092C45.8419 41.1549 45.7848 41.0599 45.1696 41.1301C44.7404 41.1792 44.277 41.0765 42.896 40.6263C39.338 39.4663 39.4488 39.4966 39.4488 39.6852ZM19.1929 40.1485C18.1938 40.5722 16.7165 40.9177 15.8998 40.9187C15.4032 40.9193 15.0915 40.9906 14.8072 41.1687C14.5885 41.3056 14.4094 41.4563 14.4094 41.5034C14.4094 41.5506 14.7549 41.5668 15.1772 41.5396C15.6216 41.5108 15.9449 41.5382 15.9449 41.6047C15.9449 41.6676 15.6808 41.8649 15.358 42.0429C14.4797 42.5273 14.4819 42.6399 15.3673 42.5491C15.7824 42.5066 16.1837 42.5132 16.2591 42.5637C16.3508 42.6253 16.1461 42.9435 15.639 43.5283C14.9542 44.3176 14.7197 44.7493 14.9759 44.7493C15.1147 44.7493 16.7483 43.7134 17.151 43.37C17.5043 43.0687 17.773 42.9955 17.8801 43.1711C17.9127 43.2247 17.8576 43.6323 17.7574 44.077C17.6574 44.5217 17.6104 44.9209 17.653 44.9642C17.6957 45.0074 17.9115 44.8288 18.1325 44.567L18.5344 44.091L18.5388 44.53C18.544 45.0358 18.6406 45.3477 18.7922 45.3477C18.8502 45.3477 18.8976 45.2502 18.8976 45.131C18.8976 44.9508 19.9926 40.9331 20.2574 40.1416C20.3459 39.8771 20.0022 40.2249 18.8606 41.5552C18.483 41.9953 18.0631 42.4155 17.9275 42.4891C17.6888 42.6185 17.6895 42.6107 17.9491 42.2412C18.0965 42.0314 18.5138 41.527 18.8764 41.1203C19.8496 40.0288 20.007 39.8421 19.9517 39.8452C19.9241 39.8468 19.5827 39.9832 19.1929 40.1485ZM7.2535 40.4339C6.7937 40.5454 6.79465 40.5446 5.35323 41.6019C4.0174 42.5817 3.4252 43.1902 3.4252 43.5831C3.4252 43.8025 3.54437 43.7274 4.16339 43.1176C4.99795 42.2953 6.60378 40.9888 6.6822 41.0681C6.74197 41.1288 4.55835 43.1853 3.79807 43.7844C3.34358 44.1425 3.29315 44.2298 3.35598 44.5483C3.40571 44.8002 3.36472 44.9793 3.21945 45.1462C3.0163 45.3792 3.02008 45.3826 3.39567 45.3092C3.75236 45.2393 3.77976 45.2571 3.78331 45.5601L3.78697 45.8863L4.07504 45.5546L4.36311 45.2229L4.3474 45.6449C4.33878 45.8769 4.36323 46.0988 4.40173 46.1378C4.53685 46.2747 5.56252 44.7029 6.27472 43.2672C6.67039 42.4696 7.17449 41.5138 7.39476 41.1432C7.92756 40.2466 7.93217 40.2695 7.2535 40.4339ZM29.5068 41.5429C28.489 43.0959 27.3919 44.0498 25.4052 45.1083C24.0285 45.8419 23.6794 46.2049 23.697 46.8844C23.7194 47.7484 24.279 48.4844 25.3214 49.0208C25.9886 49.3642 26.0026 49.3545 26.2928 48.3397C26.5713 47.3656 26.9406 46.794 27.7565 46.075C28.1743 45.7067 28.7756 44.9894 29.1591 44.4017C29.5282 43.8359 29.9034 43.373 29.9929 43.373C30.0823 43.373 30.5308 43.9384 30.9895 44.6296C31.9481 46.074 34.7828 49.0578 35.1964 49.0578C35.5939 49.0578 36.1417 48.0621 36.1417 47.3394C36.1417 46.329 35.7978 45.9053 33.9325 44.6175C32.1516 43.388 31.0315 42.3522 30.582 41.5192C30.4226 41.2237 30.2088 40.9657 30.1069 40.9458C29.9929 40.9236 29.7624 41.153 29.5068 41.5429ZM40.7 42.6778C40.7934 43.0602 40.9208 43.8577 40.983 44.4501C41.0451 45.0425 41.0974 45.5407 41.0992 45.5571C41.1009 45.5735 41.1555 45.5871 41.2205 45.5871C41.2854 45.5871 41.3391 45.2774 41.3396 44.8989L41.3408 44.2107L41.6454 44.7258C42.2264 45.7082 42.4186 44.9083 41.8839 43.7333C41.6296 43.1745 40.843 42.103 40.6259 42.0196C40.5731 41.9994 40.6064 42.2956 40.7 42.6778ZM5.83724 42.3275C5.58378 42.5025 4.01575 44.3117 4.01575 44.4293C4.01575 44.4954 4.4276 44.1024 4.9311 43.5556C5.95264 42.4461 6.25075 42.0421 5.83724 42.3275ZM5.06362 43.8816C4.91681 44.0714 4.92095 44.0756 5.10827 43.9268C5.22189 43.8365 5.31496 43.7422 5.31496 43.7174C5.31496 43.6189 5.21799 43.6822 5.06362 43.8816ZM29.872 44.7547C29.5755 46.4337 29.7661 51.5711 30.125 51.5711C30.3031 51.5711 30.51 50.1947 30.5207 48.9381C30.5267 48.247 30.4933 46.9544 30.4467 46.0658L30.3618 44.4501L30.7095 46.1826C31.0654 47.9557 31.4245 49.0549 31.7327 49.314C31.8836 49.441 31.8956 49.3634 31.8237 48.7204C31.7783 48.3135 31.7652 47.9807 31.7946 47.9807C31.824 47.9807 32.1022 48.3577 32.413 48.8184C32.7236 49.2792 32.9988 49.6562 33.0243 49.6562C33.2249 49.6562 32.9447 48.9969 32.2417 47.814C31.7857 47.0466 31.2091 45.9758 30.9605 45.4345C30.7117 44.893 30.4005 44.3178 30.2689 44.1563L30.0295 43.8625L29.872 44.7547ZM29.1129 45.1976C28.5514 46.0643 27.0474 48.9975 27.0472 49.226C27.0472 49.436 27.5585 48.8678 28.1949 47.9508C28.5489 47.4407 28.8475 47.0232 28.8582 47.0231C28.8691 47.0231 28.8601 47.5212 28.8384 48.1302C28.8167 48.7391 28.8191 49.4258 28.8438 49.6562L28.8889 50.0751L29.0237 49.7577C29.0979 49.5831 29.2422 48.5329 29.3444 47.4239C29.4465 46.315 29.5845 45.1715 29.651 44.8831C29.7176 44.5947 29.7562 44.3427 29.7371 44.3233C29.7178 44.3038 29.437 44.6972 29.1129 45.1976ZM22.3826 47.4122C21.501 50.0011 20.7085 51.034 19.6063 51.0302C18.9285 51.0278 17.8109 50.5092 17.2993 49.9595L16.9152 49.5467L16.5185 50.1613C15.6281 51.5411 14.7122 51.9236 11.9882 52.0533C10.2386 52.1366 9.33071 52.2978 9.33071 52.525C9.33071 52.6336 10.1497 53.4092 10.7593 53.8779C10.9929 54.0574 11.4854 54.3094 11.854 54.4378C12.2225 54.5664 12.5687 54.6993 12.623 54.7335C12.6775 54.7676 12.625 55.0797 12.5066 55.4272C11.8217 57.4366 12.7772 59.229 14.5339 59.2302C15.7032 59.2311 16.8516 58.418 17.6654 57.013C17.9794 56.4707 19.1339 53.6945 19.1339 53.4815C19.1339 53.4056 18.7702 53.9007 18.3256 54.5817C17.6192 55.664 16.4928 56.9373 16.2157 56.9667C16.1642 56.9722 16.0107 56.9896 15.8746 57.0052C15.7385 57.0209 15.4565 57.1569 15.2478 57.3076C14.7011 57.702 14.6507 57.5128 15.1734 57.0277L15.6177 56.6153L15.1533 56.6504C14.8978 56.6698 14.5721 56.7489 14.4293 56.8263C14.2159 56.9421 14.157 56.9336 14.0981 56.778C14.0587 56.674 14.1052 56.4966 14.2013 56.3839C14.4015 56.149 14.5597 55.6061 14.3985 55.7071C14.3395 55.7439 14.2913 55.8485 14.2913 55.9395C14.2913 56.0304 14.2336 56.141 14.163 56.1853C14.0793 56.2377 14.0469 56.1462 14.07 55.923C14.0895 55.7345 14.0613 55.5078 14.0073 55.4192C13.8358 55.1382 14.1977 54.9352 15.2202 54.7386C16.3978 54.5123 17.153 54.1873 18.205 53.4541C19.3801 52.6352 19.706 52.4838 19.9149 52.6595C20.303 52.9859 21.8309 51.048 22.2145 49.7425L22.4645 48.8923L22.7871 49.9026C23.4221 51.8903 23.7488 52.3601 25.5748 53.9108C27.2676 55.3485 28.0051 56.2968 29.0226 58.3447C29.6761 59.6599 29.8654 59.949 30.0547 59.922C30.2046 59.9007 30.3464 59.72 30.4561 59.4102C31.5357 56.3644 31.9298 55.8125 34.2893 54.0434C35.754 52.9453 36.1603 52.4957 36.4952 51.6022C36.7619 50.8912 36.8924 49.5054 36.7462 48.9381C36.6869 48.7077 36.633 48.6088 36.6262 48.718C36.6196 48.8274 36.2698 49.2367 35.8488 49.6276C35.2605 50.1738 34.8301 50.4447 33.9891 50.7979C32.2919 51.5107 31.2749 52.6587 30.4605 54.7802C29.912 56.2094 29.8883 56.2569 29.7633 56.1785C29.6986 56.138 29.6457 55.9986 29.6457 55.8688C29.6457 55.4264 29.1583 54.1462 28.6704 53.3065C27.9865 52.1297 27.2015 51.4016 25.5736 50.4341C23.8457 49.4073 23.136 48.7471 22.8394 47.8909C22.6244 47.2703 22.4818 47.1209 22.3826 47.4122ZM36.9986 47.877C37.028 48.2302 37.145 48.9232 37.2585 49.4169C37.5148 50.5316 37.4452 52.2276 37.0964 53.3681C36.594 55.0114 35.0437 57.0159 33.7806 57.6555L33.0711 58.0146L33.9659 58.7441C35.8749 60.3002 36.7149 60.3921 37.407 59.1207C37.5881 58.7881 37.7659 58.5153 37.8021 58.5143C37.8383 58.5133 37.9583 58.72 38.0686 58.9735C38.3387 59.5938 38.6301 59.8369 39.1956 59.9137C40.4131 60.0793 41.5228 58.3622 40.9364 57.2201C40.6843 56.729 40.2634 56.3964 39.7851 56.31C39.5477 56.2672 39.3266 56.1611 39.2937 56.0742C39.2608 55.9874 39.1721 55.3828 39.0966 54.7311C38.8644 52.7271 38.7591 52.1768 38.5541 51.8987C38.3831 51.6666 38.3688 51.6629 38.4468 51.8703C38.4963 52.002 38.5628 52.4249 38.5945 52.8103C38.6513 53.4998 38.6482 53.5086 38.3949 53.3712C38.1605 53.2441 38.1397 53.1473 38.1602 52.2818C38.1726 51.7593 38.2193 51.3318 38.2638 51.3318C38.3085 51.3318 38.7455 51.7492 39.2353 52.2593C40.0199 53.0767 40.2164 53.3797 40.8909 54.8116C42.3053 57.8145 43.3528 58.9852 44.8061 59.1871C45.7939 59.3243 46.7622 58.8006 47.3275 57.8231C47.6163 57.3237 47.6591 57.1084 47.7139 55.8824L47.7756 54.5033L48.7205 54.0241C49.2402 53.7606 49.9577 53.4221 50.315 53.2718L50.9646 52.9988L50.6693 52.7643C50.2123 52.4017 49.5606 52.2637 47.8937 52.1767C46.6189 52.1102 46.268 52.0494 45.8268 51.8189C45.071 51.4239 43.4653 50.347 43.0746 49.973C42.667 49.5827 42.6295 49.5823 42.2771 49.9622C41.9139 50.354 40.8501 50.9727 40.5396 50.9727C40.4083 50.9727 40.2746 50.9055 40.2426 50.8231C40.1457 50.5741 39.1879 49.402 39.1297 49.461C39.0998 49.4913 39.3188 49.819 39.6164 50.1892C39.9139 50.5595 40.1575 50.9141 40.1575 50.9774C40.1575 51.1261 39.8476 51.1249 39.5712 50.975C39.2627 50.8077 38.3881 49.5286 37.7745 48.3474C37.1281 47.1029 36.9237 46.9791 36.9986 47.877ZM8.33835 48.1901C8.3035 48.3053 8.21787 48.8035 8.14819 49.2972C7.9037 51.0299 7.44921 51.8223 6.56008 52.0667C4.50602 52.6313 3.74339 53.1033 3.26492 54.1062C2.92193 54.8253 2.71878 55.9278 2.71748 57.0768L2.71654 57.8551L4.34055 57.062C6.55642 55.9798 7.18961 55.3159 7.7139 53.5254C7.94929 52.7215 8.09587 52.4485 8.59701 51.8809L9.01028 51.4127L8.93587 50.1455C8.85921 48.838 8.68913 47.9807 8.5063 47.9807C8.44878 47.9807 8.37319 48.075 8.33835 48.1901ZM51.4584 48.8966C50.5844 50.2015 50.6383 51.3861 51.6301 52.6651C51.8159 52.9048 52.1224 53.4853 52.311 53.955C53.0593 55.8181 54.2036 56.7038 56.9702 57.5607C57.2876 57.6589 57.3024 57.6479 57.2323 57.3649C57.1915 57.1998 57.0797 56.4997 56.9841 55.809C56.797 54.4588 56.4849 53.667 55.9107 53.085C55.4215 52.5894 54.9882 52.3987 54.0527 52.2673C53.0381 52.1249 52.6713 51.9434 52.2404 51.3714C51.9384 50.9704 51.9043 50.8212 51.8504 49.6658L51.7913 48.3996L51.4584 48.8966ZM21.8422 51.8952C21.6717 52.4145 21.5536 53.1432 21.5078 53.9585C21.4499 54.9901 21.4022 55.2256 21.2452 55.2559C20.9995 55.3034 20.8715 54.9709 21.0241 54.682C21.1802 54.3863 21.1799 53.2086 21.0236 53.3065C20.9587 53.3472 20.9057 53.6062 20.9061 53.882C20.9065 54.1579 20.8286 54.626 20.7332 54.9222C20.6378 55.2184 20.5331 55.5954 20.5006 55.76C20.4604 55.9643 20.2703 56.1506 19.9018 56.3472C19.6049 56.5057 19.2044 56.8172 19.0117 57.0396C18.2519 57.9164 18.7872 59.325 20.0896 59.8764C20.8361 60.1922 21.4304 59.8893 21.919 58.9438L22.2462 58.3106L22.5311 58.8899C23.0709 59.9876 23.6448 60.1828 24.7185 59.6337C25.4063 59.2818 27.0319 58.1423 27.0412 58.0055C27.0445 57.9569 26.6628 57.7211 26.1928 57.4812C24.7809 56.7607 23.2385 55.0109 22.6619 53.4752C22.5282 53.1192 22.3896 52.4374 22.3538 51.9601C22.318 51.4828 22.2476 51.0924 22.1973 51.0924C22.147 51.0924 21.9872 51.4537 21.8422 51.8952ZM40.0394 52.7451C40.0394 53.0469 41.5861 55.2372 42.2213 55.8348C42.8383 56.4151 43.7024 56.8833 43.8606 56.723C43.9265 56.6563 44.0357 56.6807 44.1386 56.7849C44.3242 56.9729 44.7638 57.0198 44.7638 56.8516C44.7638 56.7938 44.6132 56.6833 44.4292 56.606C44.2452 56.5288 43.8067 56.1834 43.4548 55.8385C43.1029 55.4936 42.6289 55.0836 42.4016 54.9277L41.9882 54.6441L42.4551 55.1422C42.7238 55.4288 42.851 55.6403 42.7547 55.6403C42.5498 55.6403 41.483 54.5053 41.167 53.951C40.941 53.5546 40.9518 53.5589 41.6985 54.1607C42.6461 54.9241 45.6667 56.4487 45.8546 56.2583C46.0273 56.0833 45.6422 55.7663 44.5645 55.1964C44.0978 54.9495 43.7301 54.733 43.7474 54.7154C43.7927 54.6695 45.2307 55.2513 45.6307 55.4772C45.8883 55.6226 45.998 55.6337 46.1032 55.5253C46.3194 55.3022 45.8875 55.0254 44.6974 54.6243C44.1168 54.4286 42.8791 53.8771 41.9471 53.3985C41.0151 52.92 40.2045 52.5286 40.1459 52.5286C40.0873 52.5286 40.0394 52.626 40.0394 52.7451ZM38.272 53.8408C37.9018 54.2158 37.9452 55.6403 38.3268 55.6403C38.5285 55.6403 38.5833 55.4701 38.6817 54.5389C38.7749 53.6574 38.6548 53.4529 38.272 53.8408ZM16.927 55.4009C16.4852 55.9275 16.0854 56.3584 16.0385 56.3584C15.9915 56.3584 15.8941 56.4701 15.8219 56.6068C15.7056 56.8273 15.715 56.8418 15.9064 56.736C16.3102 56.5126 18.0125 54.4435 17.7925 54.4435C17.7581 54.4435 17.3687 54.8743 16.927 55.4009ZM16.4492 55.1933C16.2482 55.472 15.9363 55.8886 15.756 56.119L15.4282 56.5379L15.7564 56.2387C16.1495 55.8802 16.9394 54.8129 16.8663 54.7388C16.8379 54.71 16.6501 54.9145 16.4492 55.1933ZM15.4078 55.6473C15.1511 55.9145 15.0207 56.0983 15.1181 56.0558C15.2844 55.9833 16.0226 55.1616 15.9214 55.1616C15.8957 55.1616 15.6646 55.3801 15.4078 55.6473ZM43.4143 55.6502C43.5393 55.7904 43.8339 56.0045 44.0688 56.1261C44.3039 56.2475 44.6564 56.4837 44.8525 56.6509C45.1375 56.8938 45.2344 56.9236 45.3364 56.7992C45.5153 56.5807 45.1795 56.3155 44.083 55.8093C43.3277 55.4604 43.2226 55.4354 43.4143 55.6502Z" fill="#FFD700"/>
</svg>
